%TF.GenerationSoftware,KiCad,Pcbnew,7.0.11-7.0.11~ubuntu22.04.1*%
%TF.CreationDate,2024-06-25T15:30:44+02:00*%
%TF.ProjectId,S3-silicon-Sharp-Touch,53332d73-696c-4696-936f-6e2d53686172,rev?*%
%TF.SameCoordinates,Original*%
%TF.FileFunction,Drillmap*%
%TF.FilePolarity,Positive*%
%FSLAX45Y45*%
G04 Gerber Fmt 4.5, Leading zero omitted, Abs format (unit mm)*
G04 Created by KiCad (PCBNEW 7.0.11-7.0.11~ubuntu22.04.1) date 2024-06-25 15:30:44*
%MOMM*%
%LPD*%
G01*
G04 APERTURE LIST*
%ADD10C,0.100000*%
%ADD11C,0.200000*%
G04 APERTURE END LIST*
D10*
X10750000Y-4900000D02*
X10004000Y-4900000D01*
X2765000Y-3150000D02*
X10750000Y-3150000D01*
X7242000Y-7615000D02*
X10750000Y-7615000D01*
X2765000Y-3150000D02*
X2765000Y-7585287D01*
X10750000Y-3150000D02*
X10750000Y-4900000D01*
X10004000Y-5835000D02*
X10004000Y-4900000D01*
X2764993Y-7585287D02*
G75*
G03*
X2795000Y-7615287I30007J7D01*
G01*
X6242000Y-7535787D02*
X7242000Y-7535787D01*
X6242000Y-7615000D02*
X6242000Y-7535787D01*
X10750000Y-5835000D02*
X10004000Y-5835000D01*
X2795000Y-7615000D02*
X6242000Y-7615000D01*
X7242000Y-7615000D02*
X7242000Y-7535787D01*
X10750000Y-5835000D02*
X10750000Y-7615000D01*
D11*
D10*
X3572109Y-5322109D02*
X3592109Y-5342109D01*
X3592109Y-5322109D02*
X3572109Y-5342109D01*
X3584000Y-4251000D02*
X3604000Y-4271000D01*
X3604000Y-4251000D02*
X3584000Y-4271000D01*
X3680000Y-4682000D02*
X3700000Y-4702000D01*
X3700000Y-4682000D02*
X3680000Y-4702000D01*
X6663000Y-5281000D02*
X6683000Y-5301000D01*
X6683000Y-5281000D02*
X6663000Y-5301000D01*
X6691000Y-4303000D02*
X6711000Y-4323000D01*
X6711000Y-4303000D02*
X6691000Y-4323000D01*
X6792000Y-5031000D02*
X6812000Y-5051000D01*
X6812000Y-5031000D02*
X6792000Y-5051000D01*
X7030825Y-4187175D02*
X7050825Y-4207175D01*
X7050825Y-4187175D02*
X7030825Y-4207175D01*
X7043666Y-4518999D02*
X7063666Y-4538999D01*
X7063666Y-4518999D02*
X7043666Y-4538999D01*
X7083909Y-4331391D02*
X7103909Y-4351391D01*
X7103909Y-4331391D02*
X7083909Y-4351391D01*
X7130609Y-4280391D02*
X7150609Y-4300391D01*
X7150609Y-4280391D02*
X7130609Y-4300391D01*
X7181796Y-4640161D02*
X7201796Y-4660161D01*
X7201796Y-4640161D02*
X7181796Y-4660161D01*
X7189000Y-4883000D02*
X7209000Y-4903000D01*
X7209000Y-4883000D02*
X7189000Y-4903000D01*
X7196000Y-4321000D02*
X7216000Y-4341000D01*
X7216000Y-4321000D02*
X7196000Y-4341000D01*
X7231699Y-4269912D02*
X7251699Y-4289912D01*
X7251699Y-4269912D02*
X7231699Y-4289912D01*
X7370000Y-4650000D02*
X7390000Y-4670000D01*
X7390000Y-4650000D02*
X7370000Y-4670000D01*
X7444000Y-4921000D02*
X7464000Y-4941000D01*
X7464000Y-4921000D02*
X7444000Y-4941000D01*
X7464000Y-4650000D02*
X7484000Y-4670000D01*
X7484000Y-4650000D02*
X7464000Y-4670000D01*
X7544000Y-3830000D02*
X7564000Y-3850000D01*
X7564000Y-3830000D02*
X7544000Y-3850000D01*
X7581227Y-4703338D02*
X7601227Y-4723338D01*
X7601227Y-4703338D02*
X7581227Y-4723338D01*
X7630000Y-4157000D02*
X7650000Y-4177000D01*
X7650000Y-4157000D02*
X7630000Y-4177000D01*
X7976000Y-3808000D02*
X7996000Y-3828000D01*
X7996000Y-3808000D02*
X7976000Y-3828000D01*
X8901000Y-3857000D02*
X8921000Y-3877000D01*
X8921000Y-3857000D02*
X8901000Y-3877000D01*
X3580000Y-6719500D02*
G75*
G03*
X3540000Y-6719500I-20000J0D01*
G01*
X3540000Y-6719500D02*
G75*
G03*
X3580000Y-6719500I20000J0D01*
G01*
X3814000Y-4504000D02*
G75*
G03*
X3774000Y-4504000I-20000J0D01*
G01*
X3774000Y-4504000D02*
G75*
G03*
X3814000Y-4504000I20000J0D01*
G01*
X4345000Y-6701500D02*
G75*
G03*
X4305000Y-6701500I-20000J0D01*
G01*
X4305000Y-6701500D02*
G75*
G03*
X4345000Y-6701500I20000J0D01*
G01*
X4460000Y-6069000D02*
G75*
G03*
X4420000Y-6069000I-20000J0D01*
G01*
X4420000Y-6069000D02*
G75*
G03*
X4460000Y-6069000I20000J0D01*
G01*
X4506000Y-5709000D02*
G75*
G03*
X4466000Y-5709000I-20000J0D01*
G01*
X4466000Y-5709000D02*
G75*
G03*
X4506000Y-5709000I20000J0D01*
G01*
X4632000Y-4579000D02*
G75*
G03*
X4592000Y-4579000I-20000J0D01*
G01*
X4592000Y-4579000D02*
G75*
G03*
X4632000Y-4579000I20000J0D01*
G01*
X4670000Y-4001000D02*
G75*
G03*
X4630000Y-4001000I-20000J0D01*
G01*
X4630000Y-4001000D02*
G75*
G03*
X4670000Y-4001000I20000J0D01*
G01*
X4731000Y-6435000D02*
G75*
G03*
X4691000Y-6435000I-20000J0D01*
G01*
X4691000Y-6435000D02*
G75*
G03*
X4731000Y-6435000I20000J0D01*
G01*
X4801000Y-5350000D02*
G75*
G03*
X4761000Y-5350000I-20000J0D01*
G01*
X4761000Y-5350000D02*
G75*
G03*
X4801000Y-5350000I20000J0D01*
G01*
X4880924Y-4277081D02*
G75*
G03*
X4840924Y-4277081I-20000J0D01*
G01*
X4840924Y-4277081D02*
G75*
G03*
X4880924Y-4277081I20000J0D01*
G01*
X4920000Y-4419000D02*
G75*
G03*
X4880000Y-4419000I-20000J0D01*
G01*
X4880000Y-4419000D02*
G75*
G03*
X4920000Y-4419000I20000J0D01*
G01*
X5075000Y-5860000D02*
G75*
G03*
X5035000Y-5860000I-20000J0D01*
G01*
X5035000Y-5860000D02*
G75*
G03*
X5075000Y-5860000I20000J0D01*
G01*
X5135407Y-4487550D02*
G75*
G03*
X5095407Y-4487550I-20000J0D01*
G01*
X5095407Y-4487550D02*
G75*
G03*
X5135407Y-4487550I20000J0D01*
G01*
X5169000Y-5352000D02*
G75*
G03*
X5129000Y-5352000I-20000J0D01*
G01*
X5129000Y-5352000D02*
G75*
G03*
X5169000Y-5352000I20000J0D01*
G01*
X5223000Y-4776000D02*
G75*
G03*
X5183000Y-4776000I-20000J0D01*
G01*
X5183000Y-4776000D02*
G75*
G03*
X5223000Y-4776000I20000J0D01*
G01*
X5225000Y-6015000D02*
G75*
G03*
X5185000Y-6015000I-20000J0D01*
G01*
X5185000Y-6015000D02*
G75*
G03*
X5225000Y-6015000I20000J0D01*
G01*
X5244000Y-4526000D02*
G75*
G03*
X5204000Y-4526000I-20000J0D01*
G01*
X5204000Y-4526000D02*
G75*
G03*
X5244000Y-4526000I20000J0D01*
G01*
X5252000Y-3980000D02*
G75*
G03*
X5212000Y-3980000I-20000J0D01*
G01*
X5212000Y-3980000D02*
G75*
G03*
X5252000Y-3980000I20000J0D01*
G01*
X5327000Y-4450000D02*
G75*
G03*
X5287000Y-4450000I-20000J0D01*
G01*
X5287000Y-4450000D02*
G75*
G03*
X5327000Y-4450000I20000J0D01*
G01*
X5510000Y-4647000D02*
G75*
G03*
X5470000Y-4647000I-20000J0D01*
G01*
X5470000Y-4647000D02*
G75*
G03*
X5510000Y-4647000I20000J0D01*
G01*
X5547000Y-5061000D02*
G75*
G03*
X5507000Y-5061000I-20000J0D01*
G01*
X5507000Y-5061000D02*
G75*
G03*
X5547000Y-5061000I20000J0D01*
G01*
X5575000Y-7474000D02*
G75*
G03*
X5535000Y-7474000I-20000J0D01*
G01*
X5535000Y-7474000D02*
G75*
G03*
X5575000Y-7474000I20000J0D01*
G01*
X5579000Y-7354000D02*
G75*
G03*
X5539000Y-7354000I-20000J0D01*
G01*
X5539000Y-7354000D02*
G75*
G03*
X5579000Y-7354000I20000J0D01*
G01*
X5680728Y-4767272D02*
G75*
G03*
X5640728Y-4767272I-20000J0D01*
G01*
X5640728Y-4767272D02*
G75*
G03*
X5680728Y-4767272I20000J0D01*
G01*
X5856000Y-3977000D02*
G75*
G03*
X5816000Y-3977000I-20000J0D01*
G01*
X5816000Y-3977000D02*
G75*
G03*
X5856000Y-3977000I20000J0D01*
G01*
X5873000Y-3894000D02*
G75*
G03*
X5833000Y-3894000I-20000J0D01*
G01*
X5833000Y-3894000D02*
G75*
G03*
X5873000Y-3894000I20000J0D01*
G01*
X5910000Y-5045000D02*
G75*
G03*
X5870000Y-5045000I-20000J0D01*
G01*
X5870000Y-5045000D02*
G75*
G03*
X5910000Y-5045000I20000J0D01*
G01*
X5918000Y-4033000D02*
G75*
G03*
X5878000Y-4033000I-20000J0D01*
G01*
X5878000Y-4033000D02*
G75*
G03*
X5918000Y-4033000I20000J0D01*
G01*
X5982320Y-4137996D02*
G75*
G03*
X5942320Y-4137996I-20000J0D01*
G01*
X5942320Y-4137996D02*
G75*
G03*
X5982320Y-4137996I20000J0D01*
G01*
X6059186Y-4174281D02*
G75*
G03*
X6019186Y-4174281I-20000J0D01*
G01*
X6019186Y-4174281D02*
G75*
G03*
X6059186Y-4174281I20000J0D01*
G01*
X6300000Y-4166000D02*
G75*
G03*
X6260000Y-4166000I-20000J0D01*
G01*
X6260000Y-4166000D02*
G75*
G03*
X6300000Y-4166000I20000J0D01*
G01*
X6339000Y-5670000D02*
G75*
G03*
X6299000Y-5670000I-20000J0D01*
G01*
X6299000Y-5670000D02*
G75*
G03*
X6339000Y-5670000I20000J0D01*
G01*
X6372533Y-5155467D02*
G75*
G03*
X6332533Y-5155467I-20000J0D01*
G01*
X6332533Y-5155467D02*
G75*
G03*
X6372533Y-5155467I20000J0D01*
G01*
X6530493Y-5735526D02*
G75*
G03*
X6490493Y-5735526I-20000J0D01*
G01*
X6490493Y-5735526D02*
G75*
G03*
X6530493Y-5735526I20000J0D01*
G01*
X6601000Y-5783000D02*
G75*
G03*
X6561000Y-5783000I-20000J0D01*
G01*
X6561000Y-5783000D02*
G75*
G03*
X6601000Y-5783000I20000J0D01*
G01*
X6682500Y-5406500D02*
G75*
G03*
X6642500Y-5406500I-20000J0D01*
G01*
X6642500Y-5406500D02*
G75*
G03*
X6682500Y-5406500I20000J0D01*
G01*
X6716000Y-5757000D02*
G75*
G03*
X6676000Y-5757000I-20000J0D01*
G01*
X6676000Y-5757000D02*
G75*
G03*
X6716000Y-5757000I20000J0D01*
G01*
X6801000Y-5946000D02*
G75*
G03*
X6761000Y-5946000I-20000J0D01*
G01*
X6761000Y-5946000D02*
G75*
G03*
X6801000Y-5946000I20000J0D01*
G01*
X6822000Y-5736000D02*
G75*
G03*
X6782000Y-5736000I-20000J0D01*
G01*
X6782000Y-5736000D02*
G75*
G03*
X6822000Y-5736000I20000J0D01*
G01*
X6903000Y-5960000D02*
G75*
G03*
X6863000Y-5960000I-20000J0D01*
G01*
X6863000Y-5960000D02*
G75*
G03*
X6903000Y-5960000I20000J0D01*
G01*
X6932440Y-4879000D02*
G75*
G03*
X6892440Y-4879000I-20000J0D01*
G01*
X6892440Y-4879000D02*
G75*
G03*
X6932440Y-4879000I20000J0D01*
G01*
X6974000Y-6190000D02*
G75*
G03*
X6934000Y-6190000I-20000J0D01*
G01*
X6934000Y-6190000D02*
G75*
G03*
X6974000Y-6190000I20000J0D01*
G01*
X7118000Y-5646000D02*
G75*
G03*
X7078000Y-5646000I-20000J0D01*
G01*
X7078000Y-5646000D02*
G75*
G03*
X7118000Y-5646000I20000J0D01*
G01*
X7160000Y-3757000D02*
G75*
G03*
X7120000Y-3757000I-20000J0D01*
G01*
X7120000Y-3757000D02*
G75*
G03*
X7160000Y-3757000I20000J0D01*
G01*
X7307000Y-5795000D02*
G75*
G03*
X7267000Y-5795000I-20000J0D01*
G01*
X7267000Y-5795000D02*
G75*
G03*
X7307000Y-5795000I20000J0D01*
G01*
X7312000Y-5334500D02*
G75*
G03*
X7272000Y-5334500I-20000J0D01*
G01*
X7272000Y-5334500D02*
G75*
G03*
X7312000Y-5334500I20000J0D01*
G01*
X7353000Y-4256000D02*
G75*
G03*
X7313000Y-4256000I-20000J0D01*
G01*
X7313000Y-4256000D02*
G75*
G03*
X7353000Y-4256000I20000J0D01*
G01*
X7420000Y-4992500D02*
G75*
G03*
X7380000Y-4992500I-20000J0D01*
G01*
X7380000Y-4992500D02*
G75*
G03*
X7420000Y-4992500I20000J0D01*
G01*
X7473506Y-4792494D02*
G75*
G03*
X7433506Y-4792494I-20000J0D01*
G01*
X7433506Y-4792494D02*
G75*
G03*
X7473506Y-4792494I20000J0D01*
G01*
X7493179Y-4867321D02*
G75*
G03*
X7453179Y-4867321I-20000J0D01*
G01*
X7453179Y-4867321D02*
G75*
G03*
X7493179Y-4867321I20000J0D01*
G01*
X7536691Y-4721665D02*
G75*
G03*
X7496691Y-4721665I-20000J0D01*
G01*
X7496691Y-4721665D02*
G75*
G03*
X7536691Y-4721665I20000J0D01*
G01*
X7588000Y-4099000D02*
G75*
G03*
X7548000Y-4099000I-20000J0D01*
G01*
X7548000Y-4099000D02*
G75*
G03*
X7588000Y-4099000I20000J0D01*
G01*
X7660000Y-5253000D02*
G75*
G03*
X7620000Y-5253000I-20000J0D01*
G01*
X7620000Y-5253000D02*
G75*
G03*
X7660000Y-5253000I20000J0D01*
G01*
X7744667Y-5253000D02*
G75*
G03*
X7704667Y-5253000I-20000J0D01*
G01*
X7704667Y-5253000D02*
G75*
G03*
X7744667Y-5253000I20000J0D01*
G01*
X7756000Y-4430000D02*
G75*
G03*
X7716000Y-4430000I-20000J0D01*
G01*
X7716000Y-4430000D02*
G75*
G03*
X7756000Y-4430000I20000J0D01*
G01*
X7779000Y-4975000D02*
G75*
G03*
X7739000Y-4975000I-20000J0D01*
G01*
X7739000Y-4975000D02*
G75*
G03*
X7779000Y-4975000I20000J0D01*
G01*
X7869500Y-4975000D02*
G75*
G03*
X7829500Y-4975000I-20000J0D01*
G01*
X7829500Y-4975000D02*
G75*
G03*
X7869500Y-4975000I20000J0D01*
G01*
X7914000Y-5253000D02*
G75*
G03*
X7874000Y-5253000I-20000J0D01*
G01*
X7874000Y-5253000D02*
G75*
G03*
X7914000Y-5253000I20000J0D01*
G01*
X7950000Y-4974000D02*
G75*
G03*
X7910000Y-4974000I-20000J0D01*
G01*
X7910000Y-4974000D02*
G75*
G03*
X7950000Y-4974000I20000J0D01*
G01*
X8028000Y-4849000D02*
G75*
G03*
X7988000Y-4849000I-20000J0D01*
G01*
X7988000Y-4849000D02*
G75*
G03*
X8028000Y-4849000I20000J0D01*
G01*
X8028000Y-4948000D02*
G75*
G03*
X7988000Y-4948000I-20000J0D01*
G01*
X7988000Y-4948000D02*
G75*
G03*
X8028000Y-4948000I20000J0D01*
G01*
X8102287Y-4423505D02*
G75*
G03*
X8062287Y-4423505I-20000J0D01*
G01*
X8062287Y-4423505D02*
G75*
G03*
X8102287Y-4423505I20000J0D01*
G01*
X8113000Y-4847000D02*
G75*
G03*
X8073000Y-4847000I-20000J0D01*
G01*
X8073000Y-4847000D02*
G75*
G03*
X8113000Y-4847000I20000J0D01*
G01*
X8172000Y-4297375D02*
G75*
G03*
X8132000Y-4297375I-20000J0D01*
G01*
X8132000Y-4297375D02*
G75*
G03*
X8172000Y-4297375I20000J0D01*
G01*
X8172646Y-4367288D02*
G75*
G03*
X8132646Y-4367288I-20000J0D01*
G01*
X8132646Y-4367288D02*
G75*
G03*
X8172646Y-4367288I20000J0D01*
G01*
X8176000Y-4732000D02*
G75*
G03*
X8136000Y-4732000I-20000J0D01*
G01*
X8136000Y-4732000D02*
G75*
G03*
X8176000Y-4732000I20000J0D01*
G01*
X8176000Y-5354090D02*
G75*
G03*
X8136000Y-5354090I-20000J0D01*
G01*
X8136000Y-5354090D02*
G75*
G03*
X8176000Y-5354090I20000J0D01*
G01*
X8176000Y-5472727D02*
G75*
G03*
X8136000Y-5472727I-20000J0D01*
G01*
X8136000Y-5472727D02*
G75*
G03*
X8176000Y-5472727I20000J0D01*
G01*
X8176000Y-5591363D02*
G75*
G03*
X8136000Y-5591363I-20000J0D01*
G01*
X8136000Y-5591363D02*
G75*
G03*
X8176000Y-5591363I20000J0D01*
G01*
X8176000Y-5710000D02*
G75*
G03*
X8136000Y-5710000I-20000J0D01*
G01*
X8136000Y-5710000D02*
G75*
G03*
X8176000Y-5710000I20000J0D01*
G01*
X8178000Y-4620000D02*
G75*
G03*
X8138000Y-4620000I-20000J0D01*
G01*
X8138000Y-4620000D02*
G75*
G03*
X8178000Y-4620000I20000J0D01*
G01*
X8181000Y-4195000D02*
G75*
G03*
X8141000Y-4195000I-20000J0D01*
G01*
X8141000Y-4195000D02*
G75*
G03*
X8181000Y-4195000I20000J0D01*
G01*
X8203000Y-4056000D02*
G75*
G03*
X8163000Y-4056000I-20000J0D01*
G01*
X8163000Y-4056000D02*
G75*
G03*
X8203000Y-4056000I20000J0D01*
G01*
X8242000Y-3989000D02*
G75*
G03*
X8202000Y-3989000I-20000J0D01*
G01*
X8202000Y-3989000D02*
G75*
G03*
X8242000Y-3989000I20000J0D01*
G01*
X8295000Y-3765000D02*
G75*
G03*
X8255000Y-3765000I-20000J0D01*
G01*
X8255000Y-3765000D02*
G75*
G03*
X8295000Y-3765000I20000J0D01*
G01*
X8327600Y-4732000D02*
G75*
G03*
X8287600Y-4732000I-20000J0D01*
G01*
X8287600Y-4732000D02*
G75*
G03*
X8327600Y-4732000I20000J0D01*
G01*
X8329467Y-4620000D02*
G75*
G03*
X8289467Y-4620000I-20000J0D01*
G01*
X8289467Y-4620000D02*
G75*
G03*
X8329467Y-4620000I20000J0D01*
G01*
X8425000Y-3960000D02*
G75*
G03*
X8385000Y-3960000I-20000J0D01*
G01*
X8385000Y-3960000D02*
G75*
G03*
X8425000Y-3960000I20000J0D01*
G01*
X8462000Y-3891000D02*
G75*
G03*
X8422000Y-3891000I-20000J0D01*
G01*
X8422000Y-3891000D02*
G75*
G03*
X8462000Y-3891000I20000J0D01*
G01*
X8479200Y-4732000D02*
G75*
G03*
X8439200Y-4732000I-20000J0D01*
G01*
X8439200Y-4732000D02*
G75*
G03*
X8479200Y-4732000I20000J0D01*
G01*
X8480933Y-4620000D02*
G75*
G03*
X8440933Y-4620000I-20000J0D01*
G01*
X8440933Y-4620000D02*
G75*
G03*
X8480933Y-4620000I20000J0D01*
G01*
X8630800Y-4732000D02*
G75*
G03*
X8590800Y-4732000I-20000J0D01*
G01*
X8590800Y-4732000D02*
G75*
G03*
X8630800Y-4732000I20000J0D01*
G01*
X8632400Y-4620000D02*
G75*
G03*
X8592400Y-4620000I-20000J0D01*
G01*
X8592400Y-4620000D02*
G75*
G03*
X8632400Y-4620000I20000J0D01*
G01*
X8782400Y-4732000D02*
G75*
G03*
X8742400Y-4732000I-20000J0D01*
G01*
X8742400Y-4732000D02*
G75*
G03*
X8782400Y-4732000I20000J0D01*
G01*
X8783866Y-4620000D02*
G75*
G03*
X8743866Y-4620000I-20000J0D01*
G01*
X8743866Y-4620000D02*
G75*
G03*
X8783866Y-4620000I20000J0D01*
G01*
X8856000Y-7239000D02*
G75*
G03*
X8816000Y-7239000I-20000J0D01*
G01*
X8816000Y-7239000D02*
G75*
G03*
X8856000Y-7239000I20000J0D01*
G01*
X8931000Y-3564000D02*
G75*
G03*
X8891000Y-3564000I-20000J0D01*
G01*
X8891000Y-3564000D02*
G75*
G03*
X8931000Y-3564000I20000J0D01*
G01*
X8934000Y-4732000D02*
G75*
G03*
X8894000Y-4732000I-20000J0D01*
G01*
X8894000Y-4732000D02*
G75*
G03*
X8934000Y-4732000I20000J0D01*
G01*
X8935333Y-4620000D02*
G75*
G03*
X8895333Y-4620000I-20000J0D01*
G01*
X8895333Y-4620000D02*
G75*
G03*
X8935333Y-4620000I20000J0D01*
G01*
X9037000Y-3957000D02*
G75*
G03*
X8997000Y-3957000I-20000J0D01*
G01*
X8997000Y-3957000D02*
G75*
G03*
X9037000Y-3957000I20000J0D01*
G01*
X9085600Y-4732000D02*
G75*
G03*
X9045600Y-4732000I-20000J0D01*
G01*
X9045600Y-4732000D02*
G75*
G03*
X9085600Y-4732000I20000J0D01*
G01*
X9086800Y-4620000D02*
G75*
G03*
X9046800Y-4620000I-20000J0D01*
G01*
X9046800Y-4620000D02*
G75*
G03*
X9086800Y-4620000I20000J0D01*
G01*
X9237200Y-4732000D02*
G75*
G03*
X9197200Y-4732000I-20000J0D01*
G01*
X9197200Y-4732000D02*
G75*
G03*
X9237200Y-4732000I20000J0D01*
G01*
X9238266Y-4620000D02*
G75*
G03*
X9198266Y-4620000I-20000J0D01*
G01*
X9198266Y-4620000D02*
G75*
G03*
X9238266Y-4620000I20000J0D01*
G01*
X9388800Y-4732000D02*
G75*
G03*
X9348800Y-4732000I-20000J0D01*
G01*
X9348800Y-4732000D02*
G75*
G03*
X9388800Y-4732000I20000J0D01*
G01*
X9389733Y-4620000D02*
G75*
G03*
X9349733Y-4620000I-20000J0D01*
G01*
X9349733Y-4620000D02*
G75*
G03*
X9389733Y-4620000I20000J0D01*
G01*
X9540400Y-4732000D02*
G75*
G03*
X9500400Y-4732000I-20000J0D01*
G01*
X9500400Y-4732000D02*
G75*
G03*
X9540400Y-4732000I20000J0D01*
G01*
X9541199Y-4620000D02*
G75*
G03*
X9501199Y-4620000I-20000J0D01*
G01*
X9501199Y-4620000D02*
G75*
G03*
X9541199Y-4620000I20000J0D01*
G01*
X9692000Y-4732000D02*
G75*
G03*
X9652000Y-4732000I-20000J0D01*
G01*
X9652000Y-4732000D02*
G75*
G03*
X9692000Y-4732000I20000J0D01*
G01*
X9692666Y-4620000D02*
G75*
G03*
X9652666Y-4620000I-20000J0D01*
G01*
X9652666Y-4620000D02*
G75*
G03*
X9692666Y-4620000I20000J0D01*
G01*
X9843600Y-4732000D02*
G75*
G03*
X9803600Y-4732000I-20000J0D01*
G01*
X9803600Y-4732000D02*
G75*
G03*
X9843600Y-4732000I20000J0D01*
G01*
X9844133Y-4620000D02*
G75*
G03*
X9804133Y-4620000I-20000J0D01*
G01*
X9804133Y-4620000D02*
G75*
G03*
X9844133Y-4620000I20000J0D01*
G01*
X9952000Y-6883000D02*
G75*
G03*
X9912000Y-6883000I-20000J0D01*
G01*
X9912000Y-6883000D02*
G75*
G03*
X9952000Y-6883000I20000J0D01*
G01*
X9995200Y-4732000D02*
G75*
G03*
X9955200Y-4732000I-20000J0D01*
G01*
X9955200Y-4732000D02*
G75*
G03*
X9995200Y-4732000I20000J0D01*
G01*
X9995599Y-4620000D02*
G75*
G03*
X9955599Y-4620000I-20000J0D01*
G01*
X9955599Y-4620000D02*
G75*
G03*
X9995599Y-4620000I20000J0D01*
G01*
X10146800Y-4732000D02*
G75*
G03*
X10106800Y-4732000I-20000J0D01*
G01*
X10106800Y-4732000D02*
G75*
G03*
X10146800Y-4732000I20000J0D01*
G01*
X10147066Y-4620000D02*
G75*
G03*
X10107066Y-4620000I-20000J0D01*
G01*
X10107066Y-4620000D02*
G75*
G03*
X10147066Y-4620000I20000J0D01*
G01*
X10298400Y-4732000D02*
G75*
G03*
X10258400Y-4732000I-20000J0D01*
G01*
X10258400Y-4732000D02*
G75*
G03*
X10298400Y-4732000I20000J0D01*
G01*
X10298532Y-4620000D02*
G75*
G03*
X10258532Y-4620000I-20000J0D01*
G01*
X10258532Y-4620000D02*
G75*
G03*
X10298532Y-4620000I20000J0D01*
G01*
X10450000Y-4620000D02*
G75*
G03*
X10410000Y-4620000I-20000J0D01*
G01*
X10410000Y-4620000D02*
G75*
G03*
X10450000Y-4620000I20000J0D01*
G01*
X10450000Y-4732000D02*
G75*
G03*
X10410000Y-4732000I-20000J0D01*
G01*
X10410000Y-4732000D02*
G75*
G03*
X10450000Y-4732000I20000J0D01*
G01*
X3507000Y-6878500D02*
X3507000Y-6938500D01*
X3477000Y-6908500D02*
X3537000Y-6908500D01*
X3477000Y-6853500D02*
X3477000Y-6963500D01*
X3477000Y-6963500D02*
G75*
G03*
X3537000Y-6963500I30000J0D01*
G01*
X3537000Y-6963500D02*
X3537000Y-6853500D01*
X3537000Y-6853500D02*
G75*
G03*
X3477000Y-6853500I-30000J0D01*
G01*
X3507000Y-7296500D02*
X3507000Y-7356500D01*
X3477000Y-7326500D02*
X3537000Y-7326500D01*
X3477000Y-7296500D02*
X3477000Y-7356500D01*
X3477000Y-7356500D02*
G75*
G03*
X3537000Y-7356500I30000J0D01*
G01*
X3537000Y-7356500D02*
X3537000Y-7296500D01*
X3537000Y-7296500D02*
G75*
G03*
X3477000Y-7296500I-30000J0D01*
G01*
X4371000Y-6878500D02*
X4371000Y-6938500D01*
X4341000Y-6908500D02*
X4401000Y-6908500D01*
X4341000Y-6853500D02*
X4341000Y-6963500D01*
X4341000Y-6963500D02*
G75*
G03*
X4401000Y-6963500I30000J0D01*
G01*
X4401000Y-6963500D02*
X4401000Y-6853500D01*
X4401000Y-6853500D02*
G75*
G03*
X4341000Y-6853500I-30000J0D01*
G01*
X4371000Y-7296500D02*
X4371000Y-7356500D01*
X4341000Y-7326500D02*
X4401000Y-7326500D01*
X4341000Y-7296500D02*
X4341000Y-7356500D01*
X4341000Y-7356500D02*
G75*
G03*
X4401000Y-7356500I30000J0D01*
G01*
X4401000Y-7356500D02*
X4401000Y-7296500D01*
X4401000Y-7296500D02*
G75*
G03*
X4341000Y-7296500I-30000J0D01*
G01*
X3050356Y-4219356D02*
X3050356Y-4148644D01*
X2979644Y-4148644D01*
X2979644Y-4219356D01*
X3050356Y-4219356D01*
X3050356Y-4473356D02*
X3050356Y-4402644D01*
X2979644Y-4402644D01*
X2979644Y-4473356D01*
X3050356Y-4473356D01*
X3050356Y-4727356D02*
X3050356Y-4656644D01*
X2979644Y-4656644D01*
X2979644Y-4727356D01*
X3050356Y-4727356D01*
X3050356Y-4981356D02*
X3050356Y-4910644D01*
X2979644Y-4910644D01*
X2979644Y-4981356D01*
X3050356Y-4981356D01*
X3050356Y-5235356D02*
X3050356Y-5164644D01*
X2979644Y-5164644D01*
X2979644Y-5235356D01*
X3050356Y-5235356D01*
X3050356Y-5489356D02*
X3050356Y-5418644D01*
X2979644Y-5418644D01*
X2979644Y-5489356D01*
X3050356Y-5489356D01*
X3775356Y-3448356D02*
X3775356Y-3377644D01*
X3704644Y-3377644D01*
X3704644Y-3448356D01*
X3775356Y-3448356D01*
X4029356Y-3448356D02*
X4029356Y-3377644D01*
X3958644Y-3377644D01*
X3958644Y-3448356D01*
X4029356Y-3448356D01*
X4283356Y-3448356D02*
X4283356Y-3377644D01*
X4212644Y-3377644D01*
X4212644Y-3448356D01*
X4283356Y-3448356D01*
X4537356Y-3448356D02*
X4537356Y-3377644D01*
X4466644Y-3377644D01*
X4466644Y-3448356D01*
X4537356Y-3448356D01*
X4791356Y-3448356D02*
X4791356Y-3377644D01*
X4720644Y-3377644D01*
X4720644Y-3448356D01*
X4791356Y-3448356D01*
X5045356Y-3448356D02*
X5045356Y-3377644D01*
X4974644Y-3377644D01*
X4974644Y-3448356D01*
X5045356Y-3448356D01*
X5299356Y-3448356D02*
X5299356Y-3377644D01*
X5228644Y-3377644D01*
X5228644Y-3448356D01*
X5299356Y-3448356D01*
X5553356Y-3448356D02*
X5553356Y-3377644D01*
X5482644Y-3377644D01*
X5482644Y-3448356D01*
X5553356Y-3448356D01*
X5807356Y-3448356D02*
X5807356Y-3377644D01*
X5736644Y-3377644D01*
X5736644Y-3448356D01*
X5807356Y-3448356D01*
X6061356Y-3448356D02*
X6061356Y-3377644D01*
X5990644Y-3377644D01*
X5990644Y-3448356D01*
X6061356Y-3448356D01*
X6315356Y-3448356D02*
X6315356Y-3377644D01*
X6244644Y-3377644D01*
X6244644Y-3448356D01*
X6315356Y-3448356D01*
D11*
X3020777Y-7931771D02*
X3020777Y-7731771D01*
X3020777Y-7731771D02*
X3068396Y-7731771D01*
X3068396Y-7731771D02*
X3096967Y-7741294D01*
X3096967Y-7741294D02*
X3116015Y-7760342D01*
X3116015Y-7760342D02*
X3125539Y-7779390D01*
X3125539Y-7779390D02*
X3135062Y-7817485D01*
X3135062Y-7817485D02*
X3135062Y-7846056D01*
X3135062Y-7846056D02*
X3125539Y-7884151D01*
X3125539Y-7884151D02*
X3116015Y-7903199D01*
X3116015Y-7903199D02*
X3096967Y-7922247D01*
X3096967Y-7922247D02*
X3068396Y-7931771D01*
X3068396Y-7931771D02*
X3020777Y-7931771D01*
X3220777Y-7931771D02*
X3220777Y-7798437D01*
X3220777Y-7836532D02*
X3230301Y-7817485D01*
X3230301Y-7817485D02*
X3239824Y-7807961D01*
X3239824Y-7807961D02*
X3258872Y-7798437D01*
X3258872Y-7798437D02*
X3277920Y-7798437D01*
X3344586Y-7931771D02*
X3344586Y-7798437D01*
X3344586Y-7731771D02*
X3335062Y-7741294D01*
X3335062Y-7741294D02*
X3344586Y-7750818D01*
X3344586Y-7750818D02*
X3354110Y-7741294D01*
X3354110Y-7741294D02*
X3344586Y-7731771D01*
X3344586Y-7731771D02*
X3344586Y-7750818D01*
X3468396Y-7931771D02*
X3449348Y-7922247D01*
X3449348Y-7922247D02*
X3439824Y-7903199D01*
X3439824Y-7903199D02*
X3439824Y-7731771D01*
X3573158Y-7931771D02*
X3554110Y-7922247D01*
X3554110Y-7922247D02*
X3544586Y-7903199D01*
X3544586Y-7903199D02*
X3544586Y-7731771D01*
X3801729Y-7931771D02*
X3801729Y-7731771D01*
X3801729Y-7731771D02*
X3868396Y-7874628D01*
X3868396Y-7874628D02*
X3935062Y-7731771D01*
X3935062Y-7731771D02*
X3935062Y-7931771D01*
X4116015Y-7931771D02*
X4116015Y-7827009D01*
X4116015Y-7827009D02*
X4106491Y-7807961D01*
X4106491Y-7807961D02*
X4087443Y-7798437D01*
X4087443Y-7798437D02*
X4049348Y-7798437D01*
X4049348Y-7798437D02*
X4030301Y-7807961D01*
X4116015Y-7922247D02*
X4096967Y-7931771D01*
X4096967Y-7931771D02*
X4049348Y-7931771D01*
X4049348Y-7931771D02*
X4030301Y-7922247D01*
X4030301Y-7922247D02*
X4020777Y-7903199D01*
X4020777Y-7903199D02*
X4020777Y-7884151D01*
X4020777Y-7884151D02*
X4030301Y-7865104D01*
X4030301Y-7865104D02*
X4049348Y-7855580D01*
X4049348Y-7855580D02*
X4096967Y-7855580D01*
X4096967Y-7855580D02*
X4116015Y-7846056D01*
X4211253Y-7798437D02*
X4211253Y-7998437D01*
X4211253Y-7807961D02*
X4230301Y-7798437D01*
X4230301Y-7798437D02*
X4268396Y-7798437D01*
X4268396Y-7798437D02*
X4287444Y-7807961D01*
X4287444Y-7807961D02*
X4296967Y-7817485D01*
X4296967Y-7817485D02*
X4306491Y-7836532D01*
X4306491Y-7836532D02*
X4306491Y-7893675D01*
X4306491Y-7893675D02*
X4296967Y-7912723D01*
X4296967Y-7912723D02*
X4287444Y-7922247D01*
X4287444Y-7922247D02*
X4268396Y-7931771D01*
X4268396Y-7931771D02*
X4230301Y-7931771D01*
X4230301Y-7931771D02*
X4211253Y-7922247D01*
X4392205Y-7912723D02*
X4401729Y-7922247D01*
X4401729Y-7922247D02*
X4392205Y-7931771D01*
X4392205Y-7931771D02*
X4382682Y-7922247D01*
X4382682Y-7922247D02*
X4392205Y-7912723D01*
X4392205Y-7912723D02*
X4392205Y-7931771D01*
X4392205Y-7807961D02*
X4401729Y-7817485D01*
X4401729Y-7817485D02*
X4392205Y-7827009D01*
X4392205Y-7827009D02*
X4382682Y-7817485D01*
X4382682Y-7817485D02*
X4392205Y-7807961D01*
X4392205Y-7807961D02*
X4392205Y-7827009D01*
D10*
X2740000Y-8250287D02*
X2760000Y-8270287D01*
X2760000Y-8250287D02*
X2740000Y-8270287D01*
D11*
X3058872Y-8151771D02*
X3077920Y-8151771D01*
X3077920Y-8151771D02*
X3096967Y-8161294D01*
X3096967Y-8161294D02*
X3106491Y-8170818D01*
X3106491Y-8170818D02*
X3116015Y-8189866D01*
X3116015Y-8189866D02*
X3125539Y-8227961D01*
X3125539Y-8227961D02*
X3125539Y-8275580D01*
X3125539Y-8275580D02*
X3116015Y-8313675D01*
X3116015Y-8313675D02*
X3106491Y-8332723D01*
X3106491Y-8332723D02*
X3096967Y-8342247D01*
X3096967Y-8342247D02*
X3077920Y-8351771D01*
X3077920Y-8351771D02*
X3058872Y-8351771D01*
X3058872Y-8351771D02*
X3039824Y-8342247D01*
X3039824Y-8342247D02*
X3030301Y-8332723D01*
X3030301Y-8332723D02*
X3020777Y-8313675D01*
X3020777Y-8313675D02*
X3011253Y-8275580D01*
X3011253Y-8275580D02*
X3011253Y-8227961D01*
X3011253Y-8227961D02*
X3020777Y-8189866D01*
X3020777Y-8189866D02*
X3030301Y-8170818D01*
X3030301Y-8170818D02*
X3039824Y-8161294D01*
X3039824Y-8161294D02*
X3058872Y-8151771D01*
X3211253Y-8332723D02*
X3220777Y-8342247D01*
X3220777Y-8342247D02*
X3211253Y-8351771D01*
X3211253Y-8351771D02*
X3201729Y-8342247D01*
X3201729Y-8342247D02*
X3211253Y-8332723D01*
X3211253Y-8332723D02*
X3211253Y-8351771D01*
X3296967Y-8170818D02*
X3306491Y-8161294D01*
X3306491Y-8161294D02*
X3325539Y-8151771D01*
X3325539Y-8151771D02*
X3373158Y-8151771D01*
X3373158Y-8151771D02*
X3392205Y-8161294D01*
X3392205Y-8161294D02*
X3401729Y-8170818D01*
X3401729Y-8170818D02*
X3411253Y-8189866D01*
X3411253Y-8189866D02*
X3411253Y-8208913D01*
X3411253Y-8208913D02*
X3401729Y-8237485D01*
X3401729Y-8237485D02*
X3287443Y-8351771D01*
X3287443Y-8351771D02*
X3411253Y-8351771D01*
X3535062Y-8151771D02*
X3554110Y-8151771D01*
X3554110Y-8151771D02*
X3573158Y-8161294D01*
X3573158Y-8161294D02*
X3582682Y-8170818D01*
X3582682Y-8170818D02*
X3592205Y-8189866D01*
X3592205Y-8189866D02*
X3601729Y-8227961D01*
X3601729Y-8227961D02*
X3601729Y-8275580D01*
X3601729Y-8275580D02*
X3592205Y-8313675D01*
X3592205Y-8313675D02*
X3582682Y-8332723D01*
X3582682Y-8332723D02*
X3573158Y-8342247D01*
X3573158Y-8342247D02*
X3554110Y-8351771D01*
X3554110Y-8351771D02*
X3535062Y-8351771D01*
X3535062Y-8351771D02*
X3516015Y-8342247D01*
X3516015Y-8342247D02*
X3506491Y-8332723D01*
X3506491Y-8332723D02*
X3496967Y-8313675D01*
X3496967Y-8313675D02*
X3487443Y-8275580D01*
X3487443Y-8275580D02*
X3487443Y-8227961D01*
X3487443Y-8227961D02*
X3496967Y-8189866D01*
X3496967Y-8189866D02*
X3506491Y-8170818D01*
X3506491Y-8170818D02*
X3516015Y-8161294D01*
X3516015Y-8161294D02*
X3535062Y-8151771D01*
X3725539Y-8151771D02*
X3744586Y-8151771D01*
X3744586Y-8151771D02*
X3763634Y-8161294D01*
X3763634Y-8161294D02*
X3773158Y-8170818D01*
X3773158Y-8170818D02*
X3782682Y-8189866D01*
X3782682Y-8189866D02*
X3792205Y-8227961D01*
X3792205Y-8227961D02*
X3792205Y-8275580D01*
X3792205Y-8275580D02*
X3782682Y-8313675D01*
X3782682Y-8313675D02*
X3773158Y-8332723D01*
X3773158Y-8332723D02*
X3763634Y-8342247D01*
X3763634Y-8342247D02*
X3744586Y-8351771D01*
X3744586Y-8351771D02*
X3725539Y-8351771D01*
X3725539Y-8351771D02*
X3706491Y-8342247D01*
X3706491Y-8342247D02*
X3696967Y-8332723D01*
X3696967Y-8332723D02*
X3687443Y-8313675D01*
X3687443Y-8313675D02*
X3677920Y-8275580D01*
X3677920Y-8275580D02*
X3677920Y-8227961D01*
X3677920Y-8227961D02*
X3687443Y-8189866D01*
X3687443Y-8189866D02*
X3696967Y-8170818D01*
X3696967Y-8170818D02*
X3706491Y-8161294D01*
X3706491Y-8161294D02*
X3725539Y-8151771D01*
X3877920Y-8351771D02*
X3877920Y-8218437D01*
X3877920Y-8237485D02*
X3887443Y-8227961D01*
X3887443Y-8227961D02*
X3906491Y-8218437D01*
X3906491Y-8218437D02*
X3935063Y-8218437D01*
X3935063Y-8218437D02*
X3954110Y-8227961D01*
X3954110Y-8227961D02*
X3963634Y-8247009D01*
X3963634Y-8247009D02*
X3963634Y-8351771D01*
X3963634Y-8247009D02*
X3973158Y-8227961D01*
X3973158Y-8227961D02*
X3992205Y-8218437D01*
X3992205Y-8218437D02*
X4020777Y-8218437D01*
X4020777Y-8218437D02*
X4039824Y-8227961D01*
X4039824Y-8227961D02*
X4049348Y-8247009D01*
X4049348Y-8247009D02*
X4049348Y-8351771D01*
X4144586Y-8351771D02*
X4144586Y-8218437D01*
X4144586Y-8237485D02*
X4154110Y-8227961D01*
X4154110Y-8227961D02*
X4173158Y-8218437D01*
X4173158Y-8218437D02*
X4201729Y-8218437D01*
X4201729Y-8218437D02*
X4220777Y-8227961D01*
X4220777Y-8227961D02*
X4230301Y-8247009D01*
X4230301Y-8247009D02*
X4230301Y-8351771D01*
X4230301Y-8247009D02*
X4239825Y-8227961D01*
X4239825Y-8227961D02*
X4258872Y-8218437D01*
X4258872Y-8218437D02*
X4287444Y-8218437D01*
X4287444Y-8218437D02*
X4306491Y-8227961D01*
X4306491Y-8227961D02*
X4316015Y-8247009D01*
X4316015Y-8247009D02*
X4316015Y-8351771D01*
X4706491Y-8142247D02*
X4535063Y-8399390D01*
X4963634Y-8151771D02*
X4982682Y-8151771D01*
X4982682Y-8151771D02*
X5001729Y-8161294D01*
X5001729Y-8161294D02*
X5011253Y-8170818D01*
X5011253Y-8170818D02*
X5020777Y-8189866D01*
X5020777Y-8189866D02*
X5030301Y-8227961D01*
X5030301Y-8227961D02*
X5030301Y-8275580D01*
X5030301Y-8275580D02*
X5020777Y-8313675D01*
X5020777Y-8313675D02*
X5011253Y-8332723D01*
X5011253Y-8332723D02*
X5001729Y-8342247D01*
X5001729Y-8342247D02*
X4982682Y-8351771D01*
X4982682Y-8351771D02*
X4963634Y-8351771D01*
X4963634Y-8351771D02*
X4944587Y-8342247D01*
X4944587Y-8342247D02*
X4935063Y-8332723D01*
X4935063Y-8332723D02*
X4925539Y-8313675D01*
X4925539Y-8313675D02*
X4916015Y-8275580D01*
X4916015Y-8275580D02*
X4916015Y-8227961D01*
X4916015Y-8227961D02*
X4925539Y-8189866D01*
X4925539Y-8189866D02*
X4935063Y-8170818D01*
X4935063Y-8170818D02*
X4944587Y-8161294D01*
X4944587Y-8161294D02*
X4963634Y-8151771D01*
X5116015Y-8332723D02*
X5125539Y-8342247D01*
X5125539Y-8342247D02*
X5116015Y-8351771D01*
X5116015Y-8351771D02*
X5106491Y-8342247D01*
X5106491Y-8342247D02*
X5116015Y-8332723D01*
X5116015Y-8332723D02*
X5116015Y-8351771D01*
X5249348Y-8151771D02*
X5268396Y-8151771D01*
X5268396Y-8151771D02*
X5287444Y-8161294D01*
X5287444Y-8161294D02*
X5296968Y-8170818D01*
X5296968Y-8170818D02*
X5306491Y-8189866D01*
X5306491Y-8189866D02*
X5316015Y-8227961D01*
X5316015Y-8227961D02*
X5316015Y-8275580D01*
X5316015Y-8275580D02*
X5306491Y-8313675D01*
X5306491Y-8313675D02*
X5296968Y-8332723D01*
X5296968Y-8332723D02*
X5287444Y-8342247D01*
X5287444Y-8342247D02*
X5268396Y-8351771D01*
X5268396Y-8351771D02*
X5249348Y-8351771D01*
X5249348Y-8351771D02*
X5230301Y-8342247D01*
X5230301Y-8342247D02*
X5220777Y-8332723D01*
X5220777Y-8332723D02*
X5211253Y-8313675D01*
X5211253Y-8313675D02*
X5201729Y-8275580D01*
X5201729Y-8275580D02*
X5201729Y-8227961D01*
X5201729Y-8227961D02*
X5211253Y-8189866D01*
X5211253Y-8189866D02*
X5220777Y-8170818D01*
X5220777Y-8170818D02*
X5230301Y-8161294D01*
X5230301Y-8161294D02*
X5249348Y-8151771D01*
X5439825Y-8151771D02*
X5458872Y-8151771D01*
X5458872Y-8151771D02*
X5477920Y-8161294D01*
X5477920Y-8161294D02*
X5487444Y-8170818D01*
X5487444Y-8170818D02*
X5496968Y-8189866D01*
X5496968Y-8189866D02*
X5506491Y-8227961D01*
X5506491Y-8227961D02*
X5506491Y-8275580D01*
X5506491Y-8275580D02*
X5496968Y-8313675D01*
X5496968Y-8313675D02*
X5487444Y-8332723D01*
X5487444Y-8332723D02*
X5477920Y-8342247D01*
X5477920Y-8342247D02*
X5458872Y-8351771D01*
X5458872Y-8351771D02*
X5439825Y-8351771D01*
X5439825Y-8351771D02*
X5420777Y-8342247D01*
X5420777Y-8342247D02*
X5411253Y-8332723D01*
X5411253Y-8332723D02*
X5401729Y-8313675D01*
X5401729Y-8313675D02*
X5392206Y-8275580D01*
X5392206Y-8275580D02*
X5392206Y-8227961D01*
X5392206Y-8227961D02*
X5401729Y-8189866D01*
X5401729Y-8189866D02*
X5411253Y-8170818D01*
X5411253Y-8170818D02*
X5420777Y-8161294D01*
X5420777Y-8161294D02*
X5439825Y-8151771D01*
X5573158Y-8151771D02*
X5706491Y-8151771D01*
X5706491Y-8151771D02*
X5620777Y-8351771D01*
X5792206Y-8351771D02*
X5830301Y-8351771D01*
X5830301Y-8351771D02*
X5849348Y-8342247D01*
X5849348Y-8342247D02*
X5858872Y-8332723D01*
X5858872Y-8332723D02*
X5877920Y-8304151D01*
X5877920Y-8304151D02*
X5887444Y-8266056D01*
X5887444Y-8266056D02*
X5887444Y-8189866D01*
X5887444Y-8189866D02*
X5877920Y-8170818D01*
X5877920Y-8170818D02*
X5868396Y-8161294D01*
X5868396Y-8161294D02*
X5849348Y-8151771D01*
X5849348Y-8151771D02*
X5811253Y-8151771D01*
X5811253Y-8151771D02*
X5792206Y-8161294D01*
X5792206Y-8161294D02*
X5782682Y-8170818D01*
X5782682Y-8170818D02*
X5773158Y-8189866D01*
X5773158Y-8189866D02*
X5773158Y-8237485D01*
X5773158Y-8237485D02*
X5782682Y-8256532D01*
X5782682Y-8256532D02*
X5792206Y-8266056D01*
X5792206Y-8266056D02*
X5811253Y-8275580D01*
X5811253Y-8275580D02*
X5849348Y-8275580D01*
X5849348Y-8275580D02*
X5868396Y-8266056D01*
X5868396Y-8266056D02*
X5877920Y-8256532D01*
X5877920Y-8256532D02*
X5887444Y-8237485D01*
X5963634Y-8151771D02*
X5963634Y-8189866D01*
X6039825Y-8151771D02*
X6039825Y-8189866D01*
X6335063Y-8427961D02*
X6325539Y-8418437D01*
X6325539Y-8418437D02*
X6306491Y-8389866D01*
X6306491Y-8389866D02*
X6296968Y-8370818D01*
X6296968Y-8370818D02*
X6287444Y-8342247D01*
X6287444Y-8342247D02*
X6277920Y-8294628D01*
X6277920Y-8294628D02*
X6277920Y-8256532D01*
X6277920Y-8256532D02*
X6287444Y-8208913D01*
X6287444Y-8208913D02*
X6296968Y-8180342D01*
X6296968Y-8180342D02*
X6306491Y-8161294D01*
X6306491Y-8161294D02*
X6325539Y-8132723D01*
X6325539Y-8132723D02*
X6335063Y-8123199D01*
X6401729Y-8170818D02*
X6411253Y-8161294D01*
X6411253Y-8161294D02*
X6430301Y-8151771D01*
X6430301Y-8151771D02*
X6477920Y-8151771D01*
X6477920Y-8151771D02*
X6496968Y-8161294D01*
X6496968Y-8161294D02*
X6506491Y-8170818D01*
X6506491Y-8170818D02*
X6516015Y-8189866D01*
X6516015Y-8189866D02*
X6516015Y-8208913D01*
X6516015Y-8208913D02*
X6506491Y-8237485D01*
X6506491Y-8237485D02*
X6392206Y-8351771D01*
X6392206Y-8351771D02*
X6516015Y-8351771D01*
X6592206Y-8170818D02*
X6601729Y-8161294D01*
X6601729Y-8161294D02*
X6620777Y-8151771D01*
X6620777Y-8151771D02*
X6668396Y-8151771D01*
X6668396Y-8151771D02*
X6687444Y-8161294D01*
X6687444Y-8161294D02*
X6696968Y-8170818D01*
X6696968Y-8170818D02*
X6706491Y-8189866D01*
X6706491Y-8189866D02*
X6706491Y-8208913D01*
X6706491Y-8208913D02*
X6696968Y-8237485D01*
X6696968Y-8237485D02*
X6582682Y-8351771D01*
X6582682Y-8351771D02*
X6706491Y-8351771D01*
X6944587Y-8351771D02*
X6944587Y-8151771D01*
X7030301Y-8351771D02*
X7030301Y-8247009D01*
X7030301Y-8247009D02*
X7020777Y-8227961D01*
X7020777Y-8227961D02*
X7001730Y-8218437D01*
X7001730Y-8218437D02*
X6973158Y-8218437D01*
X6973158Y-8218437D02*
X6954110Y-8227961D01*
X6954110Y-8227961D02*
X6944587Y-8237485D01*
X7154110Y-8351771D02*
X7135063Y-8342247D01*
X7135063Y-8342247D02*
X7125539Y-8332723D01*
X7125539Y-8332723D02*
X7116015Y-8313675D01*
X7116015Y-8313675D02*
X7116015Y-8256532D01*
X7116015Y-8256532D02*
X7125539Y-8237485D01*
X7125539Y-8237485D02*
X7135063Y-8227961D01*
X7135063Y-8227961D02*
X7154110Y-8218437D01*
X7154110Y-8218437D02*
X7182682Y-8218437D01*
X7182682Y-8218437D02*
X7201730Y-8227961D01*
X7201730Y-8227961D02*
X7211253Y-8237485D01*
X7211253Y-8237485D02*
X7220777Y-8256532D01*
X7220777Y-8256532D02*
X7220777Y-8313675D01*
X7220777Y-8313675D02*
X7211253Y-8332723D01*
X7211253Y-8332723D02*
X7201730Y-8342247D01*
X7201730Y-8342247D02*
X7182682Y-8351771D01*
X7182682Y-8351771D02*
X7154110Y-8351771D01*
X7335063Y-8351771D02*
X7316015Y-8342247D01*
X7316015Y-8342247D02*
X7306491Y-8323199D01*
X7306491Y-8323199D02*
X7306491Y-8151771D01*
X7487444Y-8342247D02*
X7468396Y-8351771D01*
X7468396Y-8351771D02*
X7430301Y-8351771D01*
X7430301Y-8351771D02*
X7411253Y-8342247D01*
X7411253Y-8342247D02*
X7401730Y-8323199D01*
X7401730Y-8323199D02*
X7401730Y-8247009D01*
X7401730Y-8247009D02*
X7411253Y-8227961D01*
X7411253Y-8227961D02*
X7430301Y-8218437D01*
X7430301Y-8218437D02*
X7468396Y-8218437D01*
X7468396Y-8218437D02*
X7487444Y-8227961D01*
X7487444Y-8227961D02*
X7496968Y-8247009D01*
X7496968Y-8247009D02*
X7496968Y-8266056D01*
X7496968Y-8266056D02*
X7401730Y-8285104D01*
X7573158Y-8342247D02*
X7592206Y-8351771D01*
X7592206Y-8351771D02*
X7630301Y-8351771D01*
X7630301Y-8351771D02*
X7649349Y-8342247D01*
X7649349Y-8342247D02*
X7658872Y-8323199D01*
X7658872Y-8323199D02*
X7658872Y-8313675D01*
X7658872Y-8313675D02*
X7649349Y-8294628D01*
X7649349Y-8294628D02*
X7630301Y-8285104D01*
X7630301Y-8285104D02*
X7601730Y-8285104D01*
X7601730Y-8285104D02*
X7582682Y-8275580D01*
X7582682Y-8275580D02*
X7573158Y-8256532D01*
X7573158Y-8256532D02*
X7573158Y-8247009D01*
X7573158Y-8247009D02*
X7582682Y-8227961D01*
X7582682Y-8227961D02*
X7601730Y-8218437D01*
X7601730Y-8218437D02*
X7630301Y-8218437D01*
X7630301Y-8218437D02*
X7649349Y-8227961D01*
X7725539Y-8427961D02*
X7735063Y-8418437D01*
X7735063Y-8418437D02*
X7754111Y-8389866D01*
X7754111Y-8389866D02*
X7763634Y-8370818D01*
X7763634Y-8370818D02*
X7773158Y-8342247D01*
X7773158Y-8342247D02*
X7782682Y-8294628D01*
X7782682Y-8294628D02*
X7782682Y-8256532D01*
X7782682Y-8256532D02*
X7773158Y-8208913D01*
X7773158Y-8208913D02*
X7763634Y-8180342D01*
X7763634Y-8180342D02*
X7754111Y-8161294D01*
X7754111Y-8161294D02*
X7735063Y-8132723D01*
X7735063Y-8132723D02*
X7725539Y-8123199D01*
D10*
X2760000Y-8524287D02*
G75*
G03*
X2720000Y-8524287I-20000J0D01*
G01*
X2720000Y-8524287D02*
G75*
G03*
X2760000Y-8524287I20000J0D01*
G01*
D11*
X3058872Y-8415771D02*
X3077920Y-8415771D01*
X3077920Y-8415771D02*
X3096967Y-8425294D01*
X3096967Y-8425294D02*
X3106491Y-8434818D01*
X3106491Y-8434818D02*
X3116015Y-8453866D01*
X3116015Y-8453866D02*
X3125539Y-8491961D01*
X3125539Y-8491961D02*
X3125539Y-8539580D01*
X3125539Y-8539580D02*
X3116015Y-8577675D01*
X3116015Y-8577675D02*
X3106491Y-8596723D01*
X3106491Y-8596723D02*
X3096967Y-8606247D01*
X3096967Y-8606247D02*
X3077920Y-8615771D01*
X3077920Y-8615771D02*
X3058872Y-8615771D01*
X3058872Y-8615771D02*
X3039824Y-8606247D01*
X3039824Y-8606247D02*
X3030301Y-8596723D01*
X3030301Y-8596723D02*
X3020777Y-8577675D01*
X3020777Y-8577675D02*
X3011253Y-8539580D01*
X3011253Y-8539580D02*
X3011253Y-8491961D01*
X3011253Y-8491961D02*
X3020777Y-8453866D01*
X3020777Y-8453866D02*
X3030301Y-8434818D01*
X3030301Y-8434818D02*
X3039824Y-8425294D01*
X3039824Y-8425294D02*
X3058872Y-8415771D01*
X3211253Y-8596723D02*
X3220777Y-8606247D01*
X3220777Y-8606247D02*
X3211253Y-8615771D01*
X3211253Y-8615771D02*
X3201729Y-8606247D01*
X3201729Y-8606247D02*
X3211253Y-8596723D01*
X3211253Y-8596723D02*
X3211253Y-8615771D01*
X3392205Y-8482437D02*
X3392205Y-8615771D01*
X3344586Y-8406247D02*
X3296967Y-8549104D01*
X3296967Y-8549104D02*
X3420777Y-8549104D01*
X3535062Y-8415771D02*
X3554110Y-8415771D01*
X3554110Y-8415771D02*
X3573158Y-8425294D01*
X3573158Y-8425294D02*
X3582682Y-8434818D01*
X3582682Y-8434818D02*
X3592205Y-8453866D01*
X3592205Y-8453866D02*
X3601729Y-8491961D01*
X3601729Y-8491961D02*
X3601729Y-8539580D01*
X3601729Y-8539580D02*
X3592205Y-8577675D01*
X3592205Y-8577675D02*
X3582682Y-8596723D01*
X3582682Y-8596723D02*
X3573158Y-8606247D01*
X3573158Y-8606247D02*
X3554110Y-8615771D01*
X3554110Y-8615771D02*
X3535062Y-8615771D01*
X3535062Y-8615771D02*
X3516015Y-8606247D01*
X3516015Y-8606247D02*
X3506491Y-8596723D01*
X3506491Y-8596723D02*
X3496967Y-8577675D01*
X3496967Y-8577675D02*
X3487443Y-8539580D01*
X3487443Y-8539580D02*
X3487443Y-8491961D01*
X3487443Y-8491961D02*
X3496967Y-8453866D01*
X3496967Y-8453866D02*
X3506491Y-8434818D01*
X3506491Y-8434818D02*
X3516015Y-8425294D01*
X3516015Y-8425294D02*
X3535062Y-8415771D01*
X3725539Y-8415771D02*
X3744586Y-8415771D01*
X3744586Y-8415771D02*
X3763634Y-8425294D01*
X3763634Y-8425294D02*
X3773158Y-8434818D01*
X3773158Y-8434818D02*
X3782682Y-8453866D01*
X3782682Y-8453866D02*
X3792205Y-8491961D01*
X3792205Y-8491961D02*
X3792205Y-8539580D01*
X3792205Y-8539580D02*
X3782682Y-8577675D01*
X3782682Y-8577675D02*
X3773158Y-8596723D01*
X3773158Y-8596723D02*
X3763634Y-8606247D01*
X3763634Y-8606247D02*
X3744586Y-8615771D01*
X3744586Y-8615771D02*
X3725539Y-8615771D01*
X3725539Y-8615771D02*
X3706491Y-8606247D01*
X3706491Y-8606247D02*
X3696967Y-8596723D01*
X3696967Y-8596723D02*
X3687443Y-8577675D01*
X3687443Y-8577675D02*
X3677920Y-8539580D01*
X3677920Y-8539580D02*
X3677920Y-8491961D01*
X3677920Y-8491961D02*
X3687443Y-8453866D01*
X3687443Y-8453866D02*
X3696967Y-8434818D01*
X3696967Y-8434818D02*
X3706491Y-8425294D01*
X3706491Y-8425294D02*
X3725539Y-8415771D01*
X3877920Y-8615771D02*
X3877920Y-8482437D01*
X3877920Y-8501485D02*
X3887443Y-8491961D01*
X3887443Y-8491961D02*
X3906491Y-8482437D01*
X3906491Y-8482437D02*
X3935063Y-8482437D01*
X3935063Y-8482437D02*
X3954110Y-8491961D01*
X3954110Y-8491961D02*
X3963634Y-8511009D01*
X3963634Y-8511009D02*
X3963634Y-8615771D01*
X3963634Y-8511009D02*
X3973158Y-8491961D01*
X3973158Y-8491961D02*
X3992205Y-8482437D01*
X3992205Y-8482437D02*
X4020777Y-8482437D01*
X4020777Y-8482437D02*
X4039824Y-8491961D01*
X4039824Y-8491961D02*
X4049348Y-8511009D01*
X4049348Y-8511009D02*
X4049348Y-8615771D01*
X4144586Y-8615771D02*
X4144586Y-8482437D01*
X4144586Y-8501485D02*
X4154110Y-8491961D01*
X4154110Y-8491961D02*
X4173158Y-8482437D01*
X4173158Y-8482437D02*
X4201729Y-8482437D01*
X4201729Y-8482437D02*
X4220777Y-8491961D01*
X4220777Y-8491961D02*
X4230301Y-8511009D01*
X4230301Y-8511009D02*
X4230301Y-8615771D01*
X4230301Y-8511009D02*
X4239825Y-8491961D01*
X4239825Y-8491961D02*
X4258872Y-8482437D01*
X4258872Y-8482437D02*
X4287444Y-8482437D01*
X4287444Y-8482437D02*
X4306491Y-8491961D01*
X4306491Y-8491961D02*
X4316015Y-8511009D01*
X4316015Y-8511009D02*
X4316015Y-8615771D01*
X4706491Y-8406247D02*
X4535063Y-8663390D01*
X4963634Y-8415771D02*
X4982682Y-8415771D01*
X4982682Y-8415771D02*
X5001729Y-8425294D01*
X5001729Y-8425294D02*
X5011253Y-8434818D01*
X5011253Y-8434818D02*
X5020777Y-8453866D01*
X5020777Y-8453866D02*
X5030301Y-8491961D01*
X5030301Y-8491961D02*
X5030301Y-8539580D01*
X5030301Y-8539580D02*
X5020777Y-8577675D01*
X5020777Y-8577675D02*
X5011253Y-8596723D01*
X5011253Y-8596723D02*
X5001729Y-8606247D01*
X5001729Y-8606247D02*
X4982682Y-8615771D01*
X4982682Y-8615771D02*
X4963634Y-8615771D01*
X4963634Y-8615771D02*
X4944587Y-8606247D01*
X4944587Y-8606247D02*
X4935063Y-8596723D01*
X4935063Y-8596723D02*
X4925539Y-8577675D01*
X4925539Y-8577675D02*
X4916015Y-8539580D01*
X4916015Y-8539580D02*
X4916015Y-8491961D01*
X4916015Y-8491961D02*
X4925539Y-8453866D01*
X4925539Y-8453866D02*
X4935063Y-8434818D01*
X4935063Y-8434818D02*
X4944587Y-8425294D01*
X4944587Y-8425294D02*
X4963634Y-8415771D01*
X5116015Y-8596723D02*
X5125539Y-8606247D01*
X5125539Y-8606247D02*
X5116015Y-8615771D01*
X5116015Y-8615771D02*
X5106491Y-8606247D01*
X5106491Y-8606247D02*
X5116015Y-8596723D01*
X5116015Y-8596723D02*
X5116015Y-8615771D01*
X5249348Y-8415771D02*
X5268396Y-8415771D01*
X5268396Y-8415771D02*
X5287444Y-8425294D01*
X5287444Y-8425294D02*
X5296968Y-8434818D01*
X5296968Y-8434818D02*
X5306491Y-8453866D01*
X5306491Y-8453866D02*
X5316015Y-8491961D01*
X5316015Y-8491961D02*
X5316015Y-8539580D01*
X5316015Y-8539580D02*
X5306491Y-8577675D01*
X5306491Y-8577675D02*
X5296968Y-8596723D01*
X5296968Y-8596723D02*
X5287444Y-8606247D01*
X5287444Y-8606247D02*
X5268396Y-8615771D01*
X5268396Y-8615771D02*
X5249348Y-8615771D01*
X5249348Y-8615771D02*
X5230301Y-8606247D01*
X5230301Y-8606247D02*
X5220777Y-8596723D01*
X5220777Y-8596723D02*
X5211253Y-8577675D01*
X5211253Y-8577675D02*
X5201729Y-8539580D01*
X5201729Y-8539580D02*
X5201729Y-8491961D01*
X5201729Y-8491961D02*
X5211253Y-8453866D01*
X5211253Y-8453866D02*
X5220777Y-8434818D01*
X5220777Y-8434818D02*
X5230301Y-8425294D01*
X5230301Y-8425294D02*
X5249348Y-8415771D01*
X5506491Y-8615771D02*
X5392206Y-8615771D01*
X5449348Y-8615771D02*
X5449348Y-8415771D01*
X5449348Y-8415771D02*
X5430301Y-8444342D01*
X5430301Y-8444342D02*
X5411253Y-8463390D01*
X5411253Y-8463390D02*
X5392206Y-8472913D01*
X5687444Y-8415771D02*
X5592206Y-8415771D01*
X5592206Y-8415771D02*
X5582682Y-8511009D01*
X5582682Y-8511009D02*
X5592206Y-8501485D01*
X5592206Y-8501485D02*
X5611253Y-8491961D01*
X5611253Y-8491961D02*
X5658872Y-8491961D01*
X5658872Y-8491961D02*
X5677920Y-8501485D01*
X5677920Y-8501485D02*
X5687444Y-8511009D01*
X5687444Y-8511009D02*
X5696967Y-8530056D01*
X5696967Y-8530056D02*
X5696967Y-8577675D01*
X5696967Y-8577675D02*
X5687444Y-8596723D01*
X5687444Y-8596723D02*
X5677920Y-8606247D01*
X5677920Y-8606247D02*
X5658872Y-8615771D01*
X5658872Y-8615771D02*
X5611253Y-8615771D01*
X5611253Y-8615771D02*
X5592206Y-8606247D01*
X5592206Y-8606247D02*
X5582682Y-8596723D01*
X5763634Y-8415771D02*
X5896967Y-8415771D01*
X5896967Y-8415771D02*
X5811253Y-8615771D01*
X5963634Y-8415771D02*
X5963634Y-8453866D01*
X6039825Y-8415771D02*
X6039825Y-8453866D01*
X6335063Y-8691961D02*
X6325539Y-8682437D01*
X6325539Y-8682437D02*
X6306491Y-8653866D01*
X6306491Y-8653866D02*
X6296968Y-8634818D01*
X6296968Y-8634818D02*
X6287444Y-8606247D01*
X6287444Y-8606247D02*
X6277920Y-8558628D01*
X6277920Y-8558628D02*
X6277920Y-8520533D01*
X6277920Y-8520533D02*
X6287444Y-8472913D01*
X6287444Y-8472913D02*
X6296968Y-8444342D01*
X6296968Y-8444342D02*
X6306491Y-8425294D01*
X6306491Y-8425294D02*
X6325539Y-8396723D01*
X6325539Y-8396723D02*
X6335063Y-8387199D01*
X6516015Y-8615771D02*
X6401729Y-8615771D01*
X6458872Y-8615771D02*
X6458872Y-8415771D01*
X6458872Y-8415771D02*
X6439825Y-8444342D01*
X6439825Y-8444342D02*
X6420777Y-8463390D01*
X6420777Y-8463390D02*
X6401729Y-8472913D01*
X6706491Y-8615771D02*
X6592206Y-8615771D01*
X6649348Y-8615771D02*
X6649348Y-8415771D01*
X6649348Y-8415771D02*
X6630301Y-8444342D01*
X6630301Y-8444342D02*
X6611253Y-8463390D01*
X6611253Y-8463390D02*
X6592206Y-8472913D01*
X6896968Y-8615771D02*
X6782682Y-8615771D01*
X6839825Y-8615771D02*
X6839825Y-8415771D01*
X6839825Y-8415771D02*
X6820777Y-8444342D01*
X6820777Y-8444342D02*
X6801729Y-8463390D01*
X6801729Y-8463390D02*
X6782682Y-8472913D01*
X7135063Y-8615771D02*
X7135063Y-8415771D01*
X7220777Y-8615771D02*
X7220777Y-8511009D01*
X7220777Y-8511009D02*
X7211253Y-8491961D01*
X7211253Y-8491961D02*
X7192206Y-8482437D01*
X7192206Y-8482437D02*
X7163634Y-8482437D01*
X7163634Y-8482437D02*
X7144587Y-8491961D01*
X7144587Y-8491961D02*
X7135063Y-8501485D01*
X7344587Y-8615771D02*
X7325539Y-8606247D01*
X7325539Y-8606247D02*
X7316015Y-8596723D01*
X7316015Y-8596723D02*
X7306491Y-8577675D01*
X7306491Y-8577675D02*
X7306491Y-8520533D01*
X7306491Y-8520533D02*
X7316015Y-8501485D01*
X7316015Y-8501485D02*
X7325539Y-8491961D01*
X7325539Y-8491961D02*
X7344587Y-8482437D01*
X7344587Y-8482437D02*
X7373158Y-8482437D01*
X7373158Y-8482437D02*
X7392206Y-8491961D01*
X7392206Y-8491961D02*
X7401730Y-8501485D01*
X7401730Y-8501485D02*
X7411253Y-8520533D01*
X7411253Y-8520533D02*
X7411253Y-8577675D01*
X7411253Y-8577675D02*
X7401730Y-8596723D01*
X7401730Y-8596723D02*
X7392206Y-8606247D01*
X7392206Y-8606247D02*
X7373158Y-8615771D01*
X7373158Y-8615771D02*
X7344587Y-8615771D01*
X7525539Y-8615771D02*
X7506491Y-8606247D01*
X7506491Y-8606247D02*
X7496968Y-8587199D01*
X7496968Y-8587199D02*
X7496968Y-8415771D01*
X7677920Y-8606247D02*
X7658872Y-8615771D01*
X7658872Y-8615771D02*
X7620777Y-8615771D01*
X7620777Y-8615771D02*
X7601730Y-8606247D01*
X7601730Y-8606247D02*
X7592206Y-8587199D01*
X7592206Y-8587199D02*
X7592206Y-8511009D01*
X7592206Y-8511009D02*
X7601730Y-8491961D01*
X7601730Y-8491961D02*
X7620777Y-8482437D01*
X7620777Y-8482437D02*
X7658872Y-8482437D01*
X7658872Y-8482437D02*
X7677920Y-8491961D01*
X7677920Y-8491961D02*
X7687444Y-8511009D01*
X7687444Y-8511009D02*
X7687444Y-8530056D01*
X7687444Y-8530056D02*
X7592206Y-8549104D01*
X7763634Y-8606247D02*
X7782682Y-8615771D01*
X7782682Y-8615771D02*
X7820777Y-8615771D01*
X7820777Y-8615771D02*
X7839825Y-8606247D01*
X7839825Y-8606247D02*
X7849349Y-8587199D01*
X7849349Y-8587199D02*
X7849349Y-8577675D01*
X7849349Y-8577675D02*
X7839825Y-8558628D01*
X7839825Y-8558628D02*
X7820777Y-8549104D01*
X7820777Y-8549104D02*
X7792206Y-8549104D01*
X7792206Y-8549104D02*
X7773158Y-8539580D01*
X7773158Y-8539580D02*
X7763634Y-8520533D01*
X7763634Y-8520533D02*
X7763634Y-8511009D01*
X7763634Y-8511009D02*
X7773158Y-8491961D01*
X7773158Y-8491961D02*
X7792206Y-8482437D01*
X7792206Y-8482437D02*
X7820777Y-8482437D01*
X7820777Y-8482437D02*
X7839825Y-8491961D01*
X7916015Y-8691961D02*
X7925539Y-8682437D01*
X7925539Y-8682437D02*
X7944587Y-8653866D01*
X7944587Y-8653866D02*
X7954111Y-8634818D01*
X7954111Y-8634818D02*
X7963634Y-8606247D01*
X7963634Y-8606247D02*
X7973158Y-8558628D01*
X7973158Y-8558628D02*
X7973158Y-8520533D01*
X7973158Y-8520533D02*
X7963634Y-8472913D01*
X7963634Y-8472913D02*
X7954111Y-8444342D01*
X7954111Y-8444342D02*
X7944587Y-8425294D01*
X7944587Y-8425294D02*
X7925539Y-8396723D01*
X7925539Y-8396723D02*
X7916015Y-8387199D01*
D10*
X2730000Y-8758287D02*
X2730000Y-8818287D01*
X2700000Y-8788287D02*
X2760000Y-8788287D01*
D11*
X3058872Y-8679771D02*
X3077920Y-8679771D01*
X3077920Y-8679771D02*
X3096967Y-8689294D01*
X3096967Y-8689294D02*
X3106491Y-8698818D01*
X3106491Y-8698818D02*
X3116015Y-8717866D01*
X3116015Y-8717866D02*
X3125539Y-8755961D01*
X3125539Y-8755961D02*
X3125539Y-8803580D01*
X3125539Y-8803580D02*
X3116015Y-8841675D01*
X3116015Y-8841675D02*
X3106491Y-8860723D01*
X3106491Y-8860723D02*
X3096967Y-8870247D01*
X3096967Y-8870247D02*
X3077920Y-8879771D01*
X3077920Y-8879771D02*
X3058872Y-8879771D01*
X3058872Y-8879771D02*
X3039824Y-8870247D01*
X3039824Y-8870247D02*
X3030301Y-8860723D01*
X3030301Y-8860723D02*
X3020777Y-8841675D01*
X3020777Y-8841675D02*
X3011253Y-8803580D01*
X3011253Y-8803580D02*
X3011253Y-8755961D01*
X3011253Y-8755961D02*
X3020777Y-8717866D01*
X3020777Y-8717866D02*
X3030301Y-8698818D01*
X3030301Y-8698818D02*
X3039824Y-8689294D01*
X3039824Y-8689294D02*
X3058872Y-8679771D01*
X3211253Y-8860723D02*
X3220777Y-8870247D01*
X3220777Y-8870247D02*
X3211253Y-8879771D01*
X3211253Y-8879771D02*
X3201729Y-8870247D01*
X3201729Y-8870247D02*
X3211253Y-8860723D01*
X3211253Y-8860723D02*
X3211253Y-8879771D01*
X3392205Y-8679771D02*
X3354110Y-8679771D01*
X3354110Y-8679771D02*
X3335062Y-8689294D01*
X3335062Y-8689294D02*
X3325539Y-8698818D01*
X3325539Y-8698818D02*
X3306491Y-8727390D01*
X3306491Y-8727390D02*
X3296967Y-8765485D01*
X3296967Y-8765485D02*
X3296967Y-8841675D01*
X3296967Y-8841675D02*
X3306491Y-8860723D01*
X3306491Y-8860723D02*
X3316015Y-8870247D01*
X3316015Y-8870247D02*
X3335062Y-8879771D01*
X3335062Y-8879771D02*
X3373158Y-8879771D01*
X3373158Y-8879771D02*
X3392205Y-8870247D01*
X3392205Y-8870247D02*
X3401729Y-8860723D01*
X3401729Y-8860723D02*
X3411253Y-8841675D01*
X3411253Y-8841675D02*
X3411253Y-8794056D01*
X3411253Y-8794056D02*
X3401729Y-8775009D01*
X3401729Y-8775009D02*
X3392205Y-8765485D01*
X3392205Y-8765485D02*
X3373158Y-8755961D01*
X3373158Y-8755961D02*
X3335062Y-8755961D01*
X3335062Y-8755961D02*
X3316015Y-8765485D01*
X3316015Y-8765485D02*
X3306491Y-8775009D01*
X3306491Y-8775009D02*
X3296967Y-8794056D01*
X3535062Y-8679771D02*
X3554110Y-8679771D01*
X3554110Y-8679771D02*
X3573158Y-8689294D01*
X3573158Y-8689294D02*
X3582682Y-8698818D01*
X3582682Y-8698818D02*
X3592205Y-8717866D01*
X3592205Y-8717866D02*
X3601729Y-8755961D01*
X3601729Y-8755961D02*
X3601729Y-8803580D01*
X3601729Y-8803580D02*
X3592205Y-8841675D01*
X3592205Y-8841675D02*
X3582682Y-8860723D01*
X3582682Y-8860723D02*
X3573158Y-8870247D01*
X3573158Y-8870247D02*
X3554110Y-8879771D01*
X3554110Y-8879771D02*
X3535062Y-8879771D01*
X3535062Y-8879771D02*
X3516015Y-8870247D01*
X3516015Y-8870247D02*
X3506491Y-8860723D01*
X3506491Y-8860723D02*
X3496967Y-8841675D01*
X3496967Y-8841675D02*
X3487443Y-8803580D01*
X3487443Y-8803580D02*
X3487443Y-8755961D01*
X3487443Y-8755961D02*
X3496967Y-8717866D01*
X3496967Y-8717866D02*
X3506491Y-8698818D01*
X3506491Y-8698818D02*
X3516015Y-8689294D01*
X3516015Y-8689294D02*
X3535062Y-8679771D01*
X3725539Y-8679771D02*
X3744586Y-8679771D01*
X3744586Y-8679771D02*
X3763634Y-8689294D01*
X3763634Y-8689294D02*
X3773158Y-8698818D01*
X3773158Y-8698818D02*
X3782682Y-8717866D01*
X3782682Y-8717866D02*
X3792205Y-8755961D01*
X3792205Y-8755961D02*
X3792205Y-8803580D01*
X3792205Y-8803580D02*
X3782682Y-8841675D01*
X3782682Y-8841675D02*
X3773158Y-8860723D01*
X3773158Y-8860723D02*
X3763634Y-8870247D01*
X3763634Y-8870247D02*
X3744586Y-8879771D01*
X3744586Y-8879771D02*
X3725539Y-8879771D01*
X3725539Y-8879771D02*
X3706491Y-8870247D01*
X3706491Y-8870247D02*
X3696967Y-8860723D01*
X3696967Y-8860723D02*
X3687443Y-8841675D01*
X3687443Y-8841675D02*
X3677920Y-8803580D01*
X3677920Y-8803580D02*
X3677920Y-8755961D01*
X3677920Y-8755961D02*
X3687443Y-8717866D01*
X3687443Y-8717866D02*
X3696967Y-8698818D01*
X3696967Y-8698818D02*
X3706491Y-8689294D01*
X3706491Y-8689294D02*
X3725539Y-8679771D01*
X3877920Y-8879771D02*
X3877920Y-8746437D01*
X3877920Y-8765485D02*
X3887443Y-8755961D01*
X3887443Y-8755961D02*
X3906491Y-8746437D01*
X3906491Y-8746437D02*
X3935063Y-8746437D01*
X3935063Y-8746437D02*
X3954110Y-8755961D01*
X3954110Y-8755961D02*
X3963634Y-8775009D01*
X3963634Y-8775009D02*
X3963634Y-8879771D01*
X3963634Y-8775009D02*
X3973158Y-8755961D01*
X3973158Y-8755961D02*
X3992205Y-8746437D01*
X3992205Y-8746437D02*
X4020777Y-8746437D01*
X4020777Y-8746437D02*
X4039824Y-8755961D01*
X4039824Y-8755961D02*
X4049348Y-8775009D01*
X4049348Y-8775009D02*
X4049348Y-8879771D01*
X4144586Y-8879771D02*
X4144586Y-8746437D01*
X4144586Y-8765485D02*
X4154110Y-8755961D01*
X4154110Y-8755961D02*
X4173158Y-8746437D01*
X4173158Y-8746437D02*
X4201729Y-8746437D01*
X4201729Y-8746437D02*
X4220777Y-8755961D01*
X4220777Y-8755961D02*
X4230301Y-8775009D01*
X4230301Y-8775009D02*
X4230301Y-8879771D01*
X4230301Y-8775009D02*
X4239825Y-8755961D01*
X4239825Y-8755961D02*
X4258872Y-8746437D01*
X4258872Y-8746437D02*
X4287444Y-8746437D01*
X4287444Y-8746437D02*
X4306491Y-8755961D01*
X4306491Y-8755961D02*
X4316015Y-8775009D01*
X4316015Y-8775009D02*
X4316015Y-8879771D01*
X4706491Y-8670247D02*
X4535063Y-8927390D01*
X4963634Y-8679771D02*
X4982682Y-8679771D01*
X4982682Y-8679771D02*
X5001729Y-8689294D01*
X5001729Y-8689294D02*
X5011253Y-8698818D01*
X5011253Y-8698818D02*
X5020777Y-8717866D01*
X5020777Y-8717866D02*
X5030301Y-8755961D01*
X5030301Y-8755961D02*
X5030301Y-8803580D01*
X5030301Y-8803580D02*
X5020777Y-8841675D01*
X5020777Y-8841675D02*
X5011253Y-8860723D01*
X5011253Y-8860723D02*
X5001729Y-8870247D01*
X5001729Y-8870247D02*
X4982682Y-8879771D01*
X4982682Y-8879771D02*
X4963634Y-8879771D01*
X4963634Y-8879771D02*
X4944587Y-8870247D01*
X4944587Y-8870247D02*
X4935063Y-8860723D01*
X4935063Y-8860723D02*
X4925539Y-8841675D01*
X4925539Y-8841675D02*
X4916015Y-8803580D01*
X4916015Y-8803580D02*
X4916015Y-8755961D01*
X4916015Y-8755961D02*
X4925539Y-8717866D01*
X4925539Y-8717866D02*
X4935063Y-8698818D01*
X4935063Y-8698818D02*
X4944587Y-8689294D01*
X4944587Y-8689294D02*
X4963634Y-8679771D01*
X5116015Y-8860723D02*
X5125539Y-8870247D01*
X5125539Y-8870247D02*
X5116015Y-8879771D01*
X5116015Y-8879771D02*
X5106491Y-8870247D01*
X5106491Y-8870247D02*
X5116015Y-8860723D01*
X5116015Y-8860723D02*
X5116015Y-8879771D01*
X5249348Y-8679771D02*
X5268396Y-8679771D01*
X5268396Y-8679771D02*
X5287444Y-8689294D01*
X5287444Y-8689294D02*
X5296968Y-8698818D01*
X5296968Y-8698818D02*
X5306491Y-8717866D01*
X5306491Y-8717866D02*
X5316015Y-8755961D01*
X5316015Y-8755961D02*
X5316015Y-8803580D01*
X5316015Y-8803580D02*
X5306491Y-8841675D01*
X5306491Y-8841675D02*
X5296968Y-8860723D01*
X5296968Y-8860723D02*
X5287444Y-8870247D01*
X5287444Y-8870247D02*
X5268396Y-8879771D01*
X5268396Y-8879771D02*
X5249348Y-8879771D01*
X5249348Y-8879771D02*
X5230301Y-8870247D01*
X5230301Y-8870247D02*
X5220777Y-8860723D01*
X5220777Y-8860723D02*
X5211253Y-8841675D01*
X5211253Y-8841675D02*
X5201729Y-8803580D01*
X5201729Y-8803580D02*
X5201729Y-8755961D01*
X5201729Y-8755961D02*
X5211253Y-8717866D01*
X5211253Y-8717866D02*
X5220777Y-8698818D01*
X5220777Y-8698818D02*
X5230301Y-8689294D01*
X5230301Y-8689294D02*
X5249348Y-8679771D01*
X5392206Y-8698818D02*
X5401729Y-8689294D01*
X5401729Y-8689294D02*
X5420777Y-8679771D01*
X5420777Y-8679771D02*
X5468396Y-8679771D01*
X5468396Y-8679771D02*
X5487444Y-8689294D01*
X5487444Y-8689294D02*
X5496968Y-8698818D01*
X5496968Y-8698818D02*
X5506491Y-8717866D01*
X5506491Y-8717866D02*
X5506491Y-8736913D01*
X5506491Y-8736913D02*
X5496968Y-8765485D01*
X5496968Y-8765485D02*
X5382682Y-8879771D01*
X5382682Y-8879771D02*
X5506491Y-8879771D01*
X5573158Y-8679771D02*
X5696967Y-8679771D01*
X5696967Y-8679771D02*
X5630301Y-8755961D01*
X5630301Y-8755961D02*
X5658872Y-8755961D01*
X5658872Y-8755961D02*
X5677920Y-8765485D01*
X5677920Y-8765485D02*
X5687444Y-8775009D01*
X5687444Y-8775009D02*
X5696967Y-8794056D01*
X5696967Y-8794056D02*
X5696967Y-8841675D01*
X5696967Y-8841675D02*
X5687444Y-8860723D01*
X5687444Y-8860723D02*
X5677920Y-8870247D01*
X5677920Y-8870247D02*
X5658872Y-8879771D01*
X5658872Y-8879771D02*
X5601729Y-8879771D01*
X5601729Y-8879771D02*
X5582682Y-8870247D01*
X5582682Y-8870247D02*
X5573158Y-8860723D01*
X5868396Y-8679771D02*
X5830301Y-8679771D01*
X5830301Y-8679771D02*
X5811253Y-8689294D01*
X5811253Y-8689294D02*
X5801729Y-8698818D01*
X5801729Y-8698818D02*
X5782682Y-8727390D01*
X5782682Y-8727390D02*
X5773158Y-8765485D01*
X5773158Y-8765485D02*
X5773158Y-8841675D01*
X5773158Y-8841675D02*
X5782682Y-8860723D01*
X5782682Y-8860723D02*
X5792206Y-8870247D01*
X5792206Y-8870247D02*
X5811253Y-8879771D01*
X5811253Y-8879771D02*
X5849348Y-8879771D01*
X5849348Y-8879771D02*
X5868396Y-8870247D01*
X5868396Y-8870247D02*
X5877920Y-8860723D01*
X5877920Y-8860723D02*
X5887444Y-8841675D01*
X5887444Y-8841675D02*
X5887444Y-8794056D01*
X5887444Y-8794056D02*
X5877920Y-8775009D01*
X5877920Y-8775009D02*
X5868396Y-8765485D01*
X5868396Y-8765485D02*
X5849348Y-8755961D01*
X5849348Y-8755961D02*
X5811253Y-8755961D01*
X5811253Y-8755961D02*
X5792206Y-8765485D01*
X5792206Y-8765485D02*
X5782682Y-8775009D01*
X5782682Y-8775009D02*
X5773158Y-8794056D01*
X5963634Y-8679771D02*
X5963634Y-8717866D01*
X6039825Y-8679771D02*
X6039825Y-8717866D01*
X6335063Y-8955961D02*
X6325539Y-8946437D01*
X6325539Y-8946437D02*
X6306491Y-8917866D01*
X6306491Y-8917866D02*
X6296968Y-8898818D01*
X6296968Y-8898818D02*
X6287444Y-8870247D01*
X6287444Y-8870247D02*
X6277920Y-8822628D01*
X6277920Y-8822628D02*
X6277920Y-8784533D01*
X6277920Y-8784533D02*
X6287444Y-8736913D01*
X6287444Y-8736913D02*
X6296968Y-8708342D01*
X6296968Y-8708342D02*
X6306491Y-8689294D01*
X6306491Y-8689294D02*
X6325539Y-8660723D01*
X6325539Y-8660723D02*
X6335063Y-8651199D01*
X6449348Y-8679771D02*
X6468396Y-8679771D01*
X6468396Y-8679771D02*
X6487444Y-8689294D01*
X6487444Y-8689294D02*
X6496968Y-8698818D01*
X6496968Y-8698818D02*
X6506491Y-8717866D01*
X6506491Y-8717866D02*
X6516015Y-8755961D01*
X6516015Y-8755961D02*
X6516015Y-8803580D01*
X6516015Y-8803580D02*
X6506491Y-8841675D01*
X6506491Y-8841675D02*
X6496968Y-8860723D01*
X6496968Y-8860723D02*
X6487444Y-8870247D01*
X6487444Y-8870247D02*
X6468396Y-8879771D01*
X6468396Y-8879771D02*
X6449348Y-8879771D01*
X6449348Y-8879771D02*
X6430301Y-8870247D01*
X6430301Y-8870247D02*
X6420777Y-8860723D01*
X6420777Y-8860723D02*
X6411253Y-8841675D01*
X6411253Y-8841675D02*
X6401729Y-8803580D01*
X6401729Y-8803580D02*
X6401729Y-8755961D01*
X6401729Y-8755961D02*
X6411253Y-8717866D01*
X6411253Y-8717866D02*
X6420777Y-8698818D01*
X6420777Y-8698818D02*
X6430301Y-8689294D01*
X6430301Y-8689294D02*
X6449348Y-8679771D01*
X6754110Y-8879771D02*
X6754110Y-8679771D01*
X6839825Y-8879771D02*
X6839825Y-8775009D01*
X6839825Y-8775009D02*
X6830301Y-8755961D01*
X6830301Y-8755961D02*
X6811253Y-8746437D01*
X6811253Y-8746437D02*
X6782682Y-8746437D01*
X6782682Y-8746437D02*
X6763634Y-8755961D01*
X6763634Y-8755961D02*
X6754110Y-8765485D01*
X6963634Y-8879771D02*
X6944587Y-8870247D01*
X6944587Y-8870247D02*
X6935063Y-8860723D01*
X6935063Y-8860723D02*
X6925539Y-8841675D01*
X6925539Y-8841675D02*
X6925539Y-8784533D01*
X6925539Y-8784533D02*
X6935063Y-8765485D01*
X6935063Y-8765485D02*
X6944587Y-8755961D01*
X6944587Y-8755961D02*
X6963634Y-8746437D01*
X6963634Y-8746437D02*
X6992206Y-8746437D01*
X6992206Y-8746437D02*
X7011253Y-8755961D01*
X7011253Y-8755961D02*
X7020777Y-8765485D01*
X7020777Y-8765485D02*
X7030301Y-8784533D01*
X7030301Y-8784533D02*
X7030301Y-8841675D01*
X7030301Y-8841675D02*
X7020777Y-8860723D01*
X7020777Y-8860723D02*
X7011253Y-8870247D01*
X7011253Y-8870247D02*
X6992206Y-8879771D01*
X6992206Y-8879771D02*
X6963634Y-8879771D01*
X7144587Y-8879771D02*
X7125539Y-8870247D01*
X7125539Y-8870247D02*
X7116015Y-8851199D01*
X7116015Y-8851199D02*
X7116015Y-8679771D01*
X7296968Y-8870247D02*
X7277920Y-8879771D01*
X7277920Y-8879771D02*
X7239825Y-8879771D01*
X7239825Y-8879771D02*
X7220777Y-8870247D01*
X7220777Y-8870247D02*
X7211253Y-8851199D01*
X7211253Y-8851199D02*
X7211253Y-8775009D01*
X7211253Y-8775009D02*
X7220777Y-8755961D01*
X7220777Y-8755961D02*
X7239825Y-8746437D01*
X7239825Y-8746437D02*
X7277920Y-8746437D01*
X7277920Y-8746437D02*
X7296968Y-8755961D01*
X7296968Y-8755961D02*
X7306491Y-8775009D01*
X7306491Y-8775009D02*
X7306491Y-8794056D01*
X7306491Y-8794056D02*
X7211253Y-8813104D01*
X7382682Y-8870247D02*
X7401730Y-8879771D01*
X7401730Y-8879771D02*
X7439825Y-8879771D01*
X7439825Y-8879771D02*
X7458872Y-8870247D01*
X7458872Y-8870247D02*
X7468396Y-8851199D01*
X7468396Y-8851199D02*
X7468396Y-8841675D01*
X7468396Y-8841675D02*
X7458872Y-8822628D01*
X7458872Y-8822628D02*
X7439825Y-8813104D01*
X7439825Y-8813104D02*
X7411253Y-8813104D01*
X7411253Y-8813104D02*
X7392206Y-8803580D01*
X7392206Y-8803580D02*
X7382682Y-8784533D01*
X7382682Y-8784533D02*
X7382682Y-8775009D01*
X7382682Y-8775009D02*
X7392206Y-8755961D01*
X7392206Y-8755961D02*
X7411253Y-8746437D01*
X7411253Y-8746437D02*
X7439825Y-8746437D01*
X7439825Y-8746437D02*
X7458872Y-8755961D01*
X7706492Y-8803580D02*
X7858873Y-8803580D01*
X7782682Y-8879771D02*
X7782682Y-8727390D01*
X8192206Y-8746437D02*
X8192206Y-8879771D01*
X8144587Y-8670247D02*
X8096968Y-8813104D01*
X8096968Y-8813104D02*
X8220777Y-8813104D01*
X8439825Y-8870247D02*
X8458873Y-8879771D01*
X8458873Y-8879771D02*
X8496968Y-8879771D01*
X8496968Y-8879771D02*
X8516016Y-8870247D01*
X8516016Y-8870247D02*
X8525539Y-8851199D01*
X8525539Y-8851199D02*
X8525539Y-8841675D01*
X8525539Y-8841675D02*
X8516016Y-8822628D01*
X8516016Y-8822628D02*
X8496968Y-8813104D01*
X8496968Y-8813104D02*
X8468396Y-8813104D01*
X8468396Y-8813104D02*
X8449349Y-8803580D01*
X8449349Y-8803580D02*
X8439825Y-8784533D01*
X8439825Y-8784533D02*
X8439825Y-8775009D01*
X8439825Y-8775009D02*
X8449349Y-8755961D01*
X8449349Y-8755961D02*
X8468396Y-8746437D01*
X8468396Y-8746437D02*
X8496968Y-8746437D01*
X8496968Y-8746437D02*
X8516016Y-8755961D01*
X8639825Y-8879771D02*
X8620777Y-8870247D01*
X8620777Y-8870247D02*
X8611254Y-8851199D01*
X8611254Y-8851199D02*
X8611254Y-8679771D01*
X8744587Y-8879771D02*
X8725539Y-8870247D01*
X8725539Y-8870247D02*
X8716016Y-8860723D01*
X8716016Y-8860723D02*
X8706492Y-8841675D01*
X8706492Y-8841675D02*
X8706492Y-8784533D01*
X8706492Y-8784533D02*
X8716016Y-8765485D01*
X8716016Y-8765485D02*
X8725539Y-8755961D01*
X8725539Y-8755961D02*
X8744587Y-8746437D01*
X8744587Y-8746437D02*
X8773158Y-8746437D01*
X8773158Y-8746437D02*
X8792206Y-8755961D01*
X8792206Y-8755961D02*
X8801730Y-8765485D01*
X8801730Y-8765485D02*
X8811254Y-8784533D01*
X8811254Y-8784533D02*
X8811254Y-8841675D01*
X8811254Y-8841675D02*
X8801730Y-8860723D01*
X8801730Y-8860723D02*
X8792206Y-8870247D01*
X8792206Y-8870247D02*
X8773158Y-8879771D01*
X8773158Y-8879771D02*
X8744587Y-8879771D01*
X8868397Y-8746437D02*
X8944587Y-8746437D01*
X8896968Y-8679771D02*
X8896968Y-8851199D01*
X8896968Y-8851199D02*
X8906492Y-8870247D01*
X8906492Y-8870247D02*
X8925539Y-8879771D01*
X8925539Y-8879771D02*
X8944587Y-8879771D01*
X9001730Y-8870247D02*
X9020777Y-8879771D01*
X9020777Y-8879771D02*
X9058873Y-8879771D01*
X9058873Y-8879771D02*
X9077920Y-8870247D01*
X9077920Y-8870247D02*
X9087444Y-8851199D01*
X9087444Y-8851199D02*
X9087444Y-8841675D01*
X9087444Y-8841675D02*
X9077920Y-8822628D01*
X9077920Y-8822628D02*
X9058873Y-8813104D01*
X9058873Y-8813104D02*
X9030301Y-8813104D01*
X9030301Y-8813104D02*
X9011254Y-8803580D01*
X9011254Y-8803580D02*
X9001730Y-8784533D01*
X9001730Y-8784533D02*
X9001730Y-8775009D01*
X9001730Y-8775009D02*
X9011254Y-8755961D01*
X9011254Y-8755961D02*
X9030301Y-8746437D01*
X9030301Y-8746437D02*
X9058873Y-8746437D01*
X9058873Y-8746437D02*
X9077920Y-8755961D01*
X9154111Y-8955961D02*
X9163635Y-8946437D01*
X9163635Y-8946437D02*
X9182682Y-8917866D01*
X9182682Y-8917866D02*
X9192206Y-8898818D01*
X9192206Y-8898818D02*
X9201730Y-8870247D01*
X9201730Y-8870247D02*
X9211254Y-8822628D01*
X9211254Y-8822628D02*
X9211254Y-8784533D01*
X9211254Y-8784533D02*
X9201730Y-8736913D01*
X9201730Y-8736913D02*
X9192206Y-8708342D01*
X9192206Y-8708342D02*
X9182682Y-8689294D01*
X9182682Y-8689294D02*
X9163635Y-8660723D01*
X9163635Y-8660723D02*
X9154111Y-8651199D01*
D10*
X2745356Y-9087643D02*
X2745356Y-9016931D01*
X2674644Y-9016931D01*
X2674644Y-9087643D01*
X2745356Y-9087643D01*
D11*
X3125539Y-9143771D02*
X3011253Y-9143771D01*
X3068396Y-9143771D02*
X3068396Y-8943771D01*
X3068396Y-8943771D02*
X3049348Y-8972342D01*
X3049348Y-8972342D02*
X3030301Y-8991390D01*
X3030301Y-8991390D02*
X3011253Y-9000913D01*
X3211253Y-9124723D02*
X3220777Y-9134247D01*
X3220777Y-9134247D02*
X3211253Y-9143771D01*
X3211253Y-9143771D02*
X3201729Y-9134247D01*
X3201729Y-9134247D02*
X3211253Y-9124723D01*
X3211253Y-9124723D02*
X3211253Y-9143771D01*
X3344586Y-8943771D02*
X3363634Y-8943771D01*
X3363634Y-8943771D02*
X3382682Y-8953294D01*
X3382682Y-8953294D02*
X3392205Y-8962818D01*
X3392205Y-8962818D02*
X3401729Y-8981866D01*
X3401729Y-8981866D02*
X3411253Y-9019961D01*
X3411253Y-9019961D02*
X3411253Y-9067580D01*
X3411253Y-9067580D02*
X3401729Y-9105675D01*
X3401729Y-9105675D02*
X3392205Y-9124723D01*
X3392205Y-9124723D02*
X3382682Y-9134247D01*
X3382682Y-9134247D02*
X3363634Y-9143771D01*
X3363634Y-9143771D02*
X3344586Y-9143771D01*
X3344586Y-9143771D02*
X3325539Y-9134247D01*
X3325539Y-9134247D02*
X3316015Y-9124723D01*
X3316015Y-9124723D02*
X3306491Y-9105675D01*
X3306491Y-9105675D02*
X3296967Y-9067580D01*
X3296967Y-9067580D02*
X3296967Y-9019961D01*
X3296967Y-9019961D02*
X3306491Y-8981866D01*
X3306491Y-8981866D02*
X3316015Y-8962818D01*
X3316015Y-8962818D02*
X3325539Y-8953294D01*
X3325539Y-8953294D02*
X3344586Y-8943771D01*
X3535062Y-8943771D02*
X3554110Y-8943771D01*
X3554110Y-8943771D02*
X3573158Y-8953294D01*
X3573158Y-8953294D02*
X3582682Y-8962818D01*
X3582682Y-8962818D02*
X3592205Y-8981866D01*
X3592205Y-8981866D02*
X3601729Y-9019961D01*
X3601729Y-9019961D02*
X3601729Y-9067580D01*
X3601729Y-9067580D02*
X3592205Y-9105675D01*
X3592205Y-9105675D02*
X3582682Y-9124723D01*
X3582682Y-9124723D02*
X3573158Y-9134247D01*
X3573158Y-9134247D02*
X3554110Y-9143771D01*
X3554110Y-9143771D02*
X3535062Y-9143771D01*
X3535062Y-9143771D02*
X3516015Y-9134247D01*
X3516015Y-9134247D02*
X3506491Y-9124723D01*
X3506491Y-9124723D02*
X3496967Y-9105675D01*
X3496967Y-9105675D02*
X3487443Y-9067580D01*
X3487443Y-9067580D02*
X3487443Y-9019961D01*
X3487443Y-9019961D02*
X3496967Y-8981866D01*
X3496967Y-8981866D02*
X3506491Y-8962818D01*
X3506491Y-8962818D02*
X3516015Y-8953294D01*
X3516015Y-8953294D02*
X3535062Y-8943771D01*
X3725539Y-8943771D02*
X3744586Y-8943771D01*
X3744586Y-8943771D02*
X3763634Y-8953294D01*
X3763634Y-8953294D02*
X3773158Y-8962818D01*
X3773158Y-8962818D02*
X3782682Y-8981866D01*
X3782682Y-8981866D02*
X3792205Y-9019961D01*
X3792205Y-9019961D02*
X3792205Y-9067580D01*
X3792205Y-9067580D02*
X3782682Y-9105675D01*
X3782682Y-9105675D02*
X3773158Y-9124723D01*
X3773158Y-9124723D02*
X3763634Y-9134247D01*
X3763634Y-9134247D02*
X3744586Y-9143771D01*
X3744586Y-9143771D02*
X3725539Y-9143771D01*
X3725539Y-9143771D02*
X3706491Y-9134247D01*
X3706491Y-9134247D02*
X3696967Y-9124723D01*
X3696967Y-9124723D02*
X3687443Y-9105675D01*
X3687443Y-9105675D02*
X3677920Y-9067580D01*
X3677920Y-9067580D02*
X3677920Y-9019961D01*
X3677920Y-9019961D02*
X3687443Y-8981866D01*
X3687443Y-8981866D02*
X3696967Y-8962818D01*
X3696967Y-8962818D02*
X3706491Y-8953294D01*
X3706491Y-8953294D02*
X3725539Y-8943771D01*
X3877920Y-9143771D02*
X3877920Y-9010437D01*
X3877920Y-9029485D02*
X3887443Y-9019961D01*
X3887443Y-9019961D02*
X3906491Y-9010437D01*
X3906491Y-9010437D02*
X3935063Y-9010437D01*
X3935063Y-9010437D02*
X3954110Y-9019961D01*
X3954110Y-9019961D02*
X3963634Y-9039009D01*
X3963634Y-9039009D02*
X3963634Y-9143771D01*
X3963634Y-9039009D02*
X3973158Y-9019961D01*
X3973158Y-9019961D02*
X3992205Y-9010437D01*
X3992205Y-9010437D02*
X4020777Y-9010437D01*
X4020777Y-9010437D02*
X4039824Y-9019961D01*
X4039824Y-9019961D02*
X4049348Y-9039009D01*
X4049348Y-9039009D02*
X4049348Y-9143771D01*
X4144586Y-9143771D02*
X4144586Y-9010437D01*
X4144586Y-9029485D02*
X4154110Y-9019961D01*
X4154110Y-9019961D02*
X4173158Y-9010437D01*
X4173158Y-9010437D02*
X4201729Y-9010437D01*
X4201729Y-9010437D02*
X4220777Y-9019961D01*
X4220777Y-9019961D02*
X4230301Y-9039009D01*
X4230301Y-9039009D02*
X4230301Y-9143771D01*
X4230301Y-9039009D02*
X4239825Y-9019961D01*
X4239825Y-9019961D02*
X4258872Y-9010437D01*
X4258872Y-9010437D02*
X4287444Y-9010437D01*
X4287444Y-9010437D02*
X4306491Y-9019961D01*
X4306491Y-9019961D02*
X4316015Y-9039009D01*
X4316015Y-9039009D02*
X4316015Y-9143771D01*
X4706491Y-8934247D02*
X4535063Y-9191390D01*
X4963634Y-8943771D02*
X4982682Y-8943771D01*
X4982682Y-8943771D02*
X5001729Y-8953294D01*
X5001729Y-8953294D02*
X5011253Y-8962818D01*
X5011253Y-8962818D02*
X5020777Y-8981866D01*
X5020777Y-8981866D02*
X5030301Y-9019961D01*
X5030301Y-9019961D02*
X5030301Y-9067580D01*
X5030301Y-9067580D02*
X5020777Y-9105675D01*
X5020777Y-9105675D02*
X5011253Y-9124723D01*
X5011253Y-9124723D02*
X5001729Y-9134247D01*
X5001729Y-9134247D02*
X4982682Y-9143771D01*
X4982682Y-9143771D02*
X4963634Y-9143771D01*
X4963634Y-9143771D02*
X4944587Y-9134247D01*
X4944587Y-9134247D02*
X4935063Y-9124723D01*
X4935063Y-9124723D02*
X4925539Y-9105675D01*
X4925539Y-9105675D02*
X4916015Y-9067580D01*
X4916015Y-9067580D02*
X4916015Y-9019961D01*
X4916015Y-9019961D02*
X4925539Y-8981866D01*
X4925539Y-8981866D02*
X4935063Y-8962818D01*
X4935063Y-8962818D02*
X4944587Y-8953294D01*
X4944587Y-8953294D02*
X4963634Y-8943771D01*
X5116015Y-9124723D02*
X5125539Y-9134247D01*
X5125539Y-9134247D02*
X5116015Y-9143771D01*
X5116015Y-9143771D02*
X5106491Y-9134247D01*
X5106491Y-9134247D02*
X5116015Y-9124723D01*
X5116015Y-9124723D02*
X5116015Y-9143771D01*
X5249348Y-8943771D02*
X5268396Y-8943771D01*
X5268396Y-8943771D02*
X5287444Y-8953294D01*
X5287444Y-8953294D02*
X5296968Y-8962818D01*
X5296968Y-8962818D02*
X5306491Y-8981866D01*
X5306491Y-8981866D02*
X5316015Y-9019961D01*
X5316015Y-9019961D02*
X5316015Y-9067580D01*
X5316015Y-9067580D02*
X5306491Y-9105675D01*
X5306491Y-9105675D02*
X5296968Y-9124723D01*
X5296968Y-9124723D02*
X5287444Y-9134247D01*
X5287444Y-9134247D02*
X5268396Y-9143771D01*
X5268396Y-9143771D02*
X5249348Y-9143771D01*
X5249348Y-9143771D02*
X5230301Y-9134247D01*
X5230301Y-9134247D02*
X5220777Y-9124723D01*
X5220777Y-9124723D02*
X5211253Y-9105675D01*
X5211253Y-9105675D02*
X5201729Y-9067580D01*
X5201729Y-9067580D02*
X5201729Y-9019961D01*
X5201729Y-9019961D02*
X5211253Y-8981866D01*
X5211253Y-8981866D02*
X5220777Y-8962818D01*
X5220777Y-8962818D02*
X5230301Y-8953294D01*
X5230301Y-8953294D02*
X5249348Y-8943771D01*
X5382682Y-8943771D02*
X5506491Y-8943771D01*
X5506491Y-8943771D02*
X5439825Y-9019961D01*
X5439825Y-9019961D02*
X5468396Y-9019961D01*
X5468396Y-9019961D02*
X5487444Y-9029485D01*
X5487444Y-9029485D02*
X5496968Y-9039009D01*
X5496968Y-9039009D02*
X5506491Y-9058056D01*
X5506491Y-9058056D02*
X5506491Y-9105675D01*
X5506491Y-9105675D02*
X5496968Y-9124723D01*
X5496968Y-9124723D02*
X5487444Y-9134247D01*
X5487444Y-9134247D02*
X5468396Y-9143771D01*
X5468396Y-9143771D02*
X5411253Y-9143771D01*
X5411253Y-9143771D02*
X5392206Y-9134247D01*
X5392206Y-9134247D02*
X5382682Y-9124723D01*
X5601729Y-9143771D02*
X5639825Y-9143771D01*
X5639825Y-9143771D02*
X5658872Y-9134247D01*
X5658872Y-9134247D02*
X5668396Y-9124723D01*
X5668396Y-9124723D02*
X5687444Y-9096152D01*
X5687444Y-9096152D02*
X5696967Y-9058056D01*
X5696967Y-9058056D02*
X5696967Y-8981866D01*
X5696967Y-8981866D02*
X5687444Y-8962818D01*
X5687444Y-8962818D02*
X5677920Y-8953294D01*
X5677920Y-8953294D02*
X5658872Y-8943771D01*
X5658872Y-8943771D02*
X5620777Y-8943771D01*
X5620777Y-8943771D02*
X5601729Y-8953294D01*
X5601729Y-8953294D02*
X5592206Y-8962818D01*
X5592206Y-8962818D02*
X5582682Y-8981866D01*
X5582682Y-8981866D02*
X5582682Y-9029485D01*
X5582682Y-9029485D02*
X5592206Y-9048533D01*
X5592206Y-9048533D02*
X5601729Y-9058056D01*
X5601729Y-9058056D02*
X5620777Y-9067580D01*
X5620777Y-9067580D02*
X5658872Y-9067580D01*
X5658872Y-9067580D02*
X5677920Y-9058056D01*
X5677920Y-9058056D02*
X5687444Y-9048533D01*
X5687444Y-9048533D02*
X5696967Y-9029485D01*
X5868396Y-9010437D02*
X5868396Y-9143771D01*
X5820777Y-8934247D02*
X5773158Y-9077104D01*
X5773158Y-9077104D02*
X5896967Y-9077104D01*
X5963634Y-8943771D02*
X5963634Y-8981866D01*
X6039825Y-8943771D02*
X6039825Y-8981866D01*
X6335063Y-9219961D02*
X6325539Y-9210437D01*
X6325539Y-9210437D02*
X6306491Y-9181866D01*
X6306491Y-9181866D02*
X6296968Y-9162818D01*
X6296968Y-9162818D02*
X6287444Y-9134247D01*
X6287444Y-9134247D02*
X6277920Y-9086628D01*
X6277920Y-9086628D02*
X6277920Y-9048533D01*
X6277920Y-9048533D02*
X6287444Y-9000913D01*
X6287444Y-9000913D02*
X6296968Y-8972342D01*
X6296968Y-8972342D02*
X6306491Y-8953294D01*
X6306491Y-8953294D02*
X6325539Y-8924723D01*
X6325539Y-8924723D02*
X6335063Y-8915199D01*
X6516015Y-9143771D02*
X6401729Y-9143771D01*
X6458872Y-9143771D02*
X6458872Y-8943771D01*
X6458872Y-8943771D02*
X6439825Y-8972342D01*
X6439825Y-8972342D02*
X6420777Y-8991390D01*
X6420777Y-8991390D02*
X6401729Y-9000913D01*
X6582682Y-8943771D02*
X6716015Y-8943771D01*
X6716015Y-8943771D02*
X6630301Y-9143771D01*
X6944587Y-9143771D02*
X6944587Y-8943771D01*
X7030301Y-9143771D02*
X7030301Y-9039009D01*
X7030301Y-9039009D02*
X7020777Y-9019961D01*
X7020777Y-9019961D02*
X7001730Y-9010437D01*
X7001730Y-9010437D02*
X6973158Y-9010437D01*
X6973158Y-9010437D02*
X6954110Y-9019961D01*
X6954110Y-9019961D02*
X6944587Y-9029485D01*
X7154110Y-9143771D02*
X7135063Y-9134247D01*
X7135063Y-9134247D02*
X7125539Y-9124723D01*
X7125539Y-9124723D02*
X7116015Y-9105675D01*
X7116015Y-9105675D02*
X7116015Y-9048533D01*
X7116015Y-9048533D02*
X7125539Y-9029485D01*
X7125539Y-9029485D02*
X7135063Y-9019961D01*
X7135063Y-9019961D02*
X7154110Y-9010437D01*
X7154110Y-9010437D02*
X7182682Y-9010437D01*
X7182682Y-9010437D02*
X7201730Y-9019961D01*
X7201730Y-9019961D02*
X7211253Y-9029485D01*
X7211253Y-9029485D02*
X7220777Y-9048533D01*
X7220777Y-9048533D02*
X7220777Y-9105675D01*
X7220777Y-9105675D02*
X7211253Y-9124723D01*
X7211253Y-9124723D02*
X7201730Y-9134247D01*
X7201730Y-9134247D02*
X7182682Y-9143771D01*
X7182682Y-9143771D02*
X7154110Y-9143771D01*
X7335063Y-9143771D02*
X7316015Y-9134247D01*
X7316015Y-9134247D02*
X7306491Y-9115199D01*
X7306491Y-9115199D02*
X7306491Y-8943771D01*
X7487444Y-9134247D02*
X7468396Y-9143771D01*
X7468396Y-9143771D02*
X7430301Y-9143771D01*
X7430301Y-9143771D02*
X7411253Y-9134247D01*
X7411253Y-9134247D02*
X7401730Y-9115199D01*
X7401730Y-9115199D02*
X7401730Y-9039009D01*
X7401730Y-9039009D02*
X7411253Y-9019961D01*
X7411253Y-9019961D02*
X7430301Y-9010437D01*
X7430301Y-9010437D02*
X7468396Y-9010437D01*
X7468396Y-9010437D02*
X7487444Y-9019961D01*
X7487444Y-9019961D02*
X7496968Y-9039009D01*
X7496968Y-9039009D02*
X7496968Y-9058056D01*
X7496968Y-9058056D02*
X7401730Y-9077104D01*
X7573158Y-9134247D02*
X7592206Y-9143771D01*
X7592206Y-9143771D02*
X7630301Y-9143771D01*
X7630301Y-9143771D02*
X7649349Y-9134247D01*
X7649349Y-9134247D02*
X7658872Y-9115199D01*
X7658872Y-9115199D02*
X7658872Y-9105675D01*
X7658872Y-9105675D02*
X7649349Y-9086628D01*
X7649349Y-9086628D02*
X7630301Y-9077104D01*
X7630301Y-9077104D02*
X7601730Y-9077104D01*
X7601730Y-9077104D02*
X7582682Y-9067580D01*
X7582682Y-9067580D02*
X7573158Y-9048533D01*
X7573158Y-9048533D02*
X7573158Y-9039009D01*
X7573158Y-9039009D02*
X7582682Y-9019961D01*
X7582682Y-9019961D02*
X7601730Y-9010437D01*
X7601730Y-9010437D02*
X7630301Y-9010437D01*
X7630301Y-9010437D02*
X7649349Y-9019961D01*
X7725539Y-9219961D02*
X7735063Y-9210437D01*
X7735063Y-9210437D02*
X7754111Y-9181866D01*
X7754111Y-9181866D02*
X7763634Y-9162818D01*
X7763634Y-9162818D02*
X7773158Y-9134247D01*
X7773158Y-9134247D02*
X7782682Y-9086628D01*
X7782682Y-9086628D02*
X7782682Y-9048533D01*
X7782682Y-9048533D02*
X7773158Y-9000913D01*
X7773158Y-9000913D02*
X7763634Y-8972342D01*
X7763634Y-8972342D02*
X7754111Y-8953294D01*
X7754111Y-8953294D02*
X7735063Y-8924723D01*
X7735063Y-8924723D02*
X7725539Y-8915199D01*
M02*
