G04 #@! TF.GenerationSoftware,KiCad,Pcbnew,7.0.11-7.0.11~ubuntu22.04.1*
G04 #@! TF.CreationDate,2024-06-26T13:47:26+02:00*
G04 #@! TF.ProjectId,S3-silicon-Sharp-Touch,53332d73-696c-4696-936f-6e2d53686172,rev?*
G04 #@! TF.SameCoordinates,Original*
G04 #@! TF.FileFunction,Soldermask,Top*
G04 #@! TF.FilePolarity,Negative*
%FSLAX46Y46*%
G04 Gerber Fmt 4.6, Leading zero omitted, Abs format (unit mm)*
G04 Created by KiCad (PCBNEW 7.0.11-7.0.11~ubuntu22.04.1) date 2024-06-26 13:47:26*
%MOMM*%
%LPD*%
G01*
G04 APERTURE LIST*
G04 Aperture macros list*
%AMRoundRect*
0 Rectangle with rounded corners*
0 $1 Rounding radius*
0 $2 $3 $4 $5 $6 $7 $8 $9 X,Y pos of 4 corners*
0 Add a 4 corners polygon primitive as box body*
4,1,4,$2,$3,$4,$5,$6,$7,$8,$9,$2,$3,0*
0 Add four circle primitives for the rounded corners*
1,1,$1+$1,$2,$3*
1,1,$1+$1,$4,$5*
1,1,$1+$1,$6,$7*
1,1,$1+$1,$8,$9*
0 Add four rect primitives between the rounded corners*
20,1,$1+$1,$2,$3,$4,$5,0*
20,1,$1+$1,$4,$5,$6,$7,0*
20,1,$1+$1,$6,$7,$8,$9,0*
20,1,$1+$1,$8,$9,$2,$3,0*%
G04 Aperture macros list end*
%ADD10R,2.514600X0.609600*%
%ADD11R,2.616200X0.609600*%
%ADD12C,0.650000*%
%ADD13R,0.600000X1.450000*%
%ADD14R,0.300000X1.450000*%
%ADD15O,1.000000X2.100000*%
%ADD16O,1.000000X1.600000*%
%ADD17RoundRect,0.200000X-0.275000X0.200000X-0.275000X-0.200000X0.275000X-0.200000X0.275000X0.200000X0*%
%ADD18R,1.193800X0.990600*%
%ADD19RoundRect,0.250000X-0.475000X0.250000X-0.475000X-0.250000X0.475000X-0.250000X0.475000X0.250000X0*%
%ADD20RoundRect,0.200000X-0.200000X-0.275000X0.200000X-0.275000X0.200000X0.275000X-0.200000X0.275000X0*%
%ADD21R,0.500000X0.320000*%
%ADD22RoundRect,0.225000X-0.250000X0.225000X-0.250000X-0.225000X0.250000X-0.225000X0.250000X0.225000X0*%
%ADD23RoundRect,0.218750X-0.256250X0.218750X-0.256250X-0.218750X0.256250X-0.218750X0.256250X0.218750X0*%
%ADD24RoundRect,0.200000X0.200000X0.275000X-0.200000X0.275000X-0.200000X-0.275000X0.200000X-0.275000X0*%
%ADD25RoundRect,0.243750X-0.243750X-0.456250X0.243750X-0.456250X0.243750X0.456250X-0.243750X0.456250X0*%
%ADD26RoundRect,0.135000X-0.185000X0.135000X-0.185000X-0.135000X0.185000X-0.135000X0.185000X0.135000X0*%
%ADD27RoundRect,0.150000X-0.587500X-0.150000X0.587500X-0.150000X0.587500X0.150000X-0.587500X0.150000X0*%
%ADD28R,0.220000X0.475000*%
%ADD29R,0.320000X0.650000*%
%ADD30RoundRect,0.225000X0.250000X-0.225000X0.250000X0.225000X-0.250000X0.225000X-0.250000X-0.225000X0*%
%ADD31RoundRect,0.150000X-0.150000X0.587500X-0.150000X-0.587500X0.150000X-0.587500X0.150000X0.587500X0*%
%ADD32RoundRect,0.250000X-0.262500X-0.450000X0.262500X-0.450000X0.262500X0.450000X-0.262500X0.450000X0*%
%ADD33R,1.500000X1.500000*%
%ADD34R,1.000000X3.500000*%
%ADD35R,1.500000X3.400000*%
%ADD36C,2.200000*%
%ADD37R,1.000000X1.800000*%
%ADD38RoundRect,0.150000X-0.825000X-0.150000X0.825000X-0.150000X0.825000X0.150000X-0.825000X0.150000X0*%
%ADD39RoundRect,0.218750X0.218750X0.256250X-0.218750X0.256250X-0.218750X-0.256250X0.218750X-0.256250X0*%
%ADD40R,0.850000X0.200000*%
%ADD41R,0.200000X0.850000*%
%ADD42R,4.050000X4.050000*%
%ADD43RoundRect,0.243750X0.150260X-0.494975X0.494975X-0.150260X-0.150260X0.494975X-0.494975X0.150260X0*%
%ADD44RoundRect,0.225000X-0.225000X-0.375000X0.225000X-0.375000X0.225000X0.375000X-0.225000X0.375000X0*%
%ADD45RoundRect,0.150000X0.150000X-0.512500X0.150000X0.512500X-0.150000X0.512500X-0.150000X-0.512500X0*%
%ADD46RoundRect,0.250000X-0.250000X-0.475000X0.250000X-0.475000X0.250000X0.475000X-0.250000X0.475000X0*%
%ADD47RoundRect,0.200000X0.275000X-0.200000X0.275000X0.200000X-0.275000X0.200000X-0.275000X-0.200000X0*%
%ADD48R,0.558800X0.990600*%
%ADD49R,1.700000X1.700000*%
%ADD50O,1.700000X1.700000*%
%ADD51R,1.500000X0.600000*%
%ADD52RoundRect,0.150000X0.587500X0.150000X-0.587500X0.150000X-0.587500X-0.150000X0.587500X-0.150000X0*%
%ADD53R,0.300000X0.850000*%
%ADD54R,0.800000X2.000000*%
%ADD55R,0.375000X0.500000*%
%ADD56R,0.300000X0.650000*%
G04 APERTURE END LIST*
D10*
X92854300Y-71100001D03*
D11*
X92905100Y-69599999D03*
D12*
X36500000Y-69615000D03*
X42280000Y-69615000D03*
D13*
X36140000Y-68170000D03*
X36940000Y-68170000D03*
D14*
X38140000Y-68170000D03*
X39140000Y-68170000D03*
X39640000Y-68170000D03*
X40640000Y-68170000D03*
D13*
X41840000Y-68170000D03*
X42640000Y-68170000D03*
X42640000Y-68170000D03*
X41840000Y-68170000D03*
D14*
X41140000Y-68170000D03*
X40140000Y-68170000D03*
X38640000Y-68170000D03*
X37640000Y-68170000D03*
D13*
X36940000Y-68170000D03*
X36140000Y-68170000D03*
D15*
X35070000Y-69085000D03*
D16*
X35070000Y-73265000D03*
D15*
X43710000Y-69085000D03*
D16*
X43710000Y-73265000D03*
D17*
X76020000Y-44565000D03*
X76020000Y-46215000D03*
D18*
X68159999Y-56339999D03*
X69860001Y-56339999D03*
X69860001Y-55040001D03*
X68159999Y-55040001D03*
D19*
X78800000Y-38000000D03*
X78800000Y-39900000D03*
D20*
X41335000Y-44280000D03*
X42985000Y-44280000D03*
D21*
X63180000Y-49020000D03*
X63180000Y-49520000D03*
X63180000Y-50020000D03*
X63180000Y-50520000D03*
X64180000Y-50520000D03*
X64180000Y-50020000D03*
X64180000Y-49520000D03*
X64180000Y-49020000D03*
D22*
X64270000Y-51810000D03*
X64270000Y-53360000D03*
D23*
X78940000Y-41492500D03*
X78940000Y-43067500D03*
D24*
X38125000Y-64860000D03*
X36475000Y-64860000D03*
D25*
X29575000Y-60100000D03*
X31450000Y-60100000D03*
D26*
X84530000Y-37420000D03*
X84530000Y-38440000D03*
D27*
X44982500Y-42370000D03*
X44982500Y-44270000D03*
X46857500Y-43320000D03*
D25*
X58902500Y-48433332D03*
X60777500Y-48433332D03*
D28*
X88700004Y-40207499D03*
X89100003Y-40207499D03*
X89500003Y-40207499D03*
X89900002Y-40207499D03*
X88700004Y-37782501D03*
X89100003Y-37782501D03*
X89500003Y-37782501D03*
X89900002Y-37782501D03*
D29*
X87750006Y-37910000D03*
X90850000Y-37910000D03*
X87750006Y-40080000D03*
X90850000Y-40080000D03*
D22*
X80670000Y-38185000D03*
X80670000Y-39735000D03*
D19*
X55255000Y-47775000D03*
X55255000Y-49675000D03*
D30*
X80590000Y-43055000D03*
X80590000Y-41505000D03*
D31*
X46310000Y-59415000D03*
X44410000Y-59415000D03*
X45360000Y-61290000D03*
D19*
X70100000Y-37550000D03*
X70100000Y-39450000D03*
D22*
X66085000Y-54915000D03*
X66085000Y-56465000D03*
D17*
X73600000Y-54865000D03*
X73600000Y-56515000D03*
D26*
X83260000Y-38580000D03*
X83260000Y-39600000D03*
D22*
X75220000Y-50800000D03*
X75220000Y-52350000D03*
D32*
X47780000Y-52420000D03*
X49605000Y-52420000D03*
D33*
X103500000Y-69870000D03*
D34*
X54660000Y-73530000D03*
X52660000Y-73530000D03*
D35*
X57010000Y-67780000D03*
X50310000Y-67780000D03*
D24*
X68955000Y-58510000D03*
X67305000Y-58510000D03*
D36*
X105020000Y-73660000D03*
D19*
X76650000Y-37550000D03*
X76650000Y-39450000D03*
D37*
X74625000Y-40400000D03*
X72125000Y-40400000D03*
D36*
X30240000Y-73660000D03*
D38*
X81780000Y-68570000D03*
X81780000Y-69840000D03*
X81780000Y-71110000D03*
X81780000Y-72380000D03*
X86730000Y-72380000D03*
X86730000Y-71110000D03*
X86730000Y-69840000D03*
X86730000Y-68570000D03*
D36*
X105020000Y-33950000D03*
D39*
X78437500Y-50910000D03*
X76862500Y-50910000D03*
D40*
X72800000Y-50525000D03*
X72800000Y-50125000D03*
X72800000Y-49725000D03*
X72800000Y-49325000D03*
X72800000Y-48925000D03*
X72800000Y-48525000D03*
X72800000Y-48125000D03*
X72800000Y-47725000D03*
X72800000Y-47325000D03*
X72800000Y-46925000D03*
X72800000Y-46525000D03*
X72800000Y-46125000D03*
X72800000Y-45725000D03*
X72800000Y-45325000D03*
D41*
X71950000Y-44475000D03*
X71550000Y-44475000D03*
X71150000Y-44475000D03*
X70750000Y-44475000D03*
X70350000Y-44475000D03*
X69950000Y-44475000D03*
X69550000Y-44475000D03*
X69150000Y-44475000D03*
X68750000Y-44475000D03*
X68350000Y-44475000D03*
X67950000Y-44475000D03*
X67550000Y-44475000D03*
X67150000Y-44475000D03*
X66750000Y-44475000D03*
D40*
X65900000Y-45325000D03*
X65900000Y-45725000D03*
X65900000Y-46125000D03*
X65900000Y-46525000D03*
X65900000Y-46925000D03*
X65900000Y-47325000D03*
X65900000Y-47725000D03*
X65900000Y-48125000D03*
X65900000Y-48525000D03*
X65900000Y-48925000D03*
X65900000Y-49325000D03*
X65900000Y-49725000D03*
X65900000Y-50125000D03*
X65900000Y-50525000D03*
D41*
X66750000Y-51375000D03*
X67150000Y-51375000D03*
X67550000Y-51375000D03*
X67950000Y-51375000D03*
X68350000Y-51375000D03*
X68750000Y-51375000D03*
X69150000Y-51375000D03*
X69550000Y-51375000D03*
X69950000Y-51375000D03*
X70350000Y-51375000D03*
X70750000Y-51375000D03*
X71150000Y-51375000D03*
X71550000Y-51375000D03*
X71950000Y-51375000D03*
D42*
X69350000Y-47925000D03*
D43*
X59137087Y-52212913D03*
X60462913Y-50887087D03*
D44*
X44052500Y-57062500D03*
X47352500Y-57062500D03*
D24*
X42985000Y-42350000D03*
X41335000Y-42350000D03*
D45*
X51160000Y-43397500D03*
X52110000Y-43397500D03*
X53060000Y-43397500D03*
X53060000Y-41122500D03*
X51160000Y-41122500D03*
D17*
X78125000Y-69825000D03*
X78125000Y-71475000D03*
D22*
X80270000Y-53080000D03*
X80270000Y-54630000D03*
D25*
X58902500Y-44080000D03*
X60777500Y-44080000D03*
D26*
X83230000Y-41280000D03*
X83230000Y-42300000D03*
D36*
X30240000Y-33950000D03*
D25*
X58902500Y-46256666D03*
X60777500Y-46256666D03*
D46*
X47480000Y-40010000D03*
X49380000Y-40010000D03*
D26*
X84580000Y-40680000D03*
X84580000Y-41700000D03*
D47*
X54210000Y-57105000D03*
X54210000Y-55455000D03*
D22*
X77290000Y-41505000D03*
X77290000Y-43055000D03*
D25*
X29575000Y-63500000D03*
X31450000Y-63500000D03*
D48*
X49599998Y-57610000D03*
X50549999Y-57610000D03*
X51500000Y-57610000D03*
X51500000Y-54892200D03*
X50549999Y-54892200D03*
X49599998Y-54892200D03*
D49*
X30150000Y-41840000D03*
D50*
X30150000Y-44380000D03*
X30150000Y-46920000D03*
X30150000Y-49460000D03*
X30150000Y-52000000D03*
X30150000Y-54540000D03*
D51*
X81280000Y-50880000D03*
X84780000Y-50880000D03*
X84780000Y-49280000D03*
X81280000Y-49280000D03*
D47*
X56310000Y-57105000D03*
X56310000Y-55455000D03*
D52*
X39340000Y-44270000D03*
X39340000Y-42370000D03*
X37465000Y-43320000D03*
D22*
X76020000Y-47755000D03*
X76020000Y-49305000D03*
D30*
X71960000Y-56465000D03*
X71960000Y-54915000D03*
D24*
X46225000Y-64360000D03*
X44575000Y-64360000D03*
D49*
X37400000Y-34130000D03*
D50*
X39940000Y-34130000D03*
X42480000Y-34130000D03*
X45020000Y-34130000D03*
X47560000Y-34130000D03*
X50100000Y-34130000D03*
X52640000Y-34130000D03*
X55180000Y-34130000D03*
X57720000Y-34130000D03*
X60260000Y-34130000D03*
X62800000Y-34130000D03*
D53*
X65320000Y-63595000D03*
X65820000Y-63595000D03*
X66320000Y-63595000D03*
X66820000Y-63595000D03*
X67320000Y-63595000D03*
X67820000Y-63595000D03*
X68320000Y-63595000D03*
X68820000Y-63595000D03*
X69320000Y-63595000D03*
X69820000Y-63595000D03*
D54*
X63620000Y-66770000D03*
X71520000Y-66770000D03*
D33*
X78030000Y-74340000D03*
D30*
X64260000Y-56465000D03*
X64260000Y-54915000D03*
D55*
X48462500Y-46760000D03*
D56*
X49000000Y-46835000D03*
D55*
X49537500Y-46760000D03*
X49537500Y-45060000D03*
D56*
X49000000Y-44985000D03*
D55*
X48462500Y-45060000D03*
M02*
