G04 #@! TF.GenerationSoftware,KiCad,Pcbnew,7.0.11-7.0.11~ubuntu22.04.1*
G04 #@! TF.CreationDate,2024-06-25T15:30:52+02:00*
G04 #@! TF.ProjectId,S3-silicon-Sharp-Touch,53332d73-696c-4696-936f-6e2d53686172,rev?*
G04 #@! TF.SameCoordinates,Original*
G04 #@! TF.FileFunction,Copper,L4,Bot*
G04 #@! TF.FilePolarity,Positive*
%FSLAX46Y46*%
G04 Gerber Fmt 4.6, Leading zero omitted, Abs format (unit mm)*
G04 Created by KiCad (PCBNEW 7.0.11-7.0.11~ubuntu22.04.1) date 2024-06-25 15:30:52*
%MOMM*%
%LPD*%
G01*
G04 APERTURE LIST*
G04 #@! TA.AperFunction,ComponentPad*
%ADD10O,1.000000X2.100000*%
G04 #@! TD*
G04 #@! TA.AperFunction,ComponentPad*
%ADD11O,1.000000X1.600000*%
G04 #@! TD*
G04 #@! TA.AperFunction,ComponentPad*
%ADD12R,1.700000X1.700000*%
G04 #@! TD*
G04 #@! TA.AperFunction,ComponentPad*
%ADD13O,1.700000X1.700000*%
G04 #@! TD*
G04 #@! TA.AperFunction,ViaPad*
%ADD14C,0.600000*%
G04 #@! TD*
G04 #@! TA.AperFunction,ViaPad*
%ADD15C,0.800000*%
G04 #@! TD*
G04 #@! TA.AperFunction,ViaPad*
%ADD16C,0.400000*%
G04 #@! TD*
G04 #@! TA.AperFunction,Conductor*
%ADD17C,0.200000*%
G04 #@! TD*
G04 #@! TA.AperFunction,Conductor*
%ADD18C,0.250000*%
G04 #@! TD*
G04 #@! TA.AperFunction,Conductor*
%ADD19C,0.400000*%
G04 #@! TD*
G04 APERTURE END LIST*
D10*
X35070000Y-69085000D03*
D11*
X35070000Y-73265000D03*
D10*
X43710000Y-69085000D03*
D11*
X43710000Y-73265000D03*
D12*
X30150000Y-41840000D03*
D13*
X30150000Y-44380000D03*
X30150000Y-46920000D03*
X30150000Y-49460000D03*
X30150000Y-52000000D03*
X30150000Y-54540000D03*
D12*
X37400000Y-34130000D03*
D13*
X39940000Y-34130000D03*
X42480000Y-34130000D03*
X45020000Y-34130000D03*
X47560000Y-34130000D03*
X50100000Y-34130000D03*
X52640000Y-34130000D03*
X55180000Y-34130000D03*
X57720000Y-34130000D03*
X60260000Y-34130000D03*
X62800000Y-34130000D03*
D14*
X51490000Y-53520000D03*
D15*
X52050000Y-60150000D03*
D14*
X49000000Y-44190000D03*
X92172000Y-47320000D03*
X81610000Y-41950000D03*
X69540000Y-61900000D03*
X83094666Y-46200000D03*
X47110000Y-64350000D03*
X81560000Y-55913630D03*
X101268000Y-47320000D03*
X81520000Y-42973750D03*
X102785324Y-46200000D03*
D16*
X76400000Y-41670000D03*
D14*
X87624000Y-47320000D03*
X98241326Y-46200000D03*
X80080000Y-48490000D03*
X77246666Y-52530000D03*
D15*
X43250000Y-67015000D03*
D14*
X101270658Y-46200000D03*
X99755992Y-46200000D03*
D15*
X54900000Y-46470000D03*
D14*
X81560000Y-47320000D03*
X88360000Y-72390000D03*
X80822867Y-44235049D03*
X63525331Y-51554669D03*
X93697328Y-46200000D03*
D16*
X89110000Y-38670000D03*
D14*
X96720000Y-47320000D03*
X80930000Y-48470000D03*
X102784000Y-47320000D03*
D15*
X35600000Y-67195000D03*
D14*
X71400000Y-37570000D03*
X86108000Y-47320000D03*
X90667996Y-46200000D03*
X93688000Y-47320000D03*
X98236000Y-47320000D03*
D16*
X75912275Y-47133376D03*
D14*
X81560000Y-53540904D03*
X99752000Y-47320000D03*
X50550000Y-58600000D03*
X46120000Y-45790000D03*
X81526462Y-43672876D03*
X81560000Y-54727267D03*
X99320000Y-68830000D03*
X78495000Y-49750000D03*
X52240000Y-45260000D03*
X84609332Y-46200000D03*
X80080000Y-49480000D03*
X81580000Y-46200000D03*
X55590000Y-73540000D03*
X104300000Y-46200000D03*
X86123998Y-46200000D03*
X63190000Y-56700000D03*
X79300000Y-49740000D03*
D16*
X75540000Y-38400000D03*
D14*
X89153330Y-46200000D03*
X78940000Y-52530000D03*
X89140000Y-47320000D03*
X82750000Y-37650000D03*
X47810000Y-53500000D03*
X46500000Y-40010000D03*
X92182662Y-46200000D03*
X81830000Y-40560000D03*
X83076000Y-47320000D03*
X104300000Y-47320000D03*
X96726660Y-46200000D03*
X82220000Y-39890000D03*
X77590000Y-49750000D03*
X84592000Y-47320000D03*
X55550000Y-74740000D03*
X76400000Y-52530000D03*
X55270000Y-50610000D03*
X89110000Y-35640000D03*
X69124402Y-48790000D03*
D16*
X79860000Y-38180000D03*
D14*
X90656000Y-47320000D03*
X87638664Y-46200000D03*
X95204000Y-47320000D03*
X81560000Y-57100000D03*
X70980000Y-56460000D03*
D15*
X58900000Y-50450000D03*
D14*
X95211994Y-46200000D03*
D15*
X72870000Y-57950000D03*
D14*
X66625000Y-54065000D03*
X52320000Y-39800000D03*
X72920000Y-53345000D03*
X56607281Y-47672719D03*
D16*
X70408248Y-41971752D03*
D14*
X60391865Y-41742806D03*
X75680000Y-40990000D03*
X77360000Y-44300000D03*
X74000000Y-49925000D03*
X37940000Y-45040000D03*
D16*
X74540000Y-49310000D03*
D14*
X62800000Y-41660000D03*
D16*
X71990000Y-48930000D03*
D14*
X48609241Y-42770809D03*
X58530000Y-38940000D03*
D16*
X72060000Y-43310000D03*
X71406091Y-42903909D03*
D14*
X58360000Y-39770000D03*
D16*
X70939092Y-43413909D03*
D14*
X58980000Y-40330000D03*
D16*
X70536664Y-45289989D03*
D14*
X53070000Y-44500000D03*
X67810000Y-59460000D03*
X44400000Y-60690000D03*
X44860000Y-57090000D03*
X51154065Y-44875500D03*
X52030000Y-47760000D03*
X90170000Y-39570000D03*
X84050000Y-39600000D03*
D16*
X73800000Y-46600000D03*
X72416989Y-42799121D03*
X71917956Y-46501608D03*
D14*
X84420000Y-38910000D03*
X66960000Y-57570000D03*
X75166909Y-47216646D03*
X65810000Y-57830000D03*
X74535060Y-47924939D03*
D16*
X67010000Y-43130000D03*
D14*
X59623199Y-41379959D03*
D16*
X66730000Y-52910000D03*
X68020000Y-50410000D03*
X36900000Y-46920000D03*
X35821091Y-53321091D03*
X35940000Y-42610000D03*
D14*
X65104928Y-57355259D03*
X74731789Y-48673211D03*
X68020000Y-57360000D03*
D16*
X74740000Y-46600000D03*
D14*
X68830000Y-59600000D03*
X73330000Y-42560000D03*
D17*
X69559326Y-49840000D02*
X68689477Y-49840000D01*
X72208333Y-49489485D02*
X69909842Y-49489485D01*
X69909842Y-49489485D02*
X69559326Y-49840000D01*
X68338962Y-49489485D02*
X42389485Y-49489485D01*
X68689477Y-49840000D02*
X68338962Y-49489485D01*
X72387818Y-49310000D02*
X72208333Y-49489485D01*
X74540000Y-49310000D02*
X72387818Y-49310000D01*
X42389485Y-49489485D02*
X37940000Y-45040000D01*
X68855163Y-49440000D02*
X68345163Y-48930000D01*
X62800000Y-44980000D02*
X62800000Y-41660000D01*
X49790000Y-44020761D02*
X48609241Y-42840002D01*
X66750000Y-48930000D02*
X54160761Y-48930000D01*
X54160761Y-48930000D02*
X49790000Y-44559239D01*
X66750000Y-48930000D02*
X62800000Y-44980000D01*
X69903641Y-48930000D02*
X69393641Y-49440000D01*
X48609241Y-42840002D02*
X48609241Y-42770809D01*
X71990000Y-48930000D02*
X69903641Y-48930000D01*
X49790000Y-44559239D02*
X49790000Y-44020761D01*
X69393641Y-49440000D02*
X68855163Y-49440000D01*
X68345163Y-48930000D02*
X66750000Y-48930000D01*
X58530000Y-38940000D02*
X58530000Y-38950000D01*
X59000000Y-39420000D02*
X58680000Y-39100000D01*
X66800000Y-39420000D02*
X59000000Y-39420000D01*
X58530000Y-38950000D02*
X58770000Y-39190000D01*
X71856091Y-43106091D02*
X71856091Y-42717512D01*
X71856091Y-42717512D02*
X71578579Y-42440000D01*
X71578579Y-42440000D02*
X69820000Y-42440000D01*
X69820000Y-42440000D02*
X66800000Y-39420000D01*
X72060000Y-43310000D02*
X71856091Y-43106091D01*
X66521374Y-39770000D02*
X58360000Y-39770000D01*
X67520000Y-41350000D02*
X67520000Y-40768626D01*
X69073909Y-42903909D02*
X67520000Y-41350000D01*
X66690000Y-39938626D02*
X66521374Y-39770000D01*
X71406091Y-42903909D02*
X69193909Y-42903909D01*
X67520000Y-40768626D02*
X66690000Y-39938626D01*
X69193909Y-42903909D02*
X69073909Y-42903909D01*
X70939092Y-43413909D02*
X69103077Y-43413909D01*
X66600542Y-40330000D02*
X58980000Y-40330000D01*
X67180000Y-40909458D02*
X66600542Y-40330000D01*
X69103077Y-43413909D02*
X67180000Y-41490832D01*
X67180000Y-41490832D02*
X67180000Y-40909458D01*
X56690000Y-39000000D02*
X52430000Y-39000000D01*
X59397818Y-40690000D02*
X59207818Y-40880000D01*
X66840000Y-41781664D02*
X66840000Y-41205855D01*
X58570000Y-40880000D02*
X56690000Y-39000000D01*
X66840000Y-41205855D02*
X66324145Y-40690000D01*
X66324145Y-40690000D02*
X59397818Y-40690000D01*
X70536664Y-45289989D02*
X70348325Y-45289989D01*
X52430000Y-39000000D02*
X47560000Y-34130000D01*
X70348325Y-45289989D02*
X66840000Y-41781664D01*
X59207818Y-40880000D02*
X58570000Y-40880000D01*
X73900832Y-46600000D02*
X81220832Y-39280000D01*
X83730000Y-39280000D02*
X84050000Y-39600000D01*
X81220832Y-39280000D02*
X83730000Y-39280000D01*
X73800000Y-46600000D02*
X73900832Y-46600000D01*
X54360000Y-38390000D02*
X68009412Y-38390000D01*
X72416989Y-42797577D02*
X72416989Y-42799121D01*
X50100000Y-34130000D02*
X54360000Y-38390000D01*
X68009412Y-38390000D02*
X72416989Y-42797577D01*
X84390000Y-38940000D02*
X84420000Y-38910000D01*
X71917956Y-46501608D02*
X72319564Y-46100000D01*
X72319564Y-46100000D02*
X73920000Y-46100000D01*
X81080000Y-38940000D02*
X84390000Y-38940000D01*
X73920000Y-46100000D02*
X81080000Y-38940000D01*
D18*
X74850000Y-51860000D02*
X75795000Y-50915000D01*
X75795000Y-47835000D02*
X75090000Y-47130000D01*
X69838457Y-51860000D02*
X74850000Y-51860000D01*
X75795000Y-50915000D02*
X75795000Y-47835000D01*
X68250000Y-53448457D02*
X69838457Y-51860000D01*
X68250000Y-56280000D02*
X68250000Y-53448457D01*
X66960000Y-57570000D02*
X68250000Y-56280000D01*
X74938112Y-47924939D02*
X74535060Y-47924939D01*
X75405000Y-48391827D02*
X74938112Y-47924939D01*
X74480000Y-51470000D02*
X75405000Y-50545000D01*
X65810000Y-57830000D02*
X67726827Y-55913173D01*
X67726827Y-53420087D02*
X69676914Y-51470000D01*
X69676914Y-51470000D02*
X74480000Y-51470000D01*
X75405000Y-50545000D02*
X75405000Y-48391827D01*
X67726827Y-55913173D02*
X67726827Y-53420087D01*
D17*
X64970000Y-41090000D02*
X59913158Y-41090000D01*
X59913158Y-41090000D02*
X59623199Y-41379959D01*
X67010000Y-43130000D02*
X64970000Y-41090000D01*
X66730000Y-52910000D02*
X37010000Y-52910000D01*
X36210000Y-53780000D02*
X34470000Y-53780000D01*
X37010000Y-52910000D02*
X37010000Y-52980000D01*
X37010000Y-52980000D02*
X36210000Y-53780000D01*
X34470000Y-53780000D02*
X30150000Y-49460000D01*
X43450000Y-52510000D02*
X65920000Y-52510000D01*
X65920000Y-52510000D02*
X68020000Y-50410000D01*
X37860000Y-46920000D02*
X43450000Y-52510000D01*
X36900000Y-46920000D02*
X37860000Y-46920000D01*
D19*
X35940000Y-53202182D02*
X35821091Y-53321091D01*
X35940000Y-42610000D02*
X35940000Y-53202182D01*
D18*
X75015000Y-50355000D02*
X75015000Y-48956422D01*
X67290000Y-55170187D02*
X67290000Y-53305371D01*
X69515371Y-51080000D02*
X74290000Y-51080000D01*
X67290000Y-53305371D02*
X69515371Y-51080000D01*
X65104928Y-57355259D02*
X67290000Y-55170187D01*
X74290000Y-51080000D02*
X75015000Y-50355000D01*
X75015000Y-48956422D02*
X74731789Y-48673211D01*
X70000000Y-52250000D02*
X75090000Y-52250000D01*
X75090000Y-52250000D02*
X76510000Y-50830000D01*
D17*
X74740000Y-46600000D02*
X76060000Y-46600000D01*
D18*
X76510000Y-50830000D02*
X76510000Y-47050000D01*
X68830000Y-53420000D02*
X69580000Y-52670000D01*
X68020000Y-57360000D02*
X68830000Y-56550000D01*
X69580000Y-52670000D02*
X70000000Y-52250000D01*
X68830000Y-56550000D02*
X68830000Y-53420000D01*
D17*
X76060000Y-46600000D02*
X76510000Y-47050000D01*
X74005000Y-53895000D02*
X72625000Y-53895000D01*
X81230000Y-38210000D02*
X84530000Y-38210000D01*
X68820000Y-59590000D02*
X68830000Y-59600000D01*
X76950000Y-49887818D02*
X76950000Y-50950000D01*
X85360000Y-40617156D02*
X76940000Y-49037156D01*
X73330000Y-42560000D02*
X76880000Y-42560000D01*
X84530000Y-38210000D02*
X85360000Y-39040000D01*
X72625000Y-53895000D02*
X68820000Y-57700000D01*
X76940000Y-49877818D02*
X76950000Y-49887818D01*
X76950000Y-50950000D02*
X74005000Y-53895000D01*
X85360000Y-39040000D02*
X85360000Y-40617156D01*
X76940000Y-49037156D02*
X76940000Y-49877818D01*
X76880000Y-42560000D02*
X81230000Y-38210000D01*
X68820000Y-57700000D02*
X68820000Y-59590000D01*
G04 #@! TA.AperFunction,Conductor*
G36*
X107442539Y-31520185D02*
G01*
X107488294Y-31572989D01*
X107499500Y-31624500D01*
X107499500Y-48875500D01*
X107479815Y-48942539D01*
X107427011Y-48988294D01*
X107375500Y-48999500D01*
X100064760Y-48999500D01*
X100064554Y-48999459D01*
X100039998Y-48999459D01*
X100039807Y-48999538D01*
X100039619Y-48999615D01*
X100039615Y-48999618D01*
X100039459Y-48999999D01*
X100039476Y-49024616D01*
X100039471Y-49024616D01*
X100039500Y-49024759D01*
X100039500Y-58325467D01*
X100039416Y-58325889D01*
X100039459Y-58350000D01*
X100039500Y-58350099D01*
X100039617Y-58350383D01*
X100039618Y-58350384D01*
X100039808Y-58350462D01*
X100040000Y-58350541D01*
X100040002Y-58350539D01*
X100064616Y-58350524D01*
X100064616Y-58350528D01*
X100064760Y-58350500D01*
X100527096Y-58350500D01*
X100594135Y-58370185D01*
X100639890Y-58422989D01*
X100651083Y-58472689D01*
X100907490Y-76023689D01*
X100888787Y-76091009D01*
X100836657Y-76137530D01*
X100783503Y-76149500D01*
X74327339Y-76149500D01*
X74260300Y-76129815D01*
X74214545Y-76077011D01*
X74203366Y-76028071D01*
X73836692Y-58350524D01*
X73759355Y-54622070D01*
X73777645Y-54554638D01*
X73829488Y-54507798D01*
X73883328Y-54495500D01*
X73957513Y-54495500D01*
X73973697Y-54496560D01*
X74005000Y-54500682D01*
X74005001Y-54500682D01*
X74057254Y-54493802D01*
X74161762Y-54480044D01*
X74307841Y-54419536D01*
X74433282Y-54323282D01*
X74452509Y-54298223D01*
X74463190Y-54286043D01*
X77341043Y-51408190D01*
X77353223Y-51397509D01*
X77378282Y-51378282D01*
X77474536Y-51252841D01*
X77535044Y-51106762D01*
X77550500Y-50989361D01*
X77555682Y-50950000D01*
X77551561Y-50918697D01*
X77550500Y-50902512D01*
X77550500Y-49935305D01*
X77551561Y-49919119D01*
X77555682Y-49887817D01*
X77555682Y-49887816D01*
X77541561Y-49780557D01*
X77540500Y-49764372D01*
X77540500Y-49337252D01*
X77560185Y-49270213D01*
X77576814Y-49249576D01*
X85751044Y-41075345D01*
X85763222Y-41064666D01*
X85788282Y-41045438D01*
X85884536Y-40919997D01*
X85945044Y-40773918D01*
X85960500Y-40656517D01*
X85965682Y-40617156D01*
X85961561Y-40585853D01*
X85960500Y-40569668D01*
X85960500Y-39570003D01*
X89364435Y-39570003D01*
X89384630Y-39749249D01*
X89384631Y-39749254D01*
X89444211Y-39919523D01*
X89540184Y-40072262D01*
X89667738Y-40199816D01*
X89820478Y-40295789D01*
X89988339Y-40354526D01*
X89990745Y-40355368D01*
X89990750Y-40355369D01*
X90169996Y-40375565D01*
X90170000Y-40375565D01*
X90170004Y-40375565D01*
X90349249Y-40355369D01*
X90349252Y-40355368D01*
X90349255Y-40355368D01*
X90519522Y-40295789D01*
X90672262Y-40199816D01*
X90799816Y-40072262D01*
X90895789Y-39919522D01*
X90955368Y-39749255D01*
X90975565Y-39570000D01*
X90955368Y-39390745D01*
X90895789Y-39220478D01*
X90799816Y-39067738D01*
X90672262Y-38940184D01*
X90581635Y-38883239D01*
X90519523Y-38844211D01*
X90349254Y-38784631D01*
X90349249Y-38784630D01*
X90170004Y-38764435D01*
X90169996Y-38764435D01*
X89990750Y-38784630D01*
X89990745Y-38784631D01*
X89820476Y-38844211D01*
X89667737Y-38940184D01*
X89540184Y-39067737D01*
X89444211Y-39220476D01*
X89384631Y-39390745D01*
X89384630Y-39390750D01*
X89364435Y-39569996D01*
X89364435Y-39570003D01*
X85960500Y-39570003D01*
X85960500Y-39087487D01*
X85961561Y-39071301D01*
X85965682Y-39039999D01*
X85965682Y-39039998D01*
X85945044Y-38883239D01*
X85945044Y-38883238D01*
X85884536Y-38737159D01*
X85879614Y-38730745D01*
X85788282Y-38611718D01*
X85788281Y-38611717D01*
X85763228Y-38592493D01*
X85751034Y-38581799D01*
X84988199Y-37818964D01*
X84977504Y-37806769D01*
X84958283Y-37781719D01*
X84958282Y-37781718D01*
X84832841Y-37685464D01*
X84686762Y-37624956D01*
X84686760Y-37624955D01*
X84569361Y-37609500D01*
X84530000Y-37604318D01*
X84498697Y-37608439D01*
X84482513Y-37609500D01*
X81631527Y-37609500D01*
X81564488Y-37589815D01*
X81518733Y-37537011D01*
X81507538Y-37487181D01*
X81459586Y-33950000D01*
X103664341Y-33950000D01*
X103684936Y-34185403D01*
X103684938Y-34185413D01*
X103746094Y-34413655D01*
X103746096Y-34413659D01*
X103746097Y-34413663D01*
X103796031Y-34520746D01*
X103845964Y-34627828D01*
X103845965Y-34627830D01*
X103981505Y-34821402D01*
X104148597Y-34988494D01*
X104342169Y-35124034D01*
X104342171Y-35124035D01*
X104556337Y-35223903D01*
X104784592Y-35285063D01*
X104961032Y-35300499D01*
X104961033Y-35300500D01*
X104961034Y-35300500D01*
X105078967Y-35300500D01*
X105078967Y-35300499D01*
X105255408Y-35285063D01*
X105483663Y-35223903D01*
X105697829Y-35124035D01*
X105891401Y-34988495D01*
X106058495Y-34821401D01*
X106194035Y-34627830D01*
X106293903Y-34413663D01*
X106355063Y-34185408D01*
X106375659Y-33950000D01*
X106355063Y-33714592D01*
X106293903Y-33486337D01*
X106194035Y-33272171D01*
X106194034Y-33272169D01*
X106058494Y-33078597D01*
X105891402Y-32911505D01*
X105697830Y-32775965D01*
X105697828Y-32775964D01*
X105590746Y-32726031D01*
X105483663Y-32676097D01*
X105483659Y-32676096D01*
X105483655Y-32676094D01*
X105255413Y-32614938D01*
X105255403Y-32614936D01*
X105078967Y-32599500D01*
X105078966Y-32599500D01*
X104961034Y-32599500D01*
X104961033Y-32599500D01*
X104784596Y-32614936D01*
X104784586Y-32614938D01*
X104556344Y-32676094D01*
X104556335Y-32676098D01*
X104342171Y-32775964D01*
X104342169Y-32775965D01*
X104148597Y-32911505D01*
X103981506Y-33078597D01*
X103981501Y-33078604D01*
X103845967Y-33272165D01*
X103845965Y-33272169D01*
X103746098Y-33486335D01*
X103746094Y-33486344D01*
X103684938Y-33714586D01*
X103684936Y-33714596D01*
X103664341Y-33949999D01*
X103664341Y-33950000D01*
X81459586Y-33950000D01*
X81428083Y-31626181D01*
X81446857Y-31558881D01*
X81499036Y-31512414D01*
X81552072Y-31500500D01*
X107375500Y-31500500D01*
X107442539Y-31520185D01*
G37*
G04 #@! TD.AperFunction*
G04 #@! TA.AperFunction,Conductor*
G36*
X81322763Y-43591411D02*
G01*
X81368858Y-43643918D01*
X81379248Y-43713011D01*
X81350635Y-43776753D01*
X81344080Y-43783839D01*
X77347181Y-47780739D01*
X77285858Y-47814224D01*
X77216166Y-47809240D01*
X77160233Y-47767368D01*
X77135816Y-47701904D01*
X77135500Y-47693058D01*
X77135500Y-47010651D01*
X77135499Y-47010640D01*
X77125050Y-46927930D01*
X77120664Y-46893208D01*
X77062486Y-46746268D01*
X76994338Y-46652470D01*
X76970859Y-46586667D01*
X76970662Y-46580513D01*
X76960981Y-45184084D01*
X76980199Y-45116915D01*
X77032685Y-45070795D01*
X77101773Y-45060373D01*
X77125932Y-45066189D01*
X77180737Y-45085366D01*
X77180743Y-45085367D01*
X77180745Y-45085368D01*
X77180746Y-45085368D01*
X77180750Y-45085369D01*
X77359996Y-45105565D01*
X77360000Y-45105565D01*
X77360004Y-45105565D01*
X77539249Y-45085369D01*
X77539252Y-45085368D01*
X77539255Y-45085368D01*
X77709522Y-45025789D01*
X77862262Y-44929816D01*
X77989816Y-44802262D01*
X78085789Y-44649522D01*
X78145368Y-44479255D01*
X78165565Y-44300000D01*
X78145368Y-44120745D01*
X78085789Y-43950478D01*
X77989816Y-43797738D01*
X77989813Y-43797735D01*
X77986826Y-43793990D01*
X77960413Y-43729306D01*
X77973165Y-43660609D01*
X78021032Y-43609712D01*
X78082963Y-43592674D01*
X81255600Y-43572162D01*
X81322763Y-43591411D01*
G37*
G04 #@! TD.AperFunction*
G04 #@! TA.AperFunction,Conductor*
G36*
X83280096Y-39900185D02*
G01*
X83319230Y-39944427D01*
X83320506Y-39943626D01*
X83359812Y-40006181D01*
X83420184Y-40102262D01*
X83547738Y-40229816D01*
X83700478Y-40325789D01*
X83842730Y-40375565D01*
X83870745Y-40385368D01*
X83870750Y-40385369D01*
X84049996Y-40405565D01*
X84050000Y-40405565D01*
X84050004Y-40405565D01*
X84229249Y-40385369D01*
X84229252Y-40385368D01*
X84229255Y-40385368D01*
X84399522Y-40325789D01*
X84550957Y-40230635D01*
X84618193Y-40211635D01*
X84685028Y-40232002D01*
X84730243Y-40285270D01*
X84739481Y-40354526D01*
X84709809Y-40417783D01*
X84704610Y-40423310D01*
X81797258Y-43330661D01*
X81735935Y-43364146D01*
X81666243Y-43359162D01*
X81610310Y-43317290D01*
X81585893Y-43251826D01*
X81585590Y-43244713D01*
X81544730Y-40230636D01*
X81541687Y-40006181D01*
X81560461Y-39938881D01*
X81612640Y-39892414D01*
X81665676Y-39880500D01*
X83213057Y-39880500D01*
X83280096Y-39900185D01*
G37*
G04 #@! TD.AperFunction*
M02*
