G04 #@! TF.GenerationSoftware,KiCad,Pcbnew,7.0.11-7.0.11~ubuntu22.04.1*
G04 #@! TF.CreationDate,2024-06-26T13:47:26+02:00*
G04 #@! TF.ProjectId,S3-silicon-Sharp-Touch,53332d73-696c-4696-936f-6e2d53686172,rev?*
G04 #@! TF.SameCoordinates,Original*
G04 #@! TF.FileFunction,Legend,Bot*
G04 #@! TF.FilePolarity,Positive*
%FSLAX46Y46*%
G04 Gerber Fmt 4.6, Leading zero omitted, Abs format (unit mm)*
G04 Created by KiCad (PCBNEW 7.0.11-7.0.11~ubuntu22.04.1) date 2024-06-26 13:47:26*
%MOMM*%
%LPD*%
G01*
G04 APERTURE LIST*
%ADD10C,0.150000*%
%ADD11C,0.300000*%
%ADD12C,0.650000*%
%ADD13O,1.000000X2.100000*%
%ADD14O,1.000000X1.600000*%
%ADD15C,2.200000*%
%ADD16R,1.700000X1.700000*%
%ADD17O,1.700000X1.700000*%
G04 APERTURE END LIST*
D10*
X82144173Y-54403342D02*
X82715601Y-54403342D01*
X82715601Y-54403342D02*
X82715601Y-53203342D01*
X81058458Y-54289057D02*
X81115601Y-54346200D01*
X81115601Y-54346200D02*
X81287029Y-54403342D01*
X81287029Y-54403342D02*
X81401315Y-54403342D01*
X81401315Y-54403342D02*
X81572744Y-54346200D01*
X81572744Y-54346200D02*
X81687029Y-54231914D01*
X81687029Y-54231914D02*
X81744172Y-54117628D01*
X81744172Y-54117628D02*
X81801315Y-53889057D01*
X81801315Y-53889057D02*
X81801315Y-53717628D01*
X81801315Y-53717628D02*
X81744172Y-53489057D01*
X81744172Y-53489057D02*
X81687029Y-53374771D01*
X81687029Y-53374771D02*
X81572744Y-53260485D01*
X81572744Y-53260485D02*
X81401315Y-53203342D01*
X81401315Y-53203342D02*
X81287029Y-53203342D01*
X81287029Y-53203342D02*
X81115601Y-53260485D01*
X81115601Y-53260485D02*
X81058458Y-53317628D01*
X80544172Y-54403342D02*
X80544172Y-53203342D01*
X80544172Y-53203342D02*
X80258458Y-53203342D01*
X80258458Y-53203342D02*
X80087029Y-53260485D01*
X80087029Y-53260485D02*
X79972744Y-53374771D01*
X79972744Y-53374771D02*
X79915601Y-53489057D01*
X79915601Y-53489057D02*
X79858458Y-53717628D01*
X79858458Y-53717628D02*
X79858458Y-53889057D01*
X79858458Y-53889057D02*
X79915601Y-54117628D01*
X79915601Y-54117628D02*
X79972744Y-54231914D01*
X79972744Y-54231914D02*
X80087029Y-54346200D01*
X80087029Y-54346200D02*
X80258458Y-54403342D01*
X80258458Y-54403342D02*
X80544172Y-54403342D01*
X78429886Y-53603342D02*
X78429886Y-54803342D01*
X78429886Y-53660485D02*
X78315601Y-53603342D01*
X78315601Y-53603342D02*
X78087029Y-53603342D01*
X78087029Y-53603342D02*
X77972743Y-53660485D01*
X77972743Y-53660485D02*
X77915601Y-53717628D01*
X77915601Y-53717628D02*
X77858458Y-53831914D01*
X77858458Y-53831914D02*
X77858458Y-54174771D01*
X77858458Y-54174771D02*
X77915601Y-54289057D01*
X77915601Y-54289057D02*
X77972743Y-54346200D01*
X77972743Y-54346200D02*
X78087029Y-54403342D01*
X78087029Y-54403342D02*
X78315601Y-54403342D01*
X78315601Y-54403342D02*
X78429886Y-54346200D01*
X77344172Y-54403342D02*
X77344172Y-53603342D01*
X77344172Y-53203342D02*
X77401315Y-53260485D01*
X77401315Y-53260485D02*
X77344172Y-53317628D01*
X77344172Y-53317628D02*
X77287029Y-53260485D01*
X77287029Y-53260485D02*
X77344172Y-53203342D01*
X77344172Y-53203342D02*
X77344172Y-53317628D01*
X76772743Y-53603342D02*
X76772743Y-54403342D01*
X76772743Y-53717628D02*
X76715600Y-53660485D01*
X76715600Y-53660485D02*
X76601315Y-53603342D01*
X76601315Y-53603342D02*
X76429886Y-53603342D01*
X76429886Y-53603342D02*
X76315600Y-53660485D01*
X76315600Y-53660485D02*
X76258458Y-53774771D01*
X76258458Y-53774771D02*
X76258458Y-54403342D01*
X75744172Y-54346200D02*
X75629886Y-54403342D01*
X75629886Y-54403342D02*
X75401315Y-54403342D01*
X75401315Y-54403342D02*
X75287029Y-54346200D01*
X75287029Y-54346200D02*
X75229886Y-54231914D01*
X75229886Y-54231914D02*
X75229886Y-54174771D01*
X75229886Y-54174771D02*
X75287029Y-54060485D01*
X75287029Y-54060485D02*
X75401315Y-54003342D01*
X75401315Y-54003342D02*
X75572744Y-54003342D01*
X75572744Y-54003342D02*
X75687029Y-53946200D01*
X75687029Y-53946200D02*
X75744172Y-53831914D01*
X75744172Y-53831914D02*
X75744172Y-53774771D01*
X75744172Y-53774771D02*
X75687029Y-53660485D01*
X75687029Y-53660485D02*
X75572744Y-53603342D01*
X75572744Y-53603342D02*
X75401315Y-53603342D01*
X75401315Y-53603342D02*
X75287029Y-53660485D01*
X74715600Y-54289057D02*
X74658457Y-54346200D01*
X74658457Y-54346200D02*
X74715600Y-54403342D01*
X74715600Y-54403342D02*
X74772743Y-54346200D01*
X74772743Y-54346200D02*
X74715600Y-54289057D01*
X74715600Y-54289057D02*
X74715600Y-54403342D01*
X74715600Y-53660485D02*
X74658457Y-53717628D01*
X74658457Y-53717628D02*
X74715600Y-53774771D01*
X74715600Y-53774771D02*
X74772743Y-53717628D01*
X74772743Y-53717628D02*
X74715600Y-53660485D01*
X74715600Y-53660485D02*
X74715600Y-53774771D01*
X82715601Y-56335342D02*
X82715601Y-55135342D01*
X81915601Y-55135342D02*
X81687029Y-55135342D01*
X81687029Y-55135342D02*
X81572744Y-55192485D01*
X81572744Y-55192485D02*
X81458458Y-55306771D01*
X81458458Y-55306771D02*
X81401315Y-55535342D01*
X81401315Y-55535342D02*
X81401315Y-55935342D01*
X81401315Y-55935342D02*
X81458458Y-56163914D01*
X81458458Y-56163914D02*
X81572744Y-56278200D01*
X81572744Y-56278200D02*
X81687029Y-56335342D01*
X81687029Y-56335342D02*
X81915601Y-56335342D01*
X81915601Y-56335342D02*
X82029887Y-56278200D01*
X82029887Y-56278200D02*
X82144172Y-56163914D01*
X82144172Y-56163914D02*
X82201315Y-55935342D01*
X82201315Y-55935342D02*
X82201315Y-55535342D01*
X82201315Y-55535342D02*
X82144172Y-55306771D01*
X82144172Y-55306771D02*
X82029887Y-55192485D01*
X82029887Y-55192485D02*
X81915601Y-55135342D01*
X79972743Y-55878200D02*
X79058458Y-55878200D01*
X77572743Y-55878200D02*
X76658458Y-55878200D01*
X75172743Y-55878200D02*
X74258458Y-55878200D01*
X72772743Y-55878200D02*
X71858458Y-55878200D01*
X70372743Y-55878200D02*
X69458458Y-55878200D01*
X67972743Y-55878200D02*
X67058458Y-55878200D01*
X81172744Y-58267342D02*
X81858458Y-58267342D01*
X81515601Y-58267342D02*
X81515601Y-57067342D01*
X81515601Y-57067342D02*
X81629887Y-57238771D01*
X81629887Y-57238771D02*
X81744172Y-57353057D01*
X81744172Y-57353057D02*
X81858458Y-57410200D01*
X79801315Y-58210200D02*
X79629887Y-58267342D01*
X79629887Y-58267342D02*
X79344172Y-58267342D01*
X79344172Y-58267342D02*
X79229887Y-58210200D01*
X79229887Y-58210200D02*
X79172744Y-58153057D01*
X79172744Y-58153057D02*
X79115601Y-58038771D01*
X79115601Y-58038771D02*
X79115601Y-57924485D01*
X79115601Y-57924485D02*
X79172744Y-57810200D01*
X79172744Y-57810200D02*
X79229887Y-57753057D01*
X79229887Y-57753057D02*
X79344172Y-57695914D01*
X79344172Y-57695914D02*
X79572744Y-57638771D01*
X79572744Y-57638771D02*
X79687029Y-57581628D01*
X79687029Y-57581628D02*
X79744172Y-57524485D01*
X79744172Y-57524485D02*
X79801315Y-57410200D01*
X79801315Y-57410200D02*
X79801315Y-57295914D01*
X79801315Y-57295914D02*
X79744172Y-57181628D01*
X79744172Y-57181628D02*
X79687029Y-57124485D01*
X79687029Y-57124485D02*
X79572744Y-57067342D01*
X79572744Y-57067342D02*
X79287029Y-57067342D01*
X79287029Y-57067342D02*
X79115601Y-57124485D01*
X78601315Y-58267342D02*
X78601315Y-57067342D01*
X78601315Y-57067342D02*
X78144172Y-57067342D01*
X78144172Y-57067342D02*
X78029887Y-57124485D01*
X78029887Y-57124485D02*
X77972744Y-57181628D01*
X77972744Y-57181628D02*
X77915601Y-57295914D01*
X77915601Y-57295914D02*
X77915601Y-57467342D01*
X77915601Y-57467342D02*
X77972744Y-57581628D01*
X77972744Y-57581628D02*
X78029887Y-57638771D01*
X78029887Y-57638771D02*
X78144172Y-57695914D01*
X78144172Y-57695914D02*
X78601315Y-57695914D01*
X77401315Y-58267342D02*
X77401315Y-57067342D01*
X77115601Y-58381628D02*
X76201315Y-58381628D01*
X75229886Y-58153057D02*
X75287029Y-58210200D01*
X75287029Y-58210200D02*
X75458457Y-58267342D01*
X75458457Y-58267342D02*
X75572743Y-58267342D01*
X75572743Y-58267342D02*
X75744172Y-58210200D01*
X75744172Y-58210200D02*
X75858457Y-58095914D01*
X75858457Y-58095914D02*
X75915600Y-57981628D01*
X75915600Y-57981628D02*
X75972743Y-57753057D01*
X75972743Y-57753057D02*
X75972743Y-57581628D01*
X75972743Y-57581628D02*
X75915600Y-57353057D01*
X75915600Y-57353057D02*
X75858457Y-57238771D01*
X75858457Y-57238771D02*
X75744172Y-57124485D01*
X75744172Y-57124485D02*
X75572743Y-57067342D01*
X75572743Y-57067342D02*
X75458457Y-57067342D01*
X75458457Y-57067342D02*
X75287029Y-57124485D01*
X75287029Y-57124485D02*
X75229886Y-57181628D01*
X74144172Y-58267342D02*
X74715600Y-58267342D01*
X74715600Y-58267342D02*
X74715600Y-57067342D01*
X73744171Y-58267342D02*
X73744171Y-57067342D01*
X73058457Y-58267342D02*
X73572743Y-57581628D01*
X73058457Y-57067342D02*
X73744171Y-57753057D01*
X81858458Y-59113628D02*
X81801315Y-59056485D01*
X81801315Y-59056485D02*
X81687030Y-58999342D01*
X81687030Y-58999342D02*
X81401315Y-58999342D01*
X81401315Y-58999342D02*
X81287030Y-59056485D01*
X81287030Y-59056485D02*
X81229887Y-59113628D01*
X81229887Y-59113628D02*
X81172744Y-59227914D01*
X81172744Y-59227914D02*
X81172744Y-59342200D01*
X81172744Y-59342200D02*
X81229887Y-59513628D01*
X81229887Y-59513628D02*
X81915601Y-60199342D01*
X81915601Y-60199342D02*
X81172744Y-60199342D01*
X79801315Y-60142200D02*
X79629887Y-60199342D01*
X79629887Y-60199342D02*
X79344172Y-60199342D01*
X79344172Y-60199342D02*
X79229887Y-60142200D01*
X79229887Y-60142200D02*
X79172744Y-60085057D01*
X79172744Y-60085057D02*
X79115601Y-59970771D01*
X79115601Y-59970771D02*
X79115601Y-59856485D01*
X79115601Y-59856485D02*
X79172744Y-59742200D01*
X79172744Y-59742200D02*
X79229887Y-59685057D01*
X79229887Y-59685057D02*
X79344172Y-59627914D01*
X79344172Y-59627914D02*
X79572744Y-59570771D01*
X79572744Y-59570771D02*
X79687029Y-59513628D01*
X79687029Y-59513628D02*
X79744172Y-59456485D01*
X79744172Y-59456485D02*
X79801315Y-59342200D01*
X79801315Y-59342200D02*
X79801315Y-59227914D01*
X79801315Y-59227914D02*
X79744172Y-59113628D01*
X79744172Y-59113628D02*
X79687029Y-59056485D01*
X79687029Y-59056485D02*
X79572744Y-58999342D01*
X79572744Y-58999342D02*
X79287029Y-58999342D01*
X79287029Y-58999342D02*
X79115601Y-59056485D01*
X78601315Y-60199342D02*
X78601315Y-58999342D01*
X78601315Y-58999342D02*
X78144172Y-58999342D01*
X78144172Y-58999342D02*
X78029887Y-59056485D01*
X78029887Y-59056485D02*
X77972744Y-59113628D01*
X77972744Y-59113628D02*
X77915601Y-59227914D01*
X77915601Y-59227914D02*
X77915601Y-59399342D01*
X77915601Y-59399342D02*
X77972744Y-59513628D01*
X77972744Y-59513628D02*
X78029887Y-59570771D01*
X78029887Y-59570771D02*
X78144172Y-59627914D01*
X78144172Y-59627914D02*
X78601315Y-59627914D01*
X77401315Y-60199342D02*
X77401315Y-58999342D01*
X77115601Y-60313628D02*
X76201315Y-60313628D01*
X75915600Y-60199342D02*
X75915600Y-58999342D01*
X75915600Y-58999342D02*
X75515600Y-59856485D01*
X75515600Y-59856485D02*
X75115600Y-58999342D01*
X75115600Y-58999342D02*
X75115600Y-60199342D01*
X74315600Y-58999342D02*
X74087028Y-58999342D01*
X74087028Y-58999342D02*
X73972743Y-59056485D01*
X73972743Y-59056485D02*
X73858457Y-59170771D01*
X73858457Y-59170771D02*
X73801314Y-59399342D01*
X73801314Y-59399342D02*
X73801314Y-59799342D01*
X73801314Y-59799342D02*
X73858457Y-60027914D01*
X73858457Y-60027914D02*
X73972743Y-60142200D01*
X73972743Y-60142200D02*
X74087028Y-60199342D01*
X74087028Y-60199342D02*
X74315600Y-60199342D01*
X74315600Y-60199342D02*
X74429886Y-60142200D01*
X74429886Y-60142200D02*
X74544171Y-60027914D01*
X74544171Y-60027914D02*
X74601314Y-59799342D01*
X74601314Y-59799342D02*
X74601314Y-59399342D01*
X74601314Y-59399342D02*
X74544171Y-59170771D01*
X74544171Y-59170771D02*
X74429886Y-59056485D01*
X74429886Y-59056485D02*
X74315600Y-58999342D01*
X73344171Y-60142200D02*
X73172743Y-60199342D01*
X73172743Y-60199342D02*
X72887028Y-60199342D01*
X72887028Y-60199342D02*
X72772743Y-60142200D01*
X72772743Y-60142200D02*
X72715600Y-60085057D01*
X72715600Y-60085057D02*
X72658457Y-59970771D01*
X72658457Y-59970771D02*
X72658457Y-59856485D01*
X72658457Y-59856485D02*
X72715600Y-59742200D01*
X72715600Y-59742200D02*
X72772743Y-59685057D01*
X72772743Y-59685057D02*
X72887028Y-59627914D01*
X72887028Y-59627914D02*
X73115600Y-59570771D01*
X73115600Y-59570771D02*
X73229885Y-59513628D01*
X73229885Y-59513628D02*
X73287028Y-59456485D01*
X73287028Y-59456485D02*
X73344171Y-59342200D01*
X73344171Y-59342200D02*
X73344171Y-59227914D01*
X73344171Y-59227914D02*
X73287028Y-59113628D01*
X73287028Y-59113628D02*
X73229885Y-59056485D01*
X73229885Y-59056485D02*
X73115600Y-58999342D01*
X73115600Y-58999342D02*
X72829885Y-58999342D01*
X72829885Y-58999342D02*
X72658457Y-59056485D01*
X72144171Y-60199342D02*
X72144171Y-58999342D01*
X81915601Y-60931342D02*
X81172744Y-60931342D01*
X81172744Y-60931342D02*
X81572744Y-61388485D01*
X81572744Y-61388485D02*
X81401315Y-61388485D01*
X81401315Y-61388485D02*
X81287030Y-61445628D01*
X81287030Y-61445628D02*
X81229887Y-61502771D01*
X81229887Y-61502771D02*
X81172744Y-61617057D01*
X81172744Y-61617057D02*
X81172744Y-61902771D01*
X81172744Y-61902771D02*
X81229887Y-62017057D01*
X81229887Y-62017057D02*
X81287030Y-62074200D01*
X81287030Y-62074200D02*
X81401315Y-62131342D01*
X81401315Y-62131342D02*
X81744172Y-62131342D01*
X81744172Y-62131342D02*
X81858458Y-62074200D01*
X81858458Y-62074200D02*
X81915601Y-62017057D01*
X79058458Y-62017057D02*
X79115601Y-62074200D01*
X79115601Y-62074200D02*
X79287029Y-62131342D01*
X79287029Y-62131342D02*
X79401315Y-62131342D01*
X79401315Y-62131342D02*
X79572744Y-62074200D01*
X79572744Y-62074200D02*
X79687029Y-61959914D01*
X79687029Y-61959914D02*
X79744172Y-61845628D01*
X79744172Y-61845628D02*
X79801315Y-61617057D01*
X79801315Y-61617057D02*
X79801315Y-61445628D01*
X79801315Y-61445628D02*
X79744172Y-61217057D01*
X79744172Y-61217057D02*
X79687029Y-61102771D01*
X79687029Y-61102771D02*
X79572744Y-60988485D01*
X79572744Y-60988485D02*
X79401315Y-60931342D01*
X79401315Y-60931342D02*
X79287029Y-60931342D01*
X79287029Y-60931342D02*
X79115601Y-60988485D01*
X79115601Y-60988485D02*
X79058458Y-61045628D01*
X78601315Y-62074200D02*
X78429887Y-62131342D01*
X78429887Y-62131342D02*
X78144172Y-62131342D01*
X78144172Y-62131342D02*
X78029887Y-62074200D01*
X78029887Y-62074200D02*
X77972744Y-62017057D01*
X77972744Y-62017057D02*
X77915601Y-61902771D01*
X77915601Y-61902771D02*
X77915601Y-61788485D01*
X77915601Y-61788485D02*
X77972744Y-61674200D01*
X77972744Y-61674200D02*
X78029887Y-61617057D01*
X78029887Y-61617057D02*
X78144172Y-61559914D01*
X78144172Y-61559914D02*
X78372744Y-61502771D01*
X78372744Y-61502771D02*
X78487029Y-61445628D01*
X78487029Y-61445628D02*
X78544172Y-61388485D01*
X78544172Y-61388485D02*
X78601315Y-61274200D01*
X78601315Y-61274200D02*
X78601315Y-61159914D01*
X78601315Y-61159914D02*
X78544172Y-61045628D01*
X78544172Y-61045628D02*
X78487029Y-60988485D01*
X78487029Y-60988485D02*
X78372744Y-60931342D01*
X78372744Y-60931342D02*
X78087029Y-60931342D01*
X78087029Y-60931342D02*
X77915601Y-60988485D01*
X81287030Y-63263342D02*
X81287030Y-64063342D01*
X81572744Y-62806200D02*
X81858458Y-63663342D01*
X81858458Y-63663342D02*
X81115601Y-63663342D01*
X79744172Y-64063342D02*
X79744172Y-62863342D01*
X79744172Y-62863342D02*
X79458458Y-62863342D01*
X79458458Y-62863342D02*
X79287029Y-62920485D01*
X79287029Y-62920485D02*
X79172744Y-63034771D01*
X79172744Y-63034771D02*
X79115601Y-63149057D01*
X79115601Y-63149057D02*
X79058458Y-63377628D01*
X79058458Y-63377628D02*
X79058458Y-63549057D01*
X79058458Y-63549057D02*
X79115601Y-63777628D01*
X79115601Y-63777628D02*
X79172744Y-63891914D01*
X79172744Y-63891914D02*
X79287029Y-64006200D01*
X79287029Y-64006200D02*
X79458458Y-64063342D01*
X79458458Y-64063342D02*
X79744172Y-64063342D01*
X78544172Y-64063342D02*
X78544172Y-62863342D01*
X78029886Y-64006200D02*
X77858458Y-64063342D01*
X77858458Y-64063342D02*
X77572743Y-64063342D01*
X77572743Y-64063342D02*
X77458458Y-64006200D01*
X77458458Y-64006200D02*
X77401315Y-63949057D01*
X77401315Y-63949057D02*
X77344172Y-63834771D01*
X77344172Y-63834771D02*
X77344172Y-63720485D01*
X77344172Y-63720485D02*
X77401315Y-63606200D01*
X77401315Y-63606200D02*
X77458458Y-63549057D01*
X77458458Y-63549057D02*
X77572743Y-63491914D01*
X77572743Y-63491914D02*
X77801315Y-63434771D01*
X77801315Y-63434771D02*
X77915600Y-63377628D01*
X77915600Y-63377628D02*
X77972743Y-63320485D01*
X77972743Y-63320485D02*
X78029886Y-63206200D01*
X78029886Y-63206200D02*
X78029886Y-63091914D01*
X78029886Y-63091914D02*
X77972743Y-62977628D01*
X77972743Y-62977628D02*
X77915600Y-62920485D01*
X77915600Y-62920485D02*
X77801315Y-62863342D01*
X77801315Y-62863342D02*
X77515600Y-62863342D01*
X77515600Y-62863342D02*
X77344172Y-62920485D01*
X76829886Y-64063342D02*
X76829886Y-62863342D01*
X76829886Y-62863342D02*
X76372743Y-62863342D01*
X76372743Y-62863342D02*
X76258458Y-62920485D01*
X76258458Y-62920485D02*
X76201315Y-62977628D01*
X76201315Y-62977628D02*
X76144172Y-63091914D01*
X76144172Y-63091914D02*
X76144172Y-63263342D01*
X76144172Y-63263342D02*
X76201315Y-63377628D01*
X76201315Y-63377628D02*
X76258458Y-63434771D01*
X76258458Y-63434771D02*
X76372743Y-63491914D01*
X76372743Y-63491914D02*
X76829886Y-63491914D01*
X75401315Y-62863342D02*
X75172743Y-62863342D01*
X75172743Y-62863342D02*
X75058458Y-62920485D01*
X75058458Y-62920485D02*
X74944172Y-63034771D01*
X74944172Y-63034771D02*
X74887029Y-63263342D01*
X74887029Y-63263342D02*
X74887029Y-63663342D01*
X74887029Y-63663342D02*
X74944172Y-63891914D01*
X74944172Y-63891914D02*
X75058458Y-64006200D01*
X75058458Y-64006200D02*
X75172743Y-64063342D01*
X75172743Y-64063342D02*
X75401315Y-64063342D01*
X75401315Y-64063342D02*
X75515601Y-64006200D01*
X75515601Y-64006200D02*
X75629886Y-63891914D01*
X75629886Y-63891914D02*
X75687029Y-63663342D01*
X75687029Y-63663342D02*
X75687029Y-63263342D01*
X75687029Y-63263342D02*
X75629886Y-63034771D01*
X75629886Y-63034771D02*
X75515601Y-62920485D01*
X75515601Y-62920485D02*
X75401315Y-62863342D01*
X74372743Y-64063342D02*
X74372743Y-62863342D01*
X74372743Y-62863342D02*
X73687029Y-64063342D01*
X73687029Y-64063342D02*
X73687029Y-62863342D01*
X71858457Y-64520485D02*
X71915600Y-64463342D01*
X71915600Y-64463342D02*
X72029886Y-64291914D01*
X72029886Y-64291914D02*
X72087029Y-64177628D01*
X72087029Y-64177628D02*
X72144171Y-64006200D01*
X72144171Y-64006200D02*
X72201314Y-63720485D01*
X72201314Y-63720485D02*
X72201314Y-63491914D01*
X72201314Y-63491914D02*
X72144171Y-63206200D01*
X72144171Y-63206200D02*
X72087029Y-63034771D01*
X72087029Y-63034771D02*
X72029886Y-62920485D01*
X72029886Y-62920485D02*
X71915600Y-62749057D01*
X71915600Y-62749057D02*
X71858457Y-62691914D01*
X71401314Y-63263342D02*
X71401314Y-64463342D01*
X71401314Y-63320485D02*
X71287029Y-63263342D01*
X71287029Y-63263342D02*
X71058457Y-63263342D01*
X71058457Y-63263342D02*
X70944171Y-63320485D01*
X70944171Y-63320485D02*
X70887029Y-63377628D01*
X70887029Y-63377628D02*
X70829886Y-63491914D01*
X70829886Y-63491914D02*
X70829886Y-63834771D01*
X70829886Y-63834771D02*
X70887029Y-63949057D01*
X70887029Y-63949057D02*
X70944171Y-64006200D01*
X70944171Y-64006200D02*
X71058457Y-64063342D01*
X71058457Y-64063342D02*
X71287029Y-64063342D01*
X71287029Y-64063342D02*
X71401314Y-64006200D01*
X69801315Y-63263342D02*
X69801315Y-64063342D01*
X70315600Y-63263342D02*
X70315600Y-63891914D01*
X70315600Y-63891914D02*
X70258457Y-64006200D01*
X70258457Y-64006200D02*
X70144172Y-64063342D01*
X70144172Y-64063342D02*
X69972743Y-64063342D01*
X69972743Y-64063342D02*
X69858457Y-64006200D01*
X69858457Y-64006200D02*
X69801315Y-63949057D01*
X69058458Y-64063342D02*
X69172743Y-64006200D01*
X69172743Y-64006200D02*
X69229886Y-63891914D01*
X69229886Y-63891914D02*
X69229886Y-62863342D01*
X68429887Y-64063342D02*
X68544172Y-64006200D01*
X68544172Y-64006200D02*
X68601315Y-63891914D01*
X68601315Y-63891914D02*
X68601315Y-62863342D01*
X67515601Y-64006200D02*
X67629887Y-64063342D01*
X67629887Y-64063342D02*
X67858459Y-64063342D01*
X67858459Y-64063342D02*
X67972744Y-64006200D01*
X67972744Y-64006200D02*
X68029887Y-63891914D01*
X68029887Y-63891914D02*
X68029887Y-63434771D01*
X68029887Y-63434771D02*
X67972744Y-63320485D01*
X67972744Y-63320485D02*
X67858459Y-63263342D01*
X67858459Y-63263342D02*
X67629887Y-63263342D01*
X67629887Y-63263342D02*
X67515601Y-63320485D01*
X67515601Y-63320485D02*
X67458459Y-63434771D01*
X67458459Y-63434771D02*
X67458459Y-63549057D01*
X67458459Y-63549057D02*
X68029887Y-63663342D01*
X66429888Y-64063342D02*
X66429888Y-62863342D01*
X66429888Y-64006200D02*
X66544173Y-64063342D01*
X66544173Y-64063342D02*
X66772745Y-64063342D01*
X66772745Y-64063342D02*
X66887030Y-64006200D01*
X66887030Y-64006200D02*
X66944173Y-63949057D01*
X66944173Y-63949057D02*
X67001316Y-63834771D01*
X67001316Y-63834771D02*
X67001316Y-63491914D01*
X67001316Y-63491914D02*
X66944173Y-63377628D01*
X66944173Y-63377628D02*
X66887030Y-63320485D01*
X66887030Y-63320485D02*
X66772745Y-63263342D01*
X66772745Y-63263342D02*
X66544173Y-63263342D01*
X66544173Y-63263342D02*
X66429888Y-63320485D01*
X64429888Y-63263342D02*
X64429888Y-64063342D01*
X64944173Y-63263342D02*
X64944173Y-63891914D01*
X64944173Y-63891914D02*
X64887030Y-64006200D01*
X64887030Y-64006200D02*
X64772745Y-64063342D01*
X64772745Y-64063342D02*
X64601316Y-64063342D01*
X64601316Y-64063342D02*
X64487030Y-64006200D01*
X64487030Y-64006200D02*
X64429888Y-63949057D01*
X63858459Y-63263342D02*
X63858459Y-64463342D01*
X63858459Y-63320485D02*
X63744174Y-63263342D01*
X63744174Y-63263342D02*
X63515602Y-63263342D01*
X63515602Y-63263342D02*
X63401316Y-63320485D01*
X63401316Y-63320485D02*
X63344174Y-63377628D01*
X63344174Y-63377628D02*
X63287031Y-63491914D01*
X63287031Y-63491914D02*
X63287031Y-63834771D01*
X63287031Y-63834771D02*
X63344174Y-63949057D01*
X63344174Y-63949057D02*
X63401316Y-64006200D01*
X63401316Y-64006200D02*
X63515602Y-64063342D01*
X63515602Y-64063342D02*
X63744174Y-64063342D01*
X63744174Y-64063342D02*
X63858459Y-64006200D01*
X62887031Y-64520485D02*
X62829888Y-64463342D01*
X62829888Y-64463342D02*
X62715602Y-64291914D01*
X62715602Y-64291914D02*
X62658460Y-64177628D01*
X62658460Y-64177628D02*
X62601317Y-64006200D01*
X62601317Y-64006200D02*
X62544174Y-63720485D01*
X62544174Y-63720485D02*
X62544174Y-63491914D01*
X62544174Y-63491914D02*
X62601317Y-63206200D01*
X62601317Y-63206200D02*
X62658460Y-63034771D01*
X62658460Y-63034771D02*
X62715602Y-62920485D01*
X62715602Y-62920485D02*
X62829888Y-62749057D01*
X62829888Y-62749057D02*
X62887031Y-62691914D01*
X82087030Y-65995342D02*
X82772744Y-65995342D01*
X82429887Y-65995342D02*
X82429887Y-64795342D01*
X82429887Y-64795342D02*
X82544173Y-64966771D01*
X82544173Y-64966771D02*
X82658458Y-65081057D01*
X82658458Y-65081057D02*
X82772744Y-65138200D01*
X81058459Y-65195342D02*
X81058459Y-65995342D01*
X81344173Y-64738200D02*
X81629887Y-65595342D01*
X81629887Y-65595342D02*
X80887030Y-65595342D01*
X79515601Y-65366771D02*
X79115601Y-65366771D01*
X78944173Y-65995342D02*
X79515601Y-65995342D01*
X79515601Y-65995342D02*
X79515601Y-64795342D01*
X79515601Y-64795342D02*
X78944173Y-64795342D01*
X78544173Y-64795342D02*
X77744173Y-65995342D01*
X77744173Y-64795342D02*
X78544173Y-65995342D01*
X77458459Y-64795342D02*
X76772745Y-64795342D01*
X77115602Y-65995342D02*
X77115602Y-64795342D01*
X76372744Y-65995342D02*
X76372744Y-64795342D01*
X76372744Y-64795342D02*
X75972744Y-65652485D01*
X75972744Y-65652485D02*
X75572744Y-64795342D01*
X75572744Y-64795342D02*
X75572744Y-65995342D01*
X74772744Y-64795342D02*
X74544172Y-64795342D01*
X74544172Y-64795342D02*
X74429887Y-64852485D01*
X74429887Y-64852485D02*
X74315601Y-64966771D01*
X74315601Y-64966771D02*
X74258458Y-65195342D01*
X74258458Y-65195342D02*
X74258458Y-65595342D01*
X74258458Y-65595342D02*
X74315601Y-65823914D01*
X74315601Y-65823914D02*
X74429887Y-65938200D01*
X74429887Y-65938200D02*
X74544172Y-65995342D01*
X74544172Y-65995342D02*
X74772744Y-65995342D01*
X74772744Y-65995342D02*
X74887030Y-65938200D01*
X74887030Y-65938200D02*
X75001315Y-65823914D01*
X75001315Y-65823914D02*
X75058458Y-65595342D01*
X75058458Y-65595342D02*
X75058458Y-65195342D01*
X75058458Y-65195342D02*
X75001315Y-64966771D01*
X75001315Y-64966771D02*
X74887030Y-64852485D01*
X74887030Y-64852485D02*
X74772744Y-64795342D01*
X73744172Y-65995342D02*
X73744172Y-64795342D01*
X73744172Y-64795342D02*
X73458458Y-64795342D01*
X73458458Y-64795342D02*
X73287029Y-64852485D01*
X73287029Y-64852485D02*
X73172744Y-64966771D01*
X73172744Y-64966771D02*
X73115601Y-65081057D01*
X73115601Y-65081057D02*
X73058458Y-65309628D01*
X73058458Y-65309628D02*
X73058458Y-65481057D01*
X73058458Y-65481057D02*
X73115601Y-65709628D01*
X73115601Y-65709628D02*
X73172744Y-65823914D01*
X73172744Y-65823914D02*
X73287029Y-65938200D01*
X73287029Y-65938200D02*
X73458458Y-65995342D01*
X73458458Y-65995342D02*
X73744172Y-65995342D01*
X72544172Y-65366771D02*
X72144172Y-65366771D01*
X71972744Y-65995342D02*
X72544172Y-65995342D01*
X72544172Y-65995342D02*
X72544172Y-64795342D01*
X72544172Y-64795342D02*
X71972744Y-64795342D01*
X100437030Y-33585342D02*
X99751316Y-33585342D01*
X100094173Y-34785342D02*
X100094173Y-33585342D01*
X99122744Y-33585342D02*
X98894172Y-33585342D01*
X98894172Y-33585342D02*
X98779887Y-33642485D01*
X98779887Y-33642485D02*
X98665601Y-33756771D01*
X98665601Y-33756771D02*
X98608458Y-33985342D01*
X98608458Y-33985342D02*
X98608458Y-34385342D01*
X98608458Y-34385342D02*
X98665601Y-34613914D01*
X98665601Y-34613914D02*
X98779887Y-34728200D01*
X98779887Y-34728200D02*
X98894172Y-34785342D01*
X98894172Y-34785342D02*
X99122744Y-34785342D01*
X99122744Y-34785342D02*
X99237030Y-34728200D01*
X99237030Y-34728200D02*
X99351315Y-34613914D01*
X99351315Y-34613914D02*
X99408458Y-34385342D01*
X99408458Y-34385342D02*
X99408458Y-33985342D01*
X99408458Y-33985342D02*
X99351315Y-33756771D01*
X99351315Y-33756771D02*
X99237030Y-33642485D01*
X99237030Y-33642485D02*
X99122744Y-33585342D01*
X98094172Y-33585342D02*
X98094172Y-34556771D01*
X98094172Y-34556771D02*
X98037029Y-34671057D01*
X98037029Y-34671057D02*
X97979887Y-34728200D01*
X97979887Y-34728200D02*
X97865601Y-34785342D01*
X97865601Y-34785342D02*
X97637029Y-34785342D01*
X97637029Y-34785342D02*
X97522744Y-34728200D01*
X97522744Y-34728200D02*
X97465601Y-34671057D01*
X97465601Y-34671057D02*
X97408458Y-34556771D01*
X97408458Y-34556771D02*
X97408458Y-33585342D01*
X96151315Y-34671057D02*
X96208458Y-34728200D01*
X96208458Y-34728200D02*
X96379886Y-34785342D01*
X96379886Y-34785342D02*
X96494172Y-34785342D01*
X96494172Y-34785342D02*
X96665601Y-34728200D01*
X96665601Y-34728200D02*
X96779886Y-34613914D01*
X96779886Y-34613914D02*
X96837029Y-34499628D01*
X96837029Y-34499628D02*
X96894172Y-34271057D01*
X96894172Y-34271057D02*
X96894172Y-34099628D01*
X96894172Y-34099628D02*
X96837029Y-33871057D01*
X96837029Y-33871057D02*
X96779886Y-33756771D01*
X96779886Y-33756771D02*
X96665601Y-33642485D01*
X96665601Y-33642485D02*
X96494172Y-33585342D01*
X96494172Y-33585342D02*
X96379886Y-33585342D01*
X96379886Y-33585342D02*
X96208458Y-33642485D01*
X96208458Y-33642485D02*
X96151315Y-33699628D01*
X95637029Y-34785342D02*
X95637029Y-33585342D01*
X95637029Y-34156771D02*
X94951315Y-34156771D01*
X94951315Y-34785342D02*
X94951315Y-33585342D01*
X93065600Y-34156771D02*
X92894172Y-34213914D01*
X92894172Y-34213914D02*
X92837029Y-34271057D01*
X92837029Y-34271057D02*
X92779886Y-34385342D01*
X92779886Y-34385342D02*
X92779886Y-34556771D01*
X92779886Y-34556771D02*
X92837029Y-34671057D01*
X92837029Y-34671057D02*
X92894172Y-34728200D01*
X92894172Y-34728200D02*
X93008457Y-34785342D01*
X93008457Y-34785342D02*
X93465600Y-34785342D01*
X93465600Y-34785342D02*
X93465600Y-33585342D01*
X93465600Y-33585342D02*
X93065600Y-33585342D01*
X93065600Y-33585342D02*
X92951315Y-33642485D01*
X92951315Y-33642485D02*
X92894172Y-33699628D01*
X92894172Y-33699628D02*
X92837029Y-33813914D01*
X92837029Y-33813914D02*
X92837029Y-33928200D01*
X92837029Y-33928200D02*
X92894172Y-34042485D01*
X92894172Y-34042485D02*
X92951315Y-34099628D01*
X92951315Y-34099628D02*
X93065600Y-34156771D01*
X93065600Y-34156771D02*
X93465600Y-34156771D01*
X92265600Y-34785342D02*
X92265600Y-33585342D01*
X91865600Y-33585342D02*
X91179886Y-33585342D01*
X91522743Y-34785342D02*
X91522743Y-33585342D01*
X90094171Y-34671057D02*
X90151314Y-34728200D01*
X90151314Y-34728200D02*
X90322742Y-34785342D01*
X90322742Y-34785342D02*
X90437028Y-34785342D01*
X90437028Y-34785342D02*
X90608457Y-34728200D01*
X90608457Y-34728200D02*
X90722742Y-34613914D01*
X90722742Y-34613914D02*
X90779885Y-34499628D01*
X90779885Y-34499628D02*
X90837028Y-34271057D01*
X90837028Y-34271057D02*
X90837028Y-34099628D01*
X90837028Y-34099628D02*
X90779885Y-33871057D01*
X90779885Y-33871057D02*
X90722742Y-33756771D01*
X90722742Y-33756771D02*
X90608457Y-33642485D01*
X90608457Y-33642485D02*
X90437028Y-33585342D01*
X90437028Y-33585342D02*
X90322742Y-33585342D01*
X90322742Y-33585342D02*
X90151314Y-33642485D01*
X90151314Y-33642485D02*
X90094171Y-33699628D01*
X89579885Y-34785342D02*
X89579885Y-33585342D01*
X89579885Y-34156771D02*
X88894171Y-34156771D01*
X88894171Y-34785342D02*
X88894171Y-33585342D01*
X100265601Y-36717342D02*
X100265601Y-35517342D01*
X99465601Y-35517342D02*
X99237029Y-35517342D01*
X99237029Y-35517342D02*
X99122744Y-35574485D01*
X99122744Y-35574485D02*
X99008458Y-35688771D01*
X99008458Y-35688771D02*
X98951315Y-35917342D01*
X98951315Y-35917342D02*
X98951315Y-36317342D01*
X98951315Y-36317342D02*
X99008458Y-36545914D01*
X99008458Y-36545914D02*
X99122744Y-36660200D01*
X99122744Y-36660200D02*
X99237029Y-36717342D01*
X99237029Y-36717342D02*
X99465601Y-36717342D01*
X99465601Y-36717342D02*
X99579887Y-36660200D01*
X99579887Y-36660200D02*
X99694172Y-36545914D01*
X99694172Y-36545914D02*
X99751315Y-36317342D01*
X99751315Y-36317342D02*
X99751315Y-35917342D01*
X99751315Y-35917342D02*
X99694172Y-35688771D01*
X99694172Y-35688771D02*
X99579887Y-35574485D01*
X99579887Y-35574485D02*
X99465601Y-35517342D01*
X97522743Y-36260200D02*
X96608458Y-36260200D01*
X95122743Y-36260200D02*
X94208458Y-36260200D01*
X92722743Y-36260200D02*
X91808458Y-36260200D01*
X90322743Y-36260200D02*
X89408458Y-36260200D01*
X87922743Y-36260200D02*
X87008458Y-36260200D01*
X99465601Y-37449342D02*
X98665601Y-37449342D01*
X98665601Y-37449342D02*
X99179887Y-38649342D01*
X97351315Y-38592200D02*
X97179887Y-38649342D01*
X97179887Y-38649342D02*
X96894172Y-38649342D01*
X96894172Y-38649342D02*
X96779887Y-38592200D01*
X96779887Y-38592200D02*
X96722744Y-38535057D01*
X96722744Y-38535057D02*
X96665601Y-38420771D01*
X96665601Y-38420771D02*
X96665601Y-38306485D01*
X96665601Y-38306485D02*
X96722744Y-38192200D01*
X96722744Y-38192200D02*
X96779887Y-38135057D01*
X96779887Y-38135057D02*
X96894172Y-38077914D01*
X96894172Y-38077914D02*
X97122744Y-38020771D01*
X97122744Y-38020771D02*
X97237029Y-37963628D01*
X97237029Y-37963628D02*
X97294172Y-37906485D01*
X97294172Y-37906485D02*
X97351315Y-37792200D01*
X97351315Y-37792200D02*
X97351315Y-37677914D01*
X97351315Y-37677914D02*
X97294172Y-37563628D01*
X97294172Y-37563628D02*
X97237029Y-37506485D01*
X97237029Y-37506485D02*
X97122744Y-37449342D01*
X97122744Y-37449342D02*
X96837029Y-37449342D01*
X96837029Y-37449342D02*
X96665601Y-37506485D01*
X95465601Y-38535057D02*
X95522744Y-38592200D01*
X95522744Y-38592200D02*
X95694172Y-38649342D01*
X95694172Y-38649342D02*
X95808458Y-38649342D01*
X95808458Y-38649342D02*
X95979887Y-38592200D01*
X95979887Y-38592200D02*
X96094172Y-38477914D01*
X96094172Y-38477914D02*
X96151315Y-38363628D01*
X96151315Y-38363628D02*
X96208458Y-38135057D01*
X96208458Y-38135057D02*
X96208458Y-37963628D01*
X96208458Y-37963628D02*
X96151315Y-37735057D01*
X96151315Y-37735057D02*
X96094172Y-37620771D01*
X96094172Y-37620771D02*
X95979887Y-37506485D01*
X95979887Y-37506485D02*
X95808458Y-37449342D01*
X95808458Y-37449342D02*
X95694172Y-37449342D01*
X95694172Y-37449342D02*
X95522744Y-37506485D01*
X95522744Y-37506485D02*
X95465601Y-37563628D01*
X94379887Y-38649342D02*
X94951315Y-38649342D01*
X94951315Y-38649342D02*
X94951315Y-37449342D01*
X93065600Y-38649342D02*
X93065600Y-37449342D01*
X92551314Y-37563628D02*
X92494171Y-37506485D01*
X92494171Y-37506485D02*
X92379886Y-37449342D01*
X92379886Y-37449342D02*
X92094171Y-37449342D01*
X92094171Y-37449342D02*
X91979886Y-37506485D01*
X91979886Y-37506485D02*
X91922743Y-37563628D01*
X91922743Y-37563628D02*
X91865600Y-37677914D01*
X91865600Y-37677914D02*
X91865600Y-37792200D01*
X91865600Y-37792200D02*
X91922743Y-37963628D01*
X91922743Y-37963628D02*
X92608457Y-38649342D01*
X92608457Y-38649342D02*
X91865600Y-38649342D01*
X90665600Y-38535057D02*
X90722743Y-38592200D01*
X90722743Y-38592200D02*
X90894171Y-38649342D01*
X90894171Y-38649342D02*
X91008457Y-38649342D01*
X91008457Y-38649342D02*
X91179886Y-38592200D01*
X91179886Y-38592200D02*
X91294171Y-38477914D01*
X91294171Y-38477914D02*
X91351314Y-38363628D01*
X91351314Y-38363628D02*
X91408457Y-38135057D01*
X91408457Y-38135057D02*
X91408457Y-37963628D01*
X91408457Y-37963628D02*
X91351314Y-37735057D01*
X91351314Y-37735057D02*
X91294171Y-37620771D01*
X91294171Y-37620771D02*
X91179886Y-37506485D01*
X91179886Y-37506485D02*
X91008457Y-37449342D01*
X91008457Y-37449342D02*
X90894171Y-37449342D01*
X90894171Y-37449342D02*
X90722743Y-37506485D01*
X90722743Y-37506485D02*
X90665600Y-37563628D01*
X99179887Y-39895628D02*
X99294172Y-39838485D01*
X99294172Y-39838485D02*
X99351315Y-39781342D01*
X99351315Y-39781342D02*
X99408458Y-39667057D01*
X99408458Y-39667057D02*
X99408458Y-39609914D01*
X99408458Y-39609914D02*
X99351315Y-39495628D01*
X99351315Y-39495628D02*
X99294172Y-39438485D01*
X99294172Y-39438485D02*
X99179887Y-39381342D01*
X99179887Y-39381342D02*
X98951315Y-39381342D01*
X98951315Y-39381342D02*
X98837030Y-39438485D01*
X98837030Y-39438485D02*
X98779887Y-39495628D01*
X98779887Y-39495628D02*
X98722744Y-39609914D01*
X98722744Y-39609914D02*
X98722744Y-39667057D01*
X98722744Y-39667057D02*
X98779887Y-39781342D01*
X98779887Y-39781342D02*
X98837030Y-39838485D01*
X98837030Y-39838485D02*
X98951315Y-39895628D01*
X98951315Y-39895628D02*
X99179887Y-39895628D01*
X99179887Y-39895628D02*
X99294172Y-39952771D01*
X99294172Y-39952771D02*
X99351315Y-40009914D01*
X99351315Y-40009914D02*
X99408458Y-40124200D01*
X99408458Y-40124200D02*
X99408458Y-40352771D01*
X99408458Y-40352771D02*
X99351315Y-40467057D01*
X99351315Y-40467057D02*
X99294172Y-40524200D01*
X99294172Y-40524200D02*
X99179887Y-40581342D01*
X99179887Y-40581342D02*
X98951315Y-40581342D01*
X98951315Y-40581342D02*
X98837030Y-40524200D01*
X98837030Y-40524200D02*
X98779887Y-40467057D01*
X98779887Y-40467057D02*
X98722744Y-40352771D01*
X98722744Y-40352771D02*
X98722744Y-40124200D01*
X98722744Y-40124200D02*
X98779887Y-40009914D01*
X98779887Y-40009914D02*
X98837030Y-39952771D01*
X98837030Y-39952771D02*
X98951315Y-39895628D01*
X97351315Y-40524200D02*
X97179887Y-40581342D01*
X97179887Y-40581342D02*
X96894172Y-40581342D01*
X96894172Y-40581342D02*
X96779887Y-40524200D01*
X96779887Y-40524200D02*
X96722744Y-40467057D01*
X96722744Y-40467057D02*
X96665601Y-40352771D01*
X96665601Y-40352771D02*
X96665601Y-40238485D01*
X96665601Y-40238485D02*
X96722744Y-40124200D01*
X96722744Y-40124200D02*
X96779887Y-40067057D01*
X96779887Y-40067057D02*
X96894172Y-40009914D01*
X96894172Y-40009914D02*
X97122744Y-39952771D01*
X97122744Y-39952771D02*
X97237029Y-39895628D01*
X97237029Y-39895628D02*
X97294172Y-39838485D01*
X97294172Y-39838485D02*
X97351315Y-39724200D01*
X97351315Y-39724200D02*
X97351315Y-39609914D01*
X97351315Y-39609914D02*
X97294172Y-39495628D01*
X97294172Y-39495628D02*
X97237029Y-39438485D01*
X97237029Y-39438485D02*
X97122744Y-39381342D01*
X97122744Y-39381342D02*
X96837029Y-39381342D01*
X96837029Y-39381342D02*
X96665601Y-39438485D01*
X96151315Y-40581342D02*
X96151315Y-39381342D01*
X96151315Y-39381342D02*
X95865601Y-39381342D01*
X95865601Y-39381342D02*
X95694172Y-39438485D01*
X95694172Y-39438485D02*
X95579887Y-39552771D01*
X95579887Y-39552771D02*
X95522744Y-39667057D01*
X95522744Y-39667057D02*
X95465601Y-39895628D01*
X95465601Y-39895628D02*
X95465601Y-40067057D01*
X95465601Y-40067057D02*
X95522744Y-40295628D01*
X95522744Y-40295628D02*
X95579887Y-40409914D01*
X95579887Y-40409914D02*
X95694172Y-40524200D01*
X95694172Y-40524200D02*
X95865601Y-40581342D01*
X95865601Y-40581342D02*
X96151315Y-40581342D01*
X95008458Y-40238485D02*
X94437030Y-40238485D01*
X95122744Y-40581342D02*
X94722744Y-39381342D01*
X94722744Y-39381342D02*
X94322744Y-40581342D01*
X93008458Y-40581342D02*
X93008458Y-39381342D01*
X92494172Y-39495628D02*
X92437029Y-39438485D01*
X92437029Y-39438485D02*
X92322744Y-39381342D01*
X92322744Y-39381342D02*
X92037029Y-39381342D01*
X92037029Y-39381342D02*
X91922744Y-39438485D01*
X91922744Y-39438485D02*
X91865601Y-39495628D01*
X91865601Y-39495628D02*
X91808458Y-39609914D01*
X91808458Y-39609914D02*
X91808458Y-39724200D01*
X91808458Y-39724200D02*
X91865601Y-39895628D01*
X91865601Y-39895628D02*
X92551315Y-40581342D01*
X92551315Y-40581342D02*
X91808458Y-40581342D01*
X90608458Y-40467057D02*
X90665601Y-40524200D01*
X90665601Y-40524200D02*
X90837029Y-40581342D01*
X90837029Y-40581342D02*
X90951315Y-40581342D01*
X90951315Y-40581342D02*
X91122744Y-40524200D01*
X91122744Y-40524200D02*
X91237029Y-40409914D01*
X91237029Y-40409914D02*
X91294172Y-40295628D01*
X91294172Y-40295628D02*
X91351315Y-40067057D01*
X91351315Y-40067057D02*
X91351315Y-39895628D01*
X91351315Y-39895628D02*
X91294172Y-39667057D01*
X91294172Y-39667057D02*
X91237029Y-39552771D01*
X91237029Y-39552771D02*
X91122744Y-39438485D01*
X91122744Y-39438485D02*
X90951315Y-39381342D01*
X90951315Y-39381342D02*
X90837029Y-39381342D01*
X90837029Y-39381342D02*
X90665601Y-39438485D01*
X90665601Y-39438485D02*
X90608458Y-39495628D01*
X98779887Y-41313342D02*
X99351315Y-41313342D01*
X99351315Y-41313342D02*
X99408458Y-41884771D01*
X99408458Y-41884771D02*
X99351315Y-41827628D01*
X99351315Y-41827628D02*
X99237030Y-41770485D01*
X99237030Y-41770485D02*
X98951315Y-41770485D01*
X98951315Y-41770485D02*
X98837030Y-41827628D01*
X98837030Y-41827628D02*
X98779887Y-41884771D01*
X98779887Y-41884771D02*
X98722744Y-41999057D01*
X98722744Y-41999057D02*
X98722744Y-42284771D01*
X98722744Y-42284771D02*
X98779887Y-42399057D01*
X98779887Y-42399057D02*
X98837030Y-42456200D01*
X98837030Y-42456200D02*
X98951315Y-42513342D01*
X98951315Y-42513342D02*
X99237030Y-42513342D01*
X99237030Y-42513342D02*
X99351315Y-42456200D01*
X99351315Y-42456200D02*
X99408458Y-42399057D01*
X96608458Y-42513342D02*
X97008458Y-41941914D01*
X97294172Y-42513342D02*
X97294172Y-41313342D01*
X97294172Y-41313342D02*
X96837029Y-41313342D01*
X96837029Y-41313342D02*
X96722744Y-41370485D01*
X96722744Y-41370485D02*
X96665601Y-41427628D01*
X96665601Y-41427628D02*
X96608458Y-41541914D01*
X96608458Y-41541914D02*
X96608458Y-41713342D01*
X96608458Y-41713342D02*
X96665601Y-41827628D01*
X96665601Y-41827628D02*
X96722744Y-41884771D01*
X96722744Y-41884771D02*
X96837029Y-41941914D01*
X96837029Y-41941914D02*
X97294172Y-41941914D01*
X96094172Y-41884771D02*
X95694172Y-41884771D01*
X95522744Y-42513342D02*
X96094172Y-42513342D01*
X96094172Y-42513342D02*
X96094172Y-41313342D01*
X96094172Y-41313342D02*
X95522744Y-41313342D01*
X95065601Y-42456200D02*
X94894173Y-42513342D01*
X94894173Y-42513342D02*
X94608458Y-42513342D01*
X94608458Y-42513342D02*
X94494173Y-42456200D01*
X94494173Y-42456200D02*
X94437030Y-42399057D01*
X94437030Y-42399057D02*
X94379887Y-42284771D01*
X94379887Y-42284771D02*
X94379887Y-42170485D01*
X94379887Y-42170485D02*
X94437030Y-42056200D01*
X94437030Y-42056200D02*
X94494173Y-41999057D01*
X94494173Y-41999057D02*
X94608458Y-41941914D01*
X94608458Y-41941914D02*
X94837030Y-41884771D01*
X94837030Y-41884771D02*
X94951315Y-41827628D01*
X94951315Y-41827628D02*
X95008458Y-41770485D01*
X95008458Y-41770485D02*
X95065601Y-41656200D01*
X95065601Y-41656200D02*
X95065601Y-41541914D01*
X95065601Y-41541914D02*
X95008458Y-41427628D01*
X95008458Y-41427628D02*
X94951315Y-41370485D01*
X94951315Y-41370485D02*
X94837030Y-41313342D01*
X94837030Y-41313342D02*
X94551315Y-41313342D01*
X94551315Y-41313342D02*
X94379887Y-41370485D01*
X94037030Y-41313342D02*
X93351316Y-41313342D01*
X93694173Y-42513342D02*
X93694173Y-41313342D01*
X98837030Y-43245342D02*
X99065601Y-43245342D01*
X99065601Y-43245342D02*
X99179887Y-43302485D01*
X99179887Y-43302485D02*
X99237030Y-43359628D01*
X99237030Y-43359628D02*
X99351315Y-43531057D01*
X99351315Y-43531057D02*
X99408458Y-43759628D01*
X99408458Y-43759628D02*
X99408458Y-44216771D01*
X99408458Y-44216771D02*
X99351315Y-44331057D01*
X99351315Y-44331057D02*
X99294172Y-44388200D01*
X99294172Y-44388200D02*
X99179887Y-44445342D01*
X99179887Y-44445342D02*
X98951315Y-44445342D01*
X98951315Y-44445342D02*
X98837030Y-44388200D01*
X98837030Y-44388200D02*
X98779887Y-44331057D01*
X98779887Y-44331057D02*
X98722744Y-44216771D01*
X98722744Y-44216771D02*
X98722744Y-43931057D01*
X98722744Y-43931057D02*
X98779887Y-43816771D01*
X98779887Y-43816771D02*
X98837030Y-43759628D01*
X98837030Y-43759628D02*
X98951315Y-43702485D01*
X98951315Y-43702485D02*
X99179887Y-43702485D01*
X99179887Y-43702485D02*
X99294172Y-43759628D01*
X99294172Y-43759628D02*
X99351315Y-43816771D01*
X99351315Y-43816771D02*
X99408458Y-43931057D01*
X97294172Y-44445342D02*
X97294172Y-43245342D01*
X96037029Y-44445342D02*
X96437029Y-43873914D01*
X96722743Y-44445342D02*
X96722743Y-43245342D01*
X96722743Y-43245342D02*
X96265600Y-43245342D01*
X96265600Y-43245342D02*
X96151315Y-43302485D01*
X96151315Y-43302485D02*
X96094172Y-43359628D01*
X96094172Y-43359628D02*
X96037029Y-43473914D01*
X96037029Y-43473914D02*
X96037029Y-43645342D01*
X96037029Y-43645342D02*
X96094172Y-43759628D01*
X96094172Y-43759628D02*
X96151315Y-43816771D01*
X96151315Y-43816771D02*
X96265600Y-43873914D01*
X96265600Y-43873914D02*
X96722743Y-43873914D01*
X94722743Y-44559628D02*
X94837029Y-44502485D01*
X94837029Y-44502485D02*
X94951315Y-44388200D01*
X94951315Y-44388200D02*
X95122743Y-44216771D01*
X95122743Y-44216771D02*
X95237029Y-44159628D01*
X95237029Y-44159628D02*
X95351315Y-44159628D01*
X95294172Y-44445342D02*
X95408458Y-44388200D01*
X95408458Y-44388200D02*
X95522743Y-44273914D01*
X95522743Y-44273914D02*
X95579886Y-44045342D01*
X95579886Y-44045342D02*
X95579886Y-43645342D01*
X95579886Y-43645342D02*
X95522743Y-43416771D01*
X95522743Y-43416771D02*
X95408458Y-43302485D01*
X95408458Y-43302485D02*
X95294172Y-43245342D01*
X95294172Y-43245342D02*
X95065600Y-43245342D01*
X95065600Y-43245342D02*
X94951315Y-43302485D01*
X94951315Y-43302485D02*
X94837029Y-43416771D01*
X94837029Y-43416771D02*
X94779886Y-43645342D01*
X94779886Y-43645342D02*
X94779886Y-44045342D01*
X94779886Y-44045342D02*
X94837029Y-44273914D01*
X94837029Y-44273914D02*
X94951315Y-44388200D01*
X94951315Y-44388200D02*
X95065600Y-44445342D01*
X95065600Y-44445342D02*
X95294172Y-44445342D01*
X93008457Y-44902485D02*
X93065600Y-44845342D01*
X93065600Y-44845342D02*
X93179886Y-44673914D01*
X93179886Y-44673914D02*
X93237029Y-44559628D01*
X93237029Y-44559628D02*
X93294171Y-44388200D01*
X93294171Y-44388200D02*
X93351314Y-44102485D01*
X93351314Y-44102485D02*
X93351314Y-43873914D01*
X93351314Y-43873914D02*
X93294171Y-43588200D01*
X93294171Y-43588200D02*
X93237029Y-43416771D01*
X93237029Y-43416771D02*
X93179886Y-43302485D01*
X93179886Y-43302485D02*
X93065600Y-43131057D01*
X93065600Y-43131057D02*
X93008457Y-43073914D01*
X92551314Y-44445342D02*
X92551314Y-43245342D01*
X91979885Y-43645342D02*
X91979885Y-44445342D01*
X91979885Y-43759628D02*
X91922742Y-43702485D01*
X91922742Y-43702485D02*
X91808457Y-43645342D01*
X91808457Y-43645342D02*
X91637028Y-43645342D01*
X91637028Y-43645342D02*
X91522742Y-43702485D01*
X91522742Y-43702485D02*
X91465600Y-43816771D01*
X91465600Y-43816771D02*
X91465600Y-44445342D01*
X91065600Y-43645342D02*
X90608457Y-43645342D01*
X90894171Y-43245342D02*
X90894171Y-44273914D01*
X90894171Y-44273914D02*
X90837028Y-44388200D01*
X90837028Y-44388200D02*
X90722743Y-44445342D01*
X90722743Y-44445342D02*
X90608457Y-44445342D01*
X89751314Y-44388200D02*
X89865600Y-44445342D01*
X89865600Y-44445342D02*
X90094172Y-44445342D01*
X90094172Y-44445342D02*
X90208457Y-44388200D01*
X90208457Y-44388200D02*
X90265600Y-44273914D01*
X90265600Y-44273914D02*
X90265600Y-43816771D01*
X90265600Y-43816771D02*
X90208457Y-43702485D01*
X90208457Y-43702485D02*
X90094172Y-43645342D01*
X90094172Y-43645342D02*
X89865600Y-43645342D01*
X89865600Y-43645342D02*
X89751314Y-43702485D01*
X89751314Y-43702485D02*
X89694172Y-43816771D01*
X89694172Y-43816771D02*
X89694172Y-43931057D01*
X89694172Y-43931057D02*
X90265600Y-44045342D01*
X89179886Y-44445342D02*
X89179886Y-43645342D01*
X89179886Y-43873914D02*
X89122743Y-43759628D01*
X89122743Y-43759628D02*
X89065601Y-43702485D01*
X89065601Y-43702485D02*
X88951315Y-43645342D01*
X88951315Y-43645342D02*
X88837029Y-43645342D01*
X88437029Y-44445342D02*
X88437029Y-43645342D01*
X88437029Y-43873914D02*
X88379886Y-43759628D01*
X88379886Y-43759628D02*
X88322744Y-43702485D01*
X88322744Y-43702485D02*
X88208458Y-43645342D01*
X88208458Y-43645342D02*
X88094172Y-43645342D01*
X87179887Y-43645342D02*
X87179887Y-44445342D01*
X87694172Y-43645342D02*
X87694172Y-44273914D01*
X87694172Y-44273914D02*
X87637029Y-44388200D01*
X87637029Y-44388200D02*
X87522744Y-44445342D01*
X87522744Y-44445342D02*
X87351315Y-44445342D01*
X87351315Y-44445342D02*
X87237029Y-44388200D01*
X87237029Y-44388200D02*
X87179887Y-44331057D01*
X86608458Y-43645342D02*
X86608458Y-44845342D01*
X86608458Y-43702485D02*
X86494173Y-43645342D01*
X86494173Y-43645342D02*
X86265601Y-43645342D01*
X86265601Y-43645342D02*
X86151315Y-43702485D01*
X86151315Y-43702485D02*
X86094173Y-43759628D01*
X86094173Y-43759628D02*
X86037030Y-43873914D01*
X86037030Y-43873914D02*
X86037030Y-44216771D01*
X86037030Y-44216771D02*
X86094173Y-44331057D01*
X86094173Y-44331057D02*
X86151315Y-44388200D01*
X86151315Y-44388200D02*
X86265601Y-44445342D01*
X86265601Y-44445342D02*
X86494173Y-44445342D01*
X86494173Y-44445342D02*
X86608458Y-44388200D01*
X85694173Y-43645342D02*
X85237030Y-43645342D01*
X85522744Y-43245342D02*
X85522744Y-44273914D01*
X85522744Y-44273914D02*
X85465601Y-44388200D01*
X85465601Y-44388200D02*
X85351316Y-44445342D01*
X85351316Y-44445342D02*
X85237030Y-44445342D01*
X84951316Y-44902485D02*
X84894173Y-44845342D01*
X84894173Y-44845342D02*
X84779887Y-44673914D01*
X84779887Y-44673914D02*
X84722745Y-44559628D01*
X84722745Y-44559628D02*
X84665602Y-44388200D01*
X84665602Y-44388200D02*
X84608459Y-44102485D01*
X84608459Y-44102485D02*
X84608459Y-43873914D01*
X84608459Y-43873914D02*
X84665602Y-43588200D01*
X84665602Y-43588200D02*
X84722745Y-43416771D01*
X84722745Y-43416771D02*
X84779887Y-43302485D01*
X84779887Y-43302485D02*
X84894173Y-43131057D01*
X84894173Y-43131057D02*
X84951316Y-43073914D01*
D11*
X69071094Y-58868091D02*
X69213952Y-58796662D01*
X69213952Y-58796662D02*
X69428237Y-58796662D01*
X69428237Y-58796662D02*
X69642523Y-58868091D01*
X69642523Y-58868091D02*
X69785380Y-59010948D01*
X69785380Y-59010948D02*
X69856809Y-59153805D01*
X69856809Y-59153805D02*
X69928237Y-59439519D01*
X69928237Y-59439519D02*
X69928237Y-59653805D01*
X69928237Y-59653805D02*
X69856809Y-59939519D01*
X69856809Y-59939519D02*
X69785380Y-60082376D01*
X69785380Y-60082376D02*
X69642523Y-60225234D01*
X69642523Y-60225234D02*
X69428237Y-60296662D01*
X69428237Y-60296662D02*
X69285380Y-60296662D01*
X69285380Y-60296662D02*
X69071094Y-60225234D01*
X69071094Y-60225234D02*
X68999666Y-60153805D01*
X68999666Y-60153805D02*
X68999666Y-59653805D01*
X68999666Y-59653805D02*
X69285380Y-59653805D01*
X68142523Y-58796662D02*
X68142523Y-59153805D01*
X68499666Y-59010948D02*
X68142523Y-59153805D01*
X68142523Y-59153805D02*
X67785380Y-59010948D01*
X68356809Y-59439519D02*
X68142523Y-59153805D01*
X68142523Y-59153805D02*
X67928237Y-59439519D01*
X66999666Y-58796662D02*
X66999666Y-59153805D01*
X67356809Y-59010948D02*
X66999666Y-59153805D01*
X66999666Y-59153805D02*
X66642523Y-59010948D01*
X67213952Y-59439519D02*
X66999666Y-59153805D01*
X66999666Y-59153805D02*
X66785380Y-59439519D01*
X65856809Y-58796662D02*
X65856809Y-59153805D01*
X66213952Y-59010948D02*
X65856809Y-59153805D01*
X65856809Y-59153805D02*
X65499666Y-59010948D01*
X66071095Y-59439519D02*
X65856809Y-59153805D01*
X65856809Y-59153805D02*
X65642523Y-59439519D01*
G36*
X87731000Y-58306000D02*
G01*
X87688667Y-58348334D01*
X87646333Y-58306000D01*
X87688667Y-58263667D01*
X87731000Y-58306000D01*
G37*
G36*
X87561667Y-62370000D02*
G01*
X87519333Y-62412334D01*
X87477000Y-62370000D01*
X87519333Y-62327667D01*
X87561667Y-62370000D01*
G37*
G36*
X87561667Y-58390667D02*
G01*
X87519333Y-58433000D01*
X87477000Y-58390667D01*
X87519333Y-58348334D01*
X87561667Y-58390667D01*
G37*
G36*
X87477000Y-62793334D02*
G01*
X87434667Y-62835667D01*
X87392333Y-62793334D01*
X87434667Y-62751000D01*
X87477000Y-62793334D01*
G37*
G36*
X87223000Y-60676667D02*
G01*
X87180667Y-60719000D01*
X87138333Y-60676667D01*
X87180667Y-60634334D01*
X87223000Y-60676667D01*
G37*
G36*
X87138333Y-64402000D02*
G01*
X87096000Y-64444334D01*
X87053667Y-64402000D01*
X87096000Y-64359667D01*
X87138333Y-64402000D01*
G37*
G36*
X69866333Y-47130000D02*
G01*
X69824000Y-47172334D01*
X69781667Y-47130000D01*
X69824000Y-47087667D01*
X69866333Y-47130000D01*
G37*
G36*
X69527667Y-47384000D02*
G01*
X69485333Y-47426334D01*
X69443000Y-47384000D01*
X69485333Y-47341667D01*
X69527667Y-47384000D01*
G37*
G36*
X69527667Y-47130000D02*
G01*
X69485333Y-47172334D01*
X69443000Y-47130000D01*
X69485333Y-47087667D01*
X69527667Y-47130000D01*
G37*
G36*
X69189000Y-47892000D02*
G01*
X69146667Y-47934334D01*
X69104333Y-47892000D01*
X69146667Y-47849667D01*
X69189000Y-47892000D01*
G37*
G36*
X68511667Y-47130000D02*
G01*
X68469333Y-47172334D01*
X68427000Y-47130000D01*
X68469333Y-47087667D01*
X68511667Y-47130000D01*
G37*
G36*
X68173000Y-47130000D02*
G01*
X68130667Y-47172334D01*
X68088333Y-47130000D01*
X68130667Y-47087667D01*
X68173000Y-47130000D01*
G37*
G36*
X65463667Y-47045334D02*
G01*
X65421333Y-47087667D01*
X65379000Y-47045334D01*
X65421333Y-47003000D01*
X65463667Y-47045334D01*
G37*
G36*
X64447667Y-47045334D02*
G01*
X64405333Y-47087667D01*
X64363000Y-47045334D01*
X64405333Y-47003000D01*
X64447667Y-47045334D01*
G37*
G36*
X87787445Y-60747222D02*
G01*
X87800690Y-60772689D01*
X87731000Y-60803667D01*
X87686178Y-60797557D01*
X87674556Y-60747222D01*
X87686965Y-60737089D01*
X87787445Y-60747222D01*
G37*
G36*
X87618111Y-64557222D02*
G01*
X87631357Y-64582689D01*
X87561667Y-64613667D01*
X87516845Y-64607557D01*
X87505222Y-64557222D01*
X87517632Y-64547089D01*
X87618111Y-64557222D01*
G37*
G36*
X87561667Y-61650334D02*
G01*
X87555557Y-61695156D01*
X87505222Y-61706778D01*
X87495089Y-61694369D01*
X87505222Y-61593889D01*
X87530689Y-61580643D01*
X87561667Y-61650334D01*
G37*
G36*
X87533445Y-62101889D02*
G01*
X87546690Y-62127355D01*
X87477000Y-62158334D01*
X87432178Y-62152223D01*
X87420556Y-62101889D01*
X87432965Y-62091756D01*
X87533445Y-62101889D01*
G37*
G36*
X70543667Y-47765000D02*
G01*
X70537557Y-47809822D01*
X70487222Y-47821445D01*
X70477089Y-47809035D01*
X70487222Y-47708556D01*
X70512689Y-47695310D01*
X70543667Y-47765000D01*
G37*
G36*
X70346111Y-47877889D02*
G01*
X70359357Y-47903355D01*
X70289667Y-47934334D01*
X70244845Y-47928223D01*
X70233222Y-47877889D01*
X70245632Y-47867756D01*
X70346111Y-47877889D01*
G37*
G36*
X69628208Y-47876497D02*
G01*
X69667398Y-47906972D01*
X69577056Y-47927649D01*
X69491182Y-47921663D01*
X69465931Y-47883181D01*
X69495885Y-47866403D01*
X69628208Y-47876497D01*
G37*
G36*
X67919000Y-47511000D02*
G01*
X67912890Y-47555822D01*
X67862556Y-47567445D01*
X67852423Y-47555035D01*
X67862556Y-47454556D01*
X67888022Y-47441310D01*
X67919000Y-47511000D01*
G37*
G36*
X67834333Y-47765000D02*
G01*
X67828223Y-47809822D01*
X67777889Y-47821445D01*
X67767756Y-47809035D01*
X67777889Y-47708556D01*
X67803355Y-47695310D01*
X67834333Y-47765000D01*
G37*
G36*
X67495667Y-47172334D02*
G01*
X67489557Y-47217156D01*
X67439222Y-47228778D01*
X67429089Y-47216369D01*
X67439222Y-47115889D01*
X67464689Y-47102643D01*
X67495667Y-47172334D01*
G37*
G36*
X67404316Y-47461611D02*
G01*
X67398329Y-47547485D01*
X67359847Y-47572736D01*
X67343070Y-47542782D01*
X67353163Y-47410459D01*
X67383639Y-47371269D01*
X67404316Y-47461611D01*
G37*
G36*
X65196298Y-47257000D02*
G01*
X65184496Y-47373470D01*
X65153594Y-47362834D01*
X65142411Y-47324509D01*
X65153594Y-47151167D01*
X65182993Y-47136805D01*
X65196298Y-47257000D01*
G37*
G36*
X65111632Y-47765000D02*
G01*
X65099830Y-47881470D01*
X65068927Y-47870834D01*
X65057744Y-47832509D01*
X65068927Y-47659167D01*
X65098326Y-47644805D01*
X65111632Y-47765000D01*
G37*
G36*
X64948983Y-47207611D02*
G01*
X64942996Y-47293485D01*
X64904514Y-47318736D01*
X64887736Y-47288782D01*
X64897830Y-47156459D01*
X64928305Y-47117269D01*
X64948983Y-47207611D01*
G37*
G36*
X64688298Y-47257000D02*
G01*
X64676496Y-47373470D01*
X64645594Y-47362834D01*
X64634411Y-47324509D01*
X64645594Y-47151167D01*
X64674993Y-47136805D01*
X64688298Y-47257000D01*
G37*
G36*
X87612085Y-59266585D02*
G01*
X87585949Y-59304197D01*
X87514337Y-59364334D01*
X87502501Y-59363509D01*
X87483855Y-59314499D01*
X87574749Y-59229249D01*
X87622064Y-59208648D01*
X87612085Y-59266585D01*
G37*
G36*
X87352129Y-60328092D02*
G01*
X87260349Y-60419974D01*
X87112823Y-60522943D01*
X87063627Y-60530185D01*
X87138333Y-60422667D01*
X87209417Y-60354286D01*
X87334216Y-60295667D01*
X87352129Y-60328092D01*
G37*
G36*
X67533603Y-47817362D02*
G01*
X67598587Y-47846682D01*
X67665000Y-47901059D01*
X67641534Y-47932601D01*
X67544489Y-47920822D01*
X67453933Y-47850637D01*
X67446203Y-47811444D01*
X67533603Y-47817362D01*
G37*
G36*
X64834435Y-47584449D02*
G01*
X64805878Y-47768698D01*
X64747473Y-47976667D01*
X64717728Y-47778897D01*
X64709977Y-47644915D01*
X64737159Y-47531953D01*
X64801115Y-47502022D01*
X64834435Y-47584449D01*
G37*
G36*
X87960369Y-61036174D02*
G01*
X87985000Y-61179670D01*
X87985000Y-61180033D01*
X87970207Y-61359123D01*
X87931182Y-61375951D01*
X87875823Y-61227084D01*
X87864479Y-61119927D01*
X87908282Y-61010421D01*
X87960369Y-61036174D01*
G37*
G36*
X87960369Y-59004174D02*
G01*
X87985000Y-59147670D01*
X87985000Y-59148033D01*
X87970207Y-59327123D01*
X87931182Y-59343951D01*
X87875823Y-59195084D01*
X87864479Y-59087927D01*
X87908282Y-58978421D01*
X87960369Y-59004174D01*
G37*
G36*
X87750579Y-58605587D02*
G01*
X87815667Y-58687000D01*
X87814696Y-58706161D01*
X87778330Y-58771667D01*
X87764749Y-58767771D01*
X87688667Y-58687000D01*
X87675437Y-58654203D01*
X87726003Y-58602334D01*
X87750579Y-58605587D01*
G37*
G36*
X87496579Y-62500254D02*
G01*
X87561667Y-62581667D01*
X87560696Y-62600828D01*
X87524330Y-62666334D01*
X87510749Y-62662437D01*
X87434667Y-62581667D01*
X87421437Y-62548870D01*
X87472003Y-62497000D01*
X87496579Y-62500254D01*
G37*
G36*
X87496579Y-61822920D02*
G01*
X87561667Y-61904334D01*
X87560696Y-61923494D01*
X87524330Y-61989000D01*
X87510749Y-61985104D01*
X87434667Y-61904334D01*
X87421437Y-61871537D01*
X87472003Y-61819667D01*
X87496579Y-61822920D01*
G37*
G36*
X87342880Y-58548025D02*
G01*
X87304870Y-58619140D01*
X87213942Y-58687000D01*
X87176913Y-58684309D01*
X87149849Y-58635386D01*
X87267272Y-58516058D01*
X87292351Y-58495598D01*
X87364590Y-58456621D01*
X87342880Y-58548025D01*
G37*
G36*
X70369308Y-47245213D02*
G01*
X70492401Y-47412559D01*
X70543667Y-47534491D01*
X70542083Y-47579421D01*
X70523315Y-47588032D01*
X70464734Y-47503550D01*
X70343683Y-47299334D01*
X70194950Y-47045334D01*
X70369308Y-47245213D01*
G37*
G36*
X67712226Y-47091477D02*
G01*
X67792000Y-47172334D01*
X67807770Y-47202310D01*
X67801994Y-47257000D01*
X67787108Y-47253190D01*
X67707333Y-47172334D01*
X67691563Y-47142357D01*
X67697340Y-47087667D01*
X67712226Y-47091477D01*
G37*
G36*
X67225161Y-47638000D02*
G01*
X67225277Y-47658051D01*
X67213926Y-47790593D01*
X67186131Y-47787778D01*
X67170599Y-47718208D01*
X67182994Y-47533778D01*
X67187183Y-47519221D01*
X67212953Y-47506686D01*
X67225161Y-47638000D01*
G37*
G36*
X67011070Y-47441092D02*
G01*
X66997728Y-47614173D01*
X66969513Y-47763885D01*
X66944813Y-47801700D01*
X66920167Y-47691735D01*
X66917442Y-47550838D01*
X66966225Y-47413908D01*
X66975618Y-47405857D01*
X67011070Y-47441092D01*
G37*
G36*
X66757070Y-47441092D02*
G01*
X66743728Y-47614173D01*
X66715513Y-47763885D01*
X66690813Y-47801700D01*
X66666167Y-47691735D01*
X66663442Y-47550838D01*
X66712225Y-47413908D01*
X66721618Y-47405857D01*
X66757070Y-47441092D01*
G37*
G36*
X66547828Y-47638000D02*
G01*
X66547944Y-47658051D01*
X66536592Y-47790593D01*
X66508798Y-47787778D01*
X66493265Y-47718208D01*
X66505660Y-47533778D01*
X66509850Y-47519221D01*
X66535619Y-47506686D01*
X66547828Y-47638000D01*
G37*
G36*
X66333737Y-47441092D02*
G01*
X66320395Y-47614173D01*
X66292179Y-47763885D01*
X66267480Y-47801700D01*
X66242833Y-47691735D01*
X66240109Y-47550838D01*
X66288892Y-47413908D01*
X66298284Y-47405857D01*
X66333737Y-47441092D01*
G37*
G36*
X66079737Y-47441092D02*
G01*
X66066395Y-47614173D01*
X66038179Y-47763885D01*
X66013480Y-47801700D01*
X65988833Y-47691735D01*
X65986109Y-47550838D01*
X66034892Y-47413908D01*
X66044284Y-47405857D01*
X66079737Y-47441092D01*
G37*
G36*
X87657133Y-61248167D02*
G01*
X87570494Y-61336351D01*
X87452522Y-61396334D01*
X87427217Y-61395184D01*
X87399389Y-61372376D01*
X87461268Y-61328213D01*
X87604000Y-61224209D01*
X87689277Y-61163050D01*
X87729278Y-61149143D01*
X87657133Y-61248167D01*
G37*
G36*
X70204698Y-47442964D02*
G01*
X70158165Y-47524274D01*
X70110512Y-47718434D01*
X70106757Y-47777289D01*
X70092413Y-47836802D01*
X70060043Y-47733826D01*
X70061110Y-47622495D01*
X70154229Y-47458357D01*
X70221522Y-47406719D01*
X70204698Y-47442964D01*
G37*
G36*
X69675833Y-47629956D02*
G01*
X69807527Y-47765363D01*
X69866333Y-47876900D01*
X69865398Y-47900036D01*
X69844265Y-47927278D01*
X69843439Y-47925990D01*
X69777097Y-47837458D01*
X69653765Y-47680334D01*
X69485333Y-47468667D01*
X69675833Y-47629956D01*
G37*
G36*
X87232241Y-61075125D02*
G01*
X87180676Y-61180136D01*
X87185799Y-61329125D01*
X87189637Y-61335940D01*
X87212199Y-61395891D01*
X87133216Y-61332229D01*
X87100182Y-61298518D01*
X87074380Y-61202883D01*
X87179658Y-61078229D01*
X87259085Y-61006611D01*
X87297098Y-60983199D01*
X87232241Y-61075125D01*
G37*
G36*
X87221559Y-59055995D02*
G01*
X87183520Y-59109269D01*
X87154565Y-59222894D01*
X87263545Y-59331162D01*
X87347506Y-59409297D01*
X87334216Y-59449000D01*
X87265904Y-59426967D01*
X87134807Y-59317751D01*
X87108518Y-59283794D01*
X87079451Y-59170741D01*
X87183303Y-59042584D01*
X87268804Y-58965535D01*
X87298612Y-58950093D01*
X87221559Y-59055995D01*
G37*
G36*
X87883710Y-60370509D02*
G01*
X87950988Y-60507334D01*
X87951808Y-60524964D01*
X87949305Y-60608812D01*
X87923933Y-60528500D01*
X87878275Y-60448619D01*
X87751528Y-60386430D01*
X87621419Y-60402561D01*
X87561667Y-60502337D01*
X87554976Y-60554186D01*
X87478141Y-60675962D01*
X87435822Y-60668368D01*
X87466673Y-60532792D01*
X87467421Y-60530792D01*
X87581563Y-60385411D01*
X87740447Y-60330926D01*
X87883710Y-60370509D01*
G37*
G36*
X87676456Y-63708659D02*
G01*
X87786885Y-63721986D01*
X87752167Y-63742086D01*
X87622419Y-63797048D01*
X87556564Y-63920989D01*
X87615946Y-64050377D01*
X87794500Y-64129691D01*
X87849031Y-64146177D01*
X87770693Y-64160263D01*
X87561667Y-64166118D01*
X87370830Y-64162602D01*
X87256543Y-64149761D01*
X87286500Y-64130581D01*
X87402524Y-64081141D01*
X87477000Y-63936334D01*
X87444242Y-63834065D01*
X87286500Y-63742086D01*
X87245837Y-63726998D01*
X87318772Y-63711429D01*
X87519333Y-63705394D01*
X87676456Y-63708659D01*
G37*
G36*
X68511667Y-47807334D02*
G01*
X68439001Y-47875042D01*
X68300000Y-47934334D01*
X68227007Y-47914647D01*
X68088333Y-47807334D01*
X68055052Y-47701545D01*
X68109475Y-47701545D01*
X68194332Y-47800036D01*
X68347278Y-47832689D01*
X68470996Y-47762311D01*
X68488125Y-47711416D01*
X68442247Y-47577047D01*
X68403717Y-47548966D01*
X68262384Y-47531718D01*
X68139360Y-47591909D01*
X68109475Y-47701545D01*
X68055052Y-47701545D01*
X68039709Y-47652774D01*
X68133903Y-47503876D01*
X68353482Y-47398886D01*
X68452297Y-47381309D01*
X68478443Y-47403113D01*
X68466315Y-47445983D01*
X68522768Y-47566710D01*
X68571833Y-47663233D01*
X68551715Y-47711416D01*
X68511667Y-47807334D01*
G37*
G36*
X86291667Y-60930667D02*
G01*
X86291667Y-73080334D01*
X86291667Y-73249667D01*
X78036667Y-73249667D01*
X76514981Y-73250491D01*
X75112735Y-73253041D01*
X73871625Y-73257307D01*
X72792676Y-73263279D01*
X71876910Y-73270945D01*
X71125352Y-73280296D01*
X70539025Y-73291321D01*
X70118953Y-73304009D01*
X69866159Y-73318350D01*
X69781667Y-73334334D01*
X69757964Y-73399597D01*
X69668739Y-73407116D01*
X69583501Y-73313167D01*
X69534893Y-73257634D01*
X69449446Y-73334334D01*
X69435145Y-73353907D01*
X69353654Y-73418679D01*
X69267221Y-73334334D01*
X69191106Y-73258821D01*
X69132990Y-73313694D01*
X69103305Y-73354414D01*
X68991269Y-73356171D01*
X68948830Y-73341931D01*
X68759054Y-73318081D01*
X68455864Y-73300481D01*
X68070668Y-73289001D01*
X67634873Y-73283516D01*
X67179887Y-73283899D01*
X66737118Y-73290023D01*
X66337974Y-73301761D01*
X66013863Y-73318986D01*
X65796192Y-73341573D01*
X65716370Y-73369392D01*
X65700140Y-73399014D01*
X65631704Y-73334334D01*
X65620970Y-73318220D01*
X65545252Y-73250048D01*
X65506070Y-73292000D01*
X65467192Y-73333626D01*
X65387940Y-73411619D01*
X65282940Y-73356807D01*
X65192231Y-73298555D01*
X65061295Y-73352070D01*
X64967431Y-73406750D01*
X64882419Y-73352810D01*
X64853835Y-73340650D01*
X64732172Y-73324210D01*
X64509666Y-73309516D01*
X64179468Y-73296471D01*
X64006441Y-73292000D01*
X64955667Y-73292000D01*
X64998000Y-73334334D01*
X65040333Y-73292000D01*
X64998000Y-73249667D01*
X64955667Y-73292000D01*
X64006441Y-73292000D01*
X63734730Y-73284979D01*
X63168603Y-73274944D01*
X62474237Y-73266271D01*
X61644784Y-73258863D01*
X60673395Y-73252623D01*
X59553221Y-73247456D01*
X58277413Y-73243266D01*
X56839122Y-73239957D01*
X56789951Y-73239863D01*
X55429306Y-73236948D01*
X54228030Y-73233636D01*
X53176485Y-73229765D01*
X52265034Y-73225175D01*
X51484042Y-73219704D01*
X50823869Y-73213189D01*
X50274880Y-73205471D01*
X49827438Y-73196386D01*
X49471905Y-73185775D01*
X49198644Y-73173475D01*
X48998018Y-73159324D01*
X48860391Y-73143161D01*
X48776125Y-73124826D01*
X48735584Y-73104155D01*
X48726690Y-73090523D01*
X48710951Y-73036298D01*
X48971756Y-73036298D01*
X48981889Y-73136778D01*
X49007355Y-73150024D01*
X49038333Y-73080334D01*
X49032223Y-73035511D01*
X48981889Y-73023889D01*
X48971756Y-73036298D01*
X48710951Y-73036298D01*
X48710674Y-73035342D01*
X48696221Y-72935688D01*
X48683255Y-72783757D01*
X48671699Y-72571747D01*
X48661476Y-72291853D01*
X48652511Y-71936272D01*
X48644727Y-71497200D01*
X48638046Y-70966832D01*
X48632394Y-70337365D01*
X48627693Y-69600996D01*
X48623867Y-68749921D01*
X48620839Y-67776335D01*
X48618533Y-66672435D01*
X48616873Y-65430417D01*
X48615781Y-64042478D01*
X48615183Y-62500813D01*
X48615000Y-60797619D01*
X48615000Y-49712333D01*
X49630349Y-49712333D01*
X49651841Y-60401500D01*
X49673333Y-71090667D01*
X67368667Y-71105254D01*
X68724122Y-71106245D01*
X70409465Y-71107123D01*
X72044026Y-71107581D01*
X73619901Y-71107633D01*
X75129186Y-71107291D01*
X76563980Y-71106568D01*
X77916377Y-71105476D01*
X79178476Y-71104028D01*
X80342371Y-71102236D01*
X81400161Y-71100113D01*
X82343941Y-71097671D01*
X83165808Y-71094923D01*
X83857859Y-71091882D01*
X84412191Y-71088559D01*
X84820899Y-71084969D01*
X85076081Y-71081122D01*
X85169833Y-71077031D01*
X85183733Y-71048581D01*
X85198457Y-70953985D01*
X85211634Y-70786219D01*
X85223336Y-70537887D01*
X85233638Y-70201592D01*
X85242611Y-69769937D01*
X85250328Y-69235523D01*
X85256864Y-68590955D01*
X85262292Y-67828835D01*
X85266683Y-66941765D01*
X85270112Y-65922349D01*
X85272652Y-64763190D01*
X85274376Y-63456889D01*
X85275356Y-61996051D01*
X85275667Y-60373278D01*
X85275667Y-49712334D01*
X67453008Y-49712333D01*
X49630349Y-49712333D01*
X48615000Y-49712333D01*
X48615000Y-48611667D01*
X67453333Y-48611667D01*
X86291667Y-48611667D01*
X86291667Y-60373278D01*
X86291667Y-60930667D01*
G37*
G36*
X70175337Y-74159834D02*
G01*
X70147851Y-74453030D01*
X70130115Y-74557003D01*
X70095852Y-74757863D01*
X70078351Y-74816000D01*
X70033748Y-74964167D01*
X69923820Y-75197000D01*
X68498077Y-75197000D01*
X68434943Y-75196970D01*
X67897106Y-75193130D01*
X67508986Y-75181939D01*
X67252856Y-75162088D01*
X67110986Y-75132268D01*
X67065649Y-75091167D01*
X67054149Y-75034882D01*
X67014197Y-75097358D01*
X66995631Y-75128908D01*
X66908903Y-75133360D01*
X66745714Y-75013960D01*
X66700908Y-74975475D01*
X66611564Y-74907485D01*
X66627833Y-74940035D01*
X66652932Y-74969636D01*
X66695144Y-75043781D01*
X66724360Y-75095100D01*
X66658518Y-75153981D01*
X66440884Y-75163647D01*
X66223417Y-75124856D01*
X66011266Y-74985334D01*
X65989216Y-74958818D01*
X66160384Y-74958818D01*
X66163008Y-74966124D01*
X66244027Y-75064682D01*
X66345290Y-75099235D01*
X66395000Y-75043781D01*
X66377380Y-74996182D01*
X66260925Y-74909668D01*
X66186836Y-74895069D01*
X66160384Y-74958818D01*
X65989216Y-74958818D01*
X65927223Y-74884269D01*
X65890952Y-74871170D01*
X65911991Y-74994525D01*
X65913415Y-75001407D01*
X65917842Y-75095801D01*
X65859039Y-75149258D01*
X65701640Y-75175409D01*
X65410275Y-75187886D01*
X65370286Y-75188958D01*
X65093981Y-75190973D01*
X64943599Y-75170200D01*
X64880251Y-75113907D01*
X64865049Y-75009361D01*
X64861347Y-74923896D01*
X64843475Y-74874124D01*
X64794407Y-74981370D01*
X64754527Y-75061578D01*
X64716182Y-75038688D01*
X64673358Y-74864954D01*
X64666079Y-74816000D01*
X66733667Y-74816000D01*
X66776000Y-74858334D01*
X66818333Y-74816000D01*
X67072333Y-74816000D01*
X67114667Y-74858334D01*
X67157000Y-74816000D01*
X67114667Y-74773667D01*
X67072333Y-74816000D01*
X66818333Y-74816000D01*
X66776000Y-74773667D01*
X66733667Y-74816000D01*
X64666079Y-74816000D01*
X64652240Y-74722925D01*
X64632382Y-74482330D01*
X65971667Y-74482330D01*
X65973868Y-74490780D01*
X66056333Y-74519667D01*
X66079540Y-74516221D01*
X66103699Y-74482330D01*
X66310333Y-74482330D01*
X66326216Y-74500032D01*
X66442330Y-74519667D01*
X66502752Y-74507249D01*
X66521147Y-74433619D01*
X66484010Y-74401540D01*
X66372375Y-74403301D01*
X66351412Y-74430003D01*
X66310333Y-74482330D01*
X66103699Y-74482330D01*
X66141000Y-74430003D01*
X66134352Y-74399380D01*
X66132214Y-74399196D01*
X66751046Y-74399196D01*
X66751211Y-74433619D01*
X66751680Y-74531372D01*
X66788717Y-74595137D01*
X66853644Y-74531030D01*
X66861316Y-74506053D01*
X67082062Y-74506053D01*
X67140067Y-74621267D01*
X67160751Y-74640715D01*
X67224593Y-74654241D01*
X67225770Y-74644965D01*
X68275756Y-74644965D01*
X68285889Y-74745445D01*
X68311355Y-74758690D01*
X68342333Y-74689000D01*
X68336223Y-74644178D01*
X68285889Y-74632556D01*
X68275756Y-74644965D01*
X67225770Y-74644965D01*
X67241667Y-74519667D01*
X67241049Y-74478916D01*
X67235118Y-74454744D01*
X67446488Y-74454744D01*
X67472983Y-74519667D01*
X67488435Y-74557531D01*
X67515410Y-74568846D01*
X67618198Y-74526898D01*
X67629513Y-74499923D01*
X67614878Y-74464062D01*
X67785471Y-74464062D01*
X67799707Y-74499923D01*
X67821106Y-74553825D01*
X67858298Y-74567175D01*
X67963961Y-74515415D01*
X67976047Y-74478621D01*
X68122702Y-74478621D01*
X68210337Y-74519667D01*
X68273418Y-74509305D01*
X68331239Y-74446962D01*
X68568014Y-74446962D01*
X68571823Y-74604418D01*
X68571909Y-74604744D01*
X68603281Y-74689000D01*
X68627250Y-74753375D01*
X68666246Y-74736319D01*
X68681000Y-74557003D01*
X68660482Y-74422583D01*
X68604282Y-74387754D01*
X68575341Y-74435000D01*
X68568014Y-74446962D01*
X68331239Y-74446962D01*
X68342333Y-74435000D01*
X68340053Y-74414912D01*
X68262664Y-74350334D01*
X68238910Y-74353563D01*
X68135614Y-74431278D01*
X68130667Y-74435000D01*
X68122702Y-74478621D01*
X67976047Y-74478621D01*
X67991598Y-74431278D01*
X67939373Y-74361427D01*
X67825545Y-74409922D01*
X67785471Y-74464062D01*
X67614878Y-74464062D01*
X67587565Y-74397136D01*
X67560590Y-74385821D01*
X67457803Y-74427769D01*
X67446488Y-74454744D01*
X67235118Y-74454744D01*
X67215891Y-74376391D01*
X67140067Y-74418067D01*
X67127349Y-74437359D01*
X67082062Y-74506053D01*
X66861316Y-74506053D01*
X66882416Y-74437359D01*
X66848607Y-74353536D01*
X66767181Y-74373264D01*
X66751046Y-74399196D01*
X66132214Y-74399196D01*
X66056333Y-74392667D01*
X66030996Y-74410044D01*
X65971667Y-74482330D01*
X64632382Y-74482330D01*
X64626890Y-74415797D01*
X64617000Y-74085750D01*
X64621495Y-73814230D01*
X64637626Y-73715334D01*
X64786333Y-73715334D01*
X64828667Y-73757667D01*
X64871000Y-73715334D01*
X65802333Y-73715334D01*
X65844667Y-73757667D01*
X65887000Y-73715334D01*
X69104333Y-73715334D01*
X69146667Y-73757667D01*
X69189000Y-73715334D01*
X69527667Y-73715334D01*
X69570000Y-73757667D01*
X69612333Y-73715334D01*
X69951000Y-73715334D01*
X69993333Y-73757667D01*
X70035667Y-73715334D01*
X69993333Y-73673000D01*
X69951000Y-73715334D01*
X69612333Y-73715334D01*
X69570000Y-73673000D01*
X69527667Y-73715334D01*
X69189000Y-73715334D01*
X69146667Y-73673000D01*
X69104333Y-73715334D01*
X65887000Y-73715334D01*
X65844667Y-73673000D01*
X65802333Y-73715334D01*
X64871000Y-73715334D01*
X64828667Y-73673000D01*
X64786333Y-73715334D01*
X64637626Y-73715334D01*
X64646327Y-73661992D01*
X64708164Y-73600063D01*
X64823670Y-73588334D01*
X64964306Y-73573096D01*
X65071480Y-73521767D01*
X65121211Y-73489675D01*
X65285814Y-73466320D01*
X65475938Y-73480708D01*
X65604166Y-73531277D01*
X65604218Y-73531328D01*
X65701314Y-73546439D01*
X65945051Y-73560044D01*
X66312814Y-73571590D01*
X66781989Y-73580523D01*
X67329959Y-73586289D01*
X67934110Y-73588334D01*
X70206998Y-73588334D01*
X70199962Y-73715334D01*
X70175337Y-74159834D01*
G37*
%LPC*%
D12*
X36500000Y-69615000D03*
X42280000Y-69615000D03*
D13*
X35070000Y-69085000D03*
D14*
X35070000Y-73265000D03*
D13*
X43710000Y-69085000D03*
D14*
X43710000Y-73265000D03*
D15*
X105020000Y-73660000D03*
X30240000Y-73660000D03*
X105020000Y-33950000D03*
X30240000Y-33950000D03*
D16*
X30150000Y-41840000D03*
D17*
X30150000Y-44380000D03*
X30150000Y-46920000D03*
X30150000Y-49460000D03*
X30150000Y-52000000D03*
X30150000Y-54540000D03*
D16*
X37400000Y-34130000D03*
D17*
X39940000Y-34130000D03*
X42480000Y-34130000D03*
X45020000Y-34130000D03*
X47560000Y-34130000D03*
X50100000Y-34130000D03*
X52640000Y-34130000D03*
X55180000Y-34130000D03*
X57720000Y-34130000D03*
X60260000Y-34130000D03*
X62800000Y-34130000D03*
%LPD*%
M02*
