G04 #@! TF.GenerationSoftware,KiCad,Pcbnew,7.0.11-7.0.11~ubuntu22.04.1*
G04 #@! TF.CreationDate,2024-06-26T13:47:26+02:00*
G04 #@! TF.ProjectId,S3-silicon-Sharp-Touch,53332d73-696c-4696-936f-6e2d53686172,rev?*
G04 #@! TF.SameCoordinates,Original*
G04 #@! TF.FileFunction,Copper,L1,Top*
G04 #@! TF.FilePolarity,Positive*
%FSLAX46Y46*%
G04 Gerber Fmt 4.6, Leading zero omitted, Abs format (unit mm)*
G04 Created by KiCad (PCBNEW 7.0.11-7.0.11~ubuntu22.04.1) date 2024-06-26 13:47:26*
%MOMM*%
%LPD*%
G01*
G04 APERTURE LIST*
G04 Aperture macros list*
%AMRoundRect*
0 Rectangle with rounded corners*
0 $1 Rounding radius*
0 $2 $3 $4 $5 $6 $7 $8 $9 X,Y pos of 4 corners*
0 Add a 4 corners polygon primitive as box body*
4,1,4,$2,$3,$4,$5,$6,$7,$8,$9,$2,$3,0*
0 Add four circle primitives for the rounded corners*
1,1,$1+$1,$2,$3*
1,1,$1+$1,$4,$5*
1,1,$1+$1,$6,$7*
1,1,$1+$1,$8,$9*
0 Add four rect primitives between the rounded corners*
20,1,$1+$1,$2,$3,$4,$5,0*
20,1,$1+$1,$4,$5,$6,$7,0*
20,1,$1+$1,$6,$7,$8,$9,0*
20,1,$1+$1,$8,$9,$2,$3,0*%
G04 Aperture macros list end*
G04 #@! TA.AperFunction,SMDPad,CuDef*
%ADD10R,2.514600X0.609600*%
G04 #@! TD*
G04 #@! TA.AperFunction,SMDPad,CuDef*
%ADD11R,2.616200X0.609600*%
G04 #@! TD*
G04 #@! TA.AperFunction,SMDPad,CuDef*
%ADD12R,0.600000X1.450000*%
G04 #@! TD*
G04 #@! TA.AperFunction,SMDPad,CuDef*
%ADD13R,0.300000X1.450000*%
G04 #@! TD*
G04 #@! TA.AperFunction,ComponentPad*
%ADD14O,1.000000X2.100000*%
G04 #@! TD*
G04 #@! TA.AperFunction,ComponentPad*
%ADD15O,1.000000X1.600000*%
G04 #@! TD*
G04 #@! TA.AperFunction,SMDPad,CuDef*
%ADD16RoundRect,0.200000X-0.275000X0.200000X-0.275000X-0.200000X0.275000X-0.200000X0.275000X0.200000X0*%
G04 #@! TD*
G04 #@! TA.AperFunction,SMDPad,CuDef*
%ADD17R,1.193800X0.990600*%
G04 #@! TD*
G04 #@! TA.AperFunction,SMDPad,CuDef*
%ADD18RoundRect,0.250000X-0.475000X0.250000X-0.475000X-0.250000X0.475000X-0.250000X0.475000X0.250000X0*%
G04 #@! TD*
G04 #@! TA.AperFunction,SMDPad,CuDef*
%ADD19RoundRect,0.200000X-0.200000X-0.275000X0.200000X-0.275000X0.200000X0.275000X-0.200000X0.275000X0*%
G04 #@! TD*
G04 #@! TA.AperFunction,SMDPad,CuDef*
%ADD20R,0.500000X0.320000*%
G04 #@! TD*
G04 #@! TA.AperFunction,SMDPad,CuDef*
%ADD21RoundRect,0.225000X-0.250000X0.225000X-0.250000X-0.225000X0.250000X-0.225000X0.250000X0.225000X0*%
G04 #@! TD*
G04 #@! TA.AperFunction,SMDPad,CuDef*
%ADD22RoundRect,0.218750X-0.256250X0.218750X-0.256250X-0.218750X0.256250X-0.218750X0.256250X0.218750X0*%
G04 #@! TD*
G04 #@! TA.AperFunction,SMDPad,CuDef*
%ADD23RoundRect,0.200000X0.200000X0.275000X-0.200000X0.275000X-0.200000X-0.275000X0.200000X-0.275000X0*%
G04 #@! TD*
G04 #@! TA.AperFunction,SMDPad,CuDef*
%ADD24RoundRect,0.243750X-0.243750X-0.456250X0.243750X-0.456250X0.243750X0.456250X-0.243750X0.456250X0*%
G04 #@! TD*
G04 #@! TA.AperFunction,SMDPad,CuDef*
%ADD25RoundRect,0.135000X-0.185000X0.135000X-0.185000X-0.135000X0.185000X-0.135000X0.185000X0.135000X0*%
G04 #@! TD*
G04 #@! TA.AperFunction,SMDPad,CuDef*
%ADD26RoundRect,0.150000X-0.587500X-0.150000X0.587500X-0.150000X0.587500X0.150000X-0.587500X0.150000X0*%
G04 #@! TD*
G04 #@! TA.AperFunction,SMDPad,CuDef*
%ADD27R,0.220000X0.475000*%
G04 #@! TD*
G04 #@! TA.AperFunction,SMDPad,CuDef*
%ADD28R,0.320000X0.650000*%
G04 #@! TD*
G04 #@! TA.AperFunction,SMDPad,CuDef*
%ADD29RoundRect,0.225000X0.250000X-0.225000X0.250000X0.225000X-0.250000X0.225000X-0.250000X-0.225000X0*%
G04 #@! TD*
G04 #@! TA.AperFunction,SMDPad,CuDef*
%ADD30RoundRect,0.150000X-0.150000X0.587500X-0.150000X-0.587500X0.150000X-0.587500X0.150000X0.587500X0*%
G04 #@! TD*
G04 #@! TA.AperFunction,SMDPad,CuDef*
%ADD31RoundRect,0.250000X-0.262500X-0.450000X0.262500X-0.450000X0.262500X0.450000X-0.262500X0.450000X0*%
G04 #@! TD*
G04 #@! TA.AperFunction,SMDPad,CuDef*
%ADD32R,1.500000X1.500000*%
G04 #@! TD*
G04 #@! TA.AperFunction,SMDPad,CuDef*
%ADD33R,1.000000X3.500000*%
G04 #@! TD*
G04 #@! TA.AperFunction,SMDPad,CuDef*
%ADD34R,1.500000X3.400000*%
G04 #@! TD*
G04 #@! TA.AperFunction,SMDPad,CuDef*
%ADD35R,1.000000X1.800000*%
G04 #@! TD*
G04 #@! TA.AperFunction,SMDPad,CuDef*
%ADD36RoundRect,0.150000X-0.825000X-0.150000X0.825000X-0.150000X0.825000X0.150000X-0.825000X0.150000X0*%
G04 #@! TD*
G04 #@! TA.AperFunction,SMDPad,CuDef*
%ADD37RoundRect,0.218750X0.218750X0.256250X-0.218750X0.256250X-0.218750X-0.256250X0.218750X-0.256250X0*%
G04 #@! TD*
G04 #@! TA.AperFunction,SMDPad,CuDef*
%ADD38R,0.850000X0.200000*%
G04 #@! TD*
G04 #@! TA.AperFunction,SMDPad,CuDef*
%ADD39R,0.200000X0.850000*%
G04 #@! TD*
G04 #@! TA.AperFunction,SMDPad,CuDef*
%ADD40R,4.050000X4.050000*%
G04 #@! TD*
G04 #@! TA.AperFunction,SMDPad,CuDef*
%ADD41RoundRect,0.243750X0.150260X-0.494975X0.494975X-0.150260X-0.150260X0.494975X-0.494975X0.150260X0*%
G04 #@! TD*
G04 #@! TA.AperFunction,SMDPad,CuDef*
%ADD42RoundRect,0.225000X-0.225000X-0.375000X0.225000X-0.375000X0.225000X0.375000X-0.225000X0.375000X0*%
G04 #@! TD*
G04 #@! TA.AperFunction,SMDPad,CuDef*
%ADD43RoundRect,0.150000X0.150000X-0.512500X0.150000X0.512500X-0.150000X0.512500X-0.150000X-0.512500X0*%
G04 #@! TD*
G04 #@! TA.AperFunction,SMDPad,CuDef*
%ADD44RoundRect,0.250000X-0.250000X-0.475000X0.250000X-0.475000X0.250000X0.475000X-0.250000X0.475000X0*%
G04 #@! TD*
G04 #@! TA.AperFunction,SMDPad,CuDef*
%ADD45RoundRect,0.200000X0.275000X-0.200000X0.275000X0.200000X-0.275000X0.200000X-0.275000X-0.200000X0*%
G04 #@! TD*
G04 #@! TA.AperFunction,SMDPad,CuDef*
%ADD46R,0.558800X0.990600*%
G04 #@! TD*
G04 #@! TA.AperFunction,ComponentPad*
%ADD47R,1.700000X1.700000*%
G04 #@! TD*
G04 #@! TA.AperFunction,ComponentPad*
%ADD48O,1.700000X1.700000*%
G04 #@! TD*
G04 #@! TA.AperFunction,SMDPad,CuDef*
%ADD49R,1.500000X0.600000*%
G04 #@! TD*
G04 #@! TA.AperFunction,SMDPad,CuDef*
%ADD50RoundRect,0.150000X0.587500X0.150000X-0.587500X0.150000X-0.587500X-0.150000X0.587500X-0.150000X0*%
G04 #@! TD*
G04 #@! TA.AperFunction,SMDPad,CuDef*
%ADD51R,0.300000X0.850000*%
G04 #@! TD*
G04 #@! TA.AperFunction,SMDPad,CuDef*
%ADD52R,0.800000X2.000000*%
G04 #@! TD*
G04 #@! TA.AperFunction,SMDPad,CuDef*
%ADD53R,0.375000X0.500000*%
G04 #@! TD*
G04 #@! TA.AperFunction,SMDPad,CuDef*
%ADD54R,0.300000X0.650000*%
G04 #@! TD*
G04 #@! TA.AperFunction,ViaPad*
%ADD55C,0.600000*%
G04 #@! TD*
G04 #@! TA.AperFunction,ViaPad*
%ADD56C,0.400000*%
G04 #@! TD*
G04 #@! TA.AperFunction,ViaPad*
%ADD57C,0.800000*%
G04 #@! TD*
G04 #@! TA.AperFunction,Conductor*
%ADD58C,0.400000*%
G04 #@! TD*
G04 #@! TA.AperFunction,Conductor*
%ADD59C,0.250000*%
G04 #@! TD*
G04 #@! TA.AperFunction,Conductor*
%ADD60C,0.300000*%
G04 #@! TD*
G04 #@! TA.AperFunction,Conductor*
%ADD61C,0.200000*%
G04 #@! TD*
G04 APERTURE END LIST*
D10*
X92854300Y-71100001D03*
D11*
X92905100Y-69599999D03*
D12*
X36140000Y-68170000D03*
X36940000Y-68170000D03*
D13*
X38140000Y-68170000D03*
X39140000Y-68170000D03*
X39640000Y-68170000D03*
X40640000Y-68170000D03*
D12*
X41840000Y-68170000D03*
X42640000Y-68170000D03*
X42640000Y-68170000D03*
X41840000Y-68170000D03*
D13*
X41140000Y-68170000D03*
X40140000Y-68170000D03*
X38640000Y-68170000D03*
X37640000Y-68170000D03*
D12*
X36940000Y-68170000D03*
X36140000Y-68170000D03*
D14*
X35070000Y-69085000D03*
D15*
X35070000Y-73265000D03*
D14*
X43710000Y-69085000D03*
D15*
X43710000Y-73265000D03*
D16*
X76020000Y-44565000D03*
X76020000Y-46215000D03*
D17*
X68159999Y-56339999D03*
X69860001Y-56339999D03*
X69860001Y-55040001D03*
X68159999Y-55040001D03*
D18*
X78800000Y-38000000D03*
X78800000Y-39900000D03*
D19*
X41335000Y-44280000D03*
X42985000Y-44280000D03*
D20*
X63180000Y-49020000D03*
X63180000Y-49520000D03*
X63180000Y-50020000D03*
X63180000Y-50520000D03*
X64180000Y-50520000D03*
X64180000Y-50020000D03*
X64180000Y-49520000D03*
X64180000Y-49020000D03*
D21*
X64270000Y-51810000D03*
X64270000Y-53360000D03*
D22*
X78940000Y-41492500D03*
X78940000Y-43067500D03*
D23*
X38125000Y-64860000D03*
X36475000Y-64860000D03*
D24*
X29575000Y-60100000D03*
X31450000Y-60100000D03*
D25*
X84530000Y-37420000D03*
X84530000Y-38440000D03*
D26*
X44982500Y-42370000D03*
X44982500Y-44270000D03*
X46857500Y-43320000D03*
D24*
X58902500Y-48433332D03*
X60777500Y-48433332D03*
D27*
X88700004Y-40207499D03*
X89100003Y-40207499D03*
X89500003Y-40207499D03*
X89900002Y-40207499D03*
X88700004Y-37782501D03*
X89100003Y-37782501D03*
X89500003Y-37782501D03*
X89900002Y-37782501D03*
D28*
X87750006Y-37910000D03*
X90850000Y-37910000D03*
X87750006Y-40080000D03*
X90850000Y-40080000D03*
D21*
X80670000Y-38185000D03*
X80670000Y-39735000D03*
D18*
X55255000Y-47775000D03*
X55255000Y-49675000D03*
D29*
X80590000Y-43055000D03*
X80590000Y-41505000D03*
D30*
X46310000Y-59415000D03*
X44410000Y-59415000D03*
X45360000Y-61290000D03*
D18*
X70100000Y-37550000D03*
X70100000Y-39450000D03*
D21*
X66085000Y-54915000D03*
X66085000Y-56465000D03*
D16*
X73600000Y-54865000D03*
X73600000Y-56515000D03*
D25*
X83260000Y-38580000D03*
X83260000Y-39600000D03*
D21*
X75220000Y-50800000D03*
X75220000Y-52350000D03*
D31*
X47780000Y-52420000D03*
X49605000Y-52420000D03*
D32*
X103500000Y-69870000D03*
D33*
X54660000Y-73530000D03*
X52660000Y-73530000D03*
D34*
X57010000Y-67780000D03*
X50310000Y-67780000D03*
D23*
X68955000Y-58510000D03*
X67305000Y-58510000D03*
D18*
X76650000Y-37550000D03*
X76650000Y-39450000D03*
D35*
X74625000Y-40400000D03*
X72125000Y-40400000D03*
D36*
X81780000Y-68570000D03*
X81780000Y-69840000D03*
X81780000Y-71110000D03*
X81780000Y-72380000D03*
X86730000Y-72380000D03*
X86730000Y-71110000D03*
X86730000Y-69840000D03*
X86730000Y-68570000D03*
D37*
X78437500Y-50910000D03*
X76862500Y-50910000D03*
D38*
X72800000Y-50525000D03*
X72800000Y-50125000D03*
X72800000Y-49725000D03*
X72800000Y-49325000D03*
X72800000Y-48925000D03*
X72800000Y-48525000D03*
X72800000Y-48125000D03*
X72800000Y-47725000D03*
X72800000Y-47325000D03*
X72800000Y-46925000D03*
X72800000Y-46525000D03*
X72800000Y-46125000D03*
X72800000Y-45725000D03*
X72800000Y-45325000D03*
D39*
X71950000Y-44475000D03*
X71550000Y-44475000D03*
X71150000Y-44475000D03*
X70750000Y-44475000D03*
X70350000Y-44475000D03*
X69950000Y-44475000D03*
X69550000Y-44475000D03*
X69150000Y-44475000D03*
X68750000Y-44475000D03*
X68350000Y-44475000D03*
X67950000Y-44475000D03*
X67550000Y-44475000D03*
X67150000Y-44475000D03*
X66750000Y-44475000D03*
D38*
X65900000Y-45325000D03*
X65900000Y-45725000D03*
X65900000Y-46125000D03*
X65900000Y-46525000D03*
X65900000Y-46925000D03*
X65900000Y-47325000D03*
X65900000Y-47725000D03*
X65900000Y-48125000D03*
X65900000Y-48525000D03*
X65900000Y-48925000D03*
X65900000Y-49325000D03*
X65900000Y-49725000D03*
X65900000Y-50125000D03*
X65900000Y-50525000D03*
D39*
X66750000Y-51375000D03*
X67150000Y-51375000D03*
X67550000Y-51375000D03*
X67950000Y-51375000D03*
X68350000Y-51375000D03*
X68750000Y-51375000D03*
X69150000Y-51375000D03*
X69550000Y-51375000D03*
X69950000Y-51375000D03*
X70350000Y-51375000D03*
X70750000Y-51375000D03*
X71150000Y-51375000D03*
X71550000Y-51375000D03*
X71950000Y-51375000D03*
D40*
X69350000Y-47925000D03*
D41*
X59137087Y-52212913D03*
X60462913Y-50887087D03*
D42*
X44052500Y-57062500D03*
X47352500Y-57062500D03*
D23*
X42985000Y-42350000D03*
X41335000Y-42350000D03*
D43*
X51160000Y-43397500D03*
X52110000Y-43397500D03*
X53060000Y-43397500D03*
X53060000Y-41122500D03*
X51160000Y-41122500D03*
D16*
X78125000Y-69825000D03*
X78125000Y-71475000D03*
D21*
X80270000Y-53080000D03*
X80270000Y-54630000D03*
D24*
X58902500Y-44080000D03*
X60777500Y-44080000D03*
D25*
X83230000Y-41280000D03*
X83230000Y-42300000D03*
D24*
X58902500Y-46256666D03*
X60777500Y-46256666D03*
D44*
X47480000Y-40010000D03*
X49380000Y-40010000D03*
D25*
X84580000Y-40680000D03*
X84580000Y-41700000D03*
D45*
X54210000Y-57105000D03*
X54210000Y-55455000D03*
D21*
X77290000Y-41505000D03*
X77290000Y-43055000D03*
D24*
X29575000Y-63500000D03*
X31450000Y-63500000D03*
D46*
X49599998Y-57610000D03*
X50549999Y-57610000D03*
X51500000Y-57610000D03*
X51500000Y-54892200D03*
X50549999Y-54892200D03*
X49599998Y-54892200D03*
D47*
X30150000Y-41840000D03*
D48*
X30150000Y-44380000D03*
X30150000Y-46920000D03*
X30150000Y-49460000D03*
X30150000Y-52000000D03*
X30150000Y-54540000D03*
D49*
X81280000Y-50880000D03*
X84780000Y-50880000D03*
X84780000Y-49280000D03*
X81280000Y-49280000D03*
D45*
X56310000Y-57105000D03*
X56310000Y-55455000D03*
D50*
X39340000Y-44270000D03*
X39340000Y-42370000D03*
X37465000Y-43320000D03*
D21*
X76020000Y-47755000D03*
X76020000Y-49305000D03*
D29*
X71960000Y-56465000D03*
X71960000Y-54915000D03*
D23*
X46225000Y-64360000D03*
X44575000Y-64360000D03*
D47*
X37400000Y-34130000D03*
D48*
X39940000Y-34130000D03*
X42480000Y-34130000D03*
X45020000Y-34130000D03*
X47560000Y-34130000D03*
X50100000Y-34130000D03*
X52640000Y-34130000D03*
X55180000Y-34130000D03*
X57720000Y-34130000D03*
X60260000Y-34130000D03*
X62800000Y-34130000D03*
D51*
X65320000Y-63595000D03*
X65820000Y-63595000D03*
X66320000Y-63595000D03*
X66820000Y-63595000D03*
X67320000Y-63595000D03*
X67820000Y-63595000D03*
X68320000Y-63595000D03*
X68820000Y-63595000D03*
X69320000Y-63595000D03*
X69820000Y-63595000D03*
D52*
X63620000Y-66770000D03*
X71520000Y-66770000D03*
D32*
X78030000Y-74340000D03*
D29*
X64260000Y-56465000D03*
X64260000Y-54915000D03*
D53*
X48462500Y-46760000D03*
D54*
X49000000Y-46835000D03*
D53*
X49537500Y-46760000D03*
X49537500Y-45060000D03*
D54*
X49000000Y-44985000D03*
D53*
X48462500Y-45060000D03*
D55*
X51490000Y-53520000D03*
X49000000Y-44190000D03*
X92172000Y-47320000D03*
X81610000Y-41950000D03*
X69540000Y-61900000D03*
X83094666Y-46200000D03*
X47110000Y-64350000D03*
X81560000Y-55913630D03*
X101268000Y-47320000D03*
X81520000Y-42973750D03*
X102785324Y-46200000D03*
D56*
X76400000Y-41670000D03*
D55*
X87624000Y-47320000D03*
X98241326Y-46200000D03*
X80080000Y-48490000D03*
X77246666Y-52530000D03*
D57*
X43250000Y-67015000D03*
D55*
X101270658Y-46200000D03*
X99755992Y-46200000D03*
D57*
X54900000Y-46470000D03*
D55*
X81560000Y-47320000D03*
X88360000Y-72390000D03*
X80822867Y-44235049D03*
X63525331Y-51554669D03*
X93697328Y-46200000D03*
D56*
X89110000Y-38670000D03*
D55*
X96720000Y-47320000D03*
X80930000Y-48470000D03*
X102784000Y-47320000D03*
D57*
X35600000Y-67195000D03*
D55*
X71400000Y-37570000D03*
X86108000Y-47320000D03*
X90667996Y-46200000D03*
X93688000Y-47320000D03*
X98236000Y-47320000D03*
D56*
X75912275Y-47133376D03*
D55*
X81560000Y-53540904D03*
X99752000Y-47320000D03*
X50550000Y-58600000D03*
X46120000Y-45790000D03*
X81526462Y-43672876D03*
X81560000Y-54727267D03*
X78495000Y-49750000D03*
X52240000Y-45260000D03*
X84609332Y-46200000D03*
X80080000Y-49480000D03*
X81580000Y-46200000D03*
X55590000Y-73540000D03*
X104300000Y-46200000D03*
X86123998Y-46200000D03*
X63190000Y-56700000D03*
X79300000Y-49740000D03*
D56*
X75540000Y-38400000D03*
D55*
X89153330Y-46200000D03*
X78940000Y-52530000D03*
X89140000Y-47320000D03*
X82750000Y-37650000D03*
X47810000Y-53500000D03*
X46500000Y-40010000D03*
X92182662Y-46200000D03*
X81830000Y-40560000D03*
X83076000Y-47320000D03*
X104300000Y-47320000D03*
X96726660Y-46200000D03*
X82220000Y-39890000D03*
X77590000Y-49750000D03*
X84592000Y-47320000D03*
X55550000Y-74740000D03*
X76400000Y-52530000D03*
X55270000Y-50610000D03*
X89110000Y-35640000D03*
D57*
X92450000Y-66350000D03*
D55*
X69124402Y-48790000D03*
D56*
X79860000Y-38180000D03*
D55*
X90656000Y-47320000D03*
X87638664Y-46200000D03*
X95204000Y-47320000D03*
X81560000Y-57100000D03*
X70980000Y-56460000D03*
D57*
X58900000Y-50450000D03*
D55*
X95211994Y-46200000D03*
D57*
X72870000Y-57950000D03*
D55*
X66625000Y-54065000D03*
X52320000Y-39800000D03*
X72920000Y-53345000D03*
X56607281Y-47672719D03*
D56*
X70408248Y-41971752D03*
D55*
X60391865Y-41742806D03*
X75680000Y-40990000D03*
X77360000Y-44300000D03*
X74000000Y-49925000D03*
X37940000Y-45040000D03*
D56*
X74540000Y-49310000D03*
D55*
X62800000Y-41660000D03*
D56*
X71990000Y-48930000D03*
D55*
X48609241Y-42770809D03*
X58530000Y-38940000D03*
D56*
X72060000Y-43310000D03*
X71406091Y-42903909D03*
D55*
X58360000Y-39770000D03*
D56*
X70939092Y-43413909D03*
D55*
X58980000Y-40330000D03*
D56*
X70536664Y-45289989D03*
D55*
X53070000Y-44500000D03*
X67810000Y-59460000D03*
X44400000Y-60850000D03*
X44860000Y-57090000D03*
X51154065Y-44875500D03*
X52030000Y-47760000D03*
D57*
X52250000Y-60100000D03*
X30450000Y-59000000D03*
X48200000Y-63500000D03*
X30300000Y-64500000D03*
D55*
X90170000Y-39570000D03*
X84050000Y-39600000D03*
D56*
X73800000Y-46600000D03*
X72416989Y-42799121D03*
X71917956Y-46501608D03*
D55*
X84420000Y-38910000D03*
X66960000Y-57570000D03*
X75166909Y-47216646D03*
X65810000Y-57830000D03*
X74535060Y-47924939D03*
D56*
X67010000Y-43130000D03*
D55*
X59623199Y-41379959D03*
D56*
X66730000Y-52910000D03*
X68020000Y-50410000D03*
X36900000Y-46920000D03*
X35821091Y-53321091D03*
X35940000Y-42610000D03*
D55*
X65104928Y-57355259D03*
X74731789Y-48673211D03*
X68020000Y-57360000D03*
D56*
X74740000Y-46600000D03*
D55*
X68830000Y-59600000D03*
X73330000Y-42560000D03*
D58*
X39200000Y-70965000D02*
X34715000Y-70965000D01*
X32950000Y-61600000D02*
X31450000Y-60100000D01*
D59*
X49000000Y-44985000D02*
X49000000Y-44190000D01*
D58*
X41840000Y-68170000D02*
X41840000Y-67140000D01*
X39200000Y-70965000D02*
X39833984Y-70965000D01*
X41840000Y-67140000D02*
X44620000Y-64360000D01*
X46310000Y-59415000D02*
X46310000Y-58105000D01*
X43660000Y-58730378D02*
X43660000Y-63400000D01*
X48180300Y-56234700D02*
X51052800Y-56234700D01*
X38946016Y-70965000D02*
X39200000Y-70965000D01*
X41840000Y-68958984D02*
X41840000Y-68170000D01*
X51500000Y-55787500D02*
X51500000Y-54892200D01*
X32950000Y-62000000D02*
X32950000Y-61600000D01*
X44120378Y-58270000D02*
X43660000Y-58730378D01*
X46310000Y-58105000D02*
X47352500Y-57062500D01*
X39833984Y-70965000D02*
X41840000Y-68958984D01*
X31450000Y-67700000D02*
X31450000Y-63500000D01*
X36940000Y-68958984D02*
X38946016Y-70965000D01*
X46310000Y-59415000D02*
X45165000Y-58270000D01*
X47352500Y-57062500D02*
X48180300Y-56234700D01*
X31450000Y-63500000D02*
X32950000Y-62000000D01*
X34715000Y-70965000D02*
X31450000Y-67700000D01*
X51500000Y-54892200D02*
X51500000Y-53530000D01*
X43660000Y-63400000D02*
X44620000Y-64360000D01*
X51052800Y-56234700D02*
X51500000Y-55787500D01*
X51500000Y-53530000D02*
X51490000Y-53520000D01*
X36940000Y-68170000D02*
X36940000Y-68958984D01*
X45165000Y-58270000D02*
X44120378Y-58270000D01*
X78350000Y-37550000D02*
X78800000Y-38000000D01*
X80670000Y-38185000D02*
X79865000Y-38185000D01*
D60*
X36140000Y-68170000D02*
X36140000Y-67735000D01*
X58900000Y-51975826D02*
X59137087Y-52212913D01*
D59*
X76220000Y-52350000D02*
X76400000Y-52530000D01*
D58*
X86730000Y-72380000D02*
X88350000Y-72380000D01*
X78985000Y-38185000D02*
X78800000Y-38000000D01*
X55255000Y-49675000D02*
X55255000Y-50595000D01*
D60*
X58900000Y-50450000D02*
X58900000Y-51975826D01*
D58*
X88350000Y-72380000D02*
X88360000Y-72390000D01*
X63425000Y-56465000D02*
X63190000Y-56700000D01*
X64260000Y-56465000D02*
X64535000Y-56465000D01*
X79855000Y-38185000D02*
X78985000Y-38185000D01*
D61*
X89100003Y-38660003D02*
X89110000Y-38670000D01*
D58*
X68034998Y-54915000D02*
X68159999Y-55040001D01*
D60*
X58902500Y-46256666D02*
X55113334Y-46256666D01*
D59*
X75220000Y-52350000D02*
X76220000Y-52350000D01*
D58*
X36475000Y-64860000D02*
X36475000Y-66320000D01*
D61*
X89100003Y-35649997D02*
X89110000Y-35640000D01*
D58*
X76650000Y-37550000D02*
X76390000Y-37550000D01*
X70985000Y-56465000D02*
X70980000Y-56460000D01*
X64535000Y-56465000D02*
X66085000Y-54915000D01*
X81411250Y-42865000D02*
X81520000Y-42973750D01*
D60*
X58902500Y-48433332D02*
X58902500Y-50447500D01*
D58*
X50549999Y-57610000D02*
X50550000Y-58600000D01*
X55580000Y-73530000D02*
X55590000Y-73540000D01*
D61*
X76020000Y-47241101D02*
X75912275Y-47133376D01*
D58*
X79860000Y-38180000D02*
X79855000Y-38185000D01*
X36475000Y-66320000D02*
X35600000Y-67195000D01*
X92905100Y-69599999D02*
X92905100Y-66805100D01*
X71380000Y-37550000D02*
X71400000Y-37570000D01*
X52110000Y-45130000D02*
X52240000Y-45260000D01*
X70859999Y-56339999D02*
X70980000Y-56460000D01*
X47480000Y-40010000D02*
X46500000Y-40010000D01*
D59*
X76565000Y-41505000D02*
X76400000Y-41670000D01*
D60*
X42640000Y-68170000D02*
X42640000Y-67625000D01*
D58*
X69860001Y-56339999D02*
X70859999Y-56339999D01*
X76650000Y-37550000D02*
X78350000Y-37550000D01*
X47100000Y-64360000D02*
X47110000Y-64350000D01*
X54660000Y-73530000D02*
X55580000Y-73530000D01*
D60*
X58902500Y-50447500D02*
X58900000Y-50450000D01*
D59*
X49000000Y-46210000D02*
X48565000Y-45775000D01*
D60*
X69320000Y-63595000D02*
X69320000Y-62120000D01*
D58*
X46225000Y-64360000D02*
X47100000Y-64360000D01*
X46135000Y-45775000D02*
X46120000Y-45790000D01*
X54660000Y-73850000D02*
X55550000Y-74740000D01*
X64260000Y-56465000D02*
X63425000Y-56465000D01*
X54660000Y-73530000D02*
X54660000Y-73850000D01*
X47780000Y-53470000D02*
X47810000Y-53500000D01*
X52110000Y-43397500D02*
X52110000Y-45130000D01*
D61*
X76020000Y-47755000D02*
X76020000Y-47241101D01*
D58*
X71960000Y-56465000D02*
X70985000Y-56465000D01*
X92905100Y-66805100D02*
X92450000Y-66350000D01*
X66085000Y-54915000D02*
X68034998Y-54915000D01*
D59*
X77290000Y-41505000D02*
X76565000Y-41505000D01*
D61*
X89100003Y-37782501D02*
X89100003Y-38660003D01*
D58*
X63780662Y-51810000D02*
X63525331Y-51554669D01*
X55255000Y-50595000D02*
X55270000Y-50610000D01*
X79865000Y-38185000D02*
X79860000Y-38180000D01*
D61*
X89100003Y-37782501D02*
X89100003Y-35649997D01*
D60*
X36140000Y-67735000D02*
X35600000Y-67195000D01*
D58*
X76390000Y-37550000D02*
X75540000Y-38400000D01*
D60*
X58902500Y-46256666D02*
X58902500Y-48433332D01*
X69820000Y-62180000D02*
X69540000Y-61900000D01*
X42640000Y-67625000D02*
X43250000Y-67015000D01*
D58*
X80625000Y-42865000D02*
X81411250Y-42865000D01*
X64270000Y-51810000D02*
X63780662Y-51810000D01*
X70100000Y-37550000D02*
X71380000Y-37550000D01*
D60*
X55113334Y-46256666D02*
X54900000Y-46470000D01*
D61*
X76020000Y-47755000D02*
X76008978Y-47755000D01*
D59*
X48565000Y-45775000D02*
X47080000Y-45775000D01*
D60*
X58902500Y-44080000D02*
X58902500Y-46256666D01*
X69320000Y-62120000D02*
X69540000Y-61900000D01*
X69820000Y-63595000D02*
X69820000Y-62180000D01*
D58*
X47780000Y-52420000D02*
X47780000Y-53470000D01*
X47080000Y-45775000D02*
X46135000Y-45775000D01*
D59*
X49000000Y-46835000D02*
X49000000Y-46210000D01*
D58*
X52110000Y-45100000D02*
X52240000Y-45230000D01*
X52240000Y-45230000D02*
X52240000Y-45260000D01*
X50900000Y-41472500D02*
X47840000Y-41472500D01*
X64680000Y-53390000D02*
X64770000Y-53390000D01*
D61*
X70039999Y-42577459D02*
X70039999Y-42340001D01*
X70039999Y-42340001D02*
X70408248Y-41971752D01*
D58*
X65130000Y-53530000D02*
X66520000Y-52140000D01*
X76280000Y-40390000D02*
X75680000Y-40990000D01*
X83260000Y-38580000D02*
X83300000Y-38580000D01*
X76020000Y-44565000D02*
X75000000Y-43545000D01*
X64270000Y-53360000D02*
X64680000Y-53360000D01*
X58060000Y-53360000D02*
X56607281Y-51907281D01*
X64770000Y-53390000D02*
X65130000Y-53750000D01*
D61*
X71550000Y-51700000D02*
X72075000Y-52225000D01*
D58*
X72920000Y-53070000D02*
X72920000Y-53345000D01*
D61*
X88227503Y-40680000D02*
X84580000Y-40680000D01*
D58*
X72870000Y-57950000D02*
X78125000Y-63205000D01*
X72310000Y-58510000D02*
X68955000Y-58510000D01*
X47840000Y-41472500D02*
X47837500Y-41475000D01*
X78125000Y-69825000D02*
X81765000Y-69825000D01*
X80670000Y-39735000D02*
X81275000Y-39735000D01*
X67810000Y-52140000D02*
X67850000Y-52100000D01*
X78800000Y-41352500D02*
X78940000Y-41492500D01*
X64260000Y-54915000D02*
X64260000Y-53370000D01*
D61*
X71950000Y-52100000D02*
X72075000Y-52225000D01*
D58*
X47837500Y-41475000D02*
X35370000Y-41475000D01*
X78310000Y-40390000D02*
X78800000Y-39900000D01*
D61*
X80815000Y-41280000D02*
X80590000Y-41505000D01*
D58*
X65130000Y-53750000D02*
X65130000Y-53530000D01*
X80625000Y-39780000D02*
X80670000Y-39735000D01*
D61*
X67950000Y-51375000D02*
X67950000Y-52000000D01*
D58*
X49380000Y-40010000D02*
X50047500Y-40010000D01*
X76280000Y-40390000D02*
X78310000Y-40390000D01*
X65445000Y-54065000D02*
X66625000Y-54065000D01*
X82430000Y-38580000D02*
X83260000Y-38580000D01*
X80577500Y-41492500D02*
X80590000Y-41505000D01*
D61*
X88700004Y-40207499D02*
X88227503Y-40680000D01*
D58*
X72075000Y-52225000D02*
X72920000Y-53070000D01*
X80625000Y-41315000D02*
X80625000Y-39780000D01*
D61*
X71550000Y-51375000D02*
X71550000Y-51700000D01*
D60*
X83980000Y-41280000D02*
X84580000Y-40680000D01*
X83230000Y-41280000D02*
X80815000Y-41280000D01*
D58*
X81275000Y-39735000D02*
X82430000Y-38580000D01*
X64270000Y-53360000D02*
X58060000Y-53360000D01*
D61*
X69950000Y-43407062D02*
X69980004Y-43377058D01*
D58*
X78125000Y-63205000D02*
X78125000Y-69825000D01*
D61*
X69980004Y-43377058D02*
X69980004Y-42637455D01*
D58*
X75000000Y-42028529D02*
X75680000Y-41348529D01*
X83300000Y-38580000D02*
X84480000Y-37400000D01*
X50047500Y-40010000D02*
X50257500Y-39800000D01*
X50257500Y-39800000D02*
X52320000Y-39800000D01*
X50047500Y-40010000D02*
X51160000Y-41122500D01*
X60391865Y-34261865D02*
X60391865Y-41742806D01*
D61*
X71950000Y-51375000D02*
X71950000Y-52100000D01*
X67950000Y-52000000D02*
X67850000Y-52100000D01*
D58*
X75680000Y-41348529D02*
X75680000Y-40990000D01*
X56607281Y-51907281D02*
X56607281Y-47672719D01*
X35005000Y-41840000D02*
X30150000Y-41840000D01*
X66520000Y-52140000D02*
X67810000Y-52140000D01*
X35370000Y-41475000D02*
X35005000Y-41840000D01*
X81765000Y-69825000D02*
X81780000Y-69840000D01*
X64260000Y-53370000D02*
X64270000Y-53360000D01*
D61*
X69980004Y-42637455D02*
X70039999Y-42577459D01*
D58*
X72870000Y-57950000D02*
X72310000Y-58510000D01*
X65130000Y-53750000D02*
X65445000Y-54065000D01*
X75000000Y-43545000D02*
X75000000Y-42028529D01*
X80612500Y-41302500D02*
X80625000Y-41315000D01*
D60*
X83230000Y-41280000D02*
X83980000Y-41280000D01*
D58*
X78940000Y-41492500D02*
X80577500Y-41492500D01*
X60260000Y-34130000D02*
X60391865Y-34261865D01*
D61*
X69950000Y-44475000D02*
X69950000Y-43407062D01*
D58*
X78800000Y-39900000D02*
X78800000Y-41352500D01*
X64680000Y-53360000D02*
X64680000Y-53390000D01*
D61*
X73400000Y-49725000D02*
X73625000Y-49950000D01*
D58*
X77290000Y-43055000D02*
X78927500Y-43055000D01*
X78927500Y-43055000D02*
X78940000Y-43067500D01*
D61*
X72800000Y-49725000D02*
X73400000Y-49725000D01*
X73450000Y-50125000D02*
X73625000Y-49950000D01*
D58*
X77360000Y-44300000D02*
X77360000Y-43125000D01*
D61*
X72800000Y-50125000D02*
X73450000Y-50125000D01*
D58*
X77185000Y-42850000D02*
X77200000Y-42865000D01*
X73650000Y-49925000D02*
X74000000Y-49925000D01*
X73625000Y-49950000D02*
X73650000Y-49925000D01*
X77360000Y-43125000D02*
X77290000Y-43055000D01*
D60*
X76020000Y-46215000D02*
X76940000Y-47135000D01*
D61*
X72800000Y-49325000D02*
X74525000Y-49325000D01*
X74525000Y-49325000D02*
X74540000Y-49310000D01*
D60*
X76940000Y-47135000D02*
X76940000Y-48385000D01*
X74545000Y-49305000D02*
X74540000Y-49310000D01*
X76940000Y-48385000D02*
X76020000Y-49305000D01*
X37465000Y-44565000D02*
X37940000Y-45040000D01*
X37465000Y-43320000D02*
X37465000Y-44565000D01*
X76020000Y-49305000D02*
X74545000Y-49305000D01*
D61*
X74540000Y-49310000D02*
X74555000Y-49325000D01*
X69035000Y-57215000D02*
X68159999Y-56339999D01*
D58*
X66085000Y-56465000D02*
X68034998Y-56465000D01*
X68034998Y-56465000D02*
X68159999Y-56339999D01*
D61*
X73340000Y-56515000D02*
X72640000Y-57215000D01*
X72640000Y-57215000D02*
X69035000Y-57215000D01*
X71834999Y-55040001D02*
X71960000Y-54915000D01*
D58*
X69860001Y-55040001D02*
X71834999Y-55040001D01*
D61*
X70750000Y-53705000D02*
X71960000Y-54915000D01*
X70750000Y-51375000D02*
X70750000Y-53705000D01*
X75220000Y-50800000D02*
X76752500Y-50800000D01*
D60*
X75330000Y-50910000D02*
X75220000Y-50800000D01*
D61*
X72800000Y-50525000D02*
X74945000Y-50525000D01*
D59*
X78437500Y-50910000D02*
X81250000Y-50910000D01*
X80270000Y-53080000D02*
X80270000Y-52742500D01*
X80270000Y-52742500D02*
X78437500Y-50910000D01*
X81250000Y-50910000D02*
X81280000Y-50880000D01*
D61*
X73405000Y-41620000D02*
X74625000Y-40400000D01*
X69800000Y-41802182D02*
X70321091Y-41281091D01*
X69800000Y-42082066D02*
X69800000Y-41802182D01*
X70760000Y-41281091D02*
X71098909Y-41620000D01*
X75565000Y-39460000D02*
X76650000Y-39460000D01*
X69550000Y-42332066D02*
X69800000Y-42082066D01*
X69550000Y-44475000D02*
X69550000Y-42332066D01*
X70321091Y-41281091D02*
X70760000Y-41281091D01*
X74625000Y-40400000D02*
X75565000Y-39460000D01*
X71098909Y-41620000D02*
X73405000Y-41620000D01*
X69460000Y-41941234D02*
X69460000Y-41619167D01*
X70679167Y-40400000D02*
X72125000Y-40400000D01*
X69150000Y-42251234D02*
X69460000Y-41941234D01*
X71175000Y-39450000D02*
X72125000Y-40400000D01*
X69150000Y-44475000D02*
X69150000Y-42251234D01*
X70100000Y-39450000D02*
X71175000Y-39450000D01*
X69460000Y-41619167D02*
X70679167Y-40400000D01*
X62800000Y-41660000D02*
X62800000Y-34130000D01*
D60*
X48060050Y-43320000D02*
X48609241Y-42770809D01*
X46857500Y-43320000D02*
X48060050Y-43320000D01*
D61*
X72800000Y-48925000D02*
X71995000Y-48925000D01*
X71995000Y-48925000D02*
X71990000Y-48930000D01*
X57770000Y-38180000D02*
X58530000Y-38940000D01*
X71950000Y-43420000D02*
X72060000Y-43310000D01*
X49070000Y-38180000D02*
X57770000Y-38180000D01*
X71950000Y-44475000D02*
X71950000Y-43420000D01*
X45020000Y-34130000D02*
X49070000Y-38180000D01*
X53260000Y-38670000D02*
X47020000Y-38670000D01*
X54360000Y-39770000D02*
X53260000Y-38670000D01*
X47020000Y-38670000D02*
X42480000Y-34130000D01*
X58360000Y-39770000D02*
X54360000Y-39770000D01*
X71550000Y-43047818D02*
X71406091Y-42903909D01*
X71550000Y-44475000D02*
X71550000Y-43047818D01*
X54230000Y-40330000D02*
X52910000Y-39010000D01*
X71150000Y-44475000D02*
X71150000Y-43624817D01*
X52910000Y-39010000D02*
X44820000Y-39010000D01*
X44820000Y-39010000D02*
X39940000Y-34130000D01*
X71150000Y-43624817D02*
X70939092Y-43413909D01*
X58980000Y-40330000D02*
X54230000Y-40330000D01*
X70750000Y-45076653D02*
X70536664Y-45289989D01*
X70750000Y-44475000D02*
X70750000Y-45076653D01*
D60*
X67820000Y-59470000D02*
X67810000Y-59460000D01*
D58*
X44052500Y-57062500D02*
X44052500Y-54593688D01*
X44410000Y-60840000D02*
X44400000Y-60850000D01*
X53070000Y-44500000D02*
X53070000Y-43407500D01*
X44860000Y-57090000D02*
X44080000Y-57090000D01*
X44052500Y-54593688D02*
X50871188Y-47775000D01*
X44080000Y-57090000D02*
X44052500Y-57062500D01*
D60*
X67820000Y-62740000D02*
X67820000Y-59470000D01*
D58*
X50871188Y-47775000D02*
X55255000Y-47775000D01*
X51154065Y-44875500D02*
X51154065Y-43403435D01*
X53070000Y-43407500D02*
X53060000Y-43397500D01*
X44410000Y-59415000D02*
X44410000Y-60840000D01*
D60*
X68320000Y-63240000D02*
X67820000Y-62740000D01*
X67820000Y-63595000D02*
X67820000Y-62740000D01*
X68320000Y-63595000D02*
X68320000Y-63240000D01*
D58*
X51154065Y-43403435D02*
X51160000Y-43397500D01*
X54210000Y-57105000D02*
X54210000Y-58140000D01*
X30450000Y-59225000D02*
X29575000Y-60100000D01*
X54210000Y-58140000D02*
X52250000Y-60100000D01*
X30450000Y-59000000D02*
X30450000Y-59225000D01*
X56310000Y-55455000D02*
X57250000Y-56395000D01*
X30300000Y-64225000D02*
X29575000Y-63500000D01*
X30300000Y-64500000D02*
X30300000Y-64225000D01*
X57250000Y-57409216D02*
X51159216Y-63500000D01*
X51159216Y-63500000D02*
X48200000Y-63500000D01*
X57250000Y-56395000D02*
X57250000Y-57409216D01*
D59*
X89900002Y-40207499D02*
X89900002Y-39839998D01*
D61*
X72800000Y-46925000D02*
X73475000Y-46925000D01*
X73475000Y-46925000D02*
X73800000Y-46600000D01*
D59*
X89900002Y-39839998D02*
X90170000Y-39570000D01*
X83260000Y-39600000D02*
X84050000Y-39600000D01*
D61*
X72800000Y-43182132D02*
X72416989Y-42799121D01*
X72800000Y-45325000D02*
X72800000Y-43182132D01*
X84420000Y-38480000D02*
X84480000Y-38420000D01*
X84420000Y-38910000D02*
X84420000Y-38480000D01*
X87970005Y-38640000D02*
X84700000Y-38640000D01*
X72800000Y-46525000D02*
X71941348Y-46525000D01*
X84700000Y-38640000D02*
X84480000Y-38420000D01*
X88700004Y-37782501D02*
X88700004Y-37910001D01*
X71941348Y-46525000D02*
X71917956Y-46501608D01*
X88700004Y-37910001D02*
X87970005Y-38640000D01*
X84490000Y-41790000D02*
X84580000Y-41700000D01*
D59*
X90020000Y-69840000D02*
X86730000Y-69840000D01*
X89100003Y-40958453D02*
X88358456Y-41700000D01*
D61*
X72800000Y-45725000D02*
X74926372Y-45725000D01*
D59*
X88358456Y-41700000D02*
X84580000Y-41700000D01*
D61*
X81805000Y-45205000D02*
X82230000Y-44780000D01*
X75446372Y-45205000D02*
X81805000Y-45205000D01*
X82230000Y-42445928D02*
X82885928Y-41790000D01*
D59*
X90710000Y-38920000D02*
X91330000Y-39540000D01*
X91330000Y-39540000D02*
X91330000Y-68530000D01*
D61*
X74926372Y-45725000D02*
X75446372Y-45205000D01*
D59*
X89100003Y-40207499D02*
X89100003Y-39599997D01*
X89100003Y-39599997D02*
X89780000Y-38920000D01*
D61*
X82885928Y-41790000D02*
X84490000Y-41790000D01*
D59*
X89780000Y-38920000D02*
X90710000Y-38920000D01*
D61*
X82230000Y-44780000D02*
X82230000Y-42445928D01*
D59*
X91330000Y-68530000D02*
X90020000Y-69840000D01*
X89100003Y-40207499D02*
X89100003Y-40958453D01*
D61*
X83230000Y-44300000D02*
X81955000Y-45575000D01*
X88230000Y-42830000D02*
X87700000Y-42300000D01*
X83230000Y-42300000D02*
X83230000Y-44300000D01*
X86730000Y-68570000D02*
X88230000Y-67070000D01*
X75007204Y-46125000D02*
X72800000Y-46125000D01*
X88230000Y-67070000D02*
X88230000Y-42830000D01*
X81955000Y-45575000D02*
X75557204Y-45575000D01*
D59*
X89500003Y-41109997D02*
X88310000Y-42300000D01*
X88310000Y-42300000D02*
X87700000Y-42300000D01*
X89500003Y-40207499D02*
X89500003Y-41109997D01*
X87700000Y-42300000D02*
X83230000Y-42300000D01*
D61*
X75557204Y-45575000D02*
X75007204Y-46125000D01*
D60*
X66320000Y-58210000D02*
X66960000Y-57570000D01*
D61*
X74420000Y-47130000D02*
X75080263Y-47130000D01*
X72800000Y-47725000D02*
X73825000Y-47725000D01*
D60*
X66320000Y-63595000D02*
X66320000Y-58210000D01*
D61*
X73825000Y-47725000D02*
X74420000Y-47130000D01*
X75080263Y-47130000D02*
X75166909Y-47216646D01*
X72800000Y-48125000D02*
X74334999Y-48125000D01*
D59*
X65810000Y-57830000D02*
X65820000Y-57840000D01*
X65820000Y-57840000D02*
X65820000Y-63595000D01*
D61*
X74334999Y-48125000D02*
X74535060Y-47924939D01*
X68750000Y-35559168D02*
X65410832Y-32220000D01*
X65410832Y-32220000D02*
X54550000Y-32220000D01*
X54550000Y-32220000D02*
X52640000Y-34130000D01*
X68750000Y-44475000D02*
X68750000Y-35559168D01*
X68350000Y-44475000D02*
X68350000Y-35640000D01*
X65320000Y-32610000D02*
X56700000Y-32610000D01*
X68350000Y-35640000D02*
X65320000Y-32610000D01*
X56700000Y-32610000D02*
X55180000Y-34130000D01*
D60*
X64020000Y-42020000D02*
X63660000Y-42380000D01*
X48300000Y-44897500D02*
X48462500Y-45060000D01*
X48300000Y-43900050D02*
X48300000Y-44897500D01*
X48997168Y-43490000D02*
X48710050Y-43490000D01*
X48710050Y-43490000D02*
X48300000Y-43900050D01*
X67317107Y-42020000D02*
X64020000Y-42020000D01*
X50107168Y-42380000D02*
X48997168Y-43490000D01*
D61*
X67950000Y-44475000D02*
X67950000Y-42652893D01*
D60*
X67910000Y-42612893D02*
X67317107Y-42020000D01*
X63660000Y-42380000D02*
X50107168Y-42380000D01*
D61*
X67950000Y-42652893D02*
X67910000Y-42612893D01*
X67550000Y-42960000D02*
X67110000Y-42520000D01*
D60*
X50580000Y-46610000D02*
X51940000Y-46610000D01*
X64460000Y-42520000D02*
X67110000Y-42520000D01*
X49537500Y-45060000D02*
X50325000Y-45847500D01*
X50325000Y-45847500D02*
X50325000Y-46355000D01*
X49537500Y-45060000D02*
X49590000Y-45007500D01*
D61*
X67550000Y-44475000D02*
X67550000Y-42960000D01*
D60*
X64060000Y-42920000D02*
X64460000Y-42520000D01*
X50325000Y-46355000D02*
X50580000Y-46610000D01*
X51940000Y-46610000D02*
X55630000Y-42920000D01*
X55630000Y-42920000D02*
X64060000Y-42920000D01*
D61*
X59623199Y-36033199D02*
X59623199Y-41379959D01*
X67150000Y-43270000D02*
X67010000Y-43130000D01*
X57720000Y-34130000D02*
X59623199Y-36033199D01*
X67150000Y-44475000D02*
X67150000Y-43270000D01*
X60867500Y-50520000D02*
X63180000Y-50520000D01*
X60777500Y-50610000D02*
X60867500Y-50520000D01*
X61674168Y-50029999D02*
X60777500Y-49133331D01*
X60777500Y-49133331D02*
X60777500Y-48433332D01*
X62890000Y-50029999D02*
X61674168Y-50029999D01*
X62421701Y-49529999D02*
X61780000Y-48888298D01*
X62890000Y-49529999D02*
X62421701Y-49529999D01*
X61780000Y-48888298D02*
X61780000Y-47259166D01*
X61780000Y-47259166D02*
X60777500Y-46256666D01*
X60777500Y-44080000D02*
X63050000Y-46352500D01*
X63050000Y-46352500D02*
X63050000Y-49020000D01*
X69150000Y-51375000D02*
X69150000Y-52000000D01*
X68240000Y-52910000D02*
X66730000Y-52910000D01*
X69150000Y-52000000D02*
X68240000Y-52910000D01*
D60*
X30150000Y-46920000D02*
X36900000Y-46920000D01*
D61*
X68020000Y-50410000D02*
X69210000Y-50410000D01*
X69550000Y-50750000D02*
X69550000Y-51375000D01*
X69210000Y-50410000D02*
X69550000Y-50750000D01*
X71150000Y-52675000D02*
X73340000Y-54865000D01*
X71150000Y-51375000D02*
X71150000Y-52675000D01*
D58*
X38140000Y-64875000D02*
X38125000Y-64860000D01*
X38140000Y-68170000D02*
X38140000Y-64875000D01*
X44972500Y-44280000D02*
X44982500Y-44270000D01*
X42985000Y-44280000D02*
X42985000Y-45525000D01*
X42985000Y-45525000D02*
X36510000Y-52000000D01*
X42985000Y-44280000D02*
X44972500Y-44280000D01*
X36510000Y-52000000D02*
X30150000Y-52000000D01*
X30150000Y-54540000D02*
X34602182Y-54540000D01*
X41315000Y-42370000D02*
X41335000Y-42350000D01*
X36180000Y-42370000D02*
X35940000Y-42610000D01*
X34602182Y-54540000D02*
X35821091Y-53321091D01*
X39340000Y-42370000D02*
X36180000Y-42370000D01*
X39340000Y-42370000D02*
X41315000Y-42370000D01*
X41325000Y-44270000D02*
X41335000Y-44280000D01*
X39340000Y-44270000D02*
X41325000Y-44270000D01*
X42985000Y-42350000D02*
X44962500Y-42350000D01*
X44962500Y-42350000D02*
X44982500Y-42370000D01*
D59*
X84850000Y-50990000D02*
X84860000Y-50980000D01*
D60*
X40140000Y-68170000D02*
X40140000Y-57813224D01*
X39140000Y-69255000D02*
X40110000Y-69255000D01*
X49550000Y-46772500D02*
X49537500Y-46760000D01*
X40110000Y-69255000D02*
X40140000Y-69225000D01*
X39140000Y-68170000D02*
X39140000Y-69255000D01*
X49537500Y-48415724D02*
X49537500Y-46760000D01*
X40140000Y-69225000D02*
X40140000Y-68170000D01*
X40140000Y-57813224D02*
X49537500Y-48415724D01*
X39530000Y-57470000D02*
X48462500Y-48537500D01*
X48462500Y-48537500D02*
X48462500Y-46760000D01*
X39640000Y-68170000D02*
X39640000Y-66975000D01*
X38780000Y-66975000D02*
X38640000Y-67115000D01*
X39530000Y-66975000D02*
X39530000Y-57470000D01*
X38640000Y-67115000D02*
X38640000Y-68170000D01*
X39640000Y-66975000D02*
X39530000Y-66975000D01*
X39530000Y-66975000D02*
X38780000Y-66975000D01*
D61*
X64821370Y-49029998D02*
X64261600Y-49029998D01*
X65116372Y-49325000D02*
X64821370Y-49029998D01*
X65900000Y-49325000D02*
X65116372Y-49325000D01*
X64950686Y-49725000D02*
X64755685Y-49529999D01*
X64755685Y-49529999D02*
X64261600Y-49529999D01*
X65900000Y-49725000D02*
X64950686Y-49725000D01*
X64680000Y-50020000D02*
X64785000Y-50125000D01*
X65900000Y-50125000D02*
X64785000Y-50125000D01*
X64050000Y-50020000D02*
X64680000Y-50020000D01*
X64266600Y-50525000D02*
X64261600Y-50530000D01*
X65900000Y-50525000D02*
X64266600Y-50525000D01*
X74583578Y-48525000D02*
X74731789Y-48673211D01*
D59*
X65104928Y-63379928D02*
X65104928Y-57355259D01*
X65320000Y-63595000D02*
X65104928Y-63379928D01*
D61*
X72800000Y-48525000D02*
X74583578Y-48525000D01*
D59*
X67305000Y-58510000D02*
X67305000Y-58075000D01*
X67135000Y-59739595D02*
X67135000Y-58680000D01*
D61*
X73725000Y-47325000D02*
X74450000Y-46600000D01*
D59*
X67135000Y-58680000D02*
X67305000Y-58510000D01*
X67320000Y-59924595D02*
X67135000Y-59739595D01*
D61*
X72800000Y-47325000D02*
X73725000Y-47325000D01*
D59*
X67305000Y-58075000D02*
X68020000Y-57360000D01*
X67320000Y-63595000D02*
X67320000Y-59924595D01*
D61*
X74450000Y-46600000D02*
X74740000Y-46600000D01*
X70350000Y-44475000D02*
X70350000Y-43850000D01*
X70380007Y-42779993D02*
X71000000Y-42160000D01*
X72930000Y-42160000D02*
X73330000Y-42560000D01*
X70380007Y-43819993D02*
X70380007Y-42803137D01*
X68830000Y-59600000D02*
X68820000Y-59610000D01*
X71000000Y-42160000D02*
X72930000Y-42160000D01*
X70380007Y-42803137D02*
X70380007Y-42779993D01*
X68820000Y-59610000D02*
X68820000Y-63595000D01*
X70350000Y-43850000D02*
X70380007Y-43819993D01*
D59*
X78125000Y-71475000D02*
X78125000Y-73635000D01*
X70275000Y-71475000D02*
X78125000Y-71475000D01*
X78125000Y-73635000D02*
X78140000Y-73650000D01*
X78125000Y-71475000D02*
X81415000Y-71475000D01*
X66820000Y-63595000D02*
X66820000Y-68020000D01*
X66820000Y-68020000D02*
X70275000Y-71475000D01*
X81415000Y-71475000D02*
X81780000Y-71110000D01*
D58*
X49110000Y-61290000D02*
X51500000Y-58900000D01*
X45360000Y-61290000D02*
X45360000Y-68860000D01*
X45360000Y-68860000D02*
X50030000Y-73530000D01*
X51500000Y-58900000D02*
X51500000Y-57610000D01*
X45360000Y-61290000D02*
X49110000Y-61290000D01*
X50030000Y-73530000D02*
X52660000Y-73530000D01*
X49599998Y-52425002D02*
X49605000Y-52420000D01*
X49599998Y-54892200D02*
X49599998Y-52425002D01*
X50549999Y-54892200D02*
X50549999Y-53220001D01*
X50549999Y-53220001D02*
X51270000Y-52500000D01*
X51270000Y-52500000D02*
X53190000Y-52500000D01*
X53190000Y-52500000D02*
X54210000Y-53520000D01*
X54210000Y-53520000D02*
X54210000Y-55455000D01*
X49599998Y-57105301D02*
X49930599Y-56774700D01*
X49930599Y-56774700D02*
X53015300Y-56774700D01*
X53015300Y-56774700D02*
X53530000Y-56260000D01*
X53530000Y-56260000D02*
X55465000Y-56260000D01*
X55465000Y-56260000D02*
X56310000Y-57105000D01*
X49599998Y-57610000D02*
X49599998Y-57105301D01*
X92854300Y-71100001D02*
X102269999Y-71100001D01*
X102269999Y-71100001D02*
X103500000Y-69870000D01*
X92844301Y-71110000D02*
X92854300Y-71100001D01*
X86730000Y-71110000D02*
X92844301Y-71110000D01*
G04 #@! TA.AperFunction,Conductor*
G36*
X87491942Y-42945185D02*
G01*
X87512584Y-42961819D01*
X87593181Y-43042416D01*
X87626666Y-43103739D01*
X87629500Y-43130097D01*
X87629500Y-49478096D01*
X87609815Y-49545135D01*
X87557011Y-49590890D01*
X87505454Y-49602096D01*
X81890000Y-49600000D01*
X81911735Y-49947765D01*
X81896270Y-50015902D01*
X81846423Y-50064862D01*
X81787976Y-50079500D01*
X81682617Y-50079500D01*
X79121471Y-50074107D01*
X79056635Y-50055646D01*
X79051980Y-50052775D01*
X78992201Y-50015902D01*
X78962289Y-49997452D01*
X78962284Y-49997450D01*
X78960876Y-49996983D01*
X78802685Y-49944564D01*
X78802683Y-49944563D01*
X78704181Y-49934500D01*
X78704174Y-49934500D01*
X78170826Y-49934500D01*
X78170818Y-49934500D01*
X78072316Y-49944563D01*
X78072315Y-49944564D01*
X77993219Y-49970773D01*
X77912715Y-49997450D01*
X77912706Y-49997455D01*
X77823016Y-50052775D01*
X77757659Y-50071236D01*
X77541077Y-50070780D01*
X77476241Y-50052319D01*
X77387289Y-49997452D01*
X77387284Y-49997450D01*
X77385285Y-49996787D01*
X77249766Y-49951881D01*
X77192323Y-49912109D01*
X77165500Y-49847593D01*
X77164805Y-49836972D01*
X77149481Y-49149616D01*
X77167666Y-49082158D01*
X77185764Y-49059180D01*
X77339513Y-48905431D01*
X77352079Y-48895365D01*
X77351925Y-48895178D01*
X77357933Y-48890205D01*
X77357940Y-48890202D01*
X77381227Y-48865402D01*
X77405865Y-48839167D01*
X77408578Y-48836367D01*
X77428911Y-48816035D01*
X77431606Y-48812560D01*
X77439199Y-48803669D01*
X77470448Y-48770393D01*
X77480674Y-48751790D01*
X77491353Y-48735533D01*
X77504362Y-48718764D01*
X77522491Y-48676866D01*
X77527620Y-48666395D01*
X77549627Y-48626368D01*
X77554905Y-48605806D01*
X77561207Y-48587399D01*
X77569635Y-48567927D01*
X77576777Y-48522828D01*
X77579141Y-48511413D01*
X77590500Y-48467177D01*
X77590500Y-48445950D01*
X77592027Y-48426550D01*
X77595346Y-48405596D01*
X77591050Y-48360148D01*
X77590500Y-48348479D01*
X77590500Y-47220501D01*
X77592268Y-47204488D01*
X77592026Y-47204466D01*
X77592758Y-47196710D01*
X77592760Y-47196703D01*
X77590561Y-47126735D01*
X77590500Y-47122840D01*
X77590500Y-47094077D01*
X77590499Y-47094070D01*
X77589949Y-47089716D01*
X77589030Y-47078054D01*
X77587597Y-47032430D01*
X77581676Y-47012052D01*
X77577731Y-46993003D01*
X77575071Y-46971942D01*
X77558261Y-46929487D01*
X77554481Y-46918445D01*
X77541743Y-46874599D01*
X77530941Y-46856335D01*
X77522379Y-46838858D01*
X77521351Y-46836262D01*
X77514568Y-46819129D01*
X77487737Y-46782199D01*
X77481323Y-46772435D01*
X77458082Y-46733137D01*
X77458081Y-46733135D01*
X77443075Y-46718129D01*
X77430435Y-46703330D01*
X77417961Y-46686160D01*
X77382780Y-46657056D01*
X77374140Y-46649194D01*
X77122525Y-46397579D01*
X77089040Y-46336256D01*
X77086237Y-46312652D01*
X77086006Y-46302254D01*
X77104196Y-46234794D01*
X77155971Y-46187878D01*
X77209975Y-46175500D01*
X81907513Y-46175500D01*
X81923697Y-46176560D01*
X81955000Y-46180682D01*
X81955001Y-46180682D01*
X82007254Y-46173802D01*
X82111762Y-46160044D01*
X82257841Y-46099536D01*
X82383282Y-46003282D01*
X82402509Y-45978223D01*
X82413190Y-45966043D01*
X83621043Y-44758190D01*
X83633223Y-44747509D01*
X83658282Y-44728282D01*
X83754536Y-44602841D01*
X83815044Y-44456762D01*
X83830500Y-44339361D01*
X83835682Y-44300000D01*
X83835681Y-44299996D01*
X83831561Y-44268697D01*
X83830500Y-44252512D01*
X83830500Y-43049500D01*
X83850185Y-42982461D01*
X83902989Y-42936706D01*
X83954500Y-42925500D01*
X87424903Y-42925500D01*
X87491942Y-42945185D01*
G37*
G04 #@! TD.AperFunction*
G04 #@! TA.AperFunction,Conductor*
G36*
X107442539Y-31520185D02*
G01*
X107488294Y-31572989D01*
X107499500Y-31624500D01*
X107499500Y-48875500D01*
X107479815Y-48942539D01*
X107427011Y-48988294D01*
X107375500Y-48999500D01*
X100064760Y-48999500D01*
X100064554Y-48999459D01*
X100039998Y-48999459D01*
X100039807Y-48999538D01*
X100039619Y-48999615D01*
X100039615Y-48999618D01*
X100039459Y-48999999D01*
X100039476Y-49024616D01*
X100039471Y-49024616D01*
X100039500Y-49024759D01*
X100039500Y-49482731D01*
X100019815Y-49549770D01*
X99967011Y-49595525D01*
X99915454Y-49606731D01*
X92079454Y-49603805D01*
X92012422Y-49584095D01*
X91966686Y-49531274D01*
X91955500Y-49479805D01*
X91955500Y-39622737D01*
X91957224Y-39607123D01*
X91956938Y-39607096D01*
X91957672Y-39599333D01*
X91955561Y-39532143D01*
X91955500Y-39528249D01*
X91955500Y-39500651D01*
X91955500Y-39500650D01*
X91954997Y-39496670D01*
X91954080Y-39485021D01*
X91953781Y-39475515D01*
X91952709Y-39441372D01*
X91947120Y-39422137D01*
X91943174Y-39403084D01*
X91942463Y-39397454D01*
X91940664Y-39383208D01*
X91924578Y-39342581D01*
X91920803Y-39331554D01*
X91908617Y-39289610D01*
X91902381Y-39279065D01*
X91898421Y-39272369D01*
X91889860Y-39254893D01*
X91886213Y-39245682D01*
X91882486Y-39236268D01*
X91856809Y-39200926D01*
X91850412Y-39191190D01*
X91828170Y-39153579D01*
X91828167Y-39153576D01*
X91828165Y-39153573D01*
X91814005Y-39139413D01*
X91801370Y-39124620D01*
X91790033Y-39109017D01*
X91789594Y-39108413D01*
X91755945Y-39080576D01*
X91747304Y-39072713D01*
X91400536Y-38725945D01*
X91367051Y-38664622D01*
X91372035Y-38594930D01*
X91388951Y-38563952D01*
X91453796Y-38477331D01*
X91504091Y-38342483D01*
X91510500Y-38282873D01*
X91510499Y-37537128D01*
X91504091Y-37477517D01*
X91453796Y-37342669D01*
X91453795Y-37342668D01*
X91453793Y-37342664D01*
X91367547Y-37227455D01*
X91367544Y-37227452D01*
X91252335Y-37141206D01*
X91252328Y-37141202D01*
X91117486Y-37090910D01*
X91117485Y-37090909D01*
X91117483Y-37090909D01*
X91057873Y-37084500D01*
X91057863Y-37084500D01*
X90642129Y-37084500D01*
X90642123Y-37084501D01*
X90582516Y-37090908D01*
X90447671Y-37141202D01*
X90439890Y-37145452D01*
X90438707Y-37143286D01*
X90385558Y-37163107D01*
X90317286Y-37148253D01*
X90302406Y-37138689D01*
X90252337Y-37101207D01*
X90252330Y-37101203D01*
X90117488Y-37050911D01*
X90117487Y-37050910D01*
X90117485Y-37050910D01*
X90057875Y-37044501D01*
X90057865Y-37044501D01*
X89742133Y-37044501D01*
X89742121Y-37044502D01*
X89713257Y-37047605D01*
X89686752Y-37047605D01*
X89657877Y-37044501D01*
X89342133Y-37044501D01*
X89342126Y-37044502D01*
X89282518Y-37050910D01*
X89143335Y-37102821D01*
X89073644Y-37107805D01*
X89056670Y-37102821D01*
X88917490Y-37050911D01*
X88917489Y-37050910D01*
X88917487Y-37050910D01*
X88857877Y-37044501D01*
X88857867Y-37044501D01*
X88542134Y-37044501D01*
X88542127Y-37044502D01*
X88482520Y-37050909D01*
X88347675Y-37101203D01*
X88347668Y-37101207D01*
X88297599Y-37138689D01*
X88232135Y-37163106D01*
X88163862Y-37148254D01*
X88156026Y-37143218D01*
X88152334Y-37141202D01*
X88017492Y-37090910D01*
X88017491Y-37090909D01*
X88017489Y-37090909D01*
X87957879Y-37084500D01*
X87957869Y-37084500D01*
X87542135Y-37084500D01*
X87542129Y-37084501D01*
X87482522Y-37090908D01*
X87347677Y-37141202D01*
X87347670Y-37141206D01*
X87232461Y-37227452D01*
X87232458Y-37227455D01*
X87146212Y-37342664D01*
X87146208Y-37342671D01*
X87095916Y-37477513D01*
X87095915Y-37477517D01*
X87089506Y-37537127D01*
X87089506Y-37773181D01*
X87089507Y-37915500D01*
X87069823Y-37982539D01*
X87017019Y-38028294D01*
X86965507Y-38039500D01*
X85384179Y-38039500D01*
X85317140Y-38019815D01*
X85271385Y-37967011D01*
X85261441Y-37897853D01*
X85277447Y-37852379D01*
X85302869Y-37809393D01*
X85347665Y-37655204D01*
X85350500Y-37619181D01*
X85350499Y-37220820D01*
X85347665Y-37184796D01*
X85302869Y-37030607D01*
X85221135Y-36892402D01*
X85221133Y-36892400D01*
X85221130Y-36892396D01*
X85107603Y-36778869D01*
X85107595Y-36778863D01*
X84969393Y-36697131D01*
X84969388Y-36697129D01*
X84815208Y-36652335D01*
X84815202Y-36652334D01*
X84779181Y-36649500D01*
X84280830Y-36649500D01*
X84280808Y-36649501D01*
X84244794Y-36652335D01*
X84090611Y-36697129D01*
X84090606Y-36697131D01*
X83952404Y-36778863D01*
X83952396Y-36778869D01*
X83838869Y-36892396D01*
X83838863Y-36892404D01*
X83757130Y-37030608D01*
X83757129Y-37030611D01*
X83724406Y-37143244D01*
X83693011Y-37196330D01*
X83116160Y-37773181D01*
X83054837Y-37806666D01*
X83028485Y-37809500D01*
X83010833Y-37809500D01*
X83010807Y-37809501D01*
X82974794Y-37812335D01*
X82820611Y-37857129D01*
X82820606Y-37857131D01*
X82811982Y-37862232D01*
X82748861Y-37879500D01*
X82566214Y-37879500D01*
X82499175Y-37859815D01*
X82453420Y-37807011D01*
X82443476Y-37737853D01*
X82451452Y-37708535D01*
X83989773Y-33950000D01*
X103664341Y-33950000D01*
X103684936Y-34185403D01*
X103684938Y-34185413D01*
X103746094Y-34413655D01*
X103746096Y-34413659D01*
X103746097Y-34413663D01*
X103796031Y-34520746D01*
X103845964Y-34627828D01*
X103845965Y-34627830D01*
X103981505Y-34821402D01*
X104148597Y-34988494D01*
X104342169Y-35124034D01*
X104342171Y-35124035D01*
X104556337Y-35223903D01*
X104784592Y-35285063D01*
X104961032Y-35300499D01*
X104961033Y-35300500D01*
X104961034Y-35300500D01*
X105078967Y-35300500D01*
X105078967Y-35300499D01*
X105255408Y-35285063D01*
X105483663Y-35223903D01*
X105697829Y-35124035D01*
X105891401Y-34988495D01*
X106058495Y-34821401D01*
X106194035Y-34627830D01*
X106293903Y-34413663D01*
X106355063Y-34185408D01*
X106375659Y-33950000D01*
X106355063Y-33714592D01*
X106293903Y-33486337D01*
X106194035Y-33272171D01*
X106194034Y-33272169D01*
X106058494Y-33078597D01*
X105891402Y-32911505D01*
X105697830Y-32775965D01*
X105697828Y-32775964D01*
X105590746Y-32726031D01*
X105483663Y-32676097D01*
X105483659Y-32676096D01*
X105483655Y-32676094D01*
X105255413Y-32614938D01*
X105255403Y-32614936D01*
X105078967Y-32599500D01*
X105078966Y-32599500D01*
X104961034Y-32599500D01*
X104961033Y-32599500D01*
X104784596Y-32614936D01*
X104784586Y-32614938D01*
X104556344Y-32676094D01*
X104556335Y-32676098D01*
X104342171Y-32775964D01*
X104342169Y-32775965D01*
X104148597Y-32911505D01*
X103981506Y-33078597D01*
X103981501Y-33078604D01*
X103845967Y-33272165D01*
X103845965Y-33272169D01*
X103746098Y-33486335D01*
X103746094Y-33486344D01*
X103684938Y-33714586D01*
X103684936Y-33714596D01*
X103664341Y-33949999D01*
X103664341Y-33950000D01*
X83989773Y-33950000D01*
X84960795Y-31577530D01*
X85004407Y-31522943D01*
X85070607Y-31500599D01*
X85075555Y-31500500D01*
X107375500Y-31500500D01*
X107442539Y-31520185D01*
G37*
G04 #@! TD.AperFunction*
G04 #@! TA.AperFunction,Conductor*
G36*
X90436141Y-40841744D02*
G01*
X90443983Y-40846783D01*
X90447671Y-40848797D01*
X90582513Y-40899090D01*
X90582514Y-40899090D01*
X90582517Y-40899091D01*
X90593755Y-40900299D01*
X90658304Y-40927035D01*
X90698154Y-40984426D01*
X90704500Y-41023588D01*
X90704500Y-49479245D01*
X90684815Y-49546284D01*
X90632011Y-49592039D01*
X90580454Y-49603245D01*
X88954454Y-49602638D01*
X88887422Y-49582928D01*
X88841686Y-49530107D01*
X88830500Y-49478638D01*
X88830500Y-42877487D01*
X88831561Y-42861301D01*
X88835682Y-42829999D01*
X88823759Y-42739439D01*
X88834524Y-42670404D01*
X88859017Y-42635572D01*
X89351502Y-42143087D01*
X89883790Y-41610799D01*
X89896045Y-41600983D01*
X89895862Y-41600761D01*
X89901871Y-41595788D01*
X89901880Y-41595783D01*
X89947952Y-41546719D01*
X89950569Y-41544020D01*
X89970123Y-41524468D01*
X89972579Y-41521300D01*
X89980159Y-41512424D01*
X90010065Y-41480579D01*
X90019716Y-41463021D01*
X90030399Y-41446758D01*
X90042676Y-41430933D01*
X90060024Y-41390841D01*
X90065154Y-41380368D01*
X90086200Y-41342089D01*
X90091183Y-41322677D01*
X90097484Y-41304277D01*
X90105440Y-41285893D01*
X90112273Y-41242745D01*
X90114636Y-41231335D01*
X90125503Y-41189016D01*
X90125503Y-41168980D01*
X90127030Y-41149579D01*
X90130163Y-41129801D01*
X90126053Y-41086321D01*
X90125503Y-41074652D01*
X90125503Y-41022194D01*
X90145188Y-40955155D01*
X90197992Y-40909400D01*
X90206153Y-40906018D01*
X90252333Y-40888795D01*
X90302406Y-40851310D01*
X90367868Y-40826893D01*
X90436141Y-40841744D01*
G37*
G04 #@! TD.AperFunction*
G04 #@! TA.AperFunction,Conductor*
G36*
X81626048Y-42107400D02*
G01*
X81664905Y-42165468D01*
X81666199Y-42235326D01*
X81661157Y-42250052D01*
X81644956Y-42289165D01*
X81644955Y-42289167D01*
X81624318Y-42445926D01*
X81624318Y-42445927D01*
X81628439Y-42477229D01*
X81629500Y-42493415D01*
X81629500Y-44479903D01*
X81609815Y-44546942D01*
X81593181Y-44567584D01*
X81592584Y-44568181D01*
X81531261Y-44601666D01*
X81504903Y-44604500D01*
X78270013Y-44604500D01*
X78202974Y-44584815D01*
X78157219Y-44532011D01*
X78146793Y-44466617D01*
X78165565Y-44300003D01*
X78165565Y-44299996D01*
X78145369Y-44120750D01*
X78145367Y-44120740D01*
X78117403Y-44040826D01*
X78113840Y-43971047D01*
X78148569Y-43910419D01*
X78210562Y-43878192D01*
X78280138Y-43884596D01*
X78299541Y-43894332D01*
X78377704Y-43942544D01*
X78377707Y-43942545D01*
X78377713Y-43942549D01*
X78537315Y-43995436D01*
X78635826Y-44005500D01*
X78635831Y-44005500D01*
X79244169Y-44005500D01*
X79244174Y-44005500D01*
X79342685Y-43995436D01*
X79502287Y-43942549D01*
X79645391Y-43854281D01*
X79764281Y-43735391D01*
X79852549Y-43592287D01*
X79873904Y-43527841D01*
X79913675Y-43470398D01*
X79977135Y-43443693D01*
X81200000Y-43300000D01*
X81315875Y-42317821D01*
X81343277Y-42253554D01*
X81351319Y-42244692D01*
X81412968Y-42183044D01*
X81441058Y-42137502D01*
X81493003Y-42090780D01*
X81561965Y-42079557D01*
X81626048Y-42107400D01*
G37*
G04 #@! TD.AperFunction*
G04 #@! TA.AperFunction,Conductor*
G36*
X82363406Y-39739763D02*
G01*
X82419339Y-39781635D01*
X82440125Y-39829247D01*
X82440567Y-39829119D01*
X82441556Y-39832526D01*
X82442054Y-39833665D01*
X82442335Y-39835206D01*
X82487129Y-39989388D01*
X82487131Y-39989393D01*
X82568863Y-40127595D01*
X82568869Y-40127603D01*
X82682396Y-40241130D01*
X82682400Y-40241133D01*
X82682402Y-40241135D01*
X82790297Y-40304944D01*
X82827322Y-40326840D01*
X82826007Y-40329063D01*
X82870055Y-40365707D01*
X82891084Y-40432337D01*
X82872751Y-40499758D01*
X82820878Y-40546566D01*
X82801708Y-40553905D01*
X82790612Y-40557128D01*
X82790606Y-40557131D01*
X82697436Y-40612232D01*
X82634315Y-40629500D01*
X81654548Y-40629500D01*
X81587509Y-40609815D01*
X81541754Y-40557011D01*
X81531401Y-40490979D01*
X81535519Y-40456076D01*
X81562917Y-40391811D01*
X81596844Y-40364223D01*
X81596749Y-40364085D01*
X81598506Y-40362871D01*
X81601048Y-40360805D01*
X81602919Y-40359821D01*
X81602930Y-40359818D01*
X81611266Y-40354062D01*
X81630821Y-40343034D01*
X81640057Y-40338878D01*
X81687413Y-40301775D01*
X81693404Y-40297366D01*
X81742929Y-40263183D01*
X81782822Y-40218151D01*
X81787924Y-40212731D01*
X82232393Y-39768262D01*
X82293714Y-39734779D01*
X82363406Y-39739763D01*
G37*
G04 #@! TD.AperFunction*
G04 #@! TA.AperFunction,Conductor*
G36*
X89126577Y-38513475D02*
G01*
X89160060Y-38574799D01*
X89155073Y-38644491D01*
X89126574Y-38688834D01*
X88716211Y-39099196D01*
X88703954Y-39109017D01*
X88704137Y-39109238D01*
X88698125Y-39114211D01*
X88652101Y-39163220D01*
X88649394Y-39166013D01*
X88629892Y-39185514D01*
X88629878Y-39185531D01*
X88627410Y-39188712D01*
X88619846Y-39197567D01*
X88589940Y-39229415D01*
X88589939Y-39229417D01*
X88580287Y-39246973D01*
X88569613Y-39263223D01*
X88557332Y-39279058D01*
X88557327Y-39279065D01*
X88539978Y-39319155D01*
X88534841Y-39329639D01*
X88531153Y-39336347D01*
X88513806Y-39367904D01*
X88509600Y-39384283D01*
X88473858Y-39444319D01*
X88411333Y-39475501D01*
X88341875Y-39467930D01*
X88290233Y-39427752D01*
X88267552Y-39397454D01*
X88267550Y-39397453D01*
X88267550Y-39397452D01*
X88243451Y-39379412D01*
X88201581Y-39323478D01*
X88196597Y-39253786D01*
X88230083Y-39192463D01*
X88270317Y-39165583D01*
X88272846Y-39164536D01*
X88330613Y-39120210D01*
X88398287Y-39068282D01*
X88417514Y-39043223D01*
X88428195Y-39031043D01*
X88942529Y-38516709D01*
X88986874Y-38488211D01*
X88995565Y-38484969D01*
X89065255Y-38479988D01*
X89126577Y-38513475D01*
G37*
G04 #@! TD.AperFunction*
G04 #@! TA.AperFunction,Conductor*
G36*
X77864501Y-51812633D02*
G01*
X77905356Y-51821788D01*
X77905857Y-51820278D01*
X78071177Y-51875059D01*
X78072315Y-51875436D01*
X78170826Y-51885500D01*
X78477048Y-51885500D01*
X78544087Y-51905185D01*
X78564729Y-51921819D01*
X79267207Y-52624297D01*
X79300692Y-52685620D01*
X79302884Y-52724579D01*
X79294500Y-52806643D01*
X79294500Y-53353337D01*
X79294501Y-53353355D01*
X79304650Y-53452707D01*
X79304651Y-53452710D01*
X79357996Y-53613694D01*
X79358001Y-53613705D01*
X79447029Y-53758040D01*
X79447032Y-53758044D01*
X79456660Y-53767672D01*
X79490145Y-53828995D01*
X79485161Y-53898687D01*
X79456663Y-53943031D01*
X79447428Y-53952265D01*
X79447424Y-53952271D01*
X79358457Y-54096507D01*
X79358452Y-54096518D01*
X79305144Y-54257393D01*
X79295000Y-54356677D01*
X79295000Y-54380000D01*
X81244999Y-54380000D01*
X81244999Y-54356692D01*
X81244998Y-54356677D01*
X81234855Y-54257392D01*
X81181547Y-54096518D01*
X81181542Y-54096507D01*
X81092575Y-53952271D01*
X81092572Y-53952267D01*
X81083339Y-53943034D01*
X81049854Y-53881711D01*
X81054838Y-53812019D01*
X81083343Y-53767668D01*
X81092968Y-53758044D01*
X81182003Y-53613697D01*
X81235349Y-53452708D01*
X81245500Y-53353345D01*
X81245499Y-52806656D01*
X81235349Y-52707292D01*
X81182003Y-52546303D01*
X81181999Y-52546297D01*
X81181998Y-52546294D01*
X81092970Y-52401959D01*
X81092967Y-52401955D01*
X80973044Y-52282032D01*
X80973040Y-52282029D01*
X80828705Y-52193001D01*
X80828699Y-52192998D01*
X80828697Y-52192997D01*
X80828694Y-52192996D01*
X80667709Y-52139651D01*
X80582429Y-52130938D01*
X80517738Y-52104541D01*
X80507352Y-52095261D01*
X80448046Y-52035955D01*
X80414561Y-51974632D01*
X80419545Y-51904940D01*
X80461417Y-51849007D01*
X80526881Y-51824590D01*
X80536249Y-51824275D01*
X81726540Y-51829462D01*
X81793493Y-51849439D01*
X81839018Y-51902442D01*
X81850000Y-51953461D01*
X81850000Y-57576000D01*
X81830315Y-57643039D01*
X81777511Y-57688794D01*
X81726000Y-57700000D01*
X77344845Y-57700000D01*
X77277806Y-57680315D01*
X77232051Y-57627511D01*
X77220848Y-57575158D01*
X77238318Y-55002606D01*
X77239151Y-54880000D01*
X79295001Y-54880000D01*
X79295001Y-54903322D01*
X79305144Y-55002607D01*
X79358452Y-55163481D01*
X79358457Y-55163492D01*
X79447424Y-55307728D01*
X79447427Y-55307732D01*
X79567267Y-55427572D01*
X79567271Y-55427575D01*
X79711507Y-55516542D01*
X79711518Y-55516547D01*
X79872393Y-55569855D01*
X79971683Y-55579999D01*
X80019999Y-55579998D01*
X80020000Y-55579998D01*
X80020000Y-54880000D01*
X80520000Y-54880000D01*
X80520000Y-55579999D01*
X80568308Y-55579999D01*
X80568322Y-55579998D01*
X80667607Y-55569855D01*
X80828481Y-55516547D01*
X80828492Y-55516542D01*
X80972728Y-55427575D01*
X80972732Y-55427572D01*
X81092572Y-55307732D01*
X81092575Y-55307728D01*
X81181542Y-55163492D01*
X81181547Y-55163481D01*
X81234855Y-55002606D01*
X81244999Y-54903322D01*
X81245000Y-54903309D01*
X81245000Y-54880000D01*
X80520000Y-54880000D01*
X80020000Y-54880000D01*
X79295001Y-54880000D01*
X77239151Y-54880000D01*
X77259023Y-51953748D01*
X77279162Y-51886847D01*
X77332276Y-51841451D01*
X77344011Y-51836888D01*
X77387287Y-51822549D01*
X77387306Y-51822537D01*
X77387579Y-51822411D01*
X77387948Y-51822329D01*
X77394144Y-51820277D01*
X77394358Y-51820923D01*
X77440537Y-51810786D01*
X77864501Y-51812633D01*
G37*
G04 #@! TD.AperFunction*
M02*
