M48
; DRILL file {KiCad 7.0.11-7.0.11~ubuntu22.04.1} date Wed 26 Jun 2024 11:35:15 CEST
; FORMAT={-:-/ absolute / metric / decimal}
; #@! TF.CreationDate,2024-06-26T11:35:15+02:00
; #@! TF.GenerationSoftware,Kicad,Pcbnew,7.0.11-7.0.11~ubuntu22.04.1
; #@! TF.FileFunction,Plated,1,4,PTH
FMAT,2
METRIC
; #@! TA.AperFunction,Plated,PTH,ViaDrill
T1C0.200
; #@! TA.AperFunction,Plated,PTH,ViaDrill
T2C0.400
; #@! TA.AperFunction,Plated,PTH,ComponentDrill
T3C0.600
; #@! TA.AperFunction,Plated,PTH,ComponentDrill
T4C1.000
%
G90
G05
T1
X35.821Y-53.321
X35.94Y-42.61
X36.9Y-46.92
X66.73Y-52.91
X67.01Y-43.13
X68.02Y-50.41
X70.408Y-41.972
X70.537Y-45.29
X70.939Y-43.414
X71.406Y-42.904
X71.918Y-46.502
X71.99Y-48.93
X72.06Y-43.31
X72.417Y-42.799
X73.8Y-46.6
X74.54Y-49.31
X74.74Y-46.6
X75.54Y-38.4
X75.912Y-47.133
X76.4Y-41.67
X79.86Y-38.18
X89.11Y-38.67
T2
X30.3Y-64.5
X30.45Y-59.0
X35.6Y-67.195
X37.94Y-45.04
X43.25Y-67.015
X44.4Y-60.85
X44.86Y-57.09
X46.12Y-45.79
X46.5Y-40.01
X47.11Y-64.35
X47.81Y-53.5
X48.2Y-63.5
X48.609Y-42.771
X49.0Y-44.19
X50.55Y-58.6
X51.154Y-44.875
X51.49Y-53.52
X52.03Y-47.76
X52.24Y-45.26
X52.25Y-60.1
X52.32Y-39.8
X53.07Y-44.5
X54.9Y-46.47
X55.27Y-50.61
X55.55Y-74.74
X55.59Y-73.54
X56.607Y-47.673
X58.36Y-39.77
X58.53Y-38.94
X58.9Y-50.45
X58.98Y-40.33
X59.623Y-41.38
X60.392Y-41.743
X62.8Y-41.66
X63.19Y-56.7
X63.525Y-51.555
X65.105Y-57.355
X65.81Y-57.83
X66.625Y-54.065
X66.96Y-57.57
X67.81Y-59.46
X68.02Y-57.36
X68.83Y-59.6
X69.124Y-48.79
X69.54Y-61.9
X70.98Y-56.46
X71.4Y-37.57
X72.87Y-57.95
X72.92Y-53.345
X73.33Y-42.56
X74.0Y-49.925
X74.535Y-47.925
X74.732Y-48.673
X75.167Y-47.217
X75.68Y-40.99
X76.4Y-52.53
X77.247Y-52.53
X77.36Y-44.3
X77.59Y-49.75
X78.495Y-49.75
X78.94Y-52.53
X79.3Y-49.74
X80.08Y-48.49
X80.08Y-49.48
X80.823Y-44.235
X80.93Y-48.47
X81.52Y-42.974
X81.526Y-43.673
X81.56Y-47.32
X81.56Y-53.541
X81.56Y-54.727
X81.56Y-55.914
X81.56Y-57.1
X81.58Y-46.2
X81.61Y-41.95
X81.83Y-40.56
X82.22Y-39.89
X82.75Y-37.65
X83.076Y-47.32
X83.095Y-46.2
X84.05Y-39.6
X84.42Y-38.91
X84.592Y-47.32
X84.609Y-46.2
X86.108Y-47.32
X86.124Y-46.2
X87.624Y-47.32
X87.639Y-46.2
X88.36Y-72.39
X89.11Y-35.64
X89.14Y-47.32
X89.153Y-46.2
X90.17Y-39.57
X90.656Y-47.32
X90.668Y-46.2
X92.172Y-47.32
X92.183Y-46.2
X92.45Y-66.35
X93.688Y-47.32
X93.697Y-46.2
X95.204Y-47.32
X95.212Y-46.2
X96.72Y-47.32
X96.727Y-46.2
X98.236Y-47.32
X98.241Y-46.2
X99.752Y-47.32
X99.756Y-46.2
X101.268Y-47.32
X101.271Y-46.2
X102.784Y-47.32
X102.785Y-46.2
X104.3Y-46.2
X104.3Y-47.32
T4
X30.15Y-41.84
X30.15Y-44.38
X30.15Y-46.92
X30.15Y-49.46
X30.15Y-52.0
X30.15Y-54.54
X37.4Y-34.13
X39.94Y-34.13
X42.48Y-34.13
X45.02Y-34.13
X47.56Y-34.13
X50.1Y-34.13
X52.64Y-34.13
X55.18Y-34.13
X57.72Y-34.13
X60.26Y-34.13
X62.8Y-34.13
T3
X35.07Y-68.535G85X35.07Y-69.635
G05
X35.07Y-72.965G85X35.07Y-73.565
G05
X43.71Y-68.535G85X43.71Y-69.635
G05
X43.71Y-72.965G85X43.71Y-73.565
G05
M30
