G04 #@! TF.GenerationSoftware,KiCad,Pcbnew,7.0.11-7.0.11~ubuntu22.04.1*
G04 #@! TF.CreationDate,2024-06-25T15:30:52+02:00*
G04 #@! TF.ProjectId,S3-silicon-Sharp-Touch,53332d73-696c-4696-936f-6e2d53686172,rev?*
G04 #@! TF.SameCoordinates,Original*
G04 #@! TF.FileFunction,Copper,L2,Inr*
G04 #@! TF.FilePolarity,Positive*
%FSLAX46Y46*%
G04 Gerber Fmt 4.6, Leading zero omitted, Abs format (unit mm)*
G04 Created by KiCad (PCBNEW 7.0.11-7.0.11~ubuntu22.04.1) date 2024-06-25 15:30:52*
%MOMM*%
%LPD*%
G01*
G04 APERTURE LIST*
G04 #@! TA.AperFunction,ComponentPad*
%ADD10O,1.000000X2.100000*%
G04 #@! TD*
G04 #@! TA.AperFunction,ComponentPad*
%ADD11O,1.000000X1.600000*%
G04 #@! TD*
G04 #@! TA.AperFunction,ComponentPad*
%ADD12R,1.700000X1.700000*%
G04 #@! TD*
G04 #@! TA.AperFunction,ComponentPad*
%ADD13O,1.700000X1.700000*%
G04 #@! TD*
G04 #@! TA.AperFunction,ViaPad*
%ADD14C,0.600000*%
G04 #@! TD*
G04 #@! TA.AperFunction,ViaPad*
%ADD15C,0.800000*%
G04 #@! TD*
G04 #@! TA.AperFunction,ViaPad*
%ADD16C,0.400000*%
G04 #@! TD*
G04 APERTURE END LIST*
D10*
X35070000Y-69085000D03*
D11*
X35070000Y-73265000D03*
D10*
X43710000Y-69085000D03*
D11*
X43710000Y-73265000D03*
D12*
X30150000Y-41840000D03*
D13*
X30150000Y-44380000D03*
X30150000Y-46920000D03*
X30150000Y-49460000D03*
X30150000Y-52000000D03*
X30150000Y-54540000D03*
D12*
X37400000Y-34130000D03*
D13*
X39940000Y-34130000D03*
X42480000Y-34130000D03*
X45020000Y-34130000D03*
X47560000Y-34130000D03*
X50100000Y-34130000D03*
X52640000Y-34130000D03*
X55180000Y-34130000D03*
X57720000Y-34130000D03*
X60260000Y-34130000D03*
X62800000Y-34130000D03*
D14*
X51490000Y-53520000D03*
D15*
X52050000Y-60150000D03*
D14*
X49000000Y-44190000D03*
X92172000Y-47320000D03*
X81610000Y-41950000D03*
X69540000Y-61900000D03*
X83094666Y-46200000D03*
X47110000Y-64350000D03*
X81560000Y-55913630D03*
X101268000Y-47320000D03*
X81520000Y-42973750D03*
X102785324Y-46200000D03*
D16*
X76400000Y-41670000D03*
D14*
X87624000Y-47320000D03*
X98241326Y-46200000D03*
X80080000Y-48490000D03*
X77246666Y-52530000D03*
D15*
X43250000Y-67015000D03*
D14*
X101270658Y-46200000D03*
X99755992Y-46200000D03*
D15*
X54900000Y-46470000D03*
D14*
X81560000Y-47320000D03*
X88360000Y-72390000D03*
X80822867Y-44235049D03*
X63525331Y-51554669D03*
X93697328Y-46200000D03*
D16*
X89110000Y-38670000D03*
D14*
X96720000Y-47320000D03*
X80930000Y-48470000D03*
X102784000Y-47320000D03*
D15*
X35600000Y-67195000D03*
D14*
X71400000Y-37570000D03*
X86108000Y-47320000D03*
X90667996Y-46200000D03*
X93688000Y-47320000D03*
X98236000Y-47320000D03*
D16*
X75912275Y-47133376D03*
D14*
X81560000Y-53540904D03*
X99752000Y-47320000D03*
X50550000Y-58600000D03*
X46120000Y-45790000D03*
X81526462Y-43672876D03*
X81560000Y-54727267D03*
X99320000Y-68830000D03*
X78495000Y-49750000D03*
X52240000Y-45260000D03*
X84609332Y-46200000D03*
X80080000Y-49480000D03*
X81580000Y-46200000D03*
X55590000Y-73540000D03*
X104300000Y-46200000D03*
X86123998Y-46200000D03*
X63190000Y-56700000D03*
X79300000Y-49740000D03*
D16*
X75540000Y-38400000D03*
D14*
X89153330Y-46200000D03*
X78940000Y-52530000D03*
X89140000Y-47320000D03*
X82750000Y-37650000D03*
X47810000Y-53500000D03*
X46500000Y-40010000D03*
X92182662Y-46200000D03*
X81830000Y-40560000D03*
X83076000Y-47320000D03*
X104300000Y-47320000D03*
X96726660Y-46200000D03*
X82220000Y-39890000D03*
X77590000Y-49750000D03*
X84592000Y-47320000D03*
X55550000Y-74740000D03*
X76400000Y-52530000D03*
X55270000Y-50610000D03*
X89110000Y-35640000D03*
X69124402Y-48790000D03*
D16*
X79860000Y-38180000D03*
D14*
X90656000Y-47320000D03*
X87638664Y-46200000D03*
X95204000Y-47320000D03*
X81560000Y-57100000D03*
X70980000Y-56460000D03*
D15*
X58900000Y-50450000D03*
D14*
X95211994Y-46200000D03*
D15*
X72870000Y-57950000D03*
D14*
X66625000Y-54065000D03*
X52320000Y-39800000D03*
X72920000Y-53345000D03*
X56607281Y-47672719D03*
D16*
X70408248Y-41971752D03*
D14*
X60391865Y-41742806D03*
X75680000Y-40990000D03*
X77360000Y-44300000D03*
X74000000Y-49925000D03*
X37940000Y-45040000D03*
D16*
X74540000Y-49310000D03*
D14*
X62800000Y-41660000D03*
D16*
X71990000Y-48930000D03*
D14*
X48609241Y-42770809D03*
X58530000Y-38940000D03*
D16*
X72060000Y-43310000D03*
X71406091Y-42903909D03*
D14*
X58360000Y-39770000D03*
D16*
X70939092Y-43413909D03*
D14*
X58980000Y-40330000D03*
D16*
X70536664Y-45289989D03*
D14*
X53070000Y-44500000D03*
X67810000Y-59460000D03*
X44400000Y-60690000D03*
X44860000Y-57090000D03*
X51154065Y-44875500D03*
X52030000Y-47760000D03*
X90170000Y-39570000D03*
X84050000Y-39600000D03*
D16*
X73800000Y-46600000D03*
X72416989Y-42799121D03*
X71917956Y-46501608D03*
D14*
X84420000Y-38910000D03*
X66960000Y-57570000D03*
X75166909Y-47216646D03*
X65810000Y-57830000D03*
X74535060Y-47924939D03*
D16*
X67010000Y-43130000D03*
D14*
X59623199Y-41379959D03*
D16*
X66730000Y-52910000D03*
X68020000Y-50410000D03*
X36900000Y-46920000D03*
X35821091Y-53321091D03*
X35940000Y-42610000D03*
D14*
X65104928Y-57355259D03*
X74731789Y-48673211D03*
X68020000Y-57360000D03*
D16*
X74740000Y-46600000D03*
D14*
X68830000Y-59600000D03*
X73330000Y-42560000D03*
G04 #@! TA.AperFunction,Conductor*
G36*
X95211193Y-31520185D02*
G01*
X95256948Y-31572989D01*
X95268150Y-31625361D01*
X95253591Y-33714596D01*
X95230867Y-36975473D01*
X95210716Y-37042374D01*
X95157594Y-37087760D01*
X95105478Y-37098601D01*
X81162410Y-36942048D01*
X80980000Y-36940000D01*
X80979999Y-36940000D01*
X81059155Y-48575911D01*
X81039927Y-48643083D01*
X80987436Y-48689196D01*
X80935911Y-48700753D01*
X76120000Y-48730000D01*
X76043380Y-76025848D01*
X76023507Y-76092832D01*
X75970575Y-76138439D01*
X75919380Y-76149500D01*
X72544499Y-76149500D01*
X72477460Y-76129815D01*
X72431705Y-76077011D01*
X72420499Y-76025500D01*
X72420499Y-75382634D01*
X72420527Y-75382491D01*
X72420523Y-75382491D01*
X72420538Y-75357877D01*
X72420540Y-75357875D01*
X72420461Y-75357683D01*
X72420383Y-75357493D01*
X72420379Y-75357489D01*
X72420193Y-75357413D01*
X72420001Y-75357334D01*
X72395445Y-75357334D01*
X72395239Y-75357375D01*
X62444759Y-75357375D01*
X62444553Y-75357334D01*
X62419997Y-75357334D01*
X62419806Y-75357413D01*
X62419618Y-75357490D01*
X62419614Y-75357493D01*
X62419458Y-75357874D01*
X62419475Y-75382491D01*
X62419470Y-75382491D01*
X62419499Y-75382634D01*
X62419499Y-76025500D01*
X62399814Y-76092539D01*
X62347010Y-76138294D01*
X62295499Y-76149500D01*
X27945362Y-76149500D01*
X27921106Y-76147104D01*
X27895545Y-76142005D01*
X27863557Y-76135624D01*
X27831533Y-76124511D01*
X27819128Y-76118192D01*
X27806529Y-76110809D01*
X27765603Y-76083468D01*
X27746815Y-76068052D01*
X27734795Y-76056035D01*
X27719374Y-76037251D01*
X27692018Y-75996322D01*
X27684637Y-75983731D01*
X27678343Y-75971382D01*
X27667208Y-75939289D01*
X27652887Y-75867366D01*
X27650500Y-75843151D01*
X27650500Y-73660000D01*
X28884341Y-73660000D01*
X28904936Y-73895403D01*
X28904938Y-73895413D01*
X28966094Y-74123655D01*
X28966096Y-74123659D01*
X28966097Y-74123663D01*
X29016031Y-74230746D01*
X29065964Y-74337828D01*
X29065965Y-74337830D01*
X29201505Y-74531402D01*
X29368597Y-74698494D01*
X29562169Y-74834034D01*
X29562171Y-74834035D01*
X29776337Y-74933903D01*
X30004592Y-74995063D01*
X30181032Y-75010499D01*
X30181033Y-75010500D01*
X30181034Y-75010500D01*
X30298967Y-75010500D01*
X30298967Y-75010499D01*
X30475408Y-74995063D01*
X30703663Y-74933903D01*
X30917829Y-74834035D01*
X31111401Y-74698495D01*
X31278495Y-74531401D01*
X31414035Y-74337830D01*
X31513903Y-74123663D01*
X31575063Y-73895408D01*
X31595659Y-73660000D01*
X31591784Y-73615713D01*
X34070000Y-73615713D01*
X34085418Y-73767338D01*
X34146299Y-73961381D01*
X34146304Y-73961391D01*
X34245005Y-74139215D01*
X34245005Y-74139216D01*
X34377478Y-74293530D01*
X34377479Y-74293531D01*
X34538304Y-74418018D01*
X34720907Y-74507589D01*
X34820000Y-74533244D01*
X34820000Y-73731110D01*
X34844457Y-73770610D01*
X34933962Y-73838201D01*
X35041840Y-73868895D01*
X35153521Y-73858546D01*
X35253922Y-73808552D01*
X35320000Y-73736069D01*
X35320000Y-74538366D01*
X35321944Y-74538069D01*
X35321945Y-74538069D01*
X35512660Y-74467436D01*
X35512664Y-74467434D01*
X35685267Y-74359850D01*
X35832668Y-74219735D01*
X35832669Y-74219733D01*
X35948856Y-74052804D01*
X36029059Y-73865907D01*
X36070000Y-73666690D01*
X36070000Y-73615713D01*
X42710000Y-73615713D01*
X42725418Y-73767338D01*
X42786299Y-73961381D01*
X42786304Y-73961391D01*
X42885005Y-74139215D01*
X42885005Y-74139216D01*
X43017478Y-74293530D01*
X43017479Y-74293531D01*
X43178304Y-74418018D01*
X43360907Y-74507589D01*
X43460000Y-74533244D01*
X43460000Y-73731110D01*
X43484457Y-73770610D01*
X43573962Y-73838201D01*
X43681840Y-73868895D01*
X43793521Y-73858546D01*
X43893922Y-73808552D01*
X43960000Y-73736069D01*
X43960000Y-74538365D01*
X43961944Y-74538069D01*
X43961945Y-74538069D01*
X44152660Y-74467436D01*
X44152664Y-74467434D01*
X44325267Y-74359850D01*
X44472668Y-74219735D01*
X44472669Y-74219733D01*
X44588856Y-74052804D01*
X44669059Y-73865907D01*
X44710000Y-73666690D01*
X44710000Y-73515000D01*
X44010000Y-73515000D01*
X44010000Y-73015000D01*
X44710000Y-73015000D01*
X44710000Y-72914286D01*
X44694581Y-72762661D01*
X44633700Y-72568618D01*
X44633695Y-72568608D01*
X44534994Y-72390784D01*
X44534994Y-72390783D01*
X44402521Y-72236469D01*
X44402520Y-72236468D01*
X44241695Y-72111981D01*
X44059093Y-72022411D01*
X43960000Y-71996753D01*
X43960000Y-72798889D01*
X43935543Y-72759390D01*
X43846038Y-72691799D01*
X43738160Y-72661105D01*
X43626479Y-72671454D01*
X43526078Y-72721448D01*
X43460000Y-72793930D01*
X43460000Y-71991633D01*
X43458053Y-71991931D01*
X43458047Y-71991933D01*
X43267342Y-72062562D01*
X43267335Y-72062565D01*
X43094732Y-72170149D01*
X42947331Y-72310264D01*
X42947330Y-72310266D01*
X42831143Y-72477195D01*
X42750940Y-72664092D01*
X42710000Y-72863309D01*
X42710000Y-73015000D01*
X43410000Y-73015000D01*
X43410000Y-73515000D01*
X42710000Y-73515000D01*
X42710000Y-73615713D01*
X36070000Y-73615713D01*
X36070000Y-73515000D01*
X35370000Y-73515000D01*
X35370000Y-73015000D01*
X36070000Y-73015000D01*
X36070000Y-72914286D01*
X36054581Y-72762661D01*
X35993700Y-72568618D01*
X35993695Y-72568608D01*
X35894994Y-72390784D01*
X35894994Y-72390783D01*
X35762521Y-72236469D01*
X35762520Y-72236468D01*
X35601695Y-72111981D01*
X35419093Y-72022411D01*
X35320000Y-71996753D01*
X35320000Y-72798889D01*
X35295543Y-72759390D01*
X35206038Y-72691799D01*
X35098160Y-72661105D01*
X34986479Y-72671454D01*
X34886078Y-72721448D01*
X34820000Y-72793930D01*
X34820000Y-71991633D01*
X34818053Y-71991931D01*
X34818047Y-71991933D01*
X34627342Y-72062562D01*
X34627335Y-72062565D01*
X34454732Y-72170149D01*
X34307331Y-72310264D01*
X34307330Y-72310266D01*
X34191143Y-72477195D01*
X34110940Y-72664092D01*
X34070000Y-72863309D01*
X34070000Y-73015000D01*
X34770000Y-73015000D01*
X34770000Y-73515000D01*
X34070000Y-73515000D01*
X34070000Y-73615713D01*
X31591784Y-73615713D01*
X31575063Y-73424592D01*
X31513903Y-73196337D01*
X31414035Y-72982171D01*
X31414034Y-72982169D01*
X31278494Y-72788597D01*
X31111402Y-72621505D01*
X30917830Y-72485965D01*
X30917828Y-72485964D01*
X30810746Y-72436031D01*
X30703663Y-72386097D01*
X30703659Y-72386096D01*
X30703655Y-72386094D01*
X30475413Y-72324938D01*
X30475403Y-72324936D01*
X30298967Y-72309500D01*
X30298966Y-72309500D01*
X30181034Y-72309500D01*
X30181033Y-72309500D01*
X30004596Y-72324936D01*
X30004586Y-72324938D01*
X29776344Y-72386094D01*
X29776335Y-72386098D01*
X29562171Y-72485964D01*
X29562169Y-72485965D01*
X29368597Y-72621505D01*
X29201506Y-72788597D01*
X29201501Y-72788604D01*
X29065967Y-72982165D01*
X29065965Y-72982169D01*
X28966098Y-73196335D01*
X28966094Y-73196344D01*
X28904938Y-73424586D01*
X28904936Y-73424596D01*
X28884341Y-73659999D01*
X28884341Y-73660000D01*
X27650500Y-73660000D01*
X27650500Y-69685713D01*
X34070000Y-69685713D01*
X34085418Y-69837338D01*
X34146299Y-70031381D01*
X34146304Y-70031391D01*
X34245005Y-70209215D01*
X34245005Y-70209216D01*
X34377478Y-70363530D01*
X34377479Y-70363531D01*
X34538304Y-70488018D01*
X34720907Y-70577589D01*
X34820000Y-70603244D01*
X34820000Y-69801110D01*
X34844457Y-69840610D01*
X34933962Y-69908201D01*
X35041840Y-69938895D01*
X35153521Y-69928546D01*
X35253922Y-69878552D01*
X35320000Y-69806069D01*
X35320000Y-70608365D01*
X35321944Y-70608069D01*
X35321945Y-70608069D01*
X35512660Y-70537436D01*
X35512664Y-70537434D01*
X35685267Y-70429850D01*
X35832668Y-70289735D01*
X35832669Y-70289733D01*
X35948855Y-70122806D01*
X35952234Y-70114931D01*
X35996758Y-70061084D01*
X36063325Y-70039857D01*
X36130801Y-70057988D01*
X36141663Y-70065440D01*
X36209767Y-70117698D01*
X36349764Y-70175687D01*
X36462280Y-70190500D01*
X36462287Y-70190500D01*
X36537713Y-70190500D01*
X36537720Y-70190500D01*
X36650236Y-70175687D01*
X36790233Y-70117698D01*
X36910451Y-70025451D01*
X37002698Y-69905233D01*
X37060687Y-69765236D01*
X37080466Y-69615000D01*
X41699534Y-69615000D01*
X41719312Y-69765234D01*
X41719313Y-69765236D01*
X41777302Y-69905233D01*
X41869549Y-70025451D01*
X41989767Y-70117698D01*
X42129764Y-70175687D01*
X42242280Y-70190500D01*
X42242287Y-70190500D01*
X42317713Y-70190500D01*
X42317720Y-70190500D01*
X42430236Y-70175687D01*
X42570233Y-70117698D01*
X42641256Y-70063199D01*
X42706425Y-70038006D01*
X42774869Y-70052044D01*
X42824859Y-70100858D01*
X42825161Y-70101398D01*
X42885005Y-70209215D01*
X42885005Y-70209216D01*
X43017478Y-70363530D01*
X43017479Y-70363531D01*
X43178304Y-70488018D01*
X43360907Y-70577589D01*
X43460000Y-70603244D01*
X43460000Y-69801110D01*
X43484457Y-69840610D01*
X43573962Y-69908201D01*
X43681840Y-69938895D01*
X43793521Y-69928546D01*
X43893922Y-69878552D01*
X43960000Y-69806069D01*
X43960000Y-70608366D01*
X43961944Y-70608069D01*
X43961945Y-70608069D01*
X44152660Y-70537436D01*
X44152664Y-70537434D01*
X44325267Y-70429850D01*
X44472668Y-70289735D01*
X44472669Y-70289733D01*
X44588856Y-70122804D01*
X44669059Y-69935907D01*
X44710000Y-69736690D01*
X44710000Y-69335000D01*
X44010000Y-69335000D01*
X44010000Y-68835000D01*
X44710000Y-68835000D01*
X44710000Y-68484286D01*
X44694581Y-68332661D01*
X44633700Y-68138618D01*
X44633695Y-68138608D01*
X44534994Y-67960784D01*
X44534994Y-67960783D01*
X44402521Y-67806469D01*
X44402520Y-67806468D01*
X44241695Y-67681981D01*
X44059093Y-67592411D01*
X43960000Y-67566753D01*
X43960000Y-68368889D01*
X43935543Y-68329390D01*
X43846038Y-68261799D01*
X43738160Y-68231105D01*
X43626479Y-68241454D01*
X43526078Y-68291448D01*
X43460000Y-68363930D01*
X43460000Y-67561633D01*
X43458053Y-67561931D01*
X43458047Y-67561933D01*
X43267342Y-67632562D01*
X43267335Y-67632565D01*
X43094732Y-67740149D01*
X42947331Y-67880264D01*
X42947330Y-67880266D01*
X42831143Y-68047195D01*
X42750940Y-68234092D01*
X42710000Y-68433309D01*
X42710000Y-68984615D01*
X42690315Y-69051654D01*
X42637511Y-69097409D01*
X42568353Y-69107353D01*
X42538548Y-69099176D01*
X42430239Y-69054314D01*
X42430237Y-69054313D01*
X42430236Y-69054313D01*
X42410039Y-69051654D01*
X42317727Y-69039500D01*
X42317720Y-69039500D01*
X42242280Y-69039500D01*
X42242272Y-69039500D01*
X42129764Y-69054313D01*
X42129763Y-69054313D01*
X41989770Y-69112300D01*
X41869549Y-69204549D01*
X41777300Y-69324770D01*
X41719313Y-69464763D01*
X41719312Y-69464765D01*
X41699534Y-69614999D01*
X41699534Y-69615000D01*
X37080466Y-69615000D01*
X37060687Y-69464764D01*
X37002698Y-69324767D01*
X36910451Y-69204549D01*
X36790233Y-69112302D01*
X36790229Y-69112300D01*
X36701069Y-69075369D01*
X36650236Y-69054313D01*
X36630039Y-69051654D01*
X36537727Y-69039500D01*
X36537720Y-69039500D01*
X36462280Y-69039500D01*
X36462272Y-69039500D01*
X36349764Y-69054313D01*
X36349760Y-69054314D01*
X36241452Y-69099176D01*
X36171982Y-69106645D01*
X36109503Y-69075369D01*
X36073852Y-69015280D01*
X36070000Y-68984615D01*
X36070000Y-68484286D01*
X36054581Y-68332661D01*
X35993700Y-68138618D01*
X35993695Y-68138608D01*
X35894994Y-67960784D01*
X35894994Y-67960783D01*
X35762521Y-67806469D01*
X35762520Y-67806468D01*
X35601695Y-67681981D01*
X35419093Y-67592411D01*
X35320000Y-67566753D01*
X35320000Y-68368889D01*
X35295543Y-68329390D01*
X35206038Y-68261799D01*
X35098160Y-68231105D01*
X34986479Y-68241454D01*
X34886078Y-68291448D01*
X34820000Y-68363930D01*
X34820000Y-67561633D01*
X34818053Y-67561931D01*
X34818047Y-67561933D01*
X34627342Y-67632562D01*
X34627335Y-67632565D01*
X34454732Y-67740149D01*
X34307331Y-67880264D01*
X34307330Y-67880266D01*
X34191143Y-68047195D01*
X34110940Y-68234092D01*
X34070000Y-68433309D01*
X34070000Y-68835000D01*
X34770000Y-68835000D01*
X34770000Y-69335000D01*
X34070000Y-69335000D01*
X34070000Y-69685713D01*
X27650500Y-69685713D01*
X27650500Y-60690003D01*
X43594435Y-60690003D01*
X43614630Y-60869249D01*
X43614631Y-60869254D01*
X43674211Y-61039523D01*
X43770184Y-61192262D01*
X43897738Y-61319816D01*
X44050478Y-61415789D01*
X44220745Y-61475368D01*
X44220750Y-61475369D01*
X44399996Y-61495565D01*
X44400000Y-61495565D01*
X44400004Y-61495565D01*
X44579249Y-61475369D01*
X44579252Y-61475368D01*
X44579255Y-61475368D01*
X44749522Y-61415789D01*
X44902262Y-61319816D01*
X45029816Y-61192262D01*
X45125789Y-61039522D01*
X45185368Y-60869255D01*
X45185369Y-60869249D01*
X45205565Y-60690003D01*
X45205565Y-60689996D01*
X45185369Y-60510750D01*
X45185368Y-60510745D01*
X45141497Y-60385369D01*
X45125789Y-60340478D01*
X45029816Y-60187738D01*
X44992078Y-60150000D01*
X51144540Y-60150000D01*
X51164326Y-60338256D01*
X51164327Y-60338259D01*
X51222818Y-60518277D01*
X51222821Y-60518284D01*
X51317467Y-60682216D01*
X51444129Y-60822888D01*
X51597265Y-60934148D01*
X51597270Y-60934151D01*
X51770192Y-61011142D01*
X51770197Y-61011144D01*
X51955354Y-61050500D01*
X51955355Y-61050500D01*
X52144644Y-61050500D01*
X52144646Y-61050500D01*
X52329803Y-61011144D01*
X52502730Y-60934151D01*
X52655871Y-60822888D01*
X52782533Y-60682216D01*
X52877179Y-60518284D01*
X52935674Y-60338256D01*
X52955460Y-60150000D01*
X52935674Y-59961744D01*
X52877179Y-59781716D01*
X52782533Y-59617784D01*
X52655871Y-59477112D01*
X52655870Y-59477111D01*
X52632323Y-59460003D01*
X67004435Y-59460003D01*
X67024630Y-59639249D01*
X67024631Y-59639254D01*
X67084211Y-59809523D01*
X67179856Y-59961740D01*
X67180184Y-59962262D01*
X67307738Y-60089816D01*
X67460478Y-60185789D01*
X67586297Y-60229815D01*
X67630745Y-60245368D01*
X67630750Y-60245369D01*
X67809996Y-60265565D01*
X67810000Y-60265565D01*
X67810004Y-60265565D01*
X67989249Y-60245369D01*
X67989252Y-60245368D01*
X67989255Y-60245368D01*
X68159522Y-60185789D01*
X68159525Y-60185786D01*
X68164062Y-60183602D01*
X68233002Y-60172242D01*
X68297140Y-60199957D01*
X68305557Y-60207635D01*
X68327738Y-60229816D01*
X68480478Y-60325789D01*
X68522457Y-60340478D01*
X68650745Y-60385368D01*
X68650750Y-60385369D01*
X68829996Y-60405565D01*
X68830000Y-60405565D01*
X68830004Y-60405565D01*
X69009249Y-60385369D01*
X69009252Y-60385368D01*
X69009255Y-60385368D01*
X69179522Y-60325789D01*
X69332262Y-60229816D01*
X69459816Y-60102262D01*
X69555789Y-59949522D01*
X69615368Y-59779255D01*
X69631142Y-59639255D01*
X69635565Y-59600003D01*
X69635565Y-59599996D01*
X69615369Y-59420750D01*
X69615368Y-59420745D01*
X69569218Y-59288856D01*
X69555789Y-59250478D01*
X69555174Y-59249500D01*
X69459815Y-59097737D01*
X69332262Y-58970184D01*
X69179523Y-58874211D01*
X69009254Y-58814631D01*
X69009249Y-58814630D01*
X68830004Y-58794435D01*
X68829996Y-58794435D01*
X68650750Y-58814630D01*
X68650737Y-58814633D01*
X68480476Y-58874210D01*
X68475920Y-58876405D01*
X68406979Y-58887755D01*
X68342845Y-58860030D01*
X68334442Y-58852364D01*
X68312262Y-58830184D01*
X68159523Y-58734211D01*
X67989254Y-58674631D01*
X67989249Y-58674630D01*
X67810004Y-58654435D01*
X67809996Y-58654435D01*
X67630750Y-58674630D01*
X67630745Y-58674631D01*
X67460476Y-58734211D01*
X67307737Y-58830184D01*
X67180184Y-58957737D01*
X67084211Y-59110476D01*
X67024631Y-59280745D01*
X67024630Y-59280750D01*
X67004435Y-59459996D01*
X67004435Y-59460003D01*
X52632323Y-59460003D01*
X52502734Y-59365851D01*
X52502729Y-59365848D01*
X52329807Y-59288857D01*
X52329802Y-59288855D01*
X52184001Y-59257865D01*
X52144646Y-59249500D01*
X51955354Y-59249500D01*
X51922897Y-59256398D01*
X51770197Y-59288855D01*
X51770192Y-59288857D01*
X51597270Y-59365848D01*
X51597265Y-59365851D01*
X51444129Y-59477111D01*
X51317466Y-59617785D01*
X51222821Y-59781715D01*
X51222818Y-59781722D01*
X51168297Y-59949522D01*
X51164326Y-59961744D01*
X51144540Y-60150000D01*
X44992078Y-60150000D01*
X44902262Y-60060184D01*
X44749523Y-59964211D01*
X44579254Y-59904631D01*
X44579249Y-59904630D01*
X44400004Y-59884435D01*
X44399996Y-59884435D01*
X44220750Y-59904630D01*
X44220745Y-59904631D01*
X44050476Y-59964211D01*
X43897737Y-60060184D01*
X43770184Y-60187737D01*
X43674211Y-60340476D01*
X43614631Y-60510745D01*
X43614630Y-60510750D01*
X43594435Y-60689996D01*
X43594435Y-60690003D01*
X27650500Y-60690003D01*
X27650500Y-57090003D01*
X44054435Y-57090003D01*
X44074630Y-57269249D01*
X44074631Y-57269254D01*
X44134211Y-57439523D01*
X44223561Y-57581722D01*
X44230184Y-57592262D01*
X44357738Y-57719816D01*
X44510478Y-57815789D01*
X44629741Y-57857521D01*
X44680745Y-57875368D01*
X44680750Y-57875369D01*
X44859996Y-57895565D01*
X44860000Y-57895565D01*
X44860004Y-57895565D01*
X45039249Y-57875369D01*
X45039252Y-57875368D01*
X45039255Y-57875368D01*
X45209522Y-57815789D01*
X45362262Y-57719816D01*
X45489816Y-57592262D01*
X45585789Y-57439522D01*
X45615273Y-57355262D01*
X64299363Y-57355262D01*
X64319558Y-57534508D01*
X64319559Y-57534513D01*
X64379139Y-57704782D01*
X64414931Y-57761744D01*
X64475112Y-57857521D01*
X64602666Y-57985075D01*
X64755406Y-58081048D01*
X64856631Y-58116468D01*
X64925673Y-58140627D01*
X64925678Y-58140628D01*
X65010646Y-58150201D01*
X65075061Y-58177267D01*
X65101757Y-58207448D01*
X65180182Y-58332260D01*
X65180184Y-58332262D01*
X65307738Y-58459816D01*
X65460478Y-58555789D01*
X65630745Y-58615368D01*
X65630750Y-58615369D01*
X65809996Y-58635565D01*
X65810000Y-58635565D01*
X65810004Y-58635565D01*
X65989249Y-58615369D01*
X65989252Y-58615368D01*
X65989255Y-58615368D01*
X66159522Y-58555789D01*
X66312262Y-58459816D01*
X66439816Y-58332262D01*
X66439819Y-58332256D01*
X66444159Y-58326816D01*
X66445633Y-58327992D01*
X66490903Y-58287941D01*
X66559955Y-58277285D01*
X66603994Y-58293198D01*
X66604202Y-58292767D01*
X66608415Y-58294796D01*
X66609550Y-58295206D01*
X66610478Y-58295789D01*
X66610481Y-58295790D01*
X66780737Y-58355366D01*
X66780743Y-58355367D01*
X66780745Y-58355368D01*
X66780746Y-58355368D01*
X66780750Y-58355369D01*
X66959996Y-58375565D01*
X66960000Y-58375565D01*
X66960004Y-58375565D01*
X67139249Y-58355369D01*
X67139252Y-58355368D01*
X67139255Y-58355368D01*
X67309522Y-58295789D01*
X67462262Y-58199816D01*
X67545610Y-58116468D01*
X67606933Y-58082983D01*
X67674246Y-58087108D01*
X67840737Y-58145366D01*
X67840743Y-58145367D01*
X67840745Y-58145368D01*
X67840746Y-58145368D01*
X67840750Y-58145369D01*
X68019996Y-58165565D01*
X68020000Y-58165565D01*
X68020004Y-58165565D01*
X68199249Y-58145369D01*
X68199252Y-58145368D01*
X68199255Y-58145368D01*
X68369522Y-58085789D01*
X68522262Y-57989816D01*
X68562078Y-57950000D01*
X71964540Y-57950000D01*
X71984326Y-58138256D01*
X71984327Y-58138259D01*
X72042818Y-58318277D01*
X72042821Y-58318284D01*
X72137467Y-58482216D01*
X72203712Y-58555788D01*
X72264129Y-58622888D01*
X72417265Y-58734148D01*
X72417270Y-58734151D01*
X72590192Y-58811142D01*
X72590197Y-58811144D01*
X72775354Y-58850500D01*
X72775355Y-58850500D01*
X72964644Y-58850500D01*
X72964646Y-58850500D01*
X73149803Y-58811144D01*
X73322730Y-58734151D01*
X73475871Y-58622888D01*
X73602533Y-58482216D01*
X73697179Y-58318284D01*
X73755674Y-58138256D01*
X73775460Y-57950000D01*
X73755674Y-57761744D01*
X73697179Y-57581716D01*
X73602533Y-57417784D01*
X73475871Y-57277112D01*
X73465057Y-57269255D01*
X73322734Y-57165851D01*
X73322729Y-57165848D01*
X73149807Y-57088857D01*
X73149802Y-57088855D01*
X73004001Y-57057865D01*
X72964646Y-57049500D01*
X72775354Y-57049500D01*
X72742897Y-57056398D01*
X72590197Y-57088855D01*
X72590192Y-57088857D01*
X72417270Y-57165848D01*
X72417265Y-57165851D01*
X72264129Y-57277111D01*
X72137466Y-57417785D01*
X72042821Y-57581715D01*
X72042818Y-57581722D01*
X71997949Y-57719816D01*
X71984326Y-57761744D01*
X71964540Y-57950000D01*
X68562078Y-57950000D01*
X68649816Y-57862262D01*
X68745789Y-57709522D01*
X68805368Y-57539255D01*
X68805369Y-57539249D01*
X68825565Y-57360003D01*
X68825565Y-57359996D01*
X68805369Y-57180750D01*
X68805368Y-57180745D01*
X68778792Y-57104795D01*
X68745789Y-57010478D01*
X68649816Y-56857738D01*
X68522262Y-56730184D01*
X68514717Y-56725443D01*
X68369523Y-56634211D01*
X68199254Y-56574631D01*
X68199249Y-56574630D01*
X68020004Y-56554435D01*
X68019996Y-56554435D01*
X67840750Y-56574630D01*
X67840745Y-56574631D01*
X67670476Y-56634211D01*
X67517737Y-56730184D01*
X67517736Y-56730185D01*
X67434388Y-56813532D01*
X67373065Y-56847017D01*
X67305753Y-56842892D01*
X67139254Y-56784631D01*
X67139249Y-56784630D01*
X66960004Y-56764435D01*
X66959996Y-56764435D01*
X66780750Y-56784630D01*
X66780745Y-56784631D01*
X66610476Y-56844211D01*
X66457737Y-56940184D01*
X66330182Y-57067739D01*
X66325837Y-57073188D01*
X66324367Y-57072016D01*
X66279054Y-57112077D01*
X66209998Y-57122708D01*
X66166000Y-57106801D01*
X66165794Y-57107231D01*
X66161590Y-57105206D01*
X66160452Y-57104795D01*
X66159523Y-57104211D01*
X65989249Y-57044630D01*
X65904277Y-57035056D01*
X65839864Y-57007989D01*
X65813168Y-56977808D01*
X65789527Y-56940184D01*
X65734744Y-56852997D01*
X65607190Y-56725443D01*
X65454451Y-56629470D01*
X65284182Y-56569890D01*
X65284177Y-56569889D01*
X65104932Y-56549694D01*
X65104924Y-56549694D01*
X64925678Y-56569889D01*
X64925673Y-56569890D01*
X64755404Y-56629470D01*
X64602665Y-56725443D01*
X64475112Y-56852996D01*
X64379139Y-57005735D01*
X64319559Y-57176004D01*
X64319558Y-57176009D01*
X64299363Y-57355255D01*
X64299363Y-57355262D01*
X45615273Y-57355262D01*
X45645368Y-57269255D01*
X45655341Y-57180745D01*
X45665565Y-57090003D01*
X45665565Y-57089996D01*
X45645369Y-56910750D01*
X45645368Y-56910745D01*
X45625161Y-56852996D01*
X45585789Y-56740478D01*
X45579321Y-56730185D01*
X45489815Y-56587737D01*
X45362262Y-56460184D01*
X45209523Y-56364211D01*
X45039254Y-56304631D01*
X45039249Y-56304630D01*
X44860004Y-56284435D01*
X44859996Y-56284435D01*
X44680750Y-56304630D01*
X44680745Y-56304631D01*
X44510476Y-56364211D01*
X44357737Y-56460184D01*
X44230184Y-56587737D01*
X44134211Y-56740476D01*
X44074631Y-56910745D01*
X44074630Y-56910750D01*
X44054435Y-57089996D01*
X44054435Y-57090003D01*
X27650500Y-57090003D01*
X27650500Y-54540000D01*
X28794341Y-54540000D01*
X28814936Y-54775403D01*
X28814938Y-54775413D01*
X28876094Y-55003655D01*
X28876096Y-55003659D01*
X28876097Y-55003663D01*
X28975965Y-55217830D01*
X28975967Y-55217834D01*
X29084281Y-55372521D01*
X29111505Y-55411401D01*
X29278599Y-55578495D01*
X29375384Y-55646265D01*
X29472165Y-55714032D01*
X29472167Y-55714033D01*
X29472170Y-55714035D01*
X29686337Y-55813903D01*
X29914592Y-55875063D01*
X30102918Y-55891539D01*
X30149999Y-55895659D01*
X30150000Y-55895659D01*
X30150001Y-55895659D01*
X30189234Y-55892226D01*
X30385408Y-55875063D01*
X30613663Y-55813903D01*
X30827830Y-55714035D01*
X31021401Y-55578495D01*
X31188495Y-55411401D01*
X31324035Y-55217830D01*
X31423903Y-55003663D01*
X31485063Y-54775408D01*
X31505659Y-54540000D01*
X31485063Y-54304592D01*
X31423903Y-54076337D01*
X31324035Y-53862171D01*
X31272815Y-53789020D01*
X31188494Y-53668597D01*
X31021402Y-53501506D01*
X31021396Y-53501501D01*
X30835842Y-53371575D01*
X30795489Y-53321091D01*
X35115446Y-53321091D01*
X35135950Y-53489960D01*
X35135951Y-53489965D01*
X35196273Y-53649022D01*
X35230947Y-53699255D01*
X35292908Y-53789020D01*
X35398596Y-53882651D01*
X35420241Y-53901827D01*
X35559308Y-53974815D01*
X35570866Y-53980881D01*
X35736035Y-54021591D01*
X35906147Y-54021591D01*
X36071316Y-53980881D01*
X36150783Y-53939172D01*
X36221940Y-53901827D01*
X36221941Y-53901825D01*
X36221943Y-53901825D01*
X36349274Y-53789020D01*
X36445909Y-53649021D01*
X36494838Y-53520003D01*
X50684435Y-53520003D01*
X50704630Y-53699249D01*
X50704631Y-53699254D01*
X50764211Y-53869523D01*
X50859762Y-54021591D01*
X50860184Y-54022262D01*
X50987738Y-54149816D01*
X51078080Y-54206582D01*
X51138036Y-54244255D01*
X51140478Y-54245789D01*
X51308510Y-54304586D01*
X51310745Y-54305368D01*
X51310750Y-54305369D01*
X51489996Y-54325565D01*
X51490000Y-54325565D01*
X51490004Y-54325565D01*
X51669249Y-54305369D01*
X51669252Y-54305368D01*
X51669255Y-54305368D01*
X51839522Y-54245789D01*
X51992262Y-54149816D01*
X52077075Y-54065003D01*
X65819435Y-54065003D01*
X65839630Y-54244249D01*
X65839631Y-54244254D01*
X65899211Y-54414523D01*
X65978054Y-54540000D01*
X65995184Y-54567262D01*
X66122738Y-54694816D01*
X66275478Y-54790789D01*
X66445745Y-54850368D01*
X66445750Y-54850369D01*
X66624996Y-54870565D01*
X66625000Y-54870565D01*
X66625004Y-54870565D01*
X66804249Y-54850369D01*
X66804252Y-54850368D01*
X66804255Y-54850368D01*
X66974522Y-54790789D01*
X67127262Y-54694816D01*
X67254816Y-54567262D01*
X67350789Y-54414522D01*
X67410368Y-54244255D01*
X67410369Y-54244249D01*
X67430565Y-54065003D01*
X67430565Y-54064996D01*
X67410369Y-53885750D01*
X67410368Y-53885745D01*
X67350788Y-53715476D01*
X67309031Y-53649021D01*
X67254816Y-53562738D01*
X67251548Y-53559470D01*
X67218063Y-53498147D01*
X67223047Y-53428455D01*
X67253620Y-53383908D01*
X67253209Y-53383544D01*
X67256145Y-53380229D01*
X67257012Y-53378965D01*
X67258183Y-53377929D01*
X67280910Y-53345003D01*
X72114435Y-53345003D01*
X72134630Y-53524249D01*
X72134631Y-53524254D01*
X72194211Y-53694523D01*
X72253587Y-53789018D01*
X72290184Y-53847262D01*
X72417738Y-53974816D01*
X72492180Y-54021591D01*
X72561269Y-54065003D01*
X72570478Y-54070789D01*
X72740745Y-54130368D01*
X72740750Y-54130369D01*
X72919996Y-54150565D01*
X72920000Y-54150565D01*
X72920004Y-54150565D01*
X73099249Y-54130369D01*
X73099252Y-54130368D01*
X73099255Y-54130368D01*
X73269522Y-54070789D01*
X73422262Y-53974816D01*
X73549816Y-53847262D01*
X73645789Y-53694522D01*
X73705368Y-53524255D01*
X73705847Y-53520003D01*
X73725565Y-53345003D01*
X73725565Y-53344996D01*
X73705369Y-53165750D01*
X73705368Y-53165745D01*
X73700634Y-53152216D01*
X73645789Y-52995478D01*
X73549816Y-52842738D01*
X73422262Y-52715184D01*
X73336508Y-52661301D01*
X73269523Y-52619211D01*
X73099254Y-52559631D01*
X73099249Y-52559630D01*
X72920004Y-52539435D01*
X72919996Y-52539435D01*
X72740750Y-52559630D01*
X72740745Y-52559631D01*
X72570476Y-52619211D01*
X72417737Y-52715184D01*
X72290184Y-52842737D01*
X72194211Y-52995476D01*
X72134631Y-53165745D01*
X72134630Y-53165750D01*
X72114435Y-53344996D01*
X72114435Y-53345003D01*
X67280910Y-53345003D01*
X67354818Y-53237930D01*
X67415140Y-53078872D01*
X67435645Y-52910000D01*
X67415140Y-52741128D01*
X67414846Y-52740354D01*
X67369427Y-52620591D01*
X67354818Y-52582070D01*
X67339329Y-52559631D01*
X67320476Y-52532318D01*
X67258183Y-52442071D01*
X67130852Y-52329266D01*
X67130849Y-52329263D01*
X66980226Y-52250210D01*
X66815056Y-52209500D01*
X66644944Y-52209500D01*
X66479773Y-52250210D01*
X66329150Y-52329263D01*
X66201816Y-52442072D01*
X66105182Y-52582068D01*
X66044860Y-52741125D01*
X66044859Y-52741130D01*
X66024355Y-52910000D01*
X66044859Y-53078869D01*
X66044860Y-53078874D01*
X66105182Y-53237931D01*
X66105183Y-53237933D01*
X66134199Y-53279968D01*
X66156083Y-53346322D01*
X66138618Y-53413974D01*
X66119832Y-53438090D01*
X65995183Y-53562739D01*
X65899211Y-53715476D01*
X65839631Y-53885745D01*
X65839630Y-53885750D01*
X65819435Y-54064996D01*
X65819435Y-54065003D01*
X52077075Y-54065003D01*
X52119816Y-54022262D01*
X52215789Y-53869522D01*
X52275368Y-53699255D01*
X52275901Y-53694523D01*
X52295565Y-53520003D01*
X52295565Y-53519996D01*
X52275369Y-53340750D01*
X52275368Y-53340745D01*
X52242740Y-53247500D01*
X52215789Y-53170478D01*
X52204317Y-53152221D01*
X52132860Y-53038498D01*
X52119816Y-53017738D01*
X51992262Y-52890184D01*
X51962360Y-52871395D01*
X51839523Y-52794211D01*
X51669254Y-52734631D01*
X51669249Y-52734630D01*
X51490004Y-52714435D01*
X51489996Y-52714435D01*
X51310750Y-52734630D01*
X51310745Y-52734631D01*
X51140476Y-52794211D01*
X50987737Y-52890184D01*
X50860184Y-53017737D01*
X50764211Y-53170476D01*
X50704631Y-53340745D01*
X50704630Y-53340750D01*
X50684435Y-53519996D01*
X50684435Y-53520003D01*
X36494838Y-53520003D01*
X36506231Y-53489963D01*
X36526736Y-53321091D01*
X36506231Y-53152219D01*
X36445909Y-52993161D01*
X36349274Y-52853162D01*
X36222816Y-52741130D01*
X36221940Y-52740354D01*
X36071317Y-52661301D01*
X35906147Y-52620591D01*
X35736035Y-52620591D01*
X35570864Y-52661301D01*
X35420241Y-52740354D01*
X35292907Y-52853163D01*
X35196273Y-52993159D01*
X35135951Y-53152216D01*
X35135950Y-53152221D01*
X35115446Y-53321091D01*
X30795489Y-53321091D01*
X30792217Y-53316998D01*
X30785023Y-53247500D01*
X30816546Y-53185145D01*
X30835842Y-53168425D01*
X30858991Y-53152216D01*
X31021401Y-53038495D01*
X31188495Y-52871401D01*
X31324035Y-52677830D01*
X31423903Y-52463663D01*
X31485063Y-52235408D01*
X31505659Y-52000000D01*
X31485063Y-51764592D01*
X31423903Y-51536337D01*
X31324035Y-51322171D01*
X31188495Y-51128599D01*
X31188494Y-51128597D01*
X31021402Y-50961506D01*
X31021396Y-50961501D01*
X30835842Y-50831575D01*
X30792217Y-50776998D01*
X30785023Y-50707500D01*
X30816546Y-50645145D01*
X30835842Y-50628425D01*
X30940966Y-50554816D01*
X31021401Y-50498495D01*
X31109896Y-50410000D01*
X67314355Y-50410000D01*
X67334859Y-50578869D01*
X67334860Y-50578874D01*
X67395182Y-50737931D01*
X67448280Y-50814855D01*
X67491817Y-50877929D01*
X67586151Y-50961501D01*
X67619150Y-50990736D01*
X67769773Y-51069789D01*
X67769775Y-51069790D01*
X67934944Y-51110500D01*
X68105056Y-51110500D01*
X68270225Y-51069790D01*
X68349692Y-51028081D01*
X68420849Y-50990736D01*
X68420850Y-50990734D01*
X68420852Y-50990734D01*
X68548183Y-50877929D01*
X68644818Y-50737930D01*
X68705140Y-50578872D01*
X68725645Y-50410000D01*
X68705140Y-50241128D01*
X68644818Y-50082070D01*
X68548183Y-49942071D01*
X68420852Y-49829266D01*
X68420849Y-49829263D01*
X68270226Y-49750210D01*
X68105056Y-49709500D01*
X67934944Y-49709500D01*
X67769773Y-49750210D01*
X67619150Y-49829263D01*
X67491816Y-49942072D01*
X67395182Y-50082068D01*
X67334860Y-50241125D01*
X67334859Y-50241130D01*
X67314355Y-50410000D01*
X31109896Y-50410000D01*
X31188495Y-50331401D01*
X31324035Y-50137830D01*
X31423903Y-49923663D01*
X31485063Y-49695408D01*
X31505659Y-49460000D01*
X31485063Y-49224592D01*
X31423903Y-48996337D01*
X31392969Y-48930000D01*
X71284355Y-48930000D01*
X71304859Y-49098869D01*
X71304860Y-49098874D01*
X71365182Y-49257931D01*
X71415856Y-49331344D01*
X71461817Y-49397929D01*
X71567505Y-49491560D01*
X71589150Y-49510736D01*
X71712502Y-49575476D01*
X71739775Y-49589790D01*
X71904944Y-49630500D01*
X72075056Y-49630500D01*
X72240225Y-49589790D01*
X72319692Y-49548081D01*
X72390849Y-49510736D01*
X72390850Y-49510734D01*
X72390852Y-49510734D01*
X72518183Y-49397929D01*
X72614818Y-49257930D01*
X72675140Y-49098872D01*
X72695645Y-48930000D01*
X72675140Y-48761128D01*
X72614818Y-48602070D01*
X72518183Y-48462071D01*
X72390852Y-48349266D01*
X72390849Y-48349263D01*
X72240226Y-48270210D01*
X72075056Y-48229500D01*
X71904944Y-48229500D01*
X71739773Y-48270210D01*
X71589150Y-48349263D01*
X71461816Y-48462072D01*
X71365182Y-48602068D01*
X71304860Y-48761125D01*
X71304859Y-48761130D01*
X71284355Y-48930000D01*
X31392969Y-48930000D01*
X31324035Y-48782171D01*
X31309299Y-48761125D01*
X31188494Y-48588597D01*
X31021402Y-48421506D01*
X31021396Y-48421501D01*
X30835842Y-48291575D01*
X30792217Y-48236998D01*
X30785023Y-48167500D01*
X30816546Y-48105145D01*
X30835842Y-48088425D01*
X30858026Y-48072891D01*
X31021401Y-47958495D01*
X31188495Y-47791401D01*
X31210480Y-47760003D01*
X51224435Y-47760003D01*
X51244630Y-47939249D01*
X51244631Y-47939254D01*
X51304211Y-48109523D01*
X51400184Y-48262262D01*
X51527738Y-48389816D01*
X51587236Y-48427201D01*
X51642732Y-48462072D01*
X51680478Y-48485789D01*
X51807700Y-48530306D01*
X51850745Y-48545368D01*
X51850750Y-48545369D01*
X52029996Y-48565565D01*
X52030000Y-48565565D01*
X52030004Y-48565565D01*
X52209249Y-48545369D01*
X52209252Y-48545368D01*
X52209255Y-48545368D01*
X52379522Y-48485789D01*
X52532262Y-48389816D01*
X52659816Y-48262262D01*
X52755789Y-48109522D01*
X52815368Y-47939255D01*
X52816981Y-47924939D01*
X52835565Y-47760003D01*
X52835565Y-47759996D01*
X52825732Y-47672722D01*
X55801716Y-47672722D01*
X55821911Y-47851968D01*
X55821912Y-47851973D01*
X55881492Y-48022242D01*
X55933584Y-48105145D01*
X55977465Y-48174981D01*
X56105019Y-48302535D01*
X56179386Y-48349263D01*
X56243925Y-48389816D01*
X56257759Y-48398508D01*
X56428026Y-48458087D01*
X56428031Y-48458088D01*
X56607277Y-48478284D01*
X56607281Y-48478284D01*
X56607285Y-48478284D01*
X56786530Y-48458088D01*
X56786533Y-48458087D01*
X56786536Y-48458087D01*
X56956803Y-48398508D01*
X57109543Y-48302535D01*
X57237097Y-48174981D01*
X57333070Y-48022241D01*
X57392649Y-47851974D01*
X57403012Y-47760000D01*
X57412846Y-47672722D01*
X57412846Y-47672715D01*
X57392650Y-47493469D01*
X57392649Y-47493464D01*
X57374692Y-47442147D01*
X57333070Y-47323197D01*
X57331177Y-47320185D01*
X57266121Y-47216649D01*
X57237097Y-47170457D01*
X57109543Y-47042903D01*
X57095710Y-47034211D01*
X56956804Y-46946930D01*
X56786535Y-46887350D01*
X56786530Y-46887349D01*
X56607285Y-46867154D01*
X56607277Y-46867154D01*
X56428031Y-46887349D01*
X56428026Y-46887350D01*
X56257757Y-46946930D01*
X56105018Y-47042903D01*
X55977465Y-47170456D01*
X55881492Y-47323195D01*
X55821912Y-47493464D01*
X55821911Y-47493469D01*
X55801716Y-47672715D01*
X55801716Y-47672722D01*
X52825732Y-47672722D01*
X52815369Y-47580750D01*
X52815368Y-47580745D01*
X52810267Y-47566168D01*
X52755789Y-47410478D01*
X52659816Y-47257738D01*
X52532262Y-47130184D01*
X52466518Y-47088874D01*
X52379523Y-47034211D01*
X52209254Y-46974631D01*
X52209249Y-46974630D01*
X52030004Y-46954435D01*
X52029996Y-46954435D01*
X51850750Y-46974630D01*
X51850745Y-46974631D01*
X51680476Y-47034211D01*
X51527737Y-47130184D01*
X51400184Y-47257737D01*
X51304211Y-47410476D01*
X51244631Y-47580745D01*
X51244630Y-47580750D01*
X51224435Y-47759996D01*
X51224435Y-47760003D01*
X31210480Y-47760003D01*
X31324035Y-47597830D01*
X31423903Y-47383663D01*
X31485063Y-47155408D01*
X31505659Y-46920000D01*
X36194355Y-46920000D01*
X36214859Y-47088869D01*
X36214860Y-47088874D01*
X36275182Y-47247931D01*
X36325056Y-47320185D01*
X36371817Y-47387929D01*
X36411040Y-47422677D01*
X36499150Y-47500736D01*
X36641437Y-47575414D01*
X36649775Y-47579790D01*
X36814944Y-47620500D01*
X36985056Y-47620500D01*
X37150225Y-47579790D01*
X37229692Y-47538081D01*
X37300849Y-47500736D01*
X37300850Y-47500734D01*
X37300852Y-47500734D01*
X37428183Y-47387929D01*
X37524818Y-47247930D01*
X37585140Y-47088872D01*
X37605645Y-46920000D01*
X37585140Y-46751128D01*
X37524818Y-46592070D01*
X37462376Y-46501608D01*
X71212311Y-46501608D01*
X71232815Y-46670477D01*
X71232816Y-46670482D01*
X71293138Y-46829539D01*
X71355431Y-46919785D01*
X71389773Y-46969537D01*
X71495461Y-47063168D01*
X71517106Y-47082344D01*
X71667729Y-47161397D01*
X71667731Y-47161398D01*
X71832900Y-47202108D01*
X72003012Y-47202108D01*
X72168181Y-47161398D01*
X72248060Y-47119474D01*
X72318805Y-47082344D01*
X72318806Y-47082342D01*
X72318808Y-47082342D01*
X72446139Y-46969537D01*
X72542774Y-46829538D01*
X72603096Y-46670480D01*
X72611654Y-46600000D01*
X73094355Y-46600000D01*
X73114859Y-46768869D01*
X73114860Y-46768874D01*
X73175182Y-46927931D01*
X73207418Y-46974632D01*
X73271817Y-47067929D01*
X73342089Y-47130184D01*
X73399150Y-47180736D01*
X73545863Y-47257737D01*
X73549775Y-47259790D01*
X73714944Y-47300500D01*
X73757652Y-47300500D01*
X73824691Y-47320185D01*
X73870446Y-47372989D01*
X73880390Y-47442147D01*
X73862645Y-47490473D01*
X73809271Y-47575414D01*
X73749691Y-47745684D01*
X73749690Y-47745689D01*
X73729495Y-47924935D01*
X73729495Y-47924942D01*
X73749690Y-48104188D01*
X73749691Y-48104193D01*
X73809271Y-48274462D01*
X73905244Y-48427201D01*
X73906785Y-48428742D01*
X73907462Y-48429982D01*
X73909585Y-48432644D01*
X73909118Y-48433015D01*
X73940270Y-48490065D01*
X73942324Y-48530306D01*
X73926224Y-48673206D01*
X73926224Y-48673214D01*
X73946420Y-48852464D01*
X73947970Y-48859255D01*
X73945740Y-48859763D01*
X73948738Y-48918733D01*
X73930193Y-48960321D01*
X73915184Y-48982066D01*
X73915183Y-48982067D01*
X73881211Y-49071643D01*
X73839032Y-49127346D01*
X73806224Y-49144713D01*
X73650477Y-49199211D01*
X73497737Y-49295184D01*
X73370184Y-49422737D01*
X73274211Y-49575476D01*
X73214631Y-49745745D01*
X73214630Y-49745750D01*
X73194435Y-49924996D01*
X73194435Y-49925003D01*
X73214630Y-50104249D01*
X73214631Y-50104254D01*
X73274211Y-50274523D01*
X73370184Y-50427262D01*
X73497738Y-50554816D01*
X73536018Y-50578869D01*
X73641495Y-50645145D01*
X73650478Y-50650789D01*
X73812549Y-50707500D01*
X73820745Y-50710368D01*
X73820750Y-50710369D01*
X73999996Y-50730565D01*
X74000000Y-50730565D01*
X74000004Y-50730565D01*
X74179249Y-50710369D01*
X74179252Y-50710368D01*
X74179255Y-50710368D01*
X74349522Y-50650789D01*
X74502262Y-50554816D01*
X74629816Y-50427262D01*
X74725789Y-50274522D01*
X74785368Y-50104255D01*
X74793802Y-50029399D01*
X74820868Y-49964985D01*
X74859394Y-49933485D01*
X74940852Y-49890734D01*
X75068183Y-49777929D01*
X75164818Y-49637930D01*
X75225140Y-49478872D01*
X75243053Y-49331342D01*
X75270675Y-49267166D01*
X75278454Y-49258622D01*
X75361605Y-49175473D01*
X75457578Y-49022733D01*
X75517157Y-48852466D01*
X75517158Y-48852460D01*
X75537354Y-48673214D01*
X75537354Y-48673207D01*
X75517158Y-48493961D01*
X75517157Y-48493956D01*
X75495703Y-48432644D01*
X75457578Y-48323689D01*
X75444285Y-48302534D01*
X75387713Y-48212500D01*
X75361605Y-48170949D01*
X75361604Y-48170948D01*
X75357900Y-48165053D01*
X75359034Y-48164340D01*
X75335460Y-48106589D01*
X75348218Y-48037894D01*
X75396091Y-47987002D01*
X75417859Y-47976926D01*
X75476176Y-47956520D01*
X75516429Y-47942436D01*
X75516431Y-47942435D01*
X75669171Y-47846462D01*
X75796725Y-47718908D01*
X75892698Y-47566168D01*
X75952277Y-47395901D01*
X75952278Y-47395895D01*
X75972474Y-47216649D01*
X75972474Y-47216642D01*
X75952278Y-47037396D01*
X75952277Y-47037391D01*
X75911200Y-46919999D01*
X75892698Y-46867124D01*
X75796725Y-46714384D01*
X75669171Y-46586830D01*
X75516431Y-46490857D01*
X75491797Y-46482237D01*
X75435021Y-46441514D01*
X75416811Y-46409167D01*
X75390301Y-46339266D01*
X75364818Y-46272070D01*
X75268183Y-46132071D01*
X75144786Y-46022751D01*
X75140849Y-46019263D01*
X74990226Y-45940210D01*
X74825056Y-45899500D01*
X74654944Y-45899500D01*
X74489773Y-45940210D01*
X74332507Y-46022751D01*
X74331719Y-46021250D01*
X74274084Y-46040257D01*
X74206432Y-46022791D01*
X74201371Y-46019538D01*
X74050226Y-45940210D01*
X73885056Y-45899500D01*
X73714944Y-45899500D01*
X73549773Y-45940210D01*
X73399150Y-46019263D01*
X73271816Y-46132072D01*
X73175182Y-46272068D01*
X73114860Y-46431125D01*
X73114859Y-46431130D01*
X73094355Y-46600000D01*
X72611654Y-46600000D01*
X72623601Y-46501608D01*
X72603096Y-46332736D01*
X72542774Y-46173678D01*
X72446139Y-46033679D01*
X72318808Y-45920874D01*
X72318805Y-45920871D01*
X72168182Y-45841818D01*
X72003012Y-45801108D01*
X71832900Y-45801108D01*
X71667729Y-45841818D01*
X71517106Y-45920871D01*
X71389772Y-46033680D01*
X71293138Y-46173676D01*
X71232816Y-46332733D01*
X71232815Y-46332738D01*
X71212311Y-46501608D01*
X37462376Y-46501608D01*
X37428183Y-46452071D01*
X37300852Y-46339266D01*
X37300849Y-46339263D01*
X37150226Y-46260210D01*
X36985056Y-46219500D01*
X36814944Y-46219500D01*
X36649773Y-46260210D01*
X36499150Y-46339263D01*
X36371816Y-46452072D01*
X36275182Y-46592068D01*
X36214860Y-46751125D01*
X36214859Y-46751130D01*
X36194355Y-46920000D01*
X31505659Y-46920000D01*
X31485063Y-46684592D01*
X31433153Y-46490858D01*
X31423905Y-46456344D01*
X31423904Y-46456343D01*
X31423903Y-46456337D01*
X31324035Y-46242171D01*
X31276075Y-46173676D01*
X31188494Y-46048597D01*
X31021402Y-45881506D01*
X31021401Y-45881505D01*
X30835405Y-45751269D01*
X30791781Y-45696692D01*
X30784588Y-45627193D01*
X30816110Y-45564839D01*
X30835405Y-45548119D01*
X31021082Y-45418105D01*
X31188105Y-45251082D01*
X31323600Y-45057578D01*
X31331795Y-45040003D01*
X37134435Y-45040003D01*
X37154630Y-45219249D01*
X37154631Y-45219254D01*
X37214211Y-45389523D01*
X37286969Y-45505316D01*
X37310184Y-45542262D01*
X37437738Y-45669816D01*
X37455641Y-45681065D01*
X37567369Y-45751269D01*
X37590478Y-45765789D01*
X37691414Y-45801108D01*
X37760745Y-45825368D01*
X37760750Y-45825369D01*
X37939996Y-45845565D01*
X37940000Y-45845565D01*
X37940004Y-45845565D01*
X38119249Y-45825369D01*
X38119252Y-45825368D01*
X38119255Y-45825368D01*
X38289522Y-45765789D01*
X38442262Y-45669816D01*
X38569816Y-45542262D01*
X38665789Y-45389522D01*
X38725368Y-45219255D01*
X38725369Y-45219249D01*
X38745565Y-45040003D01*
X38745565Y-45039996D01*
X38725369Y-44860750D01*
X38725368Y-44860745D01*
X38711832Y-44822061D01*
X38665789Y-44690478D01*
X38658736Y-44679254D01*
X38602333Y-44589489D01*
X38569816Y-44537738D01*
X38442262Y-44410184D01*
X38383463Y-44373238D01*
X38289523Y-44314211D01*
X38119254Y-44254631D01*
X38119249Y-44254630D01*
X37940004Y-44234435D01*
X37939996Y-44234435D01*
X37760750Y-44254630D01*
X37760745Y-44254631D01*
X37590476Y-44314211D01*
X37437737Y-44410184D01*
X37310184Y-44537737D01*
X37214211Y-44690476D01*
X37154631Y-44860745D01*
X37154630Y-44860750D01*
X37134435Y-45039996D01*
X37134435Y-45040003D01*
X31331795Y-45040003D01*
X31423429Y-44843492D01*
X31423432Y-44843486D01*
X31480636Y-44630000D01*
X30583686Y-44630000D01*
X30609493Y-44589844D01*
X30650000Y-44451889D01*
X30650000Y-44308111D01*
X30609493Y-44170156D01*
X30583686Y-44130000D01*
X31480636Y-44130000D01*
X31480635Y-44129999D01*
X31423432Y-43916513D01*
X31423429Y-43916507D01*
X31323600Y-43702422D01*
X31323599Y-43702420D01*
X31188113Y-43508926D01*
X31188108Y-43508920D01*
X31066053Y-43386865D01*
X31032568Y-43325542D01*
X31037552Y-43255850D01*
X31079424Y-43199917D01*
X31110400Y-43183002D01*
X31242331Y-43133796D01*
X31357546Y-43047546D01*
X31443796Y-42932331D01*
X31494091Y-42797483D01*
X31500500Y-42737873D01*
X31500500Y-42610000D01*
X35234355Y-42610000D01*
X35254859Y-42778869D01*
X35254860Y-42778874D01*
X35315182Y-42937931D01*
X35377475Y-43028177D01*
X35411817Y-43077929D01*
X35517505Y-43171560D01*
X35539150Y-43190736D01*
X35684554Y-43267050D01*
X35689775Y-43269790D01*
X35854944Y-43310500D01*
X36025056Y-43310500D01*
X36190225Y-43269790D01*
X36275806Y-43224873D01*
X36340849Y-43190736D01*
X36340850Y-43190734D01*
X36340852Y-43190734D01*
X36468183Y-43077929D01*
X36564818Y-42937930D01*
X36625140Y-42778872D01*
X36626119Y-42770812D01*
X47803676Y-42770812D01*
X47823871Y-42950058D01*
X47823872Y-42950063D01*
X47883452Y-43120332D01*
X47927542Y-43190500D01*
X47979425Y-43273071D01*
X48106979Y-43400625D01*
X48259719Y-43496598D01*
X48301961Y-43511379D01*
X48358738Y-43552100D01*
X48384486Y-43617052D01*
X48371031Y-43685614D01*
X48366002Y-43694393D01*
X48274211Y-43840476D01*
X48214631Y-44010745D01*
X48214630Y-44010750D01*
X48194435Y-44189996D01*
X48194435Y-44190003D01*
X48214630Y-44369249D01*
X48214631Y-44369254D01*
X48274211Y-44539523D01*
X48362011Y-44679255D01*
X48370184Y-44692262D01*
X48497738Y-44819816D01*
X48650478Y-44915789D01*
X48782710Y-44962059D01*
X48820745Y-44975368D01*
X48820750Y-44975369D01*
X48999996Y-44995565D01*
X49000000Y-44995565D01*
X49000004Y-44995565D01*
X49179249Y-44975369D01*
X49179252Y-44975368D01*
X49179255Y-44975368D01*
X49349522Y-44915789D01*
X49413637Y-44875503D01*
X50348500Y-44875503D01*
X50368695Y-45054749D01*
X50368696Y-45054754D01*
X50428276Y-45225023D01*
X50524249Y-45377762D01*
X50651803Y-45505316D01*
X50804543Y-45601289D01*
X50932597Y-45646097D01*
X50974810Y-45660868D01*
X50974815Y-45660869D01*
X51154061Y-45681065D01*
X51154065Y-45681065D01*
X51154069Y-45681065D01*
X51333314Y-45660869D01*
X51333317Y-45660868D01*
X51333320Y-45660868D01*
X51503587Y-45601289D01*
X51656327Y-45505316D01*
X51783881Y-45377762D01*
X51879854Y-45225022D01*
X51939433Y-45054755D01*
X51941095Y-45040003D01*
X51959630Y-44875503D01*
X51959630Y-44875496D01*
X51939434Y-44696250D01*
X51939433Y-44696245D01*
X51923084Y-44649522D01*
X51879854Y-44525978D01*
X51863532Y-44500003D01*
X52264435Y-44500003D01*
X52284630Y-44679249D01*
X52284631Y-44679254D01*
X52344211Y-44849523D01*
X52385849Y-44915789D01*
X52440184Y-45002262D01*
X52567738Y-45129816D01*
X52658080Y-45186582D01*
X52710077Y-45219254D01*
X52720478Y-45225789D01*
X52890745Y-45285368D01*
X52890750Y-45285369D01*
X53069996Y-45305565D01*
X53070000Y-45305565D01*
X53070004Y-45305565D01*
X53208245Y-45289989D01*
X69831019Y-45289989D01*
X69851523Y-45458858D01*
X69851524Y-45458863D01*
X69911846Y-45617920D01*
X69941492Y-45660869D01*
X70008481Y-45757918D01*
X70057233Y-45801108D01*
X70135814Y-45870725D01*
X70268207Y-45940210D01*
X70286439Y-45949779D01*
X70451608Y-45990489D01*
X70621720Y-45990489D01*
X70786889Y-45949779D01*
X70882687Y-45899500D01*
X70937513Y-45870725D01*
X70937514Y-45870723D01*
X70937516Y-45870723D01*
X71064847Y-45757918D01*
X71161482Y-45617919D01*
X71221804Y-45458861D01*
X71242309Y-45289989D01*
X71221804Y-45121117D01*
X71161482Y-44962059D01*
X71139225Y-44929815D01*
X71101731Y-44875496D01*
X71064847Y-44822060D01*
X70937516Y-44709255D01*
X70937513Y-44709252D01*
X70786890Y-44630199D01*
X70621720Y-44589489D01*
X70451608Y-44589489D01*
X70286437Y-44630199D01*
X70135814Y-44709252D01*
X70008480Y-44822061D01*
X69911846Y-44962057D01*
X69851524Y-45121114D01*
X69851523Y-45121119D01*
X69831019Y-45289989D01*
X53208245Y-45289989D01*
X53249249Y-45285369D01*
X53249252Y-45285368D01*
X53249255Y-45285368D01*
X53419522Y-45225789D01*
X53572262Y-45129816D01*
X53699816Y-45002262D01*
X53795789Y-44849522D01*
X53855368Y-44679255D01*
X53858718Y-44649522D01*
X53875565Y-44500003D01*
X53875565Y-44499996D01*
X53855369Y-44320750D01*
X53855368Y-44320745D01*
X53848110Y-44300003D01*
X76554435Y-44300003D01*
X76574630Y-44479249D01*
X76574631Y-44479254D01*
X76634211Y-44649523D01*
X76672713Y-44710798D01*
X76730184Y-44802262D01*
X76857738Y-44929816D01*
X77010478Y-45025789D01*
X77101326Y-45057578D01*
X77180745Y-45085368D01*
X77180750Y-45085369D01*
X77359996Y-45105565D01*
X77360000Y-45105565D01*
X77360004Y-45105565D01*
X77539249Y-45085369D01*
X77539252Y-45085368D01*
X77539255Y-45085368D01*
X77709522Y-45025789D01*
X77862262Y-44929816D01*
X77989816Y-44802262D01*
X78085789Y-44649522D01*
X78145368Y-44479255D01*
X78145369Y-44479249D01*
X78165565Y-44300003D01*
X78165565Y-44299996D01*
X78145369Y-44120750D01*
X78145368Y-44120745D01*
X78128906Y-44073699D01*
X78085789Y-43950478D01*
X77989816Y-43797738D01*
X77862262Y-43670184D01*
X77810930Y-43637930D01*
X77709523Y-43574211D01*
X77539254Y-43514631D01*
X77539249Y-43514630D01*
X77360004Y-43494435D01*
X77359996Y-43494435D01*
X77180750Y-43514630D01*
X77180745Y-43514631D01*
X77010476Y-43574211D01*
X76857737Y-43670184D01*
X76730184Y-43797737D01*
X76634211Y-43950476D01*
X76574631Y-44120745D01*
X76574630Y-44120750D01*
X76554435Y-44299996D01*
X76554435Y-44300003D01*
X53848110Y-44300003D01*
X53809617Y-44189996D01*
X53795789Y-44150478D01*
X53777106Y-44120745D01*
X53756582Y-44088080D01*
X53699816Y-43997738D01*
X53572262Y-43870184D01*
X53537014Y-43848036D01*
X53419523Y-43774211D01*
X53249254Y-43714631D01*
X53249249Y-43714630D01*
X53070004Y-43694435D01*
X53069996Y-43694435D01*
X52890750Y-43714630D01*
X52890745Y-43714631D01*
X52720476Y-43774211D01*
X52567737Y-43870184D01*
X52440184Y-43997737D01*
X52344211Y-44150476D01*
X52284631Y-44320745D01*
X52284630Y-44320750D01*
X52264435Y-44499996D01*
X52264435Y-44500003D01*
X51863532Y-44500003D01*
X51863528Y-44499996D01*
X51783880Y-44373237D01*
X51656327Y-44245684D01*
X51503588Y-44149711D01*
X51333319Y-44090131D01*
X51333314Y-44090130D01*
X51154069Y-44069935D01*
X51154061Y-44069935D01*
X50974815Y-44090130D01*
X50974810Y-44090131D01*
X50804541Y-44149711D01*
X50651802Y-44245684D01*
X50524249Y-44373237D01*
X50428276Y-44525976D01*
X50368696Y-44696245D01*
X50368695Y-44696250D01*
X50348500Y-44875496D01*
X50348500Y-44875503D01*
X49413637Y-44875503D01*
X49502262Y-44819816D01*
X49629816Y-44692262D01*
X49725789Y-44539522D01*
X49785368Y-44369255D01*
X49791570Y-44314211D01*
X49805565Y-44190003D01*
X49805565Y-44189996D01*
X49785369Y-44010750D01*
X49785368Y-44010745D01*
X49737453Y-43873812D01*
X49725789Y-43840478D01*
X49719519Y-43830500D01*
X49684151Y-43774211D01*
X49629816Y-43687738D01*
X49502262Y-43560184D01*
X49489396Y-43552100D01*
X49349521Y-43464210D01*
X49307278Y-43449429D01*
X49250502Y-43408707D01*
X49224754Y-43343755D01*
X49238210Y-43275193D01*
X49243229Y-43266429D01*
X49326569Y-43133797D01*
X49328955Y-43130000D01*
X66304355Y-43130000D01*
X66324859Y-43298869D01*
X66324860Y-43298874D01*
X66385182Y-43457931D01*
X66420378Y-43508920D01*
X66481817Y-43597929D01*
X66580793Y-43685614D01*
X66609150Y-43710736D01*
X66730092Y-43774211D01*
X66759775Y-43789790D01*
X66924944Y-43830500D01*
X67095056Y-43830500D01*
X67260225Y-43789790D01*
X67351587Y-43741839D01*
X67410849Y-43710736D01*
X67410850Y-43710734D01*
X67410852Y-43710734D01*
X67538183Y-43597929D01*
X67634818Y-43457930D01*
X67695140Y-43298872D01*
X67715645Y-43130000D01*
X67695140Y-42961128D01*
X67689394Y-42945978D01*
X67634817Y-42802068D01*
X67591455Y-42739249D01*
X67538183Y-42662071D01*
X67410852Y-42549266D01*
X67410849Y-42549263D01*
X67260226Y-42470210D01*
X67095056Y-42429500D01*
X66924944Y-42429500D01*
X66759773Y-42470210D01*
X66609150Y-42549263D01*
X66481816Y-42662072D01*
X66385182Y-42802068D01*
X66324860Y-42961125D01*
X66324859Y-42961130D01*
X66304355Y-43130000D01*
X49328955Y-43130000D01*
X49335029Y-43120333D01*
X49349867Y-43077929D01*
X49394609Y-42950064D01*
X49395069Y-42945980D01*
X49414806Y-42770812D01*
X49414806Y-42770805D01*
X49394610Y-42591559D01*
X49394609Y-42591554D01*
X49380939Y-42552488D01*
X49335030Y-42421287D01*
X49312724Y-42385788D01*
X49295823Y-42358889D01*
X49239057Y-42268547D01*
X49111503Y-42140993D01*
X49072515Y-42116495D01*
X48958764Y-42045020D01*
X48788495Y-41985440D01*
X48788490Y-41985439D01*
X48609245Y-41965244D01*
X48609237Y-41965244D01*
X48429991Y-41985439D01*
X48429986Y-41985440D01*
X48259717Y-42045020D01*
X48106978Y-42140993D01*
X47979425Y-42268546D01*
X47883452Y-42421285D01*
X47823872Y-42591554D01*
X47823871Y-42591559D01*
X47803676Y-42770805D01*
X47803676Y-42770812D01*
X36626119Y-42770812D01*
X36645645Y-42610000D01*
X36625140Y-42441128D01*
X36624590Y-42439679D01*
X36576685Y-42313361D01*
X36564818Y-42282070D01*
X36468183Y-42142071D01*
X36340852Y-42029266D01*
X36340849Y-42029263D01*
X36190226Y-41950210D01*
X36025056Y-41909500D01*
X35854944Y-41909500D01*
X35689773Y-41950210D01*
X35539150Y-42029263D01*
X35411816Y-42142072D01*
X35315182Y-42282068D01*
X35254860Y-42441125D01*
X35254859Y-42441130D01*
X35234355Y-42610000D01*
X31500500Y-42610000D01*
X31500499Y-40942128D01*
X31494091Y-40882517D01*
X31492293Y-40877697D01*
X31443797Y-40747671D01*
X31443793Y-40747664D01*
X31357547Y-40632455D01*
X31357544Y-40632452D01*
X31242335Y-40546206D01*
X31242328Y-40546202D01*
X31107482Y-40495908D01*
X31107483Y-40495908D01*
X31047883Y-40489501D01*
X31047881Y-40489500D01*
X31047873Y-40489500D01*
X31047864Y-40489500D01*
X29252129Y-40489500D01*
X29252123Y-40489501D01*
X29192516Y-40495908D01*
X29057671Y-40546202D01*
X29057664Y-40546206D01*
X28942455Y-40632452D01*
X28942452Y-40632455D01*
X28856206Y-40747664D01*
X28856202Y-40747671D01*
X28805908Y-40882517D01*
X28799501Y-40942116D01*
X28799501Y-40942123D01*
X28799500Y-40942135D01*
X28799500Y-42737870D01*
X28799501Y-42737876D01*
X28805908Y-42797483D01*
X28856202Y-42932328D01*
X28856206Y-42932335D01*
X28942452Y-43047544D01*
X28942455Y-43047547D01*
X29057664Y-43133793D01*
X29057671Y-43133797D01*
X29057674Y-43133798D01*
X29189598Y-43183002D01*
X29245531Y-43224873D01*
X29269949Y-43290337D01*
X29255098Y-43358610D01*
X29233947Y-43386865D01*
X29111886Y-43508926D01*
X28976400Y-43702420D01*
X28976399Y-43702422D01*
X28876570Y-43916507D01*
X28876567Y-43916513D01*
X28819364Y-44129999D01*
X28819364Y-44130000D01*
X29716314Y-44130000D01*
X29690507Y-44170156D01*
X29650000Y-44308111D01*
X29650000Y-44451889D01*
X29690507Y-44589844D01*
X29716314Y-44630000D01*
X28819364Y-44630000D01*
X28876567Y-44843486D01*
X28876570Y-44843492D01*
X28976399Y-45057578D01*
X29111894Y-45251082D01*
X29278917Y-45418105D01*
X29464595Y-45548119D01*
X29508219Y-45602696D01*
X29515412Y-45672195D01*
X29483890Y-45734549D01*
X29464595Y-45751269D01*
X29278594Y-45881508D01*
X29111505Y-46048597D01*
X28975965Y-46242169D01*
X28975964Y-46242171D01*
X28876098Y-46456335D01*
X28876094Y-46456344D01*
X28814938Y-46684586D01*
X28814936Y-46684596D01*
X28794341Y-46919999D01*
X28794341Y-46920000D01*
X28814936Y-47155403D01*
X28814938Y-47155413D01*
X28876094Y-47383655D01*
X28876096Y-47383659D01*
X28876097Y-47383663D01*
X28930689Y-47500736D01*
X28975965Y-47597830D01*
X28975967Y-47597834D01*
X29111501Y-47791395D01*
X29111506Y-47791402D01*
X29278597Y-47958493D01*
X29278603Y-47958498D01*
X29464158Y-48088425D01*
X29507783Y-48143002D01*
X29514977Y-48212500D01*
X29483454Y-48274855D01*
X29464158Y-48291575D01*
X29278597Y-48421505D01*
X29111505Y-48588597D01*
X28975965Y-48782169D01*
X28975964Y-48782171D01*
X28876098Y-48996335D01*
X28876094Y-48996344D01*
X28814938Y-49224586D01*
X28814936Y-49224596D01*
X28794341Y-49459999D01*
X28794341Y-49460000D01*
X28814936Y-49695403D01*
X28814938Y-49695413D01*
X28876094Y-49923655D01*
X28876096Y-49923659D01*
X28876097Y-49923663D01*
X28895366Y-49964985D01*
X28975965Y-50137830D01*
X28975967Y-50137834D01*
X29111501Y-50331395D01*
X29111506Y-50331402D01*
X29278597Y-50498493D01*
X29278603Y-50498498D01*
X29464158Y-50628425D01*
X29507783Y-50683002D01*
X29514977Y-50752500D01*
X29483454Y-50814855D01*
X29464158Y-50831575D01*
X29278597Y-50961505D01*
X29111505Y-51128597D01*
X28975965Y-51322169D01*
X28975964Y-51322171D01*
X28876098Y-51536335D01*
X28876094Y-51536344D01*
X28814938Y-51764586D01*
X28814936Y-51764596D01*
X28794341Y-51999999D01*
X28794341Y-52000000D01*
X28814936Y-52235403D01*
X28814938Y-52235413D01*
X28876094Y-52463655D01*
X28876096Y-52463659D01*
X28876097Y-52463663D01*
X28949274Y-52620591D01*
X28975965Y-52677830D01*
X28975967Y-52677834D01*
X29111501Y-52871395D01*
X29111506Y-52871402D01*
X29278597Y-53038493D01*
X29278603Y-53038498D01*
X29464158Y-53168425D01*
X29507783Y-53223002D01*
X29514977Y-53292500D01*
X29483454Y-53354855D01*
X29464158Y-53371575D01*
X29278597Y-53501505D01*
X29111505Y-53668597D01*
X28975965Y-53862169D01*
X28975964Y-53862171D01*
X28876098Y-54076335D01*
X28876094Y-54076344D01*
X28814938Y-54304586D01*
X28814936Y-54304596D01*
X28794341Y-54539999D01*
X28794341Y-54540000D01*
X27650500Y-54540000D01*
X27650500Y-39800003D01*
X51514435Y-39800003D01*
X51534630Y-39979249D01*
X51534631Y-39979254D01*
X51594211Y-40149523D01*
X51628838Y-40204631D01*
X51690184Y-40302262D01*
X51817738Y-40429816D01*
X51898565Y-40480603D01*
X51938751Y-40505854D01*
X51970478Y-40525789D01*
X52099132Y-40570807D01*
X52140745Y-40585368D01*
X52140750Y-40585369D01*
X52319996Y-40605565D01*
X52320000Y-40605565D01*
X52320004Y-40605565D01*
X52499249Y-40585369D01*
X52499252Y-40585368D01*
X52499255Y-40585368D01*
X52669522Y-40525789D01*
X52822262Y-40429816D01*
X52949816Y-40302262D01*
X53045789Y-40149522D01*
X53105368Y-39979255D01*
X53108748Y-39949255D01*
X53125565Y-39800003D01*
X53125565Y-39799996D01*
X53122186Y-39770003D01*
X57554435Y-39770003D01*
X57574630Y-39949249D01*
X57574631Y-39949254D01*
X57634211Y-40119523D01*
X57687689Y-40204632D01*
X57730184Y-40272262D01*
X57857738Y-40399816D01*
X57905481Y-40429815D01*
X58010478Y-40495789D01*
X58158591Y-40547616D01*
X58215367Y-40588338D01*
X58234678Y-40623702D01*
X58254211Y-40679522D01*
X58254212Y-40679524D01*
X58297032Y-40747671D01*
X58350184Y-40832262D01*
X58477738Y-40959816D01*
X58568773Y-41017017D01*
X58630478Y-41055789D01*
X58752336Y-41098429D01*
X58809112Y-41139151D01*
X58834860Y-41204104D01*
X58834602Y-41229354D01*
X58817634Y-41379955D01*
X58817634Y-41379962D01*
X58837829Y-41559208D01*
X58837830Y-41559213D01*
X58897410Y-41729482D01*
X58993383Y-41882221D01*
X59120937Y-42009775D01*
X59273677Y-42105748D01*
X59377485Y-42142072D01*
X59443944Y-42165327D01*
X59443949Y-42165328D01*
X59623196Y-42185524D01*
X59623197Y-42185524D01*
X59623197Y-42185523D01*
X59623199Y-42185524D01*
X59640501Y-42183574D01*
X59709323Y-42195627D01*
X59759379Y-42240819D01*
X59762049Y-42245068D01*
X59889603Y-42372622D01*
X59967050Y-42421285D01*
X60037520Y-42465565D01*
X60042343Y-42468595D01*
X60212610Y-42528174D01*
X60212615Y-42528175D01*
X60391861Y-42548371D01*
X60391865Y-42548371D01*
X60391869Y-42548371D01*
X60571114Y-42528175D01*
X60571117Y-42528174D01*
X60571120Y-42528174D01*
X60741387Y-42468595D01*
X60894127Y-42372622D01*
X61021681Y-42245068D01*
X61117654Y-42092328D01*
X61177233Y-41922061D01*
X61177234Y-41922055D01*
X61197430Y-41742809D01*
X61197430Y-41742802D01*
X61188101Y-41660003D01*
X61994435Y-41660003D01*
X62014630Y-41839249D01*
X62014631Y-41839254D01*
X62074211Y-42009523D01*
X62153321Y-42135425D01*
X62170184Y-42162262D01*
X62297738Y-42289816D01*
X62388080Y-42346582D01*
X62442450Y-42380745D01*
X62450478Y-42385789D01*
X62620745Y-42445368D01*
X62620750Y-42445369D01*
X62799996Y-42465565D01*
X62800000Y-42465565D01*
X62800004Y-42465565D01*
X62979249Y-42445369D01*
X62979252Y-42445368D01*
X62979255Y-42445368D01*
X63149522Y-42385789D01*
X63302262Y-42289816D01*
X63429816Y-42162262D01*
X63525789Y-42009522D01*
X63539005Y-41971752D01*
X69702603Y-41971752D01*
X69723107Y-42140621D01*
X69723108Y-42140626D01*
X69783430Y-42299683D01*
X69833777Y-42372622D01*
X69880065Y-42439681D01*
X69985753Y-42533312D01*
X70007398Y-42552488D01*
X70158021Y-42631541D01*
X70158023Y-42631542D01*
X70323192Y-42672252D01*
X70392923Y-42672252D01*
X70459962Y-42691937D01*
X70505717Y-42744741D01*
X70515661Y-42813899D01*
X70486636Y-42877455D01*
X70475150Y-42889067D01*
X70410910Y-42945978D01*
X70314274Y-43085977D01*
X70253952Y-43245034D01*
X70253951Y-43245039D01*
X70233447Y-43413909D01*
X70253951Y-43582778D01*
X70253952Y-43582783D01*
X70314274Y-43741840D01*
X70375473Y-43830500D01*
X70410909Y-43881838D01*
X70510186Y-43969789D01*
X70538242Y-43994645D01*
X70642192Y-44049202D01*
X70688867Y-44073699D01*
X70854036Y-44114409D01*
X71024148Y-44114409D01*
X71189317Y-44073699D01*
X71309265Y-44010745D01*
X71339941Y-43994645D01*
X71339942Y-43994643D01*
X71339944Y-43994643D01*
X71467275Y-43881838D01*
X71467275Y-43881836D01*
X71472889Y-43876864D01*
X71474366Y-43878531D01*
X71524178Y-43847278D01*
X71594044Y-43848036D01*
X71640044Y-43873810D01*
X71655581Y-43887574D01*
X71659150Y-43890736D01*
X71809773Y-43969789D01*
X71809775Y-43969790D01*
X71974944Y-44010500D01*
X72145056Y-44010500D01*
X72310225Y-43969790D01*
X72411746Y-43916507D01*
X72460849Y-43890736D01*
X72460850Y-43890734D01*
X72460852Y-43890734D01*
X72588183Y-43777929D01*
X72684818Y-43637930D01*
X72745140Y-43478872D01*
X72745188Y-43478477D01*
X72745303Y-43478208D01*
X72746935Y-43471589D01*
X72748035Y-43471860D01*
X72772808Y-43414299D01*
X72810659Y-43383623D01*
X72817841Y-43379855D01*
X72885525Y-43319891D01*
X72948755Y-43290171D01*
X73008704Y-43295665D01*
X73077942Y-43319893D01*
X73150740Y-43345367D01*
X73150750Y-43345369D01*
X73329996Y-43365565D01*
X73330000Y-43365565D01*
X73330004Y-43365565D01*
X73509249Y-43345369D01*
X73509252Y-43345368D01*
X73509255Y-43345368D01*
X73679522Y-43285789D01*
X73832262Y-43189816D01*
X73959816Y-43062262D01*
X74055789Y-42909522D01*
X74115368Y-42739255D01*
X74115523Y-42737883D01*
X74135565Y-42560003D01*
X74135565Y-42559996D01*
X74115369Y-42380750D01*
X74115368Y-42380745D01*
X74098029Y-42331192D01*
X74055789Y-42210478D01*
X74046457Y-42195627D01*
X74008630Y-42135425D01*
X73959816Y-42057738D01*
X73832262Y-41930184D01*
X73799344Y-41909500D01*
X73679523Y-41834211D01*
X73509254Y-41774631D01*
X73509249Y-41774630D01*
X73330004Y-41754435D01*
X73329996Y-41754435D01*
X73150750Y-41774630D01*
X73150745Y-41774631D01*
X72980476Y-41834211D01*
X72827737Y-41930184D01*
X72700186Y-42057735D01*
X72700179Y-42057743D01*
X72699036Y-42059564D01*
X72697991Y-42060487D01*
X72695843Y-42063182D01*
X72695370Y-42062805D01*
X72646699Y-42105852D01*
X72577645Y-42116495D01*
X72564374Y-42113982D01*
X72502048Y-42098621D01*
X72502045Y-42098621D01*
X72331933Y-42098621D01*
X72166762Y-42139331D01*
X72016138Y-42218385D01*
X72016136Y-42218387D01*
X71928098Y-42296381D01*
X71864865Y-42326102D01*
X71795602Y-42316918D01*
X71788246Y-42313361D01*
X71656317Y-42244119D01*
X71491147Y-42203409D01*
X71321035Y-42203409D01*
X71321031Y-42203409D01*
X71252929Y-42220194D01*
X71183127Y-42217124D01*
X71126066Y-42176804D01*
X71099861Y-42112034D01*
X71100160Y-42084850D01*
X71102837Y-42062805D01*
X71113893Y-41971752D01*
X71093388Y-41802880D01*
X71033066Y-41643822D01*
X70936431Y-41503823D01*
X70809100Y-41391018D01*
X70809097Y-41391015D01*
X70658474Y-41311962D01*
X70493304Y-41271252D01*
X70323192Y-41271252D01*
X70158021Y-41311962D01*
X70007398Y-41391015D01*
X69880064Y-41503824D01*
X69783430Y-41643820D01*
X69723108Y-41802877D01*
X69723107Y-41802882D01*
X69702603Y-41971752D01*
X63539005Y-41971752D01*
X63585368Y-41839255D01*
X63585369Y-41839249D01*
X63605565Y-41660003D01*
X63605565Y-41659996D01*
X63585369Y-41480750D01*
X63585368Y-41480745D01*
X63553970Y-41391015D01*
X63525789Y-41310478D01*
X63429816Y-41157738D01*
X63302262Y-41030184D01*
X63281307Y-41017017D01*
X63238315Y-40990003D01*
X74874435Y-40990003D01*
X74894630Y-41169249D01*
X74894631Y-41169254D01*
X74954211Y-41339523D01*
X75050184Y-41492262D01*
X75177738Y-41619816D01*
X75330478Y-41715789D01*
X75407697Y-41742809D01*
X75500745Y-41775368D01*
X75500750Y-41775369D01*
X75679996Y-41795565D01*
X75680000Y-41795565D01*
X75680004Y-41795565D01*
X75859249Y-41775369D01*
X75859252Y-41775368D01*
X75859255Y-41775368D01*
X76029522Y-41715789D01*
X76182262Y-41619816D01*
X76309816Y-41492262D01*
X76405789Y-41339522D01*
X76465368Y-41169255D01*
X76471440Y-41115368D01*
X76485565Y-40990003D01*
X76485565Y-40989996D01*
X76465369Y-40810750D01*
X76465368Y-40810745D01*
X76405788Y-40640476D01*
X76314950Y-40495909D01*
X76309816Y-40487738D01*
X76182262Y-40360184D01*
X76134228Y-40330002D01*
X76029523Y-40264211D01*
X75859254Y-40204631D01*
X75859249Y-40204630D01*
X75680004Y-40184435D01*
X75679996Y-40184435D01*
X75500750Y-40204630D01*
X75500745Y-40204631D01*
X75330476Y-40264211D01*
X75177737Y-40360184D01*
X75050184Y-40487737D01*
X74954211Y-40640476D01*
X74894631Y-40810745D01*
X74894630Y-40810750D01*
X74874435Y-40989996D01*
X74874435Y-40990003D01*
X63238315Y-40990003D01*
X63149523Y-40934211D01*
X62979254Y-40874631D01*
X62979249Y-40874630D01*
X62800004Y-40854435D01*
X62799996Y-40854435D01*
X62620750Y-40874630D01*
X62620745Y-40874631D01*
X62450476Y-40934211D01*
X62297737Y-41030184D01*
X62170184Y-41157737D01*
X62074211Y-41310476D01*
X62014631Y-41480745D01*
X62014630Y-41480750D01*
X61994435Y-41659996D01*
X61994435Y-41660003D01*
X61188101Y-41660003D01*
X61177234Y-41563556D01*
X61177233Y-41563551D01*
X61117653Y-41393282D01*
X61021680Y-41240543D01*
X60894127Y-41112990D01*
X60741388Y-41017017D01*
X60571119Y-40957437D01*
X60571114Y-40957436D01*
X60391869Y-40937241D01*
X60391868Y-40937241D01*
X60391866Y-40937241D01*
X60391865Y-40937241D01*
X60374557Y-40939191D01*
X60305735Y-40927134D01*
X60255682Y-40881942D01*
X60253014Y-40877696D01*
X60125461Y-40750143D01*
X59972718Y-40654168D01*
X59850861Y-40611528D01*
X59794085Y-40570807D01*
X59768338Y-40505854D01*
X59768596Y-40480603D01*
X59774319Y-40429816D01*
X59785565Y-40330000D01*
X59781710Y-40295789D01*
X59765369Y-40150750D01*
X59765368Y-40150745D01*
X59748403Y-40102262D01*
X59705789Y-39980478D01*
X59686166Y-39949249D01*
X59609815Y-39827737D01*
X59482262Y-39700184D01*
X59329519Y-39604209D01*
X59253750Y-39577696D01*
X59196974Y-39536975D01*
X59171227Y-39472022D01*
X59184683Y-39403460D01*
X59189706Y-39394691D01*
X59255789Y-39289522D01*
X59315368Y-39119255D01*
X59315369Y-39119249D01*
X59335565Y-38940003D01*
X59335565Y-38939996D01*
X59315369Y-38760750D01*
X59315368Y-38760745D01*
X59255789Y-38590478D01*
X59159816Y-38437738D01*
X59032262Y-38310184D01*
X58879523Y-38214211D01*
X58709254Y-38154631D01*
X58709249Y-38154630D01*
X58530004Y-38134435D01*
X58529996Y-38134435D01*
X58350750Y-38154630D01*
X58350745Y-38154631D01*
X58180476Y-38214211D01*
X58027737Y-38310184D01*
X57900184Y-38437737D01*
X57804211Y-38590476D01*
X57744631Y-38760745D01*
X57744630Y-38760750D01*
X57724435Y-38939996D01*
X57724435Y-38940003D01*
X57744631Y-39119253D01*
X57744632Y-39119258D01*
X57753702Y-39145180D01*
X57757263Y-39214959D01*
X57733611Y-39263440D01*
X57730185Y-39267735D01*
X57634211Y-39420476D01*
X57574631Y-39590745D01*
X57574630Y-39590750D01*
X57554435Y-39769996D01*
X57554435Y-39770003D01*
X53122186Y-39770003D01*
X53105369Y-39620750D01*
X53105368Y-39620745D01*
X53045789Y-39450478D01*
X53027106Y-39420745D01*
X52949815Y-39297737D01*
X52822262Y-39170184D01*
X52669523Y-39074211D01*
X52499254Y-39014631D01*
X52499249Y-39014630D01*
X52320004Y-38994435D01*
X52319996Y-38994435D01*
X52140750Y-39014630D01*
X52140745Y-39014631D01*
X51970476Y-39074211D01*
X51817737Y-39170184D01*
X51690184Y-39297737D01*
X51594211Y-39450476D01*
X51534631Y-39620745D01*
X51534630Y-39620750D01*
X51514435Y-39799996D01*
X51514435Y-39800003D01*
X27650500Y-39800003D01*
X27650500Y-33950000D01*
X28884341Y-33950000D01*
X28904936Y-34185403D01*
X28904938Y-34185413D01*
X28966094Y-34413655D01*
X28966096Y-34413659D01*
X28966097Y-34413663D01*
X28988077Y-34460798D01*
X29065964Y-34627828D01*
X29065965Y-34627830D01*
X29201505Y-34821402D01*
X29368597Y-34988494D01*
X29562169Y-35124034D01*
X29562171Y-35124035D01*
X29776337Y-35223903D01*
X30004592Y-35285063D01*
X30181032Y-35300499D01*
X30181033Y-35300500D01*
X30181034Y-35300500D01*
X30298967Y-35300500D01*
X30298967Y-35300499D01*
X30475408Y-35285063D01*
X30703663Y-35223903D01*
X30917829Y-35124035D01*
X31055205Y-35027844D01*
X36050000Y-35027844D01*
X36056401Y-35087372D01*
X36056403Y-35087379D01*
X36106645Y-35222086D01*
X36106649Y-35222093D01*
X36192809Y-35337187D01*
X36192812Y-35337190D01*
X36307906Y-35423350D01*
X36307913Y-35423354D01*
X36442620Y-35473596D01*
X36442627Y-35473598D01*
X36502155Y-35479999D01*
X36502172Y-35480000D01*
X37150000Y-35480000D01*
X37150000Y-34565501D01*
X37257685Y-34614680D01*
X37364237Y-34630000D01*
X37435763Y-34630000D01*
X37542315Y-34614680D01*
X37650000Y-34565501D01*
X37650000Y-35480000D01*
X38297828Y-35480000D01*
X38297844Y-35479999D01*
X38357372Y-35473598D01*
X38357379Y-35473596D01*
X38492086Y-35423354D01*
X38492093Y-35423350D01*
X38607187Y-35337190D01*
X38607190Y-35337187D01*
X38693350Y-35222093D01*
X38693354Y-35222086D01*
X38742422Y-35090529D01*
X38784293Y-35034595D01*
X38849757Y-35010178D01*
X38918030Y-35025030D01*
X38946285Y-35046181D01*
X39068599Y-35168495D01*
X39145135Y-35222086D01*
X39262165Y-35304032D01*
X39262167Y-35304033D01*
X39262170Y-35304035D01*
X39476337Y-35403903D01*
X39704592Y-35465063D01*
X39875319Y-35480000D01*
X39939999Y-35485659D01*
X39940000Y-35485659D01*
X39940001Y-35485659D01*
X40004681Y-35480000D01*
X40175408Y-35465063D01*
X40403663Y-35403903D01*
X40617830Y-35304035D01*
X40811401Y-35168495D01*
X40978495Y-35001401D01*
X41104532Y-34821402D01*
X41108425Y-34815842D01*
X41163002Y-34772217D01*
X41232500Y-34765023D01*
X41294855Y-34796546D01*
X41311575Y-34815842D01*
X41441500Y-35001395D01*
X41441505Y-35001401D01*
X41608599Y-35168495D01*
X41685135Y-35222086D01*
X41802165Y-35304032D01*
X41802167Y-35304033D01*
X41802170Y-35304035D01*
X42016337Y-35403903D01*
X42244592Y-35465063D01*
X42415319Y-35480000D01*
X42479999Y-35485659D01*
X42480000Y-35485659D01*
X42480001Y-35485659D01*
X42544681Y-35480000D01*
X42715408Y-35465063D01*
X42943663Y-35403903D01*
X43157830Y-35304035D01*
X43351401Y-35168495D01*
X43518495Y-35001401D01*
X43644532Y-34821402D01*
X43648425Y-34815842D01*
X43703002Y-34772217D01*
X43772500Y-34765023D01*
X43834855Y-34796546D01*
X43851575Y-34815842D01*
X43981500Y-35001395D01*
X43981505Y-35001401D01*
X44148599Y-35168495D01*
X44225135Y-35222086D01*
X44342165Y-35304032D01*
X44342167Y-35304033D01*
X44342170Y-35304035D01*
X44556337Y-35403903D01*
X44784592Y-35465063D01*
X44955319Y-35480000D01*
X45019999Y-35485659D01*
X45020000Y-35485659D01*
X45020001Y-35485659D01*
X45084681Y-35480000D01*
X45255408Y-35465063D01*
X45483663Y-35403903D01*
X45697830Y-35304035D01*
X45891401Y-35168495D01*
X46058495Y-35001401D01*
X46184532Y-34821402D01*
X46188425Y-34815842D01*
X46243002Y-34772217D01*
X46312500Y-34765023D01*
X46374855Y-34796546D01*
X46391575Y-34815842D01*
X46521500Y-35001395D01*
X46521505Y-35001401D01*
X46688599Y-35168495D01*
X46765135Y-35222086D01*
X46882165Y-35304032D01*
X46882167Y-35304033D01*
X46882170Y-35304035D01*
X47096337Y-35403903D01*
X47324592Y-35465063D01*
X47495319Y-35480000D01*
X47559999Y-35485659D01*
X47560000Y-35485659D01*
X47560001Y-35485659D01*
X47624681Y-35480000D01*
X47795408Y-35465063D01*
X48023663Y-35403903D01*
X48237830Y-35304035D01*
X48431401Y-35168495D01*
X48598495Y-35001401D01*
X48724532Y-34821402D01*
X48728425Y-34815842D01*
X48783002Y-34772217D01*
X48852500Y-34765023D01*
X48914855Y-34796546D01*
X48931575Y-34815842D01*
X49061500Y-35001395D01*
X49061505Y-35001401D01*
X49228599Y-35168495D01*
X49305135Y-35222086D01*
X49422165Y-35304032D01*
X49422167Y-35304033D01*
X49422170Y-35304035D01*
X49636337Y-35403903D01*
X49864592Y-35465063D01*
X50035319Y-35480000D01*
X50099999Y-35485659D01*
X50100000Y-35485659D01*
X50100001Y-35485659D01*
X50164681Y-35480000D01*
X50335408Y-35465063D01*
X50563663Y-35403903D01*
X50777830Y-35304035D01*
X50971401Y-35168495D01*
X51138495Y-35001401D01*
X51264532Y-34821402D01*
X51268425Y-34815842D01*
X51323002Y-34772217D01*
X51392500Y-34765023D01*
X51454855Y-34796546D01*
X51471575Y-34815842D01*
X51601500Y-35001395D01*
X51601505Y-35001401D01*
X51768599Y-35168495D01*
X51845135Y-35222086D01*
X51962165Y-35304032D01*
X51962167Y-35304033D01*
X51962170Y-35304035D01*
X52176337Y-35403903D01*
X52404592Y-35465063D01*
X52575319Y-35480000D01*
X52639999Y-35485659D01*
X52640000Y-35485659D01*
X52640001Y-35485659D01*
X52704681Y-35480000D01*
X52875408Y-35465063D01*
X53103663Y-35403903D01*
X53317830Y-35304035D01*
X53511401Y-35168495D01*
X53678495Y-35001401D01*
X53804532Y-34821402D01*
X53808425Y-34815842D01*
X53863002Y-34772217D01*
X53932500Y-34765023D01*
X53994855Y-34796546D01*
X54011575Y-34815842D01*
X54141500Y-35001395D01*
X54141505Y-35001401D01*
X54308599Y-35168495D01*
X54385135Y-35222086D01*
X54502165Y-35304032D01*
X54502167Y-35304033D01*
X54502170Y-35304035D01*
X54716337Y-35403903D01*
X54944592Y-35465063D01*
X55115319Y-35480000D01*
X55179999Y-35485659D01*
X55180000Y-35485659D01*
X55180001Y-35485659D01*
X55244681Y-35480000D01*
X55415408Y-35465063D01*
X55643663Y-35403903D01*
X55857830Y-35304035D01*
X56051401Y-35168495D01*
X56218495Y-35001401D01*
X56344532Y-34821402D01*
X56348425Y-34815842D01*
X56403002Y-34772217D01*
X56472500Y-34765023D01*
X56534855Y-34796546D01*
X56551575Y-34815842D01*
X56681500Y-35001395D01*
X56681505Y-35001401D01*
X56848599Y-35168495D01*
X56925135Y-35222086D01*
X57042165Y-35304032D01*
X57042167Y-35304033D01*
X57042170Y-35304035D01*
X57256337Y-35403903D01*
X57484592Y-35465063D01*
X57655319Y-35480000D01*
X57719999Y-35485659D01*
X57720000Y-35485659D01*
X57720001Y-35485659D01*
X57784681Y-35480000D01*
X57955408Y-35465063D01*
X58183663Y-35403903D01*
X58397830Y-35304035D01*
X58591401Y-35168495D01*
X58758495Y-35001401D01*
X58884532Y-34821402D01*
X58888425Y-34815842D01*
X58943002Y-34772217D01*
X59012500Y-34765023D01*
X59074855Y-34796546D01*
X59091575Y-34815842D01*
X59221500Y-35001395D01*
X59221505Y-35001401D01*
X59388599Y-35168495D01*
X59465135Y-35222086D01*
X59582165Y-35304032D01*
X59582167Y-35304033D01*
X59582170Y-35304035D01*
X59796337Y-35403903D01*
X60024592Y-35465063D01*
X60195319Y-35480000D01*
X60259999Y-35485659D01*
X60260000Y-35485659D01*
X60260001Y-35485659D01*
X60324681Y-35480000D01*
X60495408Y-35465063D01*
X60723663Y-35403903D01*
X60937830Y-35304035D01*
X61131401Y-35168495D01*
X61298495Y-35001401D01*
X61424532Y-34821402D01*
X61428425Y-34815842D01*
X61483002Y-34772217D01*
X61552500Y-34765023D01*
X61614855Y-34796546D01*
X61631575Y-34815842D01*
X61761500Y-35001395D01*
X61761505Y-35001401D01*
X61928599Y-35168495D01*
X62005135Y-35222086D01*
X62122165Y-35304032D01*
X62122167Y-35304033D01*
X62122170Y-35304035D01*
X62336337Y-35403903D01*
X62564592Y-35465063D01*
X62735319Y-35480000D01*
X62799999Y-35485659D01*
X62800000Y-35485659D01*
X62800001Y-35485659D01*
X62864681Y-35480000D01*
X63035408Y-35465063D01*
X63263663Y-35403903D01*
X63477830Y-35304035D01*
X63671401Y-35168495D01*
X63838495Y-35001401D01*
X63974035Y-34807830D01*
X64073903Y-34593663D01*
X64135063Y-34365408D01*
X64155659Y-34130000D01*
X64135063Y-33894592D01*
X64073903Y-33666337D01*
X63974035Y-33452171D01*
X63968425Y-33444158D01*
X63838494Y-33258597D01*
X63671402Y-33091506D01*
X63671395Y-33091501D01*
X63477834Y-32955967D01*
X63477830Y-32955965D01*
X63382485Y-32911505D01*
X63263663Y-32856097D01*
X63263659Y-32856096D01*
X63263655Y-32856094D01*
X63035413Y-32794938D01*
X63035403Y-32794936D01*
X62800001Y-32774341D01*
X62799999Y-32774341D01*
X62564596Y-32794936D01*
X62564586Y-32794938D01*
X62336344Y-32856094D01*
X62336335Y-32856098D01*
X62122171Y-32955964D01*
X62122169Y-32955965D01*
X61928597Y-33091505D01*
X61761505Y-33258597D01*
X61631575Y-33444158D01*
X61576998Y-33487783D01*
X61507500Y-33494977D01*
X61445145Y-33463454D01*
X61428425Y-33444158D01*
X61298494Y-33258597D01*
X61131402Y-33091506D01*
X61131395Y-33091501D01*
X60937834Y-32955967D01*
X60937830Y-32955965D01*
X60842485Y-32911505D01*
X60723663Y-32856097D01*
X60723659Y-32856096D01*
X60723655Y-32856094D01*
X60495413Y-32794938D01*
X60495403Y-32794936D01*
X60260001Y-32774341D01*
X60259999Y-32774341D01*
X60024596Y-32794936D01*
X60024586Y-32794938D01*
X59796344Y-32856094D01*
X59796335Y-32856098D01*
X59582171Y-32955964D01*
X59582169Y-32955965D01*
X59388597Y-33091505D01*
X59221505Y-33258597D01*
X59091575Y-33444158D01*
X59036998Y-33487783D01*
X58967500Y-33494977D01*
X58905145Y-33463454D01*
X58888425Y-33444158D01*
X58758494Y-33258597D01*
X58591402Y-33091506D01*
X58591395Y-33091501D01*
X58397834Y-32955967D01*
X58397830Y-32955965D01*
X58302485Y-32911505D01*
X58183663Y-32856097D01*
X58183659Y-32856096D01*
X58183655Y-32856094D01*
X57955413Y-32794938D01*
X57955403Y-32794936D01*
X57720001Y-32774341D01*
X57719999Y-32774341D01*
X57484596Y-32794936D01*
X57484586Y-32794938D01*
X57256344Y-32856094D01*
X57256335Y-32856098D01*
X57042171Y-32955964D01*
X57042169Y-32955965D01*
X56848597Y-33091505D01*
X56681505Y-33258597D01*
X56551575Y-33444158D01*
X56496998Y-33487783D01*
X56427500Y-33494977D01*
X56365145Y-33463454D01*
X56348425Y-33444158D01*
X56218494Y-33258597D01*
X56051402Y-33091506D01*
X56051395Y-33091501D01*
X55857834Y-32955967D01*
X55857830Y-32955965D01*
X55762485Y-32911505D01*
X55643663Y-32856097D01*
X55643659Y-32856096D01*
X55643655Y-32856094D01*
X55415413Y-32794938D01*
X55415403Y-32794936D01*
X55180001Y-32774341D01*
X55179999Y-32774341D01*
X54944596Y-32794936D01*
X54944586Y-32794938D01*
X54716344Y-32856094D01*
X54716335Y-32856098D01*
X54502171Y-32955964D01*
X54502169Y-32955965D01*
X54308597Y-33091505D01*
X54141505Y-33258597D01*
X54011575Y-33444158D01*
X53956998Y-33487783D01*
X53887500Y-33494977D01*
X53825145Y-33463454D01*
X53808425Y-33444158D01*
X53678494Y-33258597D01*
X53511402Y-33091506D01*
X53511395Y-33091501D01*
X53317834Y-32955967D01*
X53317830Y-32955965D01*
X53222485Y-32911505D01*
X53103663Y-32856097D01*
X53103659Y-32856096D01*
X53103655Y-32856094D01*
X52875413Y-32794938D01*
X52875403Y-32794936D01*
X52640001Y-32774341D01*
X52639999Y-32774341D01*
X52404596Y-32794936D01*
X52404586Y-32794938D01*
X52176344Y-32856094D01*
X52176335Y-32856098D01*
X51962171Y-32955964D01*
X51962169Y-32955965D01*
X51768597Y-33091505D01*
X51601505Y-33258597D01*
X51471575Y-33444158D01*
X51416998Y-33487783D01*
X51347500Y-33494977D01*
X51285145Y-33463454D01*
X51268425Y-33444158D01*
X51138494Y-33258597D01*
X50971402Y-33091506D01*
X50971395Y-33091501D01*
X50777834Y-32955967D01*
X50777830Y-32955965D01*
X50682485Y-32911505D01*
X50563663Y-32856097D01*
X50563659Y-32856096D01*
X50563655Y-32856094D01*
X50335413Y-32794938D01*
X50335403Y-32794936D01*
X50100001Y-32774341D01*
X50099999Y-32774341D01*
X49864596Y-32794936D01*
X49864586Y-32794938D01*
X49636344Y-32856094D01*
X49636335Y-32856098D01*
X49422171Y-32955964D01*
X49422169Y-32955965D01*
X49228597Y-33091505D01*
X49061505Y-33258597D01*
X48931575Y-33444158D01*
X48876998Y-33487783D01*
X48807500Y-33494977D01*
X48745145Y-33463454D01*
X48728425Y-33444158D01*
X48598494Y-33258597D01*
X48431402Y-33091506D01*
X48431395Y-33091501D01*
X48237834Y-32955967D01*
X48237830Y-32955965D01*
X48142485Y-32911505D01*
X48023663Y-32856097D01*
X48023659Y-32856096D01*
X48023655Y-32856094D01*
X47795413Y-32794938D01*
X47795403Y-32794936D01*
X47560001Y-32774341D01*
X47559999Y-32774341D01*
X47324596Y-32794936D01*
X47324586Y-32794938D01*
X47096344Y-32856094D01*
X47096335Y-32856098D01*
X46882171Y-32955964D01*
X46882169Y-32955965D01*
X46688597Y-33091505D01*
X46521505Y-33258597D01*
X46391575Y-33444158D01*
X46336998Y-33487783D01*
X46267500Y-33494977D01*
X46205145Y-33463454D01*
X46188425Y-33444158D01*
X46058494Y-33258597D01*
X45891402Y-33091506D01*
X45891395Y-33091501D01*
X45697834Y-32955967D01*
X45697830Y-32955965D01*
X45602485Y-32911505D01*
X45483663Y-32856097D01*
X45483659Y-32856096D01*
X45483655Y-32856094D01*
X45255413Y-32794938D01*
X45255403Y-32794936D01*
X45020001Y-32774341D01*
X45019999Y-32774341D01*
X44784596Y-32794936D01*
X44784586Y-32794938D01*
X44556344Y-32856094D01*
X44556335Y-32856098D01*
X44342171Y-32955964D01*
X44342169Y-32955965D01*
X44148597Y-33091505D01*
X43981505Y-33258597D01*
X43851575Y-33444158D01*
X43796998Y-33487783D01*
X43727500Y-33494977D01*
X43665145Y-33463454D01*
X43648425Y-33444158D01*
X43518494Y-33258597D01*
X43351402Y-33091506D01*
X43351395Y-33091501D01*
X43157834Y-32955967D01*
X43157830Y-32955965D01*
X43062485Y-32911505D01*
X42943663Y-32856097D01*
X42943659Y-32856096D01*
X42943655Y-32856094D01*
X42715413Y-32794938D01*
X42715403Y-32794936D01*
X42480001Y-32774341D01*
X42479999Y-32774341D01*
X42244596Y-32794936D01*
X42244586Y-32794938D01*
X42016344Y-32856094D01*
X42016335Y-32856098D01*
X41802171Y-32955964D01*
X41802169Y-32955965D01*
X41608597Y-33091505D01*
X41441505Y-33258597D01*
X41311575Y-33444158D01*
X41256998Y-33487783D01*
X41187500Y-33494977D01*
X41125145Y-33463454D01*
X41108425Y-33444158D01*
X40978494Y-33258597D01*
X40811402Y-33091506D01*
X40811395Y-33091501D01*
X40617834Y-32955967D01*
X40617830Y-32955965D01*
X40522485Y-32911505D01*
X40403663Y-32856097D01*
X40403659Y-32856096D01*
X40403655Y-32856094D01*
X40175413Y-32794938D01*
X40175403Y-32794936D01*
X39940001Y-32774341D01*
X39939999Y-32774341D01*
X39704596Y-32794936D01*
X39704586Y-32794938D01*
X39476344Y-32856094D01*
X39476335Y-32856098D01*
X39262171Y-32955964D01*
X39262169Y-32955965D01*
X39068600Y-33091503D01*
X38946284Y-33213819D01*
X38884961Y-33247303D01*
X38815269Y-33242319D01*
X38759336Y-33200447D01*
X38742421Y-33169470D01*
X38693354Y-33037913D01*
X38693350Y-33037906D01*
X38607190Y-32922812D01*
X38607187Y-32922809D01*
X38492093Y-32836649D01*
X38492086Y-32836645D01*
X38357379Y-32786403D01*
X38357372Y-32786401D01*
X38297844Y-32780000D01*
X37650000Y-32780000D01*
X37650000Y-33694498D01*
X37542315Y-33645320D01*
X37435763Y-33630000D01*
X37364237Y-33630000D01*
X37257685Y-33645320D01*
X37150000Y-33694498D01*
X37150000Y-32780000D01*
X36502155Y-32780000D01*
X36442627Y-32786401D01*
X36442620Y-32786403D01*
X36307913Y-32836645D01*
X36307906Y-32836649D01*
X36192812Y-32922809D01*
X36192809Y-32922812D01*
X36106649Y-33037906D01*
X36106645Y-33037913D01*
X36056403Y-33172620D01*
X36056401Y-33172627D01*
X36050000Y-33232155D01*
X36050000Y-33880000D01*
X36966314Y-33880000D01*
X36940507Y-33920156D01*
X36900000Y-34058111D01*
X36900000Y-34201889D01*
X36940507Y-34339844D01*
X36966314Y-34380000D01*
X36050000Y-34380000D01*
X36050000Y-35027844D01*
X31055205Y-35027844D01*
X31111401Y-34988495D01*
X31278495Y-34821401D01*
X31414035Y-34627830D01*
X31513903Y-34413663D01*
X31575063Y-34185408D01*
X31595659Y-33950000D01*
X31575063Y-33714592D01*
X31516218Y-33494977D01*
X31513905Y-33486344D01*
X31513904Y-33486343D01*
X31513903Y-33486337D01*
X31414035Y-33272171D01*
X31414034Y-33272169D01*
X31278494Y-33078597D01*
X31111402Y-32911505D01*
X30917830Y-32775965D01*
X30917828Y-32775964D01*
X30810746Y-32726031D01*
X30703663Y-32676097D01*
X30703659Y-32676096D01*
X30703655Y-32676094D01*
X30475413Y-32614938D01*
X30475403Y-32614936D01*
X30298967Y-32599500D01*
X30298966Y-32599500D01*
X30181034Y-32599500D01*
X30181033Y-32599500D01*
X30004596Y-32614936D01*
X30004586Y-32614938D01*
X29776344Y-32676094D01*
X29776335Y-32676098D01*
X29562171Y-32775964D01*
X29562169Y-32775965D01*
X29368597Y-32911505D01*
X29201506Y-33078597D01*
X29201501Y-33078604D01*
X29065967Y-33272165D01*
X29065965Y-33272169D01*
X28966098Y-33486335D01*
X28966094Y-33486344D01*
X28904938Y-33714586D01*
X28904936Y-33714596D01*
X28884341Y-33949999D01*
X28884341Y-33950000D01*
X27650500Y-33950000D01*
X27650500Y-31624500D01*
X27670185Y-31557461D01*
X27722989Y-31511706D01*
X27774500Y-31500500D01*
X95144154Y-31500500D01*
X95211193Y-31520185D01*
G37*
G04 #@! TD.AperFunction*
M02*
